<svg version="1.1" id="Layer_1" xmlns="http://www.w3.org/2000/svg" xmlns:xlink="http://www.w3.org/1999/xlink" x="0px" y="0px"
	 width="100%" viewBox="0 0 128 128" enable-background="new 0 0 128 128" xml:space="preserve">
<path fill="#000000" opacity="1.000000" stroke="none" 
	d="
M129.000000,101.000000 
	C129.000000,110.313759 129.000000,119.627510 129.000000,128.970642 
	C86.442429,128.970642 43.884827,128.970642 1.000000,128.970642 
	C1.000000,111.647141 1.000000,94.292229 1.250496,76.131645 
	C4.508050,78.236122 7.605280,80.744774 12.289708,80.058609 
	C14.726295,79.701706 17.253035,79.960274 19.858330,80.287277 
	C23.914948,83.759727 27.404387,88.025414 31.879122,89.783966 
	C42.510277,93.961967 53.902500,91.613762 65.453979,91.921219 
	C73.380699,92.004135 80.858925,92.309525 88.303299,91.937462 
	C97.524742,91.476601 105.692047,88.585327 110.991974,79.895935 
	C114.629440,80.008286 117.788643,80.045868 120.967316,80.543304 
	C120.990524,84.164268 121.065796,87.327217 120.984230,90.486122 
	C120.763206,99.046600 114.047112,105.780922 105.485191,105.977882 
	C101.328804,106.073494 97.167717,105.964478 92.969742,105.594254 
	C92.148895,104.203934 91.528915,102.972061 90.556023,102.166283 
	C87.138344,99.335625 74.654404,99.027359 71.061966,101.559799 
	C64.946808,105.870605 65.021812,114.877159 71.203293,118.526360 
	C77.571274,122.285675 89.372406,119.895493 94.489273,113.938622 
	C97.947365,113.981941 100.949593,113.839439 103.930870,114.028145 
	C113.256126,114.618416 120.572319,111.171989 125.996063,103.549538 
	C126.734077,102.512344 127.986023,101.840836 129.000000,101.000000 
z"/>
<path fill="#000000" opacity="1.000000" stroke="none" 
	d="
M0.999999,47.000000 
	C1.000000,31.697212 1.000000,16.394423 1.000000,1.045817 
	C43.551086,1.045817 86.102234,1.045817 129.000000,1.045817 
	C129.000000,16.019117 129.000000,31.040899 128.756866,46.864197 
	C124.302521,42.112518 118.378456,41.415001 112.035065,41.400444 
	C112.007774,34.618023 112.337593,28.264271 111.792053,21.986591 
	C111.614189,19.939856 109.395149,16.743755 107.686348,16.437841 
	C104.311234,15.833621 103.103371,18.863588 103.014717,22.014463 
	C102.967941,23.677036 102.921196,25.339607 102.564011,26.886665 
	C92.338051,15.613222 79.699364,10.562219 64.556778,10.082922 
	C60.323009,10.577950 56.490002,10.983894 52.728184,11.742764 
	C42.436375,13.818928 34.365807,19.706160 27.102240,26.573784 
	C27.026443,25.143995 26.946859,24.140642 27.007139,23.145760 
	C27.223711,19.571260 25.965193,16.348267 22.260290,16.295574 
	C18.569824,16.243088 17.951296,19.623405 17.981661,22.878819 
	C18.040705,29.209101 17.961535,35.540672 17.494293,41.927612 
	C12.332933,41.825211 7.598462,41.534794 3.714683,45.059185 
	C2.896487,45.801662 1.909312,46.357929 0.999999,47.000000 
z"/>
<path fill="#4894FF" opacity="1.000000" stroke="none" 
	d="
M0.999999,47.468655 
	C1.909312,46.357929 2.896487,45.801662 3.714683,45.059185 
	C7.598462,41.534794 12.332933,41.825211 17.729080,41.995014 
	C18.409193,42.006516 18.895355,42.061241 18.869850,42.441677 
	C15.319088,55.287174 13.767413,67.704666 19.739050,79.940819 
	C17.253035,79.960274 14.726295,79.701706 12.289708,80.058609 
	C7.605280,80.744774 4.508050,78.236122 1.250496,75.662987 
	C1.000000,66.645767 1.000000,57.291542 0.999999,47.468655 
z"/>
<path fill="#525CDD" opacity="1.000000" stroke="none" 
	d="
M112.051826,41.858696 
	C118.378456,41.415001 124.302521,42.112518 128.756866,47.332855 
	C129.000000,55.020901 129.000000,63.041798 128.746185,71.749420 
	C125.977539,74.985245 123.462700,77.534348 120.947853,80.083450 
	C117.788643,80.045868 114.629440,80.008286 111.131546,79.536057 
	C116.276299,66.797287 114.693863,54.422119 111.390503,42.002476 
	C111.615326,41.977570 112.051826,41.858696 112.051826,41.858696 
z"/>
<path fill="#00429D" opacity="1.000000" stroke="none" 
	d="
M120.967316,80.543304 
	C123.462700,77.534348 125.977539,74.985245 128.746185,72.218071 
	C129.000000,81.354225 129.000000,90.708458 129.000000,100.531342 
	C127.986023,101.840836 126.734077,102.512344 125.996063,103.549538 
	C120.572319,111.171989 113.256126,114.618416 103.930870,114.028145 
	C100.949593,113.839439 97.947365,113.981941 94.471649,113.530334 
	C93.661980,110.707870 93.335365,108.327988 93.008759,105.948105 
	C97.167717,105.964478 101.328804,106.073494 105.485191,105.977882 
	C114.047112,105.780922 120.763206,99.046600 120.984230,90.486122 
	C121.065796,87.327217 120.990524,84.164268 120.967316,80.543304 
z"/>
<path fill="#D7E3F0" opacity="1.000000" stroke="none" 
	d="
M111.165672,42.027382 
	C114.693863,54.422119 116.276299,66.797287 110.653290,79.461288 
	C105.692047,88.585327 97.524742,91.476601 88.303299,91.937462 
	C80.858925,92.309525 73.380699,92.004135 65.457779,91.469833 
	C65.010147,87.280983 65.022224,83.621574 65.499588,79.971352 
	C70.775185,79.982086 75.587189,80.066811 80.395462,79.968811 
	C92.348289,79.725189 101.780342,70.809868 102.851784,58.840630 
	C103.795204,48.301674 96.142639,37.921413 84.878677,35.915504 
	C78.431099,34.767300 71.684578,35.297791 65.056503,34.599556 
	C65.023575,26.136026 65.006798,18.145435 64.990021,10.154844 
	C79.699364,10.562219 92.338051,15.613222 102.687698,27.218407 
	C105.803093,32.452904 108.484383,37.240143 111.165672,42.027382 
z"/>
<path fill="#EFF5FA" opacity="1.000000" stroke="none" 
	d="
M64.556778,10.082922 
	C65.006798,18.145435 65.023575,26.136026 65.068680,34.589176 
	C65.096992,35.051735 65.086540,35.086285 64.610168,35.068623 
	C59.143925,35.044495 54.151058,34.923676 49.164791,35.054375 
	C37.244801,35.366810 26.859097,46.084576 27.062325,57.735550 
	C27.269320,69.602425 37.155212,79.640282 49.088020,79.950035 
	C54.406750,80.088104 59.732452,79.957352 65.056290,79.963898 
	C65.057594,79.979187 65.034309,79.962173 65.034302,79.962173 
	C65.022224,83.621574 65.010147,87.280983 64.994263,91.391769 
	C53.902500,91.613762 42.510277,93.961967 31.879122,89.783966 
	C27.404387,88.025414 23.914948,83.759727 19.858330,80.287277 
	C13.767413,67.704666 15.319088,55.287174 19.060337,42.135887 
	C21.905092,36.634476 24.533854,31.819290 27.162615,27.004107 
	C34.365807,19.706160 42.436375,13.818928 52.728184,11.742764 
	C56.490002,10.983894 60.323009,10.577950 64.556778,10.082922 
z"/>
<path fill="#00347B" opacity="1.000000" stroke="none" 
	d="
M92.969742,105.594254 
	C93.335365,108.327988 93.661980,110.707870 94.006203,113.496048 
	C89.372406,119.895493 77.571274,122.285675 71.203293,118.526360 
	C65.021812,114.877159 64.946808,105.870605 71.061966,101.559799 
	C74.654404,99.027359 87.138344,99.335625 90.556023,102.166283 
	C91.528915,102.972061 92.148895,104.203934 92.969742,105.594254 
z"/>
<path fill="#02449E" opacity="1.000000" stroke="none" 
	d="
M27.102240,26.573784 
	C24.533854,31.819290 21.905092,36.634476 19.085842,41.755447 
	C18.895355,42.061241 18.409193,42.006516 18.174408,41.939110 
	C17.961535,35.540672 18.040705,29.209101 17.981661,22.878819 
	C17.951296,19.623405 18.569824,16.243088 22.260290,16.295574 
	C25.965193,16.348267 27.223711,19.571260 27.007139,23.145760 
	C26.946859,24.140642 27.026443,25.143995 27.102240,26.573784 
z"/>
<path fill="#02357C" opacity="1.000000" stroke="none" 
	d="
M111.390503,42.002476 
	C108.484383,37.240143 105.803093,32.452904 102.998116,27.333923 
	C102.921196,25.339607 102.967941,23.677036 103.014717,22.014463 
	C103.103371,18.863588 104.311234,15.833621 107.686348,16.437841 
	C109.395149,16.743755 111.614189,19.939856 111.792053,21.986591 
	C112.337593,28.264271 112.007774,34.618023 112.035065,41.400444 
	C112.051826,41.858696 111.615326,41.977570 111.390503,42.002476 
z"/>
<path fill="#A0B6DB" opacity="1.000000" stroke="none" 
	d="
M65.084824,35.062119 
	C71.684578,35.297791 78.431099,34.767300 84.878677,35.915504 
	C96.142639,37.921413 103.795204,48.301674 102.851784,58.840630 
	C101.780342,70.809868 92.348289,79.725189 80.395462,79.968811 
	C75.587189,80.066811 70.775185,79.982086 65.499596,79.971352 
	C65.034309,79.962173 65.057594,79.979187 65.048294,79.526009 
	C65.040016,77.018440 65.041039,74.964058 65.505836,72.868668 
	C70.288139,72.816299 74.609497,72.900963 78.924629,72.774078 
	C88.646423,72.488228 95.235771,66.340302 95.285721,57.637749 
	C95.335876,48.899799 88.912674,42.819462 79.067665,42.428860 
	C74.424911,42.244656 69.773491,42.278847 65.101349,41.766232 
	C65.079987,39.241016 65.083260,37.163651 65.086533,35.086285 
	C65.086540,35.086285 65.096992,35.051735 65.084824,35.062119 
z"/>
<path fill="#D1DFEE" opacity="1.000000" stroke="none" 
	d="
M65.042061,72.909668 
	C65.041039,74.964058 65.040016,77.018440 65.046997,79.510719 
	C59.732452,79.957352 54.406750,80.088104 49.088020,79.950035 
	C37.155212,79.640282 27.269320,69.602425 27.062325,57.735550 
	C26.859097,46.084576 37.244801,35.366810 49.164791,35.054375 
	C54.151058,34.923676 59.143925,35.044495 64.610161,35.068623 
	C65.083260,37.163651 65.079987,39.241016 65.053497,41.925858 
	C65.030289,42.533333 64.953682,42.857872 64.489105,42.820457 
	C59.378632,42.781773 54.730350,42.684364 50.087368,42.799892 
	C41.303619,43.018471 35.022915,49.045872 34.882378,57.244560 
	C34.737244,65.711334 40.907234,71.998276 49.969101,72.338318 
	C54.937553,72.524765 59.920368,72.328659 64.910919,72.461525 
	C64.925140,72.617996 65.042061,72.909668 65.042061,72.909668 
z"/>
<path fill="#04377E" opacity="1.000000" stroke="none" 
	d="
M65.505836,72.868668 
	C65.042061,72.909668 64.925140,72.617996 64.930267,71.972778 
	C64.941490,61.837669 64.947586,52.347771 64.953674,42.857872 
	C64.953682,42.857872 65.030289,42.533333 65.078140,42.373707 
	C69.773491,42.278847 74.424911,42.244656 79.067665,42.428860 
	C88.912674,42.819462 95.335876,48.899799 95.285721,57.637749 
	C95.235771,66.340302 88.646423,72.488228 78.924629,72.774078 
	C74.609497,72.900963 70.288139,72.816299 65.505836,72.868668 
M79.501587,52.825562 
	C74.797539,53.632095 75.669060,57.123440 76.367493,60.081936 
	C76.608215,61.101601 78.444588,62.233978 79.661140,62.375225 
	C80.593414,62.483471 82.357559,61.290283 82.601067,60.371094 
	C83.339561,57.583458 84.252998,54.413582 79.501587,52.825562 
z"/>
<path fill="#01439E" opacity="1.000000" stroke="none" 
	d="
M64.489098,42.820457 
	C64.947586,52.347771 64.941490,61.837669 64.916054,71.816315 
	C59.920368,72.328659 54.937553,72.524765 49.969101,72.338318 
	C40.907234,71.998276 34.737244,65.711334 34.882378,57.244560 
	C35.022915,49.045872 41.303619,43.018471 50.087368,42.799892 
	C54.730350,42.684364 59.378632,42.781773 64.489098,42.820457 
M53.798763,54.961830 
	C51.986115,54.451496 50.173466,53.941162 48.360813,53.430828 
	C47.927795,55.588230 47.037823,57.793922 47.258507,59.882248 
	C47.365532,60.895054 49.553684,61.687946 50.799648,62.580399 
	C51.900860,60.807503 53.042755,59.057598 54.068874,57.242256 
	C54.273514,56.880219 54.035732,56.268105 53.798763,54.961830 
z"/>
<path fill="#4E5AD9" opacity="1.000000" stroke="none" 
	d="
M79.918175,52.868855 
	C84.252998,54.413582 83.339561,57.583458 82.601067,60.371094 
	C82.357559,61.290283 80.593414,62.483471 79.661140,62.375225 
	C78.444588,62.233978 76.608215,61.101601 76.367493,60.081936 
	C75.669060,57.123440 74.797539,53.632095 79.918175,52.868855 
z"/>
<path fill="#448FFB" opacity="1.000000" stroke="none" 
	d="
M53.900360,55.366566 
	C54.035732,56.268105 54.273514,56.880219 54.068874,57.242256 
	C53.042755,59.057598 51.900860,60.807503 50.799648,62.580399 
	C49.553684,61.687946 47.365532,60.895054 47.258507,59.882248 
	C47.037823,57.793922 47.927795,55.588230 48.360817,53.430828 
	C50.173466,53.941162 51.986115,54.451496 53.900360,55.366566 
z"/>
</svg>