<?xml version="1.0" standalone="no"?>
<!DOCTYPE svg PUBLIC "-//W3C//DTD SVG 20010904//EN"
 "http://www.w3.org/TR/2001/REC-SVG-20010904/DTD/svg10.dtd">
<svg version="1.0" xmlns="http://www.w3.org/2000/svg"
 width="512.000000pt" height="512.000000pt" viewBox="0 0 512.000000 512.000000"
 preserveAspectRatio="xMidYMid meet">

<g transform="translate(0.000000,512.000000) scale(0.100000,-0.100000)"
fill="#000000" stroke="none">
<path d="M2354 4855 c-420 -80 -739 -326 -920 -709 -212 -450 -197 -996 40
-1513 92 -201 106 -296 63 -416 -98 -271 -281 -385 -532 -333 -130 27 -227 80
-318 172 -98 100 -134 233 -125 458 6 146 24 186 156 334 118 132 143 181 121
239 -41 106 -206 104 -427 -4 -93 -46 -195 -140 -246 -227 -29 -49 -44 -66
-61 -66 -59 0 -89 -96 -45 -140 19 -19 20 -29 14 -105 -4 -47 -11 -85 -16 -85
-21 0 -58 -50 -58 -78 0 -32 34 -82 56 -82 14 0 15 -4 33 -108 9 -57 8 -65
-10 -83 -43 -43 -8 -139 51 -139 19 0 31 -6 35 -19 3 -10 24 -47 46 -81 37
-57 39 -64 28 -94 -23 -63 39 -131 99 -110 24 9 35 3 109 -55 73 -57 83 -69
83 -96 0 -63 93 -106 136 -63 15 15 22 14 83 -9 124 -47 249 -65 420 -61 213
4 211 9 74 -243 -146 -266 -191 -302 -388 -300 -62 0 -111 7 -155 20 -114 36
-199 24 -270 -37 -52 -44 -80 -99 -80 -157 0 -57 17 -91 70 -139 38 -34 58
-45 133 -75 17 -7 27 -18 27 -31 0 -58 100 -84 138 -35 22 27 38 29 140 19 50
-6 62 -10 71 -31 23 -50 119 -50 143 1 8 19 23 25 85 34 145 23 221 77 556
390 98 92 277 272 398 399 264 280 323 325 424 325 92 0 176 -65 353 -271 142
-165 584 -609 741 -744 130 -111 209 -154 310 -170 57 -9 71 -15 71 -29 0 -29
40 -58 82 -58 42 0 78 27 78 59 0 16 11 19 87 25 65 5 89 3 92 -6 9 -27 51
-58 79 -58 42 0 82 35 82 70 0 26 5 31 51 45 67 19 151 83 174 131 47 100 -7
220 -125 273 -57 26 -118 26 -200 0 -79 -25 -232 -31 -301 -10 -92 26 -142 86
-273 326 -109 199 -104 222 46 205 146 -17 360 15 503 74 52 21 62 22 76 10
23 -20 72 -17 103 7 20 15 26 29 26 58 0 30 5 40 29 54 15 9 51 37 79 62 46
42 52 44 76 33 37 -16 88 9 106 53 12 28 11 36 -3 61 -16 28 -16 30 31 111 43
74 50 82 74 79 42 -5 78 36 78 88 0 35 -4 43 -30 58 -19 11 -28 22 -24 32 3 8
8 45 11 83 6 62 8 67 30 67 33 0 73 42 73 78 0 38 -35 82 -65 82 -21 0 -24 6
-30 58 -3 31 -8 69 -11 83 -4 22 0 28 25 39 36 14 51 52 39 97 -10 39 -39 56
-83 51 -30 -3 -34 0 -60 49 -87 166 -337 313 -533 313 -74 0 -115 -18 -137
-60 -35 -67 -6 -128 134 -281 48 -53 94 -115 110 -148 25 -53 26 -64 26 -206
-1 -228 -28 -314 -136 -423 -113 -114 -281 -178 -444 -170 -104 6 -174 33
-243 93 -85 74 -179 243 -189 339 -7 69 30 176 107 315 104 186 173 376 217
601 26 134 26 486 0 615 -114 569 -477 966 -987 1080 -102 23 -408 29 -506 10z
m-270 -1778 c132 -76 80 -287 -71 -287 -91 0 -152 54 -161 140 -12 125 122
210 232 147z m1082 -29 c40 -40 56 -91 44 -145 -5 -20 -24 -52 -44 -71 -30
-31 -43 -36 -93 -40 -49 -3 -64 0 -93 20 -19 13 -43 39 -52 58 -36 70 -13 154
52 198 29 20 44 23 93 20 50 -4 63 -9 93 -40z m-2668 -70 c29 -29 14 -57 -53
-99 -109 -68 -178 -171 -205 -304 -18 -85 -15 -295 5 -380 52 -225 232 -427
463 -521 115 -46 171 -57 312 -58 75 -1 141 -5 148 -10 16 -10 15 -51 -1 -65
-22 -18 -146 -24 -245 -12 -352 43 -630 260 -745 580 -31 85 -32 88 -32 281 0
173 2 202 21 260 44 132 130 243 239 308 55 34 75 38 93 20z m4141 -22 c109
-67 191 -173 233 -302 21 -62 23 -88 23 -264 0 -193 -1 -196 -32 -281 -77
-215 -231 -388 -438 -492 -128 -64 -336 -105 -469 -93 -76 7 -96 17 -96 50 0
40 17 46 115 39 377 -25 738 232 820 584 20 83 23 294 5 378 -27 133 -96 236
-205 304 -67 42 -82 70 -53 99 19 19 36 15 97 -22z m-2239 -865 c117 -21 157
-22 253 -7 168 27 194 19 130 -41 -84 -80 -223 -112 -337 -79 -84 25 -186 91
-186 122 0 14 33 23 65 18 11 -2 45 -8 75 -13z"/>
</g>
</svg>
