<svg version="1.1" id="Layer_1" xmlns="http://www.w3.org/2000/svg" xmlns:xlink="http://www.w3.org/1999/xlink" x="0px" y="0px"
	 width="100%" viewBox="0 0 512 512" enable-background="new 0 0 512 512" xml:space="preserve">
<path fill="#BCDCFE" opacity="1.000000" stroke="none" 
	d="
M257.000000,1.000000 
	C309.354218,1.000000 361.708466,1.000000 414.225739,1.277668 
	C421.693665,6.254046 422.188324,13.298740 422.128967,21.195698 
	C421.876556,54.779079 422.102234,88.366051 422.089569,122.419556 
	C422.070831,132.586777 422.115814,142.286148 422.101318,152.450195 
	C422.022949,222.556427 422.004089,292.197998 421.521729,361.906311 
	C394.635010,361.982056 368.211700,362.015625 341.788483,361.992615 
	C318.526154,361.972351 295.263885,361.888855 272.001495,361.375610 
	C272.001343,346.479248 272.008698,332.040466 271.998657,317.601715 
	C271.991608,307.449127 266.990936,301.882111 256.989197,300.389954 
	C256.989838,290.337402 256.985962,280.744049 257.446930,271.089111 
	C287.363953,271.018463 316.816193,270.974213 346.268250,271.029541 
	C352.284698,271.040833 356.954315,268.790253 359.982788,263.604187 
	C365.975189,253.342621 358.846832,241.064346 346.828003,241.019913 
	C316.879547,240.909210 286.930756,240.899551 256.987427,240.390152 
	C256.989166,230.670868 256.985596,221.410767 257.446899,212.089111 
	C287.363922,212.018494 316.816162,211.974228 346.268219,212.029541 
	C352.284637,212.040848 356.954254,209.790283 359.982788,204.604202 
	C365.975189,194.342667 358.846863,182.064362 346.828003,182.019928 
	C316.879547,181.909225 286.930756,181.899567 256.987427,181.390152 
	C256.989197,171.337387 256.985687,161.743805 257.446991,152.088562 
	C287.207184,152.017899 316.502502,152.017288 345.797852,151.995316 
	C355.948669,151.987701 361.981445,146.031891 361.993378,135.989182 
	C362.015991,117.013771 362.003693,98.038292 361.998627,79.062843 
	C361.995544,67.607010 356.366425,62.016544 344.860046,61.998550 
	C315.567413,61.952747 286.274811,61.899837 256.987488,61.390564 
	C256.995178,40.954235 256.997589,20.977118 257.000000,1.000000 
M350.550385,330.527802 
	C358.764069,327.537170 363.198120,320.815308 361.803345,313.468781 
	C360.340149,305.761902 354.216370,301.037140 345.521454,301.005829 
	C335.871033,300.971100 326.216187,300.833496 316.570984,301.064148 
	C308.387970,301.259827 302.076447,307.903748 302.006470,315.859833 
	C301.936615,323.804138 308.181946,330.731445 316.299805,330.903351 
	C327.437134,331.139191 338.585693,330.842438 350.550385,330.527802 
z"/>
<path fill="#E0F4FE" opacity="1.000000" stroke="none" 
	d="
M256.982025,212.150665 
	C256.985596,221.410767 256.989166,230.670868 257.008484,240.466980 
	C257.024261,241.002975 257.031525,241.162140 256.566040,241.096924 
	C226.644058,241.021393 197.187531,240.970612 167.731186,241.025238 
	C158.766724,241.041855 152.164169,247.355972 152.010452,255.717392 
	C151.860703,263.862396 158.282974,270.895935 166.674774,270.925964 
	C196.793274,271.033844 226.912689,270.887878 257.028076,270.917450 
	C257.024384,270.997040 256.982086,271.150696 256.982086,271.150696 
	C256.985962,280.744049 256.989838,290.337402 257.008392,300.467194 
	C257.023041,301.003632 257.032318,301.162750 256.566711,301.097595 
	C226.944839,301.021729 197.788528,300.990143 168.632263,301.011383 
	C158.047546,301.019073 152.028961,307.143158 152.007568,317.848816 
	C151.978271,332.510315 152.000031,347.171844 151.535889,361.903137 
	C131.388428,361.930206 111.704971,361.887451 92.014633,361.387421 
	C92.005173,295.944000 92.005882,230.957870 91.993080,165.971725 
	C91.992157,161.308853 91.892464,156.646011 91.906204,151.519897 
	C91.930252,141.360947 91.886787,131.665253 91.915436,121.506058 
	C91.991707,85.472160 91.951187,49.901562 92.099731,14.331753 
	C92.109718,11.939018 93.249939,9.395121 94.404396,7.206286 
	C95.591438,4.955656 97.440590,3.054234 99.000000,1.000000 
	C151.354233,1.000000 203.708450,1.000000 256.531342,1.000000 
	C256.997589,20.977118 256.995178,40.954235 257.008667,61.467487 
	C257.024567,62.003620 257.031769,62.163036 256.566254,62.097710 
	C226.802002,62.021843 197.503220,61.984303 168.204529,62.016415 
	C158.835098,62.026684 152.144485,67.948837 152.066208,76.753029 
	C151.887131,96.894386 151.902496,117.039246 152.059341,137.180969 
	C152.123535,145.422958 158.442307,151.895599 166.648254,151.924530 
	C196.775742,152.030716 226.904099,151.886780 257.028412,151.916718 
	C257.024689,151.996429 256.982147,152.150223 256.982147,152.150223 
	C256.985687,161.743805 256.989197,171.337387 257.008484,181.466980 
	C257.024261,182.002975 257.031525,182.162140 256.566040,182.096924 
	C226.644058,182.021393 197.187531,181.970612 167.731186,182.025238 
	C158.766724,182.041855 152.164169,188.355957 152.010437,196.717407 
	C151.860687,204.862366 158.282898,211.895859 166.674789,211.925934 
	C196.793289,212.033844 226.912720,211.887878 257.028076,211.917450 
	C257.024384,211.997040 256.982025,212.150665 256.982025,212.150665 
z"/>
<path fill="#1C6C94" opacity="1.000000" stroke="none" 
	d="
M92.021515,361.844696 
	C111.704971,361.887451 131.388428,361.930206 152.000015,361.972961 
	C187.624344,361.927155 222.320557,361.881317 256.997375,361.918304 
	C256.977997,362.001129 256.985352,362.171051 256.989685,362.628967 
	C256.981262,392.709503 256.968475,422.332123 256.492126,451.970703 
	C241.310577,452.015472 226.592575,452.044312 211.414551,452.045349 
	C153.172943,452.011749 95.389206,451.728424 37.611225,452.180328 
	C21.653461,452.305145 8.273593,442.690430 3.121804,428.425323 
	C2.781932,427.484192 1.723952,426.802429 0.999995,426.000000 
	C1.000000,333.645782 1.000000,241.291550 1.371500,148.589691 
	C2.345143,147.130783 3.136090,146.080917 3.520472,144.898819 
	C7.777064,131.808594 22.492086,121.310989 35.882969,121.819443 
	C54.511467,122.526756 73.187592,121.979698 91.843330,121.969551 
	C91.886787,131.665253 91.930252,141.360947 91.448990,151.524460 
	C74.101944,151.994873 57.279617,151.991547 40.457294,152.002823 
	C33.141865,152.007736 32.004250,153.118713 32.003590,160.320831 
	C31.997623,225.611526 32.000053,290.902222 32.000027,356.192902 
	C32.000023,357.962372 32.000023,359.731842 32.000023,361.844696 
	C52.464638,361.844696 72.243073,361.844696 92.021515,361.844696 
z"/>
<path fill="#165771" opacity="1.000000" stroke="none" 
	d="
M256.955719,451.954742 
	C256.968475,422.332123 256.981262,392.709503 257.450378,362.558289 
	C262.605011,361.964172 267.303314,361.898712 272.001587,361.833252 
	C295.263885,361.888855 318.526154,361.972351 341.788483,361.992615 
	C368.211700,362.015625 394.635010,361.982056 421.986115,361.965515 
	C442.481445,361.957977 462.048889,361.957977 481.736816,361.957977 
	C481.854126,360.106659 481.989624,358.964172 481.989807,357.821686 
	C482.000153,291.404724 482.005371,224.987747 481.988220,158.570786 
	C481.986816,153.098557 480.819183,152.016342 475.094574,152.007889 
	C457.450012,151.981857 439.805389,151.990417 422.160797,151.985535 
	C422.115814,142.286148 422.070831,132.586777 422.547852,122.435699 
	C441.317291,121.988899 459.573364,122.340584 477.809448,121.888145 
	C492.204346,121.531021 506.876678,131.594971 511.085114,146.859009 
	C511.313080,147.685806 512.343262,148.291412 513.000000,149.000000 
	C513.000000,240.687561 513.000000,332.375122 512.619385,424.493530 
	C511.861023,425.418915 511.261780,425.863586 511.137573,426.415253 
	C507.674469,441.793793 492.421326,452.209198 477.897705,452.134796 
	C419.305481,451.834747 360.710632,452.045105 301.638794,452.046631 
	C286.454071,452.031097 271.747314,452.035889 257.019348,452.019226 
	C256.998108,451.997772 256.955719,451.954742 256.955719,451.954742 
z"/>
<path fill="#000000" opacity="1.000000" stroke="none" 
	d="
M302.116760,452.066986 
	C360.710632,452.045105 419.305481,451.834747 477.897705,452.134796 
	C492.421326,452.209198 507.674469,441.793793 511.137573,426.415253 
	C511.261780,425.863586 511.861023,425.418915 512.619385,424.962189 
	C513.000000,454.284088 513.000000,483.568207 513.000000,513.000000 
	C455.645844,513.000000 398.291595,513.000000 340.402069,512.644226 
	C340.513397,511.567963 341.068359,510.729004 341.821594,510.146423 
	C346.506378,506.522949 348.964569,498.107330 346.648102,492.247955 
	C344.525970,486.880005 338.887238,482.590607 332.960663,482.861938 
	C322.699554,483.331696 312.399658,482.954895 302.075623,482.471527 
	C302.062378,472.028900 302.089569,462.047943 302.116760,452.066986 
z"/>
<path fill="#000000" opacity="1.000000" stroke="none" 
	d="
M0.999995,426.468658 
	C1.723952,426.802429 2.781932,427.484192 3.121804,428.425323 
	C8.273593,442.690430 21.653461,452.305145 37.611225,452.180328 
	C95.389206,451.728424 153.172943,452.011749 211.459412,452.506775 
	C211.934402,462.972931 211.904480,472.949890 211.414520,482.954590 
	C200.684402,482.988312 190.412369,482.890442 180.145844,483.084229 
	C177.982040,483.125031 175.700500,483.947601 173.709213,484.902283 
	C164.695877,489.223267 164.518738,505.576508 172.538864,510.323944 
	C173.290558,510.768860 173.525269,512.087219 174.000000,513.000000 
	C116.430511,513.000000 58.861027,513.000000 1.000000,513.000000 
	C1.000000,484.313110 1.000000,455.625214 0.999995,426.468658 
z"/>
<path fill="#000000" opacity="1.000000" stroke="none" 
	d="
M513.000000,148.531342 
	C512.343262,148.291412 511.313080,147.685806 511.085114,146.859009 
	C506.876678,131.594971 492.204346,121.531021 477.809448,121.888145 
	C459.573364,122.340584 441.317291,121.988899 422.611572,121.967857 
	C422.102234,88.366051 421.876556,54.779079 422.128967,21.195698 
	C422.188324,13.298740 421.693665,6.254046 414.694397,1.277668 
	C447.608490,1.000000 480.216949,1.000000 513.000000,1.000000 
	C513.000000,50.020756 513.000000,99.041718 513.000000,148.531342 
z"/>
<path fill="#000000" opacity="1.000000" stroke="none" 
	d="
M91.915436,121.506058 
	C73.187592,121.979698 54.511467,122.526756 35.882969,121.819443 
	C22.492086,121.310989 7.777064,131.808594 3.520472,144.898819 
	C3.136090,146.080917 2.345143,147.130783 1.371500,148.121033 
	C1.000000,99.087639 1.000000,50.175285 1.000000,1.000000 
	C33.353752,1.000000 65.708221,1.000000 98.531342,1.000000 
	C97.440590,3.054234 95.591438,4.955656 94.404396,7.206286 
	C93.249939,9.395121 92.109718,11.939018 92.099731,14.331753 
	C91.951187,49.901562 91.991707,85.472160 91.915436,121.506058 
z"/>
<path fill="#1C6C94" opacity="1.000000" stroke="none" 
	d="
M174.468658,513.000000 
	C173.525269,512.087219 173.290558,510.768860 172.538864,510.323944 
	C164.518738,505.576508 164.695877,489.223267 173.709213,484.902283 
	C175.700500,483.947601 177.982040,483.125031 180.145844,483.084229 
	C190.412369,482.890442 200.684402,482.988312 211.892044,482.975891 
	C227.538345,482.994904 242.247101,483.020355 256.968506,483.511414 
	C256.987427,493.651367 256.993713,503.325684 257.000000,513.000000 
	C229.645767,513.000000 202.291550,513.000000 174.468658,513.000000 
z"/>
<path fill="#165771" opacity="1.000000" stroke="none" 
	d="
M257.468628,513.000000 
	C256.993713,503.325684 256.987427,493.651367 256.989471,483.489716 
	C256.997803,483.002380 257.040009,482.959198 257.504395,482.973450 
	C272.684509,482.969543 287.400269,482.951355 302.116028,482.933197 
	C312.399658,482.954895 322.699554,483.331696 332.960663,482.861938 
	C338.887238,482.590607 344.525970,486.880005 346.648102,492.247955 
	C348.964569,498.107330 346.506378,506.522949 341.821594,510.146423 
	C341.068359,510.729004 340.513397,511.567963 339.933411,512.644226 
	C312.645782,513.000000 285.291534,513.000000 257.468628,513.000000 
z"/>
<path fill="#19C0EF" opacity="1.000000" stroke="none" 
	d="
M422.101318,152.450195 
	C439.805389,151.990417 457.450012,151.981857 475.094574,152.007889 
	C480.819183,152.016342 481.986816,153.098557 481.988220,158.570786 
	C482.005371,224.987747 482.000153,291.404724 481.989807,357.821686 
	C481.989624,358.964172 481.854126,360.106659 481.736816,361.957977 
	C462.048889,361.957977 442.481445,361.957977 422.449585,361.898773 
	C422.004089,292.197998 422.022949,222.556427 422.101318,152.450195 
z"/>
<path fill="#FE9022" opacity="1.000000" stroke="none" 
	d="
M257.003357,61.926697 
	C286.274811,61.899837 315.567413,61.952747 344.860046,61.998550 
	C356.366425,62.016544 361.995544,67.607010 361.998627,79.062843 
	C362.003693,98.038292 362.015991,117.013771 361.993378,135.989182 
	C361.981445,146.031891 355.948669,151.987701 345.797852,151.995316 
	C316.502502,152.017288 287.207184,152.017899 257.446991,152.088562 
	C256.982147,152.150223 257.024689,151.996429 257.020996,151.458984 
	C257.022125,121.335373 257.026947,91.749207 257.031769,62.163036 
	C257.031769,62.163036 257.024567,62.003620 257.003357,61.926697 
z"/>
<path fill="#FE9022" opacity="1.000000" stroke="none" 
	d="
M257.003174,181.926147 
	C286.930756,181.899567 316.879547,181.909225 346.828003,182.019928 
	C358.846863,182.064362 365.975189,194.342667 359.982788,204.604202 
	C356.954254,209.790283 352.284637,212.040848 346.268219,212.029541 
	C316.816162,211.974228 287.363922,212.018494 257.446899,212.089111 
	C256.982025,212.150665 257.024384,211.997040 257.020630,211.459656 
	C257.021759,201.335571 257.026642,191.748856 257.031525,182.162140 
	C257.031525,182.162140 257.024261,182.002975 257.003174,181.926147 
z"/>
<path fill="#FE9022" opacity="1.000000" stroke="none" 
	d="
M257.003174,240.926147 
	C286.930756,240.899551 316.879547,240.909210 346.828003,241.019913 
	C358.846832,241.064346 365.975189,253.342621 359.982788,263.604187 
	C356.954315,268.790253 352.284698,271.040833 346.268250,271.029541 
	C316.816193,270.974213 287.363953,271.018463 257.446930,271.089111 
	C256.982086,271.150696 257.024384,270.997040 257.020630,270.459656 
	C257.021729,260.335571 257.026611,250.748856 257.031525,241.162140 
	C257.031525,241.162140 257.024261,241.002975 257.003174,240.926147 
z"/>
<path fill="#FD9124" opacity="1.000000" stroke="none" 
	d="
M350.139923,330.650848 
	C338.585693,330.842438 327.437134,331.139191 316.299805,330.903351 
	C308.181946,330.731445 301.936615,323.804138 302.006470,315.859833 
	C302.076447,307.903748 308.387970,301.259827 316.570984,301.064148 
	C326.216187,300.833496 335.871033,300.971100 345.521454,301.005829 
	C354.216370,301.037140 360.340149,305.761902 361.803345,313.468781 
	C363.198120,320.815308 358.764069,327.537170 350.139923,330.650848 
z"/>
<path fill="#FE9023" opacity="1.000000" stroke="none" 
	d="
M272.001495,361.375610 
	C267.303314,361.898712 262.605011,361.964172 257.446045,362.100342 
	C256.985352,362.171051 256.977997,362.001129 256.994629,361.460388 
	C257.018250,341.000671 257.025299,321.081696 257.032318,301.162750 
	C257.032318,301.162750 257.023041,301.003632 257.003845,300.926392 
	C266.990936,301.882111 271.991608,307.449127 271.998657,317.601715 
	C272.008698,332.040466 272.001343,346.479248 272.001495,361.375610 
z"/>
<path fill="#30D9F6" opacity="1.000000" stroke="none" 
	d="
M92.014633,361.387421 
	C72.243073,361.844696 52.464638,361.844696 32.000023,361.844696 
	C32.000023,359.731842 32.000023,357.962372 32.000027,356.192902 
	C32.000053,290.902222 31.997623,225.611526 32.003590,160.320831 
	C32.004250,153.118713 33.141865,152.007736 40.457294,152.002823 
	C57.279617,151.991547 74.101944,151.994873 91.381485,151.987717 
	C91.892464,156.646011 91.992157,161.308853 91.993080,165.971725 
	C92.005882,230.957870 92.005173,295.944000 92.014633,361.387421 
z"/>
<path fill="#FCBE29" opacity="1.000000" stroke="none" 
	d="
M256.566254,62.097710 
	C257.026947,91.749207 257.022125,121.335373 257.024719,151.379272 
	C226.904099,151.886780 196.775742,152.030716 166.648254,151.924530 
	C158.442307,151.895599 152.123535,145.422958 152.059341,137.180969 
	C151.902496,117.039246 151.887131,96.894386 152.066208,76.753029 
	C152.144485,67.948837 158.835098,62.026684 168.204529,62.016415 
	C197.503220,61.984303 226.802002,62.021843 256.566254,62.097710 
z"/>
<path fill="#FCBE29" opacity="1.000000" stroke="none" 
	d="
M256.566711,301.097595 
	C257.025299,321.081696 257.018250,341.000671 257.013977,361.377563 
	C222.320557,361.881317 187.624344,361.927155 152.464020,361.903198 
	C152.000031,347.171844 151.978271,332.510315 152.007568,317.848816 
	C152.028961,307.143158 158.047546,301.019073 168.632263,301.011383 
	C197.788528,300.990143 226.944839,301.021729 256.566711,301.097595 
z"/>
<path fill="#FCBE29" opacity="1.000000" stroke="none" 
	d="
M256.566040,241.096924 
	C257.026611,250.748856 257.021729,260.335571 257.024292,270.380066 
	C226.912689,270.887878 196.793274,271.033844 166.674774,270.925964 
	C158.282974,270.895935 151.860703,263.862396 152.010452,255.717392 
	C152.164169,247.355972 158.766724,241.041855 167.731186,241.025238 
	C197.187531,240.970612 226.644058,241.021393 256.566040,241.096924 
z"/>
<path fill="#FCBE29" opacity="1.000000" stroke="none" 
	d="
M256.566040,182.096924 
	C257.026642,191.748856 257.021759,201.335571 257.024323,211.380081 
	C226.912720,211.887878 196.793289,212.033844 166.674789,211.925934 
	C158.282898,211.895859 151.860687,204.862366 152.010437,196.717407 
	C152.164169,188.355957 158.766724,182.041855 167.731186,182.025238 
	C197.187531,181.970612 226.644058,182.021393 256.566040,182.096924 
z"/>
<path fill="#165771" opacity="1.000000" stroke="none" 
	d="
M256.976807,483.024078 
	C242.247101,483.020355 227.538345,482.994904 212.352081,482.948151 
	C211.904480,472.949890 211.934402,462.972931 211.919449,452.534546 
	C226.592575,452.044312 241.310577,452.015472 256.492126,451.970703 
	C256.955719,451.954742 256.998108,451.997772 257.005005,452.483093 
	C257.021271,462.965332 257.030640,472.962280 257.040009,482.959198 
	C257.040009,482.959198 256.997803,483.002380 256.976807,483.024078 
z"/>
<path fill="#0C3F60" opacity="1.000000" stroke="none" 
	d="
M257.504395,482.973450 
	C257.030640,472.962280 257.021271,462.965332 257.026245,452.504547 
	C271.747314,452.035889 286.454071,452.031097 301.638794,452.046631 
	C302.089569,462.047943 302.062378,472.028900 302.075623,482.471527 
	C287.400269,482.951355 272.684509,482.969543 257.504395,482.973450 
z"/>
</svg>