<svg version="1.1" id="Layer_1" xmlns="http://www.w3.org/2000/svg" xmlns:xlink="http://www.w3.org/1999/xlink" x="0px" y="0px"
	 width="100%" viewBox="0 0 128 128" enable-background="new 0 0 128 128" xml:space="preserve">
<path fill="#F1F2F1" opacity="1.000000" stroke="none" 
	d="
M129.000000,31.000000 
	C129.000000,63.666691 129.000000,96.333382 129.000000,129.000000 
	C125.260986,129.000000 121.609673,129.000000 117.475273,128.631088 
	C114.645790,124.140396 112.299377,120.018616 110.067726,115.646408 
	C110.493423,114.950684 110.804367,114.505386 111.079498,114.037735 
	C111.043694,114.015381 111.004616,114.090225 111.275116,114.001892 
	C111.777550,113.618675 112.009491,113.323799 112.534561,112.872437 
	C126.101158,96.879883 120.916634,74.416557 103.294487,65.920624 
	C93.649078,61.270405 84.283508,62.678123 74.998032,66.782883 
	C72.553856,62.678192 70.284248,58.838993 67.710068,55.216209 
	C65.666435,52.340115 63.250000,49.728920 60.910103,46.538345 
	C60.921970,33.046230 61.022816,20.015884 61.584011,6.990275 
	C76.702675,7.005049 91.360985,7.015085 106.011467,7.491141 
	C106.001396,14.080650 106.100906,20.206533 105.956802,26.326683 
	C105.876869,29.721586 107.199036,31.119173 110.630501,31.037563 
	C116.750504,30.892014 122.876503,30.998756 129.000000,31.000000 
M75.803894,19.561653 
	C74.014076,18.579336 72.224258,17.597019 70.434441,16.614704 
	C71.216667,18.515411 71.960457,20.433659 72.813004,22.302288 
	C72.987228,22.684156 73.569565,22.879827 74.071030,23.892237 
	C74.872047,26.331379 75.673058,28.770521 76.737999,31.856541 
	C83.819084,38.915405 90.900169,45.974270 98.256721,53.636372 
	C101.403847,56.793343 104.460754,60.047543 107.725746,63.077503 
	C110.496811,65.649086 113.755974,66.033127 116.633202,63.401810 
	C119.442993,60.832172 119.921555,57.769306 117.327835,54.066460 
	C120.983376,51.000557 120.634010,48.266182 116.941978,45.378956 
	C114.370483,43.368011 112.282188,40.744938 109.741844,38.686855 
	C106.891266,36.377445 105.571602,37.342323 105.799164,41.374882 
	C105.529663,41.586296 105.260155,41.797710 104.408440,41.690800 
	C97.912445,35.368271 91.416458,29.045740 84.408531,22.269394 
	C81.675362,21.571499 78.942200,20.873602 75.803894,19.561653 
z"/>
<path fill="#E5E5E4" opacity="1.000000" stroke="none" 
	d="
M109.952972,115.896835 
	C112.299377,120.018616 114.645790,124.140396 116.996094,128.631088 
	C85.645775,129.000000 54.291542,129.000000 22.471706,128.531357 
	C21.994471,111.414757 21.982847,94.766808 22.430199,78.006287 
	C32.511868,77.871529 42.134758,77.879707 51.757187,77.816856 
	C58.588108,77.772240 60.646828,75.695900 60.742935,68.879341 
	C60.845757,61.586510 60.915119,54.293209 60.999084,47.000111 
	C63.250000,49.728920 65.666435,52.340115 67.710068,55.216209 
	C70.284248,58.838993 72.553856,62.678192 74.834373,67.042145 
	C73.468254,68.706772 72.222641,69.753281 70.722679,70.923553 
	C70.284241,71.362587 70.100143,71.677841 69.949745,71.978394 
	C69.983437,71.963699 69.944962,71.901054 69.627930,72.027023 
	C55.310562,86.973915 59.089531,110.108154 77.185913,119.360046 
	C88.750267,125.272392 99.664162,123.056740 109.952972,115.896835 
M40.005230,103.328865 
	C38.455902,104.154419 36.906578,104.979973 35.357246,105.805534 
	C37.026749,106.488914 38.655476,107.597992 40.374657,107.762642 
	C43.479023,108.059967 46.650627,107.940552 49.764561,107.663101 
	C50.600010,107.588661 51.328556,106.314384 52.106178,105.590912 
	C51.335094,104.873100 50.616497,103.615845 49.783463,103.534790 
	C46.837345,103.248131 43.852074,103.363861 40.005230,103.328865 
M39.019161,92.967430 
	C37.842667,93.749809 36.666172,94.532181 35.489681,95.314560 
	C36.735947,95.875053 37.952942,96.822304 39.234283,96.919266 
	C42.345783,97.154709 45.501972,97.169006 48.609028,96.905464 
	C49.792957,96.805038 50.891811,95.701660 52.029438,95.055374 
	C50.956085,94.360977 49.930386,93.177574 48.800098,93.067429 
	C45.863064,92.781219 42.880070,92.966621 39.019161,92.967430 
z"/>
<path fill="#6C6B68" opacity="1.000000" stroke="none" 
	d="
M60.910103,46.538345 
	C60.915119,54.293209 60.845757,61.586510 60.742935,68.879341 
	C60.646828,75.695900 58.588108,77.772240 51.757187,77.816856 
	C42.134758,77.879707 32.511868,77.871529 21.965927,77.961830 
	C16.570969,78.024254 12.064982,78.344177 7.641665,77.878632 
	C5.352148,77.637672 3.209177,76.004295 0.999999,75.000000 
	C1.000000,50.415993 1.000000,25.831987 1.000000,1.000000 
	C19.686831,1.000000 38.374756,1.000000 57.636147,1.332031 
	C59.180958,3.437886 60.152309,5.211711 61.123661,6.985537 
	C61.022816,20.015884 60.921970,33.046230 60.910103,46.538345 
M31.363182,7.140510 
	C23.828646,7.379794 16.294111,7.619079 8.102419,8.301771 
	C4.197586,18.432693 6.662360,22.277464 16.942335,22.078581 
	C17.597345,22.065910 18.250940,21.980145 19.840994,22.033049 
	C23.492401,21.984875 27.143806,21.936699 31.749140,22.032009 
	C37.875107,22.050903 44.004829,22.188410 50.124058,21.994553 
	C51.441837,21.952806 53.823128,20.736538 53.836819,20.025162 
	C53.914253,16.001352 53.419991,11.966541 52.506279,7.368046 
	C49.603661,7.375622 46.701046,7.383198 42.914700,7.330441 
	C39.383347,7.357509 35.851994,7.384577 31.363182,7.140510 
M41.812710,54.510887 
	C41.812744,57.496185 41.812302,60.481487 41.812904,63.466785 
	C41.814556,71.659851 41.875423,71.630829 50.189663,71.170807 
	C52.866734,71.022682 54.121311,70.130356 54.090572,67.340256 
	C54.010181,60.043785 54.175213,52.742470 53.954678,45.451790 
	C53.918049,44.240982 52.638939,42.288841 51.584564,42.012493 
	C43.996136,40.023571 41.815380,41.812141 41.812836,49.538185 
	C41.812397,50.864983 41.812523,52.191780 41.812710,54.510887 
M10.815184,24.802668 
	C4.932386,25.458849 7.594514,30.026499 7.381939,32.984993 
	C7.291656,34.241497 9.092706,36.735054 10.090522,36.764603 
	C13.234830,36.857731 17.526287,37.103439 19.238529,35.282413 
	C20.821873,33.598480 20.101229,29.225168 19.422180,26.259027 
	C19.221180,25.381042 15.729661,25.222258 13.730326,24.809887 
	C13.091366,24.678099 12.401909,24.791145 10.815184,24.802668 
M36.975605,33.186741 
	C36.977413,32.186779 37.173687,31.138340 36.939117,30.197298 
	C36.498512,28.429684 35.941566,25.305656 35.200119,25.236326 
	C31.844921,24.922602 27.685085,24.430536 25.262177,26.101324 
	C23.716476,27.167206 24.457903,31.920338 24.717190,34.974113 
	C24.782471,35.742981 27.063148,37.057102 28.102444,36.871346 
	C31.126520,36.330837 35.428574,39.363926 36.975605,33.186741 
M43.113922,36.789967 
	C44.592205,36.865520 46.085976,36.831104 47.545929,37.036777 
	C52.376781,37.717335 54.126987,36.026440 54.200176,30.844248 
	C54.275696,25.496847 52.266479,24.126371 47.566856,24.769621 
	C46.431599,24.925005 45.085537,24.471041 44.152515,24.934145 
	C43.022377,25.495089 41.448307,26.720808 41.434261,27.678921 
	C41.392067,30.556120 42.015198,33.443073 43.113922,36.789967 
M29.603703,58.890034 
	C24.146763,59.174088 23.475018,60.012974 24.282425,67.108948 
	C24.441607,68.507927 26.012682,70.862755 26.923784,70.858559 
	C30.167273,70.843628 34.850601,71.145851 36.360039,69.242874 
	C39.964321,64.698883 36.311325,58.959824 29.603703,58.890034 
M32.331932,41.841965 
	C29.095839,42.464611 24.143919,39.665672 24.111061,46.449230 
	C24.076309,53.623966 24.497730,54.227886 31.942867,54.074787 
	C34.292866,54.026463 37.278786,54.289806 36.825478,50.866161 
	C36.405903,47.697330 39.749191,42.676899 32.331932,41.841965 
M9.952020,54.019444 
	C20.534286,54.188751 20.665707,54.162579 19.877573,45.885193 
	C19.744629,44.488960 18.153059,42.097084 17.264666,42.110435 
	C14.013268,42.159309 8.847322,42.077324 7.987034,43.817123 
	C6.730574,46.358124 8.569290,50.429607 9.952020,54.019444 
M18.878292,59.446461 
	C16.090549,59.270561 13.224478,58.645576 10.548819,59.112267 
	C9.252520,59.338371 7.370919,61.639812 7.409843,62.952572 
	C7.489383,65.635170 7.907530,69.838493 9.565384,70.671875 
	C15.893922,73.853111 20.172192,70.591476 19.970888,63.513950 
	C19.938501,62.375340 19.657356,61.243797 18.878292,59.446461 
z"/>
<path fill="#FFFFFF" opacity="1.000000" stroke="none" 
	d="
M0.999999,75.468658 
	C3.209177,76.004295 5.352148,77.637672 7.641665,77.878632 
	C12.064982,78.344177 16.570969,78.024254 21.506954,78.074402 
	C21.982847,94.766808 21.994471,111.414757 22.003048,128.531357 
	C15.041090,129.000000 8.082181,129.000000 1.000000,129.000000 
	C1.000000,111.312607 1.000000,93.624962 0.999999,75.468658 
z"/>
<path fill="#FFFFFF" opacity="1.000000" stroke="none" 
	d="
M61.584011,6.990274 
	C60.152309,5.211711 59.180958,3.437886 58.104805,1.332031 
	C81.560516,1.000000 105.121033,1.000000 129.000000,1.000000 
	C129.000000,9.684964 129.000000,18.373819 128.654266,27.505844 
	C126.791077,26.719315 125.178040,25.589371 123.772827,24.242582 
	C117.821335,18.538536 111.931595,12.770055 106.019295,7.025123 
	C91.360985,7.015085 76.702675,7.005049 61.584011,6.990274 
z"/>
<path fill="#E5E5E5" opacity="1.000000" stroke="none" 
	d="
M106.011467,7.491142 
	C111.931595,12.770055 117.821335,18.538536 123.772827,24.242582 
	C125.178040,25.589371 126.791077,26.719315 128.654266,27.974506 
	C129.000000,28.750000 129.000000,29.500000 129.000000,30.625000 
	C122.876503,30.998756 116.750504,30.892014 110.630501,31.037563 
	C107.199036,31.119173 105.876869,29.721586 105.956802,26.326683 
	C106.100906,20.206533 106.001396,14.080650 106.011467,7.491142 
z"/>
<path fill="#F7CF4A" opacity="1.000000" stroke="none" 
	d="
M70.977020,70.799782 
	C72.222641,69.753281 73.468254,68.706772 74.877533,67.401016 
	C84.283508,62.678123 93.649078,61.270405 103.294487,65.920624 
	C120.916634,74.416557 126.101158,96.879883 112.270973,112.976463 
	C111.477707,113.521385 111.241158,113.805801 111.004608,114.090225 
	C111.004616,114.090225 111.043694,114.015381 110.659775,114.008698 
	C105.401962,114.679771 100.545151,115.753647 95.651123,115.964714 
	C77.345161,116.754189 63.089958,97.849663 67.823120,79.972435 
	C68.535118,77.283226 69.237900,74.591576 69.944962,71.901054 
	C69.944962,71.901054 69.983437,71.963699 70.194229,71.848648 
	C70.595695,71.422325 70.786354,71.111053 70.977020,70.799782 
M80.042259,82.043777 
	C79.939629,92.845490 79.939629,92.845490 88.017654,95.941254 
	C88.017654,97.426476 88.052040,99.069946 88.007874,100.711311 
	C87.964699,102.315628 87.841377,103.917793 87.744850,105.673378 
	C85.766960,105.796799 84.228493,105.668884 82.835304,106.059364 
	C81.924057,106.314751 81.223335,107.321312 80.428329,107.991432 
	C81.109947,108.609924 81.691353,109.468102 82.491661,109.802719 
	C85.058327,110.875847 87.705978,111.755295 90.282906,112.695084 
	C92.309044,111.711021 94.974380,110.619499 97.413139,109.151558 
	C98.752815,108.345192 100.261475,107.099258 100.749626,105.717819 
	C103.496323,97.944969 100.417587,92.361076 92.384422,90.198395 
	C92.384422,86.985245 92.384422,83.745514 92.384422,80.192673 
	C94.344749,80.102394 96.055817,80.304428 97.580902,79.863388 
	C98.774002,79.518341 99.736511,78.375984 100.801476,77.587883 
	C99.743866,77.043457 98.738922,76.305748 97.616318,75.999786 
	C95.922462,75.538116 92.990295,75.888802 92.599182,75.003830 
	C90.562592,70.395485 89.246613,70.565956 87.622017,75.113625 
	C87.471069,75.536179 86.410698,75.553757 85.944115,75.957565 
	C83.972366,77.664032 82.065552,79.445518 80.042259,82.043777 
z"/>
<path fill="#F3B621" opacity="1.000000" stroke="none" 
	d="
M69.627930,72.027023 
	C69.237900,74.591576 68.535118,77.283226 67.823120,79.972435 
	C63.089958,97.849663 77.345161,116.754189 95.651123,115.964714 
	C100.545151,115.753647 105.401962,114.679771 110.695587,114.031052 
	C110.804367,114.505386 110.493423,114.950684 110.067726,115.646408 
	C99.664162,123.056740 88.750267,125.272392 77.185913,119.360046 
	C59.089531,110.108154 55.310562,86.973915 69.627930,72.027023 
z"/>
<path fill="#63C9CB" opacity="1.000000" stroke="none" 
	d="
M97.981255,53.033131 
	C90.900169,45.974270 83.819084,38.915405 76.881332,31.270527 
	C79.656601,28.030743 82.288536,25.376976 84.920464,22.723209 
	C91.416458,29.045740 97.912445,35.368271 104.822983,42.126083 
	C105.875282,43.340427 106.513031,44.119488 106.841499,45.048782 
	C103.681900,47.810390 100.831581,50.421761 97.981255,53.033131 
z"/>
<path fill="#52AAAA" opacity="1.000000" stroke="none" 
	d="
M98.118988,53.334751 
	C100.831581,50.421761 103.681900,47.810390 107.124619,45.209114 
	C109.565460,47.171459 111.413910,49.123703 113.172272,51.412979 
	C113.010078,52.945065 112.937965,54.140114 112.865845,55.335163 
	C114.239792,55.145493 115.613747,54.955822 116.987694,54.766151 
	C119.921555,57.769306 119.442993,60.832172 116.633202,63.401810 
	C113.755974,66.033127 110.496811,65.649086 107.725746,63.077503 
	C104.460754,60.047543 101.403847,56.793343 98.118988,53.334751 
z"/>
<path fill="#6F7070" opacity="1.000000" stroke="none" 
	d="
M117.157761,54.416306 
	C115.613747,54.955822 114.239792,55.145493 112.865845,55.335163 
	C112.937965,54.140114 113.010078,52.945065 113.486954,51.342751 
	C113.814674,49.947144 114.124512,48.589161 113.594093,48.033997 
	C111.208931,45.537632 108.585190,43.269199 106.047493,40.918568 
	C105.571602,37.342323 106.891266,36.377445 109.741844,38.686855 
	C112.282188,40.744938 114.370483,43.368011 116.941978,45.378956 
	C120.634010,48.266182 120.983376,51.000557 117.157761,54.416306 
z"/>
<path fill="#EFCF53" opacity="1.000000" stroke="none" 
	d="
M84.664497,22.496302 
	C82.288536,25.376976 79.656601,28.030743 76.749374,30.947086 
	C75.673058,28.770521 74.872047,26.331379 74.079918,23.207024 
	C74.795547,21.739777 75.502289,20.957743 76.209030,20.175707 
	C78.942200,20.873602 81.675362,21.571499 84.664497,22.496302 
z"/>
<path fill="#E0E8E8" opacity="1.000000" stroke="none" 
	d="
M105.923325,41.146725 
	C108.585190,43.269199 111.208931,45.537632 113.594093,48.033997 
	C114.124512,48.589161 113.814674,49.947144 113.577042,51.005714 
	C111.413910,49.123703 109.565460,47.171459 107.433899,45.058884 
	C106.513031,44.119488 105.875282,43.340427 105.114090,42.285244 
	C105.260155,41.797710 105.529663,41.586296 105.923325,41.146725 
z"/>
<path fill="#757573" opacity="1.000000" stroke="none" 
	d="
M76.006462,19.868679 
	C75.502289,20.957743 74.795547,21.739777 74.026291,22.841570 
	C73.569565,22.879827 72.987228,22.684156 72.813004,22.302288 
	C71.960457,20.433659 71.216667,18.515411 70.434441,16.614704 
	C72.224258,17.597019 74.014076,18.579336 76.006462,19.868679 
z"/>
<path fill="#F3B621" opacity="1.000000" stroke="none" 
	d="
M111.275108,114.001892 
	C111.241158,113.805801 111.477707,113.521385 111.977844,113.132950 
	C112.009491,113.323799 111.777550,113.618675 111.275108,114.001892 
z"/>
<path fill="#898989" opacity="1.000000" stroke="none" 
	d="
M40.443436,103.327957 
	C43.852074,103.363861 46.837345,103.248131 49.783463,103.534790 
	C50.616497,103.615845 51.335094,104.873100 52.106178,105.590912 
	C51.328556,106.314384 50.600010,107.588661 49.764561,107.663101 
	C46.650627,107.940552 43.479023,108.059967 40.374657,107.762642 
	C38.655476,107.597992 37.026749,106.488914 35.357246,105.805527 
	C36.906578,104.979973 38.455902,104.154419 40.443436,103.327957 
z"/>
<path fill="#848484" opacity="1.000000" stroke="none" 
	d="
M39.467285,92.965630 
	C42.880070,92.966621 45.863064,92.781219 48.800098,93.067429 
	C49.930386,93.177574 50.956085,94.360977 52.029438,95.055374 
	C50.891811,95.701660 49.792957,96.805038 48.609028,96.905464 
	C45.501972,97.169006 42.345783,97.154709 39.234283,96.919266 
	C37.952942,96.822304 36.735947,95.875053 35.489677,95.314560 
	C36.666172,94.532181 37.842667,93.749809 39.467285,92.965630 
z"/>
<path fill="#F3B621" opacity="1.000000" stroke="none" 
	d="
M70.722672,70.923553 
	C70.786354,71.111053 70.595695,71.422325 70.160538,71.863342 
	C70.100143,71.677841 70.284241,71.362587 70.722672,70.923553 
z"/>
<path fill="#F7D04A" opacity="1.000000" stroke="none" 
	d="
M41.812553,54.014732 
	C41.812523,52.191780 41.812397,50.864983 41.812836,49.538185 
	C41.815380,41.812141 43.996136,40.023571 51.584564,42.012493 
	C52.638939,42.288841 53.918049,44.240982 53.954678,45.451790 
	C54.175213,52.742470 54.010181,60.043785 54.090572,67.340256 
	C54.121311,70.130356 52.866734,71.022682 50.189663,71.170807 
	C41.875423,71.630829 41.814556,71.659851 41.812904,63.466785 
	C41.812302,60.481487 41.812744,57.496185 41.812553,54.014732 
z"/>
<path fill="#66C9CC" opacity="1.000000" stroke="none" 
	d="
M18.905193,21.928381 
	C18.250940,21.980145 17.597345,22.065910 16.942335,22.078581 
	C6.662360,22.277464 4.197586,18.432693 8.921192,8.117752 
	C11.866462,7.948005 13.997724,7.876293 16.118502,7.993790 
	C21.096498,8.269585 26.069483,8.635886 30.870966,9.251917 
	C26.766689,13.668313 22.835941,17.798347 18.905193,21.928381 
z"/>
<path fill="#62C9CC" opacity="1.000000" stroke="none" 
	d="
M53.120441,7.935477 
	C53.419991,11.966541 53.914253,16.001352 53.836819,20.025162 
	C53.823128,20.736538 51.441837,21.952806 50.124058,21.994553 
	C44.004829,22.188410 37.875107,22.050903 31.433958,21.661205 
	C35.374977,16.865131 39.631184,12.439861 44.350773,8.006246 
	C47.582920,7.977093 50.351681,7.956285 53.120441,7.935477 
z"/>
<path fill="#EDF1F1" opacity="1.000000" stroke="none" 
	d="
M43.887386,8.014591 
	C39.631184,12.439861 35.374977,16.865131 30.956995,21.589462 
	C27.143806,21.936699 23.492401,21.984875 19.373093,21.980715 
	C22.835941,17.798347 26.766689,13.668313 31.104023,9.136751 
	C31.780619,8.294030 32.050629,7.852838 32.320641,7.411646 
	C35.851994,7.384577 39.383347,7.357509 43.349396,7.520537 
	C43.784096,7.710634 43.887386,8.014591 43.887386,8.014591 
z"/>
<path fill="#EA9B3D" opacity="1.000000" stroke="none" 
	d="
M11.275370,24.797419 
	C12.401909,24.791145 13.091366,24.678099 13.730326,24.809887 
	C15.729661,25.222258 19.221180,25.381042 19.422180,26.259027 
	C20.101229,29.225168 20.821873,33.598480 19.238529,35.282413 
	C17.526287,37.103439 13.234830,36.857731 10.090522,36.764603 
	C9.092706,36.735054 7.291656,34.241497 7.381939,32.984993 
	C7.594514,30.026499 4.932386,25.458849 11.275370,24.797419 
z"/>
<path fill="#EA9B3D" opacity="1.000000" stroke="none" 
	d="
M36.960911,33.639015 
	C35.428574,39.363926 31.126520,36.330837 28.102444,36.871346 
	C27.063148,37.057102 24.782471,35.742981 24.717190,34.974113 
	C24.457903,31.920338 23.716476,27.167206 25.262177,26.101324 
	C27.685085,24.430536 31.844921,24.922602 35.200119,25.236326 
	C35.941566,25.305656 36.498512,28.429684 36.939117,30.197298 
	C37.173687,31.138340 36.977413,32.186779 36.960911,33.639015 
z"/>
<path fill="#EB9B3D" opacity="1.000000" stroke="none" 
	d="
M42.746326,36.558094 
	C42.015198,33.443073 41.392067,30.556120 41.434261,27.678921 
	C41.448307,26.720808 43.022377,25.495089 44.152515,24.934145 
	C45.085537,24.471041 46.431599,24.925005 47.566856,24.769621 
	C52.266479,24.126371 54.275696,25.496847 54.200176,30.844248 
	C54.126987,36.026440 52.376781,37.717335 47.545929,37.036777 
	C46.085976,36.831104 44.592205,36.865520 42.746326,36.558094 
z"/>
<path fill="#EB9B3D" opacity="1.000000" stroke="none" 
	d="
M30.059174,58.889595 
	C36.311325,58.959824 39.964321,64.698883 36.360039,69.242874 
	C34.850601,71.145851 30.167273,70.843628 26.923784,70.858559 
	C26.012682,70.862755 24.441607,68.507927 24.282425,67.108948 
	C23.475018,60.012974 24.146763,59.174088 30.059174,58.889595 
z"/>
<path fill="#EB9B3D" opacity="1.000000" stroke="none" 
	d="
M32.787361,41.845852 
	C39.749191,42.676899 36.405903,47.697330 36.825478,50.866161 
	C37.278786,54.289806 34.292866,54.026463 31.942867,54.074787 
	C24.497730,54.227886 24.076309,53.623966 24.111061,46.449230 
	C24.143919,39.665672 29.095839,42.464611 32.787361,41.845852 
z"/>
<path fill="#EB9B3D" opacity="1.000000" stroke="none" 
	d="
M9.520345,53.934078 
	C8.569290,50.429607 6.730574,46.358124 7.987034,43.817123 
	C8.847322,42.077324 14.013268,42.159309 17.264666,42.110435 
	C18.153059,42.097084 19.744629,44.488960 19.877573,45.885193 
	C20.665707,54.162579 20.534286,54.188751 9.520345,53.934078 
z"/>
<path fill="#EB9C3D" opacity="1.000000" stroke="none" 
	d="
M19.184750,59.777725 
	C19.657356,61.243797 19.938501,62.375340 19.970888,63.513950 
	C20.172192,70.591476 15.893922,73.853111 9.565384,70.671875 
	C7.907530,69.838493 7.489383,65.635170 7.409843,62.952572 
	C7.370919,61.639812 9.252520,59.338371 10.548819,59.112267 
	C13.224478,58.645576 16.090549,59.270561 19.184750,59.777725 
z"/>
<path fill="#93C0C2" opacity="1.000000" stroke="none" 
	d="
M31.841911,7.276078 
	C32.050629,7.852838 31.780619,8.294030 31.277552,8.850389 
	C26.069483,8.635886 21.096498,8.269585 16.118502,7.993790 
	C13.997724,7.876293 11.866462,7.948005 9.249769,7.896049 
	C16.294111,7.619079 23.828646,7.379794 31.841911,7.276078 
z"/>
<path fill="#93C0C2" opacity="1.000000" stroke="none" 
	d="
M44.350773,8.006247 
	C43.887386,8.014591 43.784096,7.710634 43.791260,7.550704 
	C46.701046,7.383198 49.603661,7.375622 52.813362,7.651762 
	C50.351681,7.956285 47.582920,7.977093 44.350773,8.006247 
z"/>
<path fill="#EB6C37" opacity="1.000000" stroke="none" 
	d="
M80.088623,81.621674 
	C82.065552,79.445518 83.972366,77.664032 85.944115,75.957565 
	C86.410698,75.553757 87.471069,75.536179 87.622017,75.113625 
	C89.246613,70.565956 90.562592,70.395485 92.599182,75.003830 
	C92.990295,75.888802 95.922462,75.538116 97.616318,75.999786 
	C98.738922,76.305748 99.743866,77.043457 100.801476,77.587883 
	C99.736511,78.375984 98.774002,79.518341 97.580902,79.863388 
	C96.055817,80.304428 94.344749,80.102394 92.384422,80.192673 
	C92.384422,83.745514 92.384422,86.985245 92.384422,90.198395 
	C100.417587,92.361076 103.496323,97.944969 100.749626,105.717819 
	C100.261475,107.099258 98.752815,108.345192 97.413139,109.151558 
	C94.974380,110.619499 92.309044,111.711021 90.282906,112.695084 
	C87.705978,111.755295 85.058327,110.875847 82.491661,109.802719 
	C81.691353,109.468102 81.109947,108.609924 80.428329,107.991425 
	C81.223335,107.321312 81.924057,106.314751 82.835304,106.059364 
	C84.228493,105.668884 85.766960,105.796799 87.744850,105.673378 
	C87.841377,103.917793 87.964699,102.315628 88.007874,100.711311 
	C88.052040,99.069946 88.017654,97.426476 88.017654,95.941254 
	C79.939629,92.845490 79.939629,92.845490 80.088623,81.621674 
M97.044502,101.355751 
	C96.658539,99.015289 98.304710,95.467682 94.202156,95.379410 
	C93.518044,95.364700 92.740303,99.101692 92.039703,101.116837 
	C91.937828,101.409859 91.914978,101.824013 92.045532,102.088257 
	C92.671036,103.354271 93.361908,104.587990 94.029549,105.833191 
	C95.032333,104.629105 96.035118,103.425011 97.044502,101.355751 
M88.027390,84.604065 
	C87.865982,83.115921 87.704575,81.627785 87.499992,79.741646 
	C82.829506,81.132507 84.080139,84.394539 84.134361,86.828690 
	C84.166679,88.279449 85.323654,89.705162 85.975029,91.142136 
	C86.568123,90.967155 87.161209,90.792175 87.754303,90.617188 
	C87.845383,88.906967 87.936455,87.196747 88.027390,84.604065 
z"/>
<path fill="#F6CA49" opacity="1.000000" stroke="none" 
	d="
M97.041199,101.788338 
	C96.035118,103.425011 95.032333,104.629105 94.029549,105.833191 
	C93.361908,104.587990 92.671036,103.354271 92.045532,102.088257 
	C91.914978,101.824013 91.937828,101.409859 92.039703,101.116837 
	C92.740303,99.101692 93.518044,95.364700 94.202156,95.379410 
	C98.304710,95.467682 96.658539,99.015289 97.041199,101.788338 
z"/>
<path fill="#F6CB49" opacity="1.000000" stroke="none" 
	d="
M88.027466,85.045296 
	C87.936455,87.196747 87.845383,88.906967 87.754303,90.617188 
	C87.161209,90.792175 86.568123,90.967155 85.975029,91.142136 
	C85.323654,89.705162 84.166679,88.279449 84.134361,86.828690 
	C84.080139,84.394539 82.829506,81.132507 87.499992,79.741646 
	C87.704575,81.627785 87.865982,83.115921 88.027466,85.045296 
z"/>
</svg>