<?xml version="1.0" standalone="no"?>
<!DOCTYPE svg PUBLIC "-//W3C//DTD SVG 20010904//EN"
 "http://www.w3.org/TR/2001/REC-SVG-20010904/DTD/svg10.dtd">
<svg version="1.0" xmlns="http://www.w3.org/2000/svg"
 width="512.000000pt" height="512.000000pt" viewBox="0 0 512.000000 512.000000"
 preserveAspectRatio="xMidYMid meet">

<g transform="translate(0.000000,512.000000) scale(0.100000,-0.100000)"
fill="#000000" stroke="none">
<path d="M2965 5029 c-71 -9 -148 -18 -170 -19 -22 -1 -33 -4 -25 -7 8 -2 66
-30 129 -61 l114 -57 96 0 c78 0 105 4 144 22 35 16 47 27 47 43 0 48 -97 102
-177 99 -15 -1 -86 -10 -158 -20z"/>
<path d="M2420 4954 c-36 -14 -83 -35 -105 -45 l-40 -19 32 0 c39 0 123 31
178 65 54 33 21 33 -65 -1z"/>
<path d="M2990 4530 c-113 -55 -209 -99 -213 -99 -5 -1 -6 16 -3 37 3 20 8 59
12 86 l7 49 -34 -20 c-19 -11 -72 -40 -119 -64 -47 -24 -93 -51 -103 -60 -10
-9 -36 -25 -58 -34 l-40 -18 3 -78 3 -77 82 -7 c74 -7 336 6 448 22 l43 6 92
178 c50 99 90 179 88 178 -2 0 -95 -45 -208 -99z"/>
<path d="M4000 3420 c0 -19 7 -20 225 -20 218 0 225 1 225 20 0 19 -7 20 -225
20 -218 0 -225 -1 -225 -20z"/>
<path d="M2730 3365 c0 -34 1 -35 37 -35 l37 0 -34 35 c-19 19 -35 35 -37 35
-2 0 -3 -16 -3 -35z"/>
<path d="M3211 3142 c25 -73 -13 -196 -79 -253 -46 -41 -91 -38 -205 10 -51
21 -108 42 -127 46 -19 3 -43 9 -52 11 -17 5 -18 -9 -18 -194 l0 -199 85 -33
c305 -118 456 -306 455 -569 -1 -227 -114 -413 -311 -510 -46 -23 -116 -49
-156 -59 l-72 -17 -3 -54 c-3 -46 -7 -57 -31 -75 -38 -28 -106 -28 -144 0 -22
17 -29 31 -33 70 l-5 49 -75 7 c-164 16 -374 112 -448 206 -28 35 -29 41 -27
122 2 47 6 108 9 135 l6 50 -120 120 -120 120 0 -141 c0 -126 -2 -143 -19
-158 -19 -17 -19 -18 0 -37 17 -17 19 -34 19 -162 0 -129 -2 -146 -19 -161
-19 -17 -19 -18 0 -37 17 -17 19 -34 19 -164 0 -129 -2 -147 -19 -164 -18 -18
-18 -19 0 -35 17 -14 19 -31 19 -161 0 -130 -2 -147 -19 -164 -19 -19 -19 -20
0 -37 17 -15 19 -32 19 -158 0 -107 -4 -147 -14 -162 -14 -19 -9 -25 74 -99
138 -123 242 -179 395 -212 86 -18 252 -13 340 12 153 42 289 134 397 267 l68
83 0 123 c0 118 1 124 26 148 l25 26 735 -3 c639 -3 736 -1 744 11 6 8 22 51
37 95 25 72 28 93 28 215 0 164 -12 211 -95 391 -50 109 -59 137 -54 165 5 27
3 34 -10 34 -10 0 -25 18 -37 48 -24 56 -89 240 -89 253 0 4 30 9 67 11 55 2
68 6 71 21 3 15 -6 17 -72 17 -58 0 -77 4 -84 16 -7 12 -37 -34 -127 -195 -65
-116 -128 -221 -139 -234 -12 -12 -18 -18 -15 -12 44 79 80 148 72 140 -5 -5
-34 -46 -64 -90 -30 -44 -57 -82 -62 -83 -4 -2 -5 -7 -2 -12 3 -4 -2 -11 -11
-14 -16 -6 -2 21 73 152 40 69 19 48 -38 -38 -30 -44 -57 -80 -62 -80 -4 0 -5
-4 -2 -10 3 -5 1 -10 -5 -10 -6 0 -8 -5 -4 -12 4 -7 3 -8 -5 -4 -9 6 -5 19 12
49 14 23 84 148 157 277 73 129 141 249 151 266 18 30 18 32 2 45 -9 8 -14 9
-10 3 8 -14 -126 -272 -221 -424 -74 -119 -97 -154 -87 -132 10 21 -4 13 -16
-9 -8 -16 -8 -20 1 -14 6 4 2 -11 -9 -34 -12 -23 -24 -41 -26 -41 -3 0 2 14
10 31 32 61 10 44 -70 -56 -16 -19 -8 -3 40 82 10 18 22 30 27 27 4 -3 5 3 1
12 -5 13 -3 15 7 9 9 -5 11 -4 6 3 -9 15 18 55 29 44 5 -4 5 -1 0 7 -7 11 -12
9 -27 -10 -56 -70 -69 -86 -88 -109 l-22 -25 20 35 c48 87 56 99 65 93 6 -3 7
-1 3 5 -8 13 21 75 32 68 4 -2 8 4 8 15 0 10 -1 19 -1 19 -1 0 -23 -30 -50
-67 -28 -38 -62 -82 -78 -99 -15 -18 -34 -40 -41 -49 -11 -15 -14 -16 -21 -4
-5 8 -5 11 0 7 11 -11 38 29 29 44 -5 7 -3 8 6 3 10 -6 12 -4 7 9 -4 9 -3 15
1 12 8 -5 16 8 64 94 l20 35 -21 -25 c-12 -14 -26 -31 -31 -37 -6 -7 -7 -13
-3 -13 4 0 0 -5 -10 -11 -9 -6 -14 -15 -11 -21 4 -6 3 -8 -3 -5 -6 4 -18 -5
-27 -18 -20 -30 -42 -24 -26 6 6 11 16 16 22 13 8 -5 9 -1 5 10 -5 11 -3 15 5
10 8 -5 9 -2 5 10 -4 10 -3 15 3 11 9 -6 14 8 11 28 0 4 3 7 9 7 5 0 17 15 26
33 l16 32 -31 -33 c-18 -19 -36 -30 -43 -26 -7 4 -8 3 -4 -5 4 -6 0 -14 -8
-17 -9 -3 -14 -9 -12 -13 2 -3 -6 -15 -16 -26 -20 -20 -20 -20 -4 13 9 17 21
32 26 32 6 0 9 3 9 8 -3 19 2 33 11 27 6 -4 7 1 3 11 -4 12 -3 15 5 10 8 -5
10 -1 5 10 -4 11 -3 15 5 10 6 -3 16 2 22 13 7 15 7 22 -2 27 -7 4 -10 4 -7 0
4 -4 -3 -17 -15 -30 -19 -20 -62 -71 -101 -121 -9 -11 0 9 20 45 19 36 39 64
45 63 5 -2 6 5 3 14 -4 11 -3 14 5 9 8 -5 10 -1 5 10 -5 13 -3 15 7 9 9 -5 11
-4 6 3 -8 14 18 55 28 45 4 -4 4 1 0 11 -6 15 -4 17 6 11 9 -5 11 -4 6 3 -4 7
-9 12 -10 12 -2 0 -20 -25 -40 -55 -20 -30 -41 -55 -47 -55 -5 0 -8 -3 -6 -7
3 -5 -9 -24 -25 -43 l-31 -35 33 60 c46 83 56 96 65 87 5 -4 5 -2 1 5 -9 16
22 75 35 67 7 -4 6 2 -1 16 -7 13 -8 20 -2 16 11 -6 28 31 23 48 -1 5 6 3 15
-5 12 -10 15 -10 10 -1 -4 7 1 28 13 48 12 20 18 41 14 47 -4 7 2 5 12 -3 11
-9 16 -10 11 -3 -9 16 24 74 37 66 6 -3 7 -1 3 5 -10 16 22 74 36 66 7 -4 8
-3 4 4 -4 7 9 40 28 74 20 35 36 61 36 58 0 -8 -58 -156 -75 -193 -11 -23 -12
-27 -2 -15 8 10 17 15 21 11 4 -4 4 1 0 11 -5 13 -4 17 4 12 8 -5 10 -1 5 10
-4 11 -2 15 4 11 6 -4 10 1 9 11 0 9 5 16 12 14 8 -1 11 2 8 7 -9 14 5 42 17
34 6 -3 7 -1 3 5 -3 6 3 26 15 44 12 18 18 24 14 13 -4 -11 -9 -31 -11 -44 -3
-13 -10 -33 -15 -44 -8 -14 -7 -22 2 -31 9 -8 10 -8 6 0 -4 7 0 15 9 18 8 3
13 10 9 16 -5 8 20 70 29 70 2 0 2 -10 2 -22 -1 -13 3 -29 8 -37 9 -12 7 -12
-14 -1 -21 11 -23 11 -13 -1 17 -21 17 -21 -6 -66 -12 -24 -19 -43 -16 -43 2
0 14 18 25 40 11 22 18 40 15 40 -3 0 4 9 15 20 11 11 20 25 20 32 0 7 -100
113 -223 238 -122 124 -323 326 -445 450 -174 176 -220 218 -211 192z m714
-853 c-4 -11 -25 -51 -47 -89 -22 -39 -36 -75 -32 -81 5 -8 3 -9 -6 -4 -10 6
-12 4 -7 -9 4 -10 3 -15 -3 -11 -5 3 -14 -3 -19 -14 -14 -26 -14 -34 1 -25 7
4 8 3 4 -5 -4 -6 -12 -8 -18 -5 -8 5 -9 1 -5 -10 4 -10 3 -15 -3 -11 -12 8
-43 -52 -34 -67 4 -6 3 -8 -4 -4 -6 3 -29 -28 -56 -76 -25 -46 -55 -94 -67
-108 -11 -14 -4 7 18 46 67 125 278 494 281 494 2 0 0 -9 -3 -21z m-59 -25
c-4 -27 -230 -423 -245 -429 -9 -3 -7 5 6 27 11 18 68 120 127 226 60 105 110
192 111 192 2 0 2 -7 1 -16z m-259 -459 c0 -8 -4 -12 -9 -9 -5 3 -6 10 -3 15
9 13 12 11 12 -6z m228 -355 c-9 -16 -18 -30 -21 -30 -2 0 2 14 11 30 9 17 18
30 21 30 2 0 -2 -13 -11 -30z m15 -50 c-6 -11 -13 -20 -16 -20 -2 0 0 9 6 20
6 11 13 20 16 20 2 0 0 -9 -6 -20z m-1224 -465 c63 -65 111 -122 106 -126 -10
-9 -284 -79 -311 -79 -16 0 -21 4 -18 14 4 9 -2 17 -14 21 -10 4 -17 11 -14
16 4 5 1 9 -5 9 -6 0 -8 5 -5 10 3 6 -1 10 -10 10 -9 0 -13 5 -10 11 4 6 -1
31 -10 55 -9 25 -14 51 -11 59 3 8 1 15 -5 15 -6 0 -8 9 -4 20 4 12 2 20 -5
20 -7 0 -7 6 1 22 8 16 9 23 1 26 -6 2 -8 10 -5 18 3 8 -2 33 -12 56 -9 23
-18 71 -20 105 l-3 63 120 -112 c66 -62 172 -167 234 -233z"/>
<path d="M4074 3064 c3 -9 6 -18 6 -20 0 -2 83 -4 185 -4 178 0 185 1 185 20
0 19 -7 20 -191 20 -170 0 -190 -2 -185 -16z"/>
<path d="M2510 2941 c-85 -26 -130 -73 -130 -135 0 -64 37 -109 128 -155 l42
-21 0 160 c0 88 -3 160 -7 159 -5 0 -19 -4 -33 -8z"/>
<path d="M4142 2698 c3 -22 7 -23 133 -26 151 -3 175 1 175 28 0 19 -7 20
-156 20 l-155 0 3 -22z"/>
<path d="M2345 2190 c93 -93 171 -170 172 -170 2 0 3 39 3 88 l0 87 -95 39
c-52 21 -129 58 -172 82 l-78 45 170 -171z"/>
<path d="M4212 2338 c3 -22 6 -23 118 -23 112 0 115 1 118 23 3 22 2 22 -118
22 -120 0 -121 0 -118 -22z"/>
<path d="M4100 2235 c0 -9 -9 -34 -20 -55 -11 -22 -18 -40 -15 -40 11 0 54 99
45 105 -6 3 -10 -1 -10 -10z"/>
<path d="M4112 2142 c-17 -42 -25 -69 -18 -60 7 10 17 14 21 10 5 -4 5 -2 1 5
-8 14 21 76 32 69 9 -5 10 39 1 48 -3 3 -19 -29 -37 -72z"/>
<path d="M4170 2160 c-9 -17 -9 -25 1 -34 9 -8 10 -8 5 2 -4 7 -2 20 5 28 6 8
9 17 6 20 -3 3 -11 -4 -17 -16z"/>
<path d="M3974 2162 c3 -5 0 -13 -6 -15 -9 -4 -10 -6 -1 -6 17 -1 25 16 12 25
-7 4 -9 3 -5 -4z"/>
<path d="M2700 1940 l0 -181 23 7 c51 16 99 47 117 77 24 38 26 116 6 156 -17
33 -73 84 -116 106 l-30 16 0 -181z"/>
<path d="M4213 2030 c-23 -49 -40 -90 -38 -90 10 0 86 152 83 166 -2 8 -22
-26 -45 -76z"/>
<path d="M3930 2070 c-6 -11 -8 -20 -6 -20 3 0 10 9 16 20 6 11 8 20 6 20 -3
0 -10 -9 -16 -20z"/>
<path d="M4256 2033 c-20 -40 -37 -83 -32 -83 9 0 56 94 53 104 -2 6 -11 -4
-21 -21z"/>
<path d="M3800 1840 c-6 -11 -8 -20 -6 -20 3 0 10 9 16 20 6 11 8 20 6 20 -3
0 -10 -9 -16 -20z"/>
<path d="M3810 1780 c-6 -11 -8 -20 -6 -20 3 0 10 9 16 20 6 11 8 20 6 20 -3
0 -10 -9 -16 -20z"/>
</g>
</svg>
