<svg version="1.1" id="Layer_1" xmlns="http://www.w3.org/2000/svg" xmlns:xlink="http://www.w3.org/1999/xlink" x="0px" y="0px"
	 width="100%" viewBox="0 0 512 512" enable-background="new 0 0 512 512" xml:space="preserve">
<path fill="#000000" opacity="1.000000" stroke="none" 
	d="
M1.000002,280.000000 
	C1.000000,276.969391 1.000000,273.938812 1.352364,270.366730 
	C3.468905,268.390289 6.296230,267.249176 6.789991,265.463013 
	C8.068112,260.839386 8.373957,255.937683 8.905815,251.129074 
	C8.971804,250.532455 8.198777,249.490234 7.573308,249.226440 
	C3.103319,247.341141 3.118530,243.034729 4.325850,240.081360 
	C5.498268,237.213409 9.029988,235.287292 11.588527,233.018494 
	C12.795086,231.948563 14.643620,231.319199 15.362150,230.024506 
	C27.650846,207.882019 47.070023,197.612915 71.696228,196.041977 
	C76.897156,195.710205 81.815689,196.626678 84.496407,201.979324 
	C87.243759,207.465042 86.747665,212.813522 82.911163,217.469742 
	C77.904526,223.546112 72.304947,229.138092 67.373207,235.270416 
	C64.491356,238.853760 61.800220,242.838058 60.101444,247.074326 
	C56.445744,256.190613 57.191990,265.699982 57.731812,275.422607 
	C58.565716,290.442017 63.661350,302.639313 75.491440,312.018829 
	C88.488861,322.323883 103.348999,326.561066 119.636108,324.773010 
	C124.655334,324.221985 129.772842,321.770142 134.187698,319.100952 
	C142.964279,313.794525 147.559250,305.076813 152.183426,296.122742 
	C158.754105,283.399628 157.660034,271.121582 151.900467,259.029205 
	C141.739120,237.695175 133.757065,215.845047 130.831497,192.189316 
	C129.105072,178.229813 128.538818,164.441315 129.872238,150.421478 
	C131.368195,134.692520 134.964935,119.641701 140.929199,105.029198 
	C150.296356,82.079582 164.173294,62.450607 184.553772,48.276146 
	C214.926010,27.152525 248.575241,21.196295 284.967377,27.839314 
	C316.628998,33.618820 341.378723,50.204662 360.411591,75.190483 
	C379.023041,99.623100 386.922180,128.328903 388.920624,158.656418 
	C390.025482,175.423813 387.785522,191.993027 383.989655,208.335571 
	C379.717773,226.727432 372.872955,244.020966 363.386017,260.446716 
	C355.924988,273.364807 349.140930,286.798889 357.893677,302.313965 
	C362.626404,310.703186 367.124634,319.115753 375.034790,324.986694 
	C387.894897,334.531464 402.104065,334.628998 416.526306,329.906769 
	C432.869049,324.555756 446.582977,315.111298 451.241333,297.826263 
	C454.005951,287.567993 453.461121,276.358551 453.917511,265.556244 
	C454.282867,256.909241 450.790771,249.588409 444.844879,243.276901 
	C439.329529,237.422379 433.795807,231.531174 428.869690,225.190369 
	C423.666504,218.492920 424.560577,209.592499 429.186615,206.493103 
	C434.020721,203.254257 439.761139,201.966476 445.507965,203.316055 
	C452.034119,204.848663 458.601257,206.584244 464.779480,209.131683 
	C473.908997,212.896057 482.479614,217.804977 488.508026,226.042908 
	C491.806366,230.550171 494.932800,235.183258 498.189575,239.835098 
	C503.805725,237.789459 507.049286,239.170380 509.357666,244.840836 
	C511.455872,249.995163 509.293427,254.121307 502.972992,256.871490 
	C503.419220,261.720795 503.868835,266.607269 504.239777,270.638641 
	C507.429810,272.590973 510.214905,274.295502 513.000000,276.000000 
	C513.000000,278.700012 513.000000,281.400024 512.640076,284.655487 
	C509.936676,286.927887 507.593170,288.644806 505.249695,290.361725 
	C503.583374,293.895233 502.701538,298.490875 502.111023,303.123657 
	C501.998230,304.008423 502.784729,305.468353 503.581848,305.933167 
	C508.418884,308.753632 510.112244,315.251099 506.083099,319.093842 
	C503.778290,321.292053 499.916321,321.857605 496.019287,323.461121 
	C494.042053,326.828308 491.364807,331.214569 488.905670,335.719879 
	C488.406982,336.633453 488.267670,338.265869 488.755890,339.105927 
	C490.990417,342.950775 490.698975,346.708740 488.286591,350.101532 
	C485.878967,353.487579 482.115204,353.153015 478.396423,352.876617 
	C476.796204,352.757660 474.799377,353.185760 473.540833,354.118439 
	C468.990051,357.490875 464.676331,361.183105 460.101288,364.893982 
	C462.377502,368.580231 460.513794,371.610321 457.467621,373.887207 
	C454.521667,376.089203 450.748413,377.391968 447.661407,374.731110 
	C444.956757,372.399750 442.990021,373.774231 440.749664,374.705872 
	C428.215515,379.918274 415.175598,382.835236 401.606140,382.935333 
	C395.360321,382.981415 389.112793,382.196228 382.859741,382.041077 
	C377.329773,381.903809 375.547485,384.042267 378.139313,388.864258 
	C384.829315,401.310730 391.729004,413.689240 399.417725,425.528015 
	C401.853882,429.279083 406.686707,432.199860 411.047241,433.829285 
	C421.270416,437.649475 431.813721,437.035248 442.117371,433.410248 
	C450.772827,430.365021 458.969299,430.424866 466.845764,435.941437 
	C478.991425,444.448212 481.656860,461.015533 467.295837,470.079926 
	C462.903503,472.852295 457.964478,474.758514 453.128387,477.133789 
	C453.674133,481.933044 450.350677,485.832581 444.782410,486.936829 
	C440.746826,487.737152 437.403320,484.794708 435.674103,480.000031 
	C431.632141,480.000031 427.910950,479.998779 424.189758,480.000427 
	C421.268066,480.001678 419.345215,480.697266 417.709930,483.848022 
	C416.473328,486.230621 412.845337,488.506226 410.131683,488.697052 
	C406.840302,488.928558 402.621948,488.121704 401.936646,483.136230 
	C401.611115,480.768097 400.091705,479.901581 397.496796,479.922180 
	C388.619629,479.992645 380.523254,476.861481 373.960724,471.260895 
	C360.203369,459.519928 346.682007,447.463257 333.632050,434.943848 
	C321.300262,423.113434 309.645477,410.573120 297.805847,398.236694 
	C294.650482,394.948975 292.093964,391.086761 288.940796,387.796661 
	C281.664337,380.204163 274.577179,372.351532 266.630676,365.513885 
	C262.771912,362.193604 257.279846,359.642761 251.692062,361.221893 
	C243.165451,363.631592 236.149094,368.818420 230.021439,375.075317 
	C214.319733,391.107971 198.926834,407.446930 183.055054,423.307770 
	C172.068207,434.287018 160.645706,444.846313 149.132401,455.278198 
	C137.918777,465.438477 125.950676,474.330048 109.915009,473.663605 
	C107.922119,476.155243 105.727982,479.285248 103.121475,479.677887 
	C100.165878,480.123138 94.925209,478.958862 94.066048,477.004730 
	C92.138649,472.621033 89.307938,472.905182 85.913956,472.994293 
	C84.581779,473.029266 83.109299,473.370575 81.939766,472.933197 
	C77.766708,471.372498 75.196846,472.856018 72.179497,476.008514 
	C67.985909,480.389954 59.136360,477.683167 58.210377,471.852112 
	C57.724430,468.792023 56.250927,468.323181 54.041428,467.437653 
	C50.670528,466.086609 47.107662,464.765930 44.290218,462.577545 
	C38.724236,458.254272 34.179047,452.711365 35.113323,445.176422 
	C36.835426,431.287659 50.705307,421.417297 64.413040,424.836304 
	C73.235268,427.036713 81.894318,429.883820 91.239548,429.052551 
	C100.775032,428.204315 109.007896,425.260345 114.064438,416.503296 
	C120.095581,406.058380 126.168877,395.632324 131.897263,385.021759 
	C133.423798,382.194244 133.755844,378.721802 134.609558,375.641876 
	C132.591904,374.954315 131.522232,374.261902 130.465607,374.281311 
	C121.393326,374.447876 112.323250,374.951172 103.252808,374.944580 
	C93.111641,374.937195 83.442215,372.368134 74.086372,368.561310 
	C71.751358,367.611206 69.806000,366.858276 67.144539,368.790680 
	C63.930378,371.124390 59.972702,370.787994 56.714069,368.131714 
	C53.619572,365.609161 51.659302,362.587219 53.818474,358.955383 
	C49.966553,355.931732 46.495701,353.030731 42.835926,350.391724 
	C40.036697,348.373199 37.800400,345.976807 33.270309,346.758850 
	C26.029125,348.008942 22.151220,341.871277 24.818157,334.638824 
	C25.770571,332.055969 17.253105,317.432861 14.542496,317.003387 
	C14.379881,316.977631 14.206237,317.021484 14.043612,316.995728 
	C7.531842,315.965271 3.352735,309.039490 7.262999,304.010254 
	C10.798471,299.463074 9.240580,295.377350 8.878246,291.045715 
	C8.658031,288.413055 7.998266,285.522827 6.580920,283.380035 
	C5.496296,281.740265 2.915386,281.090240 1.000002,280.000000 
M17.028652,295.155121 
	C17.341026,295.728394 17.800753,296.267212 17.944101,296.880005 
	C21.026558,310.058411 27.574173,321.287750 36.666332,331.237274 
	C45.511410,340.916412 56.248959,347.712616 68.080833,353.009033 
	C82.590797,359.504272 97.911064,360.927490 113.511047,359.793976 
	C115.436249,359.654083 118.539322,356.905029 118.672447,355.178131 
	C118.891212,352.340271 115.838646,351.917145 113.139481,351.958862 
	C105.815033,352.072083 98.307312,353.021545 91.195450,351.783295 
	C70.962418,348.260529 53.427410,339.263397 39.874249,323.378113 
	C33.428356,315.823059 28.417545,307.404724 26.068626,297.736694 
	C22.962250,284.950958 21.815592,271.992218 23.966780,258.850830 
	C26.034359,246.220230 30.160091,234.803497 41.310116,227.212860 
	C43.963596,225.406448 46.936729,224.007828 49.355469,221.944168 
	C50.578945,220.900299 50.893009,218.790543 51.618237,217.162704 
	C49.649315,216.694534 47.061855,215.192551 45.818203,215.936600 
	C40.340431,219.213959 34.456097,222.396927 30.176376,226.976105 
	C19.573889,238.320496 15.449544,252.629517 15.152511,267.829803 
	C14.980507,276.631805 16.334621,285.463623 17.028652,295.155121 
M471.564850,233.041992 
	C473.384369,236.041641 475.378693,238.950500 476.992462,242.057037 
	C483.252808,254.108551 483.720825,267.194824 482.845581,280.269257 
	C482.375946,287.284180 480.977936,294.401581 478.842194,301.104156 
	C475.060089,312.973297 467.881470,322.719727 458.558594,331.125732 
	C450.715271,338.197662 441.718506,342.924103 432.185455,347.058746 
	C419.595886,352.519104 406.372131,352.282593 393.109894,351.976746 
	C390.293121,351.911804 386.958679,352.177368 387.338623,355.415466 
	C387.542145,357.149963 391.096619,359.696075 393.238953,359.799286 
	C405.506683,360.390259 417.689087,360.121033 429.618500,356.073944 
	C456.967865,346.795563 477.100037,329.721344 486.724365,302.194641 
	C491.478058,288.598572 492.080566,274.165222 490.100098,259.640167 
	C487.492462,240.515167 478.932251,225.642532 461.692139,216.271698 
	C459.049805,214.835464 456.176147,213.860565 454.501404,217.170807 
	C452.794067,220.545486 456.211121,221.524963 458.175903,223.004105 
	C462.438690,226.213272 466.742035,229.368591 471.564850,233.041992 
M215.087906,212.577545 
	C213.190445,205.811447 207.333298,203.499893 201.707550,203.322296 
	C195.722382,203.133377 190.621063,206.485794 187.774597,212.604965 
	C184.948685,218.679962 186.487808,223.839081 190.209442,228.605927 
	C193.674927,233.044693 200.712448,234.807892 205.927307,233.036682 
	C214.573578,230.100021 218.174011,222.743271 215.087906,212.577545 
M321.772888,215.245621 
	C321.022797,213.832611 320.370728,212.356369 319.506653,211.016876 
	C314.060791,202.574448 302.547913,201.724686 296.159302,209.400391 
	C290.878052,215.745651 290.815460,221.968872 295.996857,228.421234 
	C300.230530,233.693436 306.941589,236.064987 314.154755,231.919693 
	C320.127350,228.487350 322.693024,222.984909 321.772888,215.245621 
M247.119598,316.646118 
	C260.856842,318.912445 272.729553,315.741302 283.126373,304.113953 
	C275.754547,302.121460 270.011078,305.395874 264.068176,305.805908 
	C257.886505,306.232361 251.616226,305.143616 245.383423,305.124146 
	C239.374329,305.105347 233.482361,301.038147 226.831299,304.154907 
	C232.439301,310.617004 238.831802,314.405151 247.119598,316.646118 
z"/>
<path fill="#FFFFFF" opacity="1.000000" stroke="none" 
	d="
M513.000000,275.531342 
	C510.214905,274.295502 507.429810,272.590973 504.239777,270.638641 
	C503.868835,266.607269 503.419220,261.720795 502.972992,256.871490 
	C509.293427,254.121307 511.455872,249.995163 509.357666,244.840836 
	C507.049286,239.170380 503.805725,237.789459 498.189575,239.835098 
	C494.932800,235.183258 491.806366,230.550171 488.508026,226.042908 
	C482.479614,217.804977 473.908997,212.896057 464.779480,209.131683 
	C458.601257,206.584244 452.034119,204.848663 445.507965,203.316055 
	C439.761139,201.966476 434.020721,203.254257 429.186615,206.493103 
	C424.560577,209.592499 423.666504,218.492920 428.869690,225.190369 
	C433.795807,231.531174 439.329529,237.422379 444.844879,243.276901 
	C450.790771,249.588409 454.282867,256.909241 453.917511,265.556244 
	C453.461121,276.358551 454.005951,287.567993 451.241333,297.826263 
	C446.582977,315.111298 432.869049,324.555756 416.526306,329.906769 
	C402.104065,334.628998 387.894897,334.531464 375.034790,324.986694 
	C367.124634,319.115753 362.626404,310.703186 357.893677,302.313965 
	C349.140930,286.798889 355.924988,273.364807 363.386017,260.446716 
	C372.872955,244.020966 379.717773,226.727432 383.989655,208.335571 
	C387.785522,191.993027 390.025482,175.423813 388.920624,158.656418 
	C386.922180,128.328903 379.023041,99.623100 360.411591,75.190483 
	C341.378723,50.204662 316.628998,33.618820 284.967377,27.839314 
	C248.575241,21.196295 214.926010,27.152525 184.553772,48.276146 
	C164.173294,62.450607 150.296356,82.079582 140.929199,105.029198 
	C134.964935,119.641701 131.368195,134.692520 129.872238,150.421478 
	C128.538818,164.441315 129.105072,178.229813 130.831497,192.189316 
	C133.757065,215.845047 141.739120,237.695175 151.900467,259.029205 
	C157.660034,271.121582 158.754105,283.399628 152.183426,296.122742 
	C147.559250,305.076813 142.964279,313.794525 134.187698,319.100952 
	C129.772842,321.770142 124.655334,324.221985 119.636108,324.773010 
	C103.348999,326.561066 88.488861,322.323883 75.491440,312.018829 
	C63.661350,302.639313 58.565716,290.442017 57.731812,275.422607 
	C57.191990,265.699982 56.445744,256.190613 60.101444,247.074326 
	C61.800220,242.838058 64.491356,238.853760 67.373207,235.270416 
	C72.304947,229.138092 77.904526,223.546112 82.911163,217.469742 
	C86.747665,212.813522 87.243759,207.465042 84.496407,201.979324 
	C81.815689,196.626678 76.897156,195.710205 71.696228,196.041977 
	C47.070023,197.612915 27.650846,207.882019 15.362150,230.024506 
	C14.643620,231.319199 12.795086,231.948563 11.588527,233.018494 
	C9.029988,235.287292 5.498268,237.213409 4.325850,240.081360 
	C3.118530,243.034729 3.103319,247.341141 7.573308,249.226440 
	C8.198777,249.490234 8.971804,250.532455 8.905815,251.129074 
	C8.373957,255.937683 8.068112,260.839386 6.789991,265.463013 
	C6.296230,267.249176 3.468905,268.390289 1.352364,269.912628 
	C1.000000,180.370438 1.000000,90.740868 1.000000,1.055653 
	C171.558929,1.055653 342.117859,1.055653 513.000000,1.055653 
	C513.000000,92.353973 513.000000,183.708328 513.000000,275.531342 
z"/>
<path fill="#FFFFFF" opacity="1.000000" stroke="none" 
	d="
M1.000002,280.468658 
	C2.915386,281.090240 5.496296,281.740265 6.580920,283.380035 
	C7.998266,285.522827 8.658031,288.413055 8.878246,291.045715 
	C9.240580,295.377350 10.798471,299.463074 7.262999,304.010254 
	C3.352735,309.039490 7.531842,315.965271 14.043612,316.995728 
	C14.206237,317.021484 14.379881,316.977631 14.542496,317.003387 
	C17.253105,317.432861 25.770571,332.055969 24.818157,334.638824 
	C22.151220,341.871277 26.029125,348.008942 33.270309,346.758850 
	C37.800400,345.976807 40.036697,348.373199 42.835926,350.391724 
	C46.495701,353.030731 49.966553,355.931732 53.818474,358.955383 
	C51.659302,362.587219 53.619572,365.609161 56.714069,368.131714 
	C59.972702,370.787994 63.930378,371.124390 67.144539,368.790680 
	C69.806000,366.858276 71.751358,367.611206 74.086372,368.561310 
	C83.442215,372.368134 93.111641,374.937195 103.252808,374.944580 
	C112.323250,374.951172 121.393326,374.447876 130.465607,374.281311 
	C131.522232,374.261902 132.591904,374.954315 134.609558,375.641876 
	C133.755844,378.721802 133.423798,382.194244 131.897263,385.021759 
	C126.168877,395.632324 120.095581,406.058380 114.064438,416.503296 
	C109.007896,425.260345 100.775032,428.204315 91.239548,429.052551 
	C81.894318,429.883820 73.235268,427.036713 64.413040,424.836304 
	C50.705307,421.417297 36.835426,431.287659 35.113323,445.176422 
	C34.179047,452.711365 38.724236,458.254272 44.290218,462.577545 
	C47.107662,464.765930 50.670528,466.086609 54.041428,467.437653 
	C56.250927,468.323181 57.724430,468.792023 58.210377,471.852112 
	C59.136360,477.683167 67.985909,480.389954 72.179497,476.008514 
	C75.196846,472.856018 77.766708,471.372498 81.939766,472.933197 
	C83.109299,473.370575 84.581779,473.029266 85.913956,472.994293 
	C89.307938,472.905182 92.138649,472.621033 94.066048,477.004730 
	C94.925209,478.958862 100.165878,480.123138 103.121475,479.677887 
	C105.727982,479.285248 107.922119,476.155243 109.915009,473.663605 
	C125.950676,474.330048 137.918777,465.438477 149.132401,455.278198 
	C160.645706,444.846313 172.068207,434.287018 183.055054,423.307770 
	C198.926834,407.446930 214.319733,391.107971 230.021439,375.075317 
	C236.149094,368.818420 243.165451,363.631592 251.692062,361.221893 
	C257.279846,359.642761 262.771912,362.193604 266.630676,365.513885 
	C274.577179,372.351532 281.664337,380.204163 288.940796,387.796661 
	C292.093964,391.086761 294.650482,394.948975 297.805847,398.236694 
	C309.645477,410.573120 321.300262,423.113434 333.632050,434.943848 
	C346.682007,447.463257 360.203369,459.519928 373.960724,471.260895 
	C380.523254,476.861481 388.619629,479.992645 397.496796,479.922180 
	C400.091705,479.901581 401.611115,480.768097 401.936646,483.136230 
	C402.621948,488.121704 406.840302,488.928558 410.131683,488.697052 
	C412.845337,488.506226 416.473328,486.230621 417.709930,483.848022 
	C419.345215,480.697266 421.268066,480.001678 424.189758,480.000427 
	C427.910950,479.998779 431.632141,480.000031 435.674103,480.000031 
	C437.403320,484.794708 440.746826,487.737152 444.782410,486.936829 
	C450.350677,485.832581 453.674133,481.933044 453.128387,477.133789 
	C457.964478,474.758514 462.903503,472.852295 467.295837,470.079926 
	C481.656860,461.015533 478.991425,444.448212 466.845764,435.941437 
	C458.969299,430.424866 450.772827,430.365021 442.117371,433.410248 
	C431.813721,437.035248 421.270416,437.649475 411.047241,433.829285 
	C406.686707,432.199860 401.853882,429.279083 399.417725,425.528015 
	C391.729004,413.689240 384.829315,401.310730 378.139313,388.864258 
	C375.547485,384.042267 377.329773,381.903809 382.859741,382.041077 
	C389.112793,382.196228 395.360321,382.981415 401.606140,382.935333 
	C415.175598,382.835236 428.215515,379.918274 440.749664,374.705872 
	C442.990021,373.774231 444.956757,372.399750 447.661407,374.731110 
	C450.748413,377.391968 454.521667,376.089203 457.467621,373.887207 
	C460.513794,371.610321 462.377502,368.580231 460.101288,364.893982 
	C464.676331,361.183105 468.990051,357.490875 473.540833,354.118439 
	C474.799377,353.185760 476.796204,352.757660 478.396423,352.876617 
	C482.115204,353.153015 485.878967,353.487579 488.286591,350.101532 
	C490.698975,346.708740 490.990417,342.950775 488.755890,339.105927 
	C488.267670,338.265869 488.406982,336.633453 488.905670,335.719879 
	C491.364807,331.214569 494.042053,326.828308 496.019287,323.461121 
	C499.916321,321.857605 503.778290,321.292053 506.083099,319.093842 
	C510.112244,315.251099 508.418884,308.753632 503.581848,305.933167 
	C502.784729,305.468353 501.998230,304.008423 502.111023,303.123657 
	C502.701538,298.490875 503.583374,293.895233 505.249695,290.361725 
	C507.593170,288.644806 509.936676,286.927887 512.640076,285.105469 
	C513.000000,360.965790 513.000000,436.931610 513.000000,512.948730 
	C342.444336,512.948730 171.888626,512.948730 1.000000,512.948730 
	C1.000000,435.646088 1.000000,358.291718 1.000002,280.468658 
z"/>
<path fill="#FFFFFF" opacity="1.000000" stroke="none" 
	d="
M17.015293,294.718567 
	C16.334621,285.463623 14.980507,276.631805 15.152511,267.829803 
	C15.449544,252.629517 19.573889,238.320496 30.176376,226.976105 
	C34.456097,222.396927 40.340431,219.213959 45.818203,215.936600 
	C47.061855,215.192551 49.649315,216.694534 51.618240,217.162704 
	C50.893009,218.790543 50.578945,220.900299 49.355469,221.944168 
	C46.936729,224.007828 43.963596,225.406448 41.310116,227.212860 
	C30.160091,234.803497 26.034359,246.220230 23.966780,258.850830 
	C21.815592,271.992218 22.962250,284.950958 26.068626,297.736694 
	C28.417545,307.404724 33.428356,315.823059 39.874249,323.378113 
	C53.427410,339.263397 70.962418,348.260529 91.195450,351.783295 
	C98.307312,353.021545 105.815033,352.072083 113.139481,351.958862 
	C115.838646,351.917145 118.891212,352.340271 118.672447,355.178131 
	C118.539322,356.905029 115.436249,359.654083 113.511047,359.793976 
	C97.911064,360.927490 82.590797,359.504272 68.080833,353.009033 
	C56.248959,347.712616 45.511410,340.916412 36.666332,331.237274 
	C27.574173,321.287750 21.026558,310.058411 17.944101,296.880005 
	C17.800753,296.267212 17.341026,295.728394 17.015293,294.718567 
z"/>
<path fill="#FFFFFF" opacity="1.000000" stroke="none" 
	d="
M471.296814,232.793976 
	C466.742035,229.368591 462.438690,226.213272 458.175903,223.004105 
	C456.211121,221.524963 452.794067,220.545486 454.501404,217.170807 
	C456.176147,213.860565 459.049805,214.835464 461.692139,216.271698 
	C478.932251,225.642532 487.492462,240.515167 490.100098,259.640167 
	C492.080566,274.165222 491.478058,288.598572 486.724365,302.194641 
	C477.100037,329.721344 456.967865,346.795563 429.618500,356.073944 
	C417.689087,360.121033 405.506683,360.390259 393.238953,359.799286 
	C391.096619,359.696075 387.542145,357.149963 387.338623,355.415466 
	C386.958679,352.177368 390.293121,351.911804 393.109894,351.976746 
	C406.372131,352.282593 419.595886,352.519104 432.185455,347.058746 
	C441.718506,342.924103 450.715271,338.197662 458.558594,331.125732 
	C467.881470,322.719727 475.060089,312.973297 478.842194,301.104156 
	C480.977936,294.401581 482.375946,287.284180 482.845581,280.269257 
	C483.720825,267.194824 483.252808,254.108551 476.992462,242.057037 
	C475.378693,238.950500 473.384369,236.041641 471.296814,232.793976 
z"/>
<path fill="#FFFFFF" opacity="1.000000" stroke="none" 
	d="
M215.377014,212.857483 
	C218.174011,222.743271 214.573578,230.100021 205.927307,233.036682 
	C200.712448,234.807892 193.674927,233.044693 190.209442,228.605927 
	C186.487808,223.839081 184.948685,218.679962 187.774597,212.604965 
	C190.621063,206.485794 195.722382,203.133377 201.707550,203.322296 
	C207.333298,203.499893 213.190445,205.811447 215.377014,212.857483 
z"/>
<path fill="#FFFFFF" opacity="1.000000" stroke="none" 
	d="
M321.878693,215.652161 
	C322.693024,222.984909 320.127350,228.487350 314.154755,231.919693 
	C306.941589,236.064987 300.230530,233.693436 295.996857,228.421234 
	C290.815460,221.968872 290.878052,215.745651 296.159302,209.400391 
	C302.547913,201.724686 314.060791,202.574448 319.506653,211.016876 
	C320.370728,212.356369 321.022797,213.832611 321.878693,215.652161 
z"/>
<path fill="#FFFFFF" opacity="1.000000" stroke="none" 
	d="
M246.813004,316.350311 
	C238.831802,314.405151 232.439301,310.617004 226.831299,304.154907 
	C233.482361,301.038147 239.374329,305.105347 245.383423,305.124146 
	C251.616226,305.143616 257.886505,306.232361 264.068176,305.805908 
	C270.011078,305.395874 275.754547,302.121460 283.126373,304.113953 
	C272.729553,315.741302 260.856842,318.912445 246.813004,316.350311 
z"/>
</svg>