<svg version="1.1" id="Layer_1" xmlns="http://www.w3.org/2000/svg" xmlns:xlink="http://www.w3.org/1999/xlink" x="0px" y="0px"
	 width="100%" viewBox="0 0 128 128" enable-background="new 0 0 128 128" xml:space="preserve">
<path fill="#000000" opacity="1.000000" stroke="none" 
	d="
M72.000000,129.000000 
	C48.000000,129.000000 24.500000,129.000000 1.000000,129.000000 
	C1.000000,86.333336 1.000000,43.666668 1.000000,1.000000 
	C43.666668,1.000000 86.333336,1.000000 129.000000,1.000000 
	C129.000000,43.666668 129.000000,86.333336 129.000000,129.000000 
	C110.166664,129.000000 91.333336,129.000000 72.000000,129.000000 
M28.974327,31.950996 
	C28.941797,34.271828 28.909267,36.592659 28.263340,39.216160 
	C21.648993,48.834133 14.664710,58.223682 8.539325,68.143585 
	C3.783705,75.845184 7.155698,86.477554 14.662615,91.760780 
	C10.812208,94.950027 6.961802,98.139267 3.111396,101.328514 
	C3.123086,101.861015 3.134776,102.393524 3.146466,102.926033 
	C5.075066,103.321419 7.003666,103.716812 8.987345,105.031769 
	C8.958416,110.344246 8.929487,115.656715 8.079282,120.995453 
	C5.203825,121.684830 5.203825,121.684830 5.807341,124.800613 
	C45.362049,124.800613 84.927200,124.800613 124.452179,124.800613 
	C126.052704,120.876656 123.561455,120.936829 121.018814,120.039078 
	C121.049271,101.364975 121.079735,82.690865 121.708122,63.752918 
	C123.572464,62.187099 125.436798,60.621281 127.159927,59.174065 
	C125.661110,57.318962 124.735359,56.173153 123.787666,55.000175 
	C120.678940,57.505630 117.910858,59.736542 115.020126,61.043793 
	C115.020126,57.179943 115.020126,53.316093 115.020126,49.269211 
	C113.472916,49.101257 112.236580,48.967049 111.000359,47.947075 
	C110.946320,44.976860 110.892273,42.006645 110.960106,38.227104 
	C110.919487,37.139183 110.878876,36.051258 110.969177,34.176674 
	C110.923897,33.117428 110.878616,32.058182 110.979134,30.207277 
	C110.930534,29.138540 110.881935,28.069803 110.968224,26.207321 
	C110.923256,25.137859 110.878296,24.068396 110.979126,22.207277 
	C110.930527,21.138540 110.881927,20.069803 110.968582,18.099773 
	C110.968582,15.506765 110.968582,12.913757 110.968582,10.398328 
	C101.413887,9.123005 92.453720,7.927037 82.924759,6.655148 
	C82.924759,12.700129 82.924759,17.810598 82.123573,23.011185 
	C77.165375,24.145744 72.207176,25.280302 67.027832,26.465466 
	C67.027832,32.955696 67.027832,39.373878 66.197121,45.957897 
	C62.829773,46.627773 59.462421,47.297649 55.805607,47.341068 
	C53.578255,44.531902 51.350903,41.722736 49.026310,38.048786 
	C49.057819,35.727764 49.089333,33.406742 49.738239,30.779520 
	C51.054863,29.137539 52.914715,27.678839 53.546646,25.805849 
	C54.288551,23.606911 54.973629,20.167847 53.842976,18.870356 
	C52.462036,17.285641 48.509842,16.091520 46.823471,16.962524 
	C41.295326,19.817793 36.516037,20.314005 31.017687,16.841488 
	C29.610195,15.952579 25.862602,17.169865 24.313169,18.619705 
	C23.111837,19.743818 22.865070,23.085819 23.622955,24.816000 
	C24.673136,27.213461 27.063135,29.024033 28.974327,31.950996 
z"/>
<path fill="#85BB40" opacity="1.000000" stroke="none" 
	d="
M8.900557,120.969193 
	C8.929487,115.656715 8.958416,110.344246 9.037472,104.227814 
	C14.716482,98.622887 20.578592,94.064995 25.907967,88.951843 
	C31.127262,83.944298 35.987637,83.892967 42.410652,86.989639 
	C56.767361,93.911308 56.928921,93.572563 69.752556,83.878006 
	C70.413971,83.377991 71.136986,82.959869 71.802902,82.465347 
	C81.335564,75.386185 81.334389,75.384598 91.216507,81.794556 
	C96.986931,85.537498 97.677979,85.431702 102.747368,80.751251 
	C108.831848,75.133598 114.986137,69.591553 121.110199,64.016762 
	C121.079735,82.690865 121.049271,101.364975 120.690308,120.363480 
	C119.907875,118.848030 119.082947,117.012566 119.061226,115.167633 
	C118.935715,104.507156 119.136078,93.841461 118.902489,83.184624 
	C118.845131,80.567978 117.580643,77.977776 116.871124,75.375412 
	C116.247513,77.897095 115.129745,80.410110 115.085335,82.941948 
	C114.886696,94.266830 115.062859,105.598114 114.893120,116.923927 
	C114.874474,118.167969 113.504974,119.391769 112.762009,120.624962 
	C112.177788,119.399712 111.439232,118.219803 111.061333,116.933922 
	C110.790680,116.012985 111.000366,114.950111 111.000244,113.950569 
	C110.999168,104.787956 111.092216,95.623535 110.915283,86.464333 
	C110.882309,84.757286 109.766266,83.071159 109.150047,81.375381 
	C108.433662,83.137711 107.133606,84.888199 107.097542,86.664337 
	C106.894669,96.655846 107.068588,106.654694 106.906853,116.647690 
	C106.885239,117.983177 105.690048,119.299675 105.038330,120.624962 
	C104.361298,119.325226 103.130974,118.039200 103.098381,116.723495 
	C102.908653,109.064842 103.107452,101.396355 102.903099,93.738441 
	C102.863853,92.267532 101.614258,90.828918 100.923035,89.375404 
	C100.282883,90.880226 99.128769,92.371780 99.089516,93.892113 
	C98.896080,101.383858 99.111130,108.886459 98.897209,116.377090 
	C98.856239,117.811768 97.537170,119.209946 96.807747,120.624962 
	C96.206856,119.248367 95.116768,117.882584 95.086075,116.493385 
	C94.913177,108.667236 95.072014,100.833870 94.909630,93.007278 
	C94.884277,91.785309 93.791443,90.585472 93.192230,89.375404 
	C92.464508,90.623917 91.139961,91.856812 91.106834,93.123482 
	C90.906586,100.781616 91.103813,108.450027 90.911003,116.108536 
	C90.872734,117.628441 89.717232,119.120216 89.076935,120.624962 
	C88.385590,119.171509 87.126579,117.729988 87.095741,116.262650 
	C86.906761,107.270538 87.077736,98.270981 86.902107,89.278328 
	C86.876457,87.965233 85.639748,86.675789 84.963409,85.375404 
	C84.311249,86.700188 83.120972,88.014221 83.094269,89.351486 
	C82.921356,98.010902 83.120049,106.678360 82.902176,115.335770 
	C82.857407,117.114922 81.566444,118.862717 80.849884,120.624962 
	C80.233551,118.929230 79.120674,117.244026 79.084480,115.536003 
	C78.900963,106.877022 79.074928,98.210686 78.916237,89.550728 
	C78.890556,88.149162 77.822411,86.766685 77.236137,85.375389 
	C76.492355,86.775848 75.141136,88.160858 75.105064,89.579315 
	C74.897621,97.737129 75.131569,105.906334 74.914207,114.063629 
	C74.855553,116.265091 73.748466,118.438614 73.122627,120.624962 
	C72.415039,118.520370 71.193108,116.438896 71.097267,114.306801 
	C70.820740,108.155251 71.124939,101.978806 70.906403,95.822594 
	C70.853050,94.319603 69.670067,92.856712 69.006454,91.375389 
	C68.338554,92.852402 67.141472,94.312607 67.093918,95.809341 
	C66.882370,102.466377 67.134674,109.138580 66.902313,115.794243 
	C66.845345,117.425896 65.593025,119.015823 64.890266,120.624931 
	C64.260513,118.942665 63.176685,117.284065 63.087524,115.573624 
	C62.836353,110.755348 63.144791,105.907768 62.889168,101.089966 
	C62.821674,99.817909 61.511154,98.611794 60.771420,97.375404 
	C60.184204,98.597588 59.137257,99.802299 59.090000,101.045013 
	C58.893917,106.202118 59.126507,111.376007 58.910370,116.531525 
	C58.852242,117.918129 57.766418,119.261650 57.152351,120.624947 
	C56.436108,119.196625 55.175175,117.795616 55.101936,116.335060 
	C54.843605,111.183380 55.110207,106.006432 54.898056,100.850578 
	C54.849422,99.668610 53.684628,98.532570 53.033508,97.375389 
	C52.360855,98.510239 51.154057,99.623451 51.107044,100.783661 
	C50.891376,106.106163 51.133198,111.447693 50.897686,116.768539 
	C50.839607,118.080696 49.607220,119.340874 48.914673,120.624947 
	C48.278473,119.283989 47.141796,117.960999 47.092918,116.598969 
	C46.883949,110.775551 47.122917,104.935555 46.891285,99.113831 
	C46.840679,97.841927 45.528099,96.620224 44.796707,95.375404 
	C44.201138,96.589157 43.128891,97.788170 43.090813,99.019180 
	C42.905445,105.010971 43.095490,111.014412 42.908203,117.006081 
	C42.869972,118.229195 41.782387,119.419510 41.178528,120.624939 
	C40.455200,119.371933 39.142960,118.135986 39.106091,116.863106 
	C38.898750,109.705482 39.096592,102.536354 38.906319,95.377792 
	C38.870449,94.028282 37.706013,92.708763 37.062340,91.375404 
	C36.377499,92.667206 35.136757,93.943542 35.100296,95.253387 
	C34.901028,102.411469 35.099194,109.580589 34.900494,116.738701 
	C34.864063,118.051186 33.628304,119.330376 32.946144,120.624939 
	C32.299553,119.294479 31.137362,117.980446 31.094351,116.630753 
	C30.892822,110.306541 31.129898,103.967697 30.897264,97.645607 
	C30.844027,96.198799 29.551319,94.797592 28.829058,93.375397 
	C28.221252,94.744949 27.130566,96.099838 27.088430,97.486580 
	C26.896254,103.811363 27.102983,110.148224 26.914106,116.473213 
	C26.872313,117.872818 25.806225,119.241829 25.211784,120.624931 
	C24.475910,119.216431 23.190374,117.840477 23.104689,116.393478 
	C22.819567,111.578423 23.055283,106.734268 22.862915,101.910378 
	C22.828335,101.043221 21.710026,100.219284 21.092073,99.375389 
	C20.419632,100.158279 19.411161,100.846138 19.156355,101.747139 
	C18.805729,102.986946 19.009569,104.387886 19.003187,105.719925 
	C18.984026,109.717972 19.108223,113.723648 18.876266,117.708878 
	C18.817736,118.714508 17.637316,119.654839 16.972441,120.625175 
	C16.325293,119.636581 15.670695,118.652695 15.040640,117.653328 
	C14.963806,117.531441 15.052106,117.316971 15.007850,117.161346 
	C13.910250,113.301506 17.297083,108.619827 12.850919,105.374863 
	C12.228312,109.402542 11.722660,113.453918 10.914538,117.444023 
	C10.659478,118.703384 9.594736,119.798759 8.900557,120.969193 
z"/>
<path fill="#7BA03F" opacity="1.000000" stroke="none" 
	d="
M8.489919,120.982323 
	C9.594736,119.798759 10.659478,118.703384 10.914538,117.444023 
	C11.722660,113.453918 12.228312,109.402542 12.850919,105.374863 
	C17.297083,108.619827 13.910250,113.301506 15.007850,117.161346 
	C15.052106,117.316971 14.963806,117.531441 15.040640,117.653328 
	C15.670695,118.652695 16.325293,119.636581 16.972441,120.625175 
	C17.637316,119.654839 18.817736,118.714508 18.876266,117.708878 
	C19.108223,113.723648 18.984026,109.717972 19.003187,105.719925 
	C19.009569,104.387886 18.805729,102.986946 19.156355,101.747139 
	C19.411161,100.846138 20.419632,100.158279 21.092073,99.375389 
	C21.710026,100.219284 22.828335,101.043221 22.862915,101.910378 
	C23.055283,106.734268 22.819567,111.578423 23.104689,116.393478 
	C23.190374,117.840477 24.475910,119.216431 25.211784,120.624931 
	C25.806225,119.241829 26.872313,117.872818 26.914106,116.473213 
	C27.102983,110.148224 26.896254,103.811363 27.088430,97.486580 
	C27.130566,96.099838 28.221252,94.744949 28.829058,93.375397 
	C29.551319,94.797592 30.844027,96.198799 30.897264,97.645607 
	C31.129898,103.967697 30.892822,110.306541 31.094351,116.630753 
	C31.137362,117.980446 32.299553,119.294479 32.946144,120.624939 
	C33.628304,119.330376 34.864063,118.051186 34.900494,116.738701 
	C35.099194,109.580589 34.901028,102.411469 35.100296,95.253387 
	C35.136757,93.943542 36.377499,92.667206 37.062340,91.375404 
	C37.706013,92.708763 38.870449,94.028282 38.906319,95.377792 
	C39.096592,102.536354 38.898750,109.705482 39.106091,116.863106 
	C39.142960,118.135986 40.455200,119.371933 41.178528,120.624939 
	C41.782387,119.419510 42.869972,118.229195 42.908203,117.006081 
	C43.095490,111.014412 42.905445,105.010971 43.090813,99.019180 
	C43.128891,97.788170 44.201138,96.589157 44.796707,95.375404 
	C45.528099,96.620224 46.840679,97.841927 46.891285,99.113831 
	C47.122917,104.935555 46.883949,110.775551 47.092918,116.598969 
	C47.141796,117.960999 48.278473,119.283989 48.914673,120.624947 
	C49.607220,119.340874 50.839607,118.080696 50.897686,116.768539 
	C51.133198,111.447693 50.891376,106.106163 51.107044,100.783661 
	C51.154057,99.623451 52.360855,98.510239 53.033508,97.375389 
	C53.684628,98.532570 54.849422,99.668610 54.898056,100.850578 
	C55.110207,106.006432 54.843605,111.183380 55.101936,116.335060 
	C55.175175,117.795616 56.436108,119.196625 57.152351,120.624947 
	C57.766418,119.261650 58.852242,117.918129 58.910370,116.531525 
	C59.126507,111.376007 58.893917,106.202118 59.090000,101.045013 
	C59.137257,99.802299 60.184204,98.597588 60.771420,97.375404 
	C61.511154,98.611794 62.821674,99.817909 62.889168,101.089966 
	C63.144791,105.907768 62.836353,110.755348 63.087524,115.573624 
	C63.176685,117.284065 64.260513,118.942665 64.890266,120.624931 
	C65.593025,119.015823 66.845345,117.425896 66.902313,115.794243 
	C67.134674,109.138580 66.882370,102.466377 67.093918,95.809341 
	C67.141472,94.312607 68.338554,92.852402 69.006454,91.375389 
	C69.670067,92.856712 70.853050,94.319603 70.906403,95.822594 
	C71.124939,101.978806 70.820740,108.155251 71.097267,114.306801 
	C71.193108,116.438896 72.415039,118.520370 73.122627,120.624962 
	C73.748466,118.438614 74.855553,116.265091 74.914207,114.063629 
	C75.131569,105.906334 74.897621,97.737129 75.105064,89.579315 
	C75.141136,88.160858 76.492355,86.775848 77.236137,85.375389 
	C77.822411,86.766685 78.890556,88.149162 78.916237,89.550728 
	C79.074928,98.210686 78.900963,106.877022 79.084480,115.536003 
	C79.120674,117.244026 80.233551,118.929230 80.849884,120.624962 
	C81.566444,118.862717 82.857407,117.114922 82.902176,115.335770 
	C83.120049,106.678360 82.921356,98.010902 83.094269,89.351486 
	C83.120972,88.014221 84.311249,86.700188 84.963409,85.375404 
	C85.639748,86.675789 86.876457,87.965233 86.902107,89.278328 
	C87.077736,98.270981 86.906761,107.270538 87.095741,116.262650 
	C87.126579,117.729988 88.385590,119.171509 89.076935,120.624962 
	C89.717232,119.120216 90.872734,117.628441 90.911003,116.108536 
	C91.103813,108.450027 90.906586,100.781616 91.106834,93.123482 
	C91.139961,91.856812 92.464508,90.623917 93.192230,89.375404 
	C93.791443,90.585472 94.884277,91.785309 94.909630,93.007278 
	C95.072014,100.833870 94.913177,108.667236 95.086075,116.493385 
	C95.116768,117.882584 96.206856,119.248367 96.807747,120.624962 
	C97.537170,119.209946 98.856239,117.811768 98.897209,116.377090 
	C99.111130,108.886459 98.896080,101.383858 99.089516,93.892113 
	C99.128769,92.371780 100.282883,90.880226 100.923035,89.375404 
	C101.614258,90.828918 102.863853,92.267532 102.903099,93.738441 
	C103.107452,101.396355 102.908653,109.064842 103.098381,116.723495 
	C103.130974,118.039200 104.361298,119.325226 105.038330,120.624962 
	C105.690048,119.299675 106.885239,117.983177 106.906853,116.647690 
	C107.068588,106.654694 106.894669,96.655846 107.097542,86.664337 
	C107.133606,84.888199 108.433662,83.137711 109.150047,81.375381 
	C109.766266,83.071159 110.882309,84.757286 110.915283,86.464333 
	C111.092216,95.623535 110.999168,104.787956 111.000244,113.950569 
	C111.000366,114.950111 110.790680,116.012985 111.061333,116.933922 
	C111.439232,118.219803 112.177788,119.399712 112.762009,120.624962 
	C113.504974,119.391769 114.874474,118.167969 114.893120,116.923927 
	C115.062859,105.598114 114.886696,94.266830 115.085335,82.941948 
	C115.129745,80.410110 116.247513,77.897095 116.871124,75.375412 
	C117.580643,77.977776 118.845131,80.567978 118.902489,83.184624 
	C119.136078,93.841461 118.935715,104.507156 119.061226,115.167633 
	C119.082947,117.012566 119.907875,118.848030 120.730743,120.828667 
	C123.561455,120.936829 126.052704,120.876656 124.452179,124.800613 
	C84.927200,124.800613 45.362049,124.800613 5.807341,124.800613 
	C5.203825,121.684830 5.203825,121.684830 8.489919,120.982323 
z"/>
<path fill="#E9AE48" opacity="1.000000" stroke="none" 
	d="
M14.882822,91.143959 
	C7.155698,86.477554 3.783705,75.845184 8.539325,68.143585 
	C14.664710,58.223682 21.648993,48.834133 29.045742,39.087528 
	C36.259949,38.943787 42.691750,38.928680 49.123550,38.913570 
	C51.350903,41.722736 53.578255,44.531902 55.882919,48.006218 
	C59.411892,53.854061 63.259960,58.824390 66.187012,64.288132 
	C68.438766,68.491356 69.531731,73.315384 70.842377,78.041153 
	C67.235870,80.745041 63.825840,83.151405 60.649654,85.834579 
	C58.042629,88.036934 55.578926,88.400459 52.434387,86.927452 
	C47.615139,84.669952 42.482628,83.062027 37.735035,80.676872 
	C34.024242,78.812599 31.420128,79.486534 28.299772,82.006218 
	C24.103849,85.394417 19.380041,88.128883 14.882822,91.143959 
M37.480190,60.661377 
	C39.839546,60.547230 42.198902,60.433083 45.153446,60.290138 
	C43.246407,56.878407 42.026020,52.815815 38.066277,53.649876 
	C36.059040,54.072670 33.879196,57.598595 33.403076,60.038799 
	C33.065266,61.770115 35.248363,64.190346 36.682991,66.005280 
	C37.744179,67.347778 39.412045,68.210724 40.809635,69.287308 
	C40.590839,69.673576 40.372044,70.059845 40.153248,70.446114 
	C38.006084,70.001633 35.858917,69.557152 33.711754,69.112679 
	C33.437199,69.492569 33.162647,69.872459 32.888096,70.252357 
	C34.282364,72.121796 35.507641,74.163620 37.153172,75.776749 
	C37.821556,76.431984 39.744217,76.698090 40.516994,76.214920 
	C46.428905,72.518608 46.298901,67.051300 40.383148,63.311066 
	C39.417118,62.700291 38.519855,61.980751 37.480190,60.661377 
z"/>
<path fill="#FABE20" opacity="1.000000" stroke="none" 
	d="
M67.027832,45.792065 
	C67.027832,39.373878 67.027832,32.955696 67.027832,26.465466 
	C72.207176,25.280302 77.165375,24.145744 82.917259,23.138374 
	C87.524055,22.835518 91.337158,22.405472 95.087341,22.432295 
	C94.961647,26.256844 94.898880,29.624521 94.408051,32.994457 
	C92.847527,33.002304 91.639778,32.761478 90.602386,33.078354 
	C89.413254,33.441578 88.375275,34.299625 87.271629,34.942703 
	C88.337105,35.622585 89.325104,36.608036 90.488190,36.902901 
	C91.858307,37.250248 93.380089,36.999355 94.907364,37.402649 
	C94.930962,38.862785 94.883308,39.928127 94.408699,40.995247 
	C91.767265,41.724754 89.552788,42.452492 87.338310,43.180229 
	C89.508430,43.787697 91.675888,44.405067 93.851715,44.991379 
	C94.158768,45.074116 94.506660,45.005268 94.907097,45.389778 
	C94.999825,46.809208 95.021103,47.845440 94.961082,48.876675 
	C94.879784,48.871674 94.778183,48.999020 94.359329,49.000977 
	C92.640373,49.013145 91.269371,48.771198 90.061859,49.110710 
	C89.034966,49.399437 88.196495,50.358318 87.274658,51.020699 
	C88.211205,51.669769 89.073143,52.665707 90.101700,52.886921 
	C91.660027,53.222080 93.334251,53.018368 94.970070,53.434349 
	C94.963509,54.867054 94.946114,55.909016 94.498260,56.965492 
	C91.826263,57.713814 89.584724,58.447620 87.343193,59.181427 
	C89.539497,59.793564 91.733368,60.414707 93.934845,61.007626 
	C94.247200,61.091755 94.596519,61.038628 94.948586,61.513512 
	C94.961334,67.656616 94.954216,73.335236 94.619820,78.911819 
	C91.195885,76.826851 88.099220,74.843925 85.002518,72.404312 
	C85.001099,65.299843 84.868286,58.648434 85.052025,52.005775 
	C85.148491,48.518063 84.174728,45.826775 80.937119,43.691780 
	C76.160332,44.189430 71.594078,44.990746 67.027832,45.792065 
z"/>
<path fill="#7DA13F" opacity="1.000000" stroke="none" 
	d="
M85.002563,72.861000 
	C88.099220,74.843925 91.195885,76.826851 94.850067,79.130295 
	C96.613365,78.972008 97.819153,78.493195 99.324310,77.868546 
	C101.202141,76.261284 102.849792,74.866982 104.345322,73.325127 
	C107.982086,69.575714 111.548203,65.757790 115.142776,61.967453 
	C117.910858,59.736542 120.678940,57.505630 123.787666,55.000175 
	C124.735359,56.173153 125.661110,57.318962 127.159927,59.174065 
	C125.436798,60.621281 123.572464,62.187099 121.409164,63.884842 
	C114.986137,69.591553 108.831848,75.133598 102.747368,80.751251 
	C97.677979,85.431702 96.986931,85.537498 91.216507,81.794556 
	C81.334389,75.384598 81.335564,75.386185 71.802902,82.465347 
	C71.136986,82.959869 70.413971,83.377991 69.752556,83.878006 
	C56.928921,93.572563 56.767361,93.911308 42.410652,86.989639 
	C35.987637,83.892967 31.127262,83.944298 25.907967,88.951843 
	C20.578592,94.064995 14.716482,98.622887 9.009932,103.768028 
	C7.003666,103.716812 5.075066,103.321419 3.146466,102.926033 
	C3.134776,102.393524 3.123086,101.861015 3.111396,101.328514 
	C6.961802,98.139267 10.812208,94.950027 14.772718,91.452370 
	C19.380041,88.128883 24.103849,85.394417 28.299772,82.006218 
	C31.420128,79.486534 34.024242,78.812599 37.735035,80.676872 
	C42.482628,83.062027 47.615139,84.669952 52.434387,86.927452 
	C55.578926,88.400459 58.042629,88.036934 60.649654,85.834579 
	C63.825840,83.151405 67.235870,80.745041 71.113297,77.870514 
	C74.787704,75.334251 77.893578,73.146416 81.299255,71.067078 
	C82.733566,71.737389 83.868065,72.299194 85.002563,72.861000 
z"/>
<path fill="#0193B9" opacity="1.000000" stroke="none" 
	d="
M95.150269,21.975422 
	C91.337158,22.405472 87.524055,22.835518 83.317856,23.093315 
	C82.924759,17.810598 82.924759,12.700129 82.924759,6.655148 
	C92.453720,7.927037 101.413887,9.123005 110.968582,10.398328 
	C110.968582,12.913757 110.968582,15.506765 110.455315,18.550423 
	C107.977493,19.001486 106.003212,19.126516 104.050591,18.974100 
	C100.848389,18.724148 100.563728,20.238079 101.447205,22.998934 
	C104.655479,22.998934 107.744408,22.998934 110.833328,22.998934 
	C110.878296,24.068396 110.923256,25.137859 110.455139,26.604195 
	C107.977493,27.001486 106.003212,27.126524 104.050591,26.974102 
	C100.848366,26.724136 100.563736,28.238075 101.447220,30.998934 
	C104.657890,30.998934 107.745605,30.998934 110.833328,30.998934 
	C110.878616,32.058182 110.923897,33.117428 110.462463,34.578999 
	C107.817711,35.016609 105.650917,34.862934 103.556030,35.181721 
	C102.736938,35.306355 102.079308,36.492092 101.348145,37.194546 
	C102.044701,37.763073 102.698906,38.747776 103.445580,38.823738 
	C105.891693,39.072598 108.371422,38.990997 110.838234,39.036430 
	C110.892273,42.006645 110.946320,44.976860 110.543701,48.460724 
	C106.379341,49.035904 102.671638,49.097439 99.024521,49.083633 
	C99.085106,49.008286 99.051056,48.817936 99.039925,48.360977 
	C99.017754,41.282631 99.310043,34.638657 98.819565,28.052971 
	C98.662773,25.947706 96.432068,23.996899 95.150269,21.975422 
z"/>
<path fill="#0393B7" opacity="1.000000" stroke="none" 
	d="
M80.999451,70.958580 
	C77.893578,73.146416 74.787704,75.334251 71.410912,77.692719 
	C69.531731,73.315384 68.438766,68.491356 66.187012,64.288132 
	C63.259960,58.824390 59.411892,53.854061 56.027653,48.319450 
	C59.462421,47.297649 62.829773,46.627773 66.612473,45.874981 
	C71.594078,44.990746 76.160332,44.189430 80.875648,44.157898 
	C81.016296,53.604649 81.007881,62.281616 80.999451,70.958580 
z"/>
<path fill="#EAAE48" opacity="1.000000" stroke="none" 
	d="
M28.879456,31.085896 
	C27.063135,29.024033 24.673136,27.213461 23.622955,24.816000 
	C22.865070,23.085819 23.111837,19.743818 24.313169,18.619705 
	C25.862602,17.169865 29.610195,15.952579 31.017687,16.841488 
	C36.516037,20.314005 41.295326,19.817793 46.823471,16.962524 
	C48.509842,16.091520 52.462036,17.285641 53.842976,18.870356 
	C54.973629,20.167847 54.288551,23.606911 53.546646,25.805849 
	C52.914715,27.678839 51.054863,29.137539 48.954052,30.909088 
	C41.739727,31.054403 35.309593,31.070150 28.879456,31.085896 
z"/>
<path fill="#F8A239" opacity="1.000000" stroke="none" 
	d="
M98.963928,49.158974 
	C102.671638,49.097439 106.379341,49.035904 110.543655,48.903606 
	C112.236580,48.967049 113.472916,49.101257 115.020126,49.269211 
	C115.020126,53.316093 115.020126,57.179943 115.081451,61.505623 
	C111.548203,65.757790 107.982086,69.575714 104.345322,73.325127 
	C102.849792,74.866982 101.202141,76.261284 99.317474,77.399033 
	C98.995491,67.769897 98.979713,58.464436 98.963928,49.158974 
M102.998619,58.852463 
	C103.651016,58.895653 104.403267,59.168320 104.935989,58.936501 
	C106.232086,58.372501 107.426270,57.574329 108.661499,56.870472 
	C107.012390,56.267056 105.368538,55.192734 103.712898,55.174252 
	C101.419594,55.148651 100.384323,56.443348 102.998619,58.852463 
M106.207603,63.047760 
	C105.552704,63.042564 104.799812,62.827129 104.263786,63.076969 
	C103.223068,63.562050 102.304184,64.308502 101.334824,64.946663 
	C101.943779,65.587234 102.541061,66.753777 103.163925,66.767601 
	C104.882492,66.805763 106.611771,66.361877 108.336807,66.108627 
	C107.889153,65.121201 107.441490,64.133774 106.207603,63.047760 
z"/>
<path fill="#B0792C" opacity="1.000000" stroke="none" 
	d="
M28.926891,31.518446 
	C35.309593,31.070150 41.739727,31.054403 48.645355,31.062187 
	C49.089333,33.406742 49.057819,35.727764 49.074928,38.481178 
	C42.691750,38.928680 36.259949,38.943787 29.352444,38.936195 
	C28.909267,36.592659 28.941797,34.271828 28.926891,31.518446 
z"/>
<path fill="#FBBE1F" opacity="1.000000" stroke="none" 
	d="
M110.906235,30.603106 
	C107.745605,30.998934 104.657890,30.998934 101.447220,30.998934 
	C100.563736,28.238075 100.848366,26.724136 104.050591,26.974102 
	C106.003212,27.126524 107.977493,27.001486 110.387695,27.001068 
	C110.881935,28.069803 110.930534,29.138540 110.906235,30.603106 
z"/>
<path fill="#FBBE1F" opacity="1.000000" stroke="none" 
	d="
M110.906227,22.603106 
	C107.744408,22.998934 104.655479,22.998934 101.447205,22.998934 
	C100.563728,20.238079 100.848389,18.724148 104.050591,18.974100 
	C106.003212,19.126516 107.977493,19.001486 110.387688,19.001068 
	C110.881927,20.069803 110.930527,21.138540 110.906227,22.603106 
z"/>
<path fill="#067A98" opacity="1.000000" stroke="none" 
	d="
M110.899170,38.631767 
	C108.371422,38.990997 105.891693,39.072598 103.445580,38.823738 
	C102.698906,38.747776 102.044701,37.763073 101.348145,37.194546 
	C102.079308,36.492092 102.736938,35.306355 103.556030,35.181721 
	C105.650917,34.862934 107.817711,35.016609 110.397003,34.972328 
	C110.878876,36.051258 110.919487,37.139183 110.899170,38.631767 
z"/>
<path fill="#B37B2D" opacity="1.000000" stroke="none" 
	d="
M37.535500,60.986431 
	C38.519855,61.980751 39.417118,62.700291 40.383148,63.311066 
	C46.298901,67.051300 46.428905,72.518608 40.516994,76.214920 
	C39.744217,76.698090 37.821556,76.431984 37.153172,75.776749 
	C35.507641,74.163620 34.282364,72.121796 32.888096,70.252357 
	C33.162647,69.872459 33.437199,69.492569 33.711754,69.112679 
	C35.858917,69.557152 38.006084,70.001633 40.153248,70.446114 
	C40.372044,70.059845 40.590839,69.673576 40.809635,69.287308 
	C39.412045,68.210724 37.744179,67.347778 36.682991,66.005280 
	C35.248363,64.190346 33.065266,61.770115 33.403076,60.038799 
	C33.879196,57.598595 36.059040,54.072670 38.066277,53.649876 
	C42.026020,52.815815 43.246407,56.878407 45.153446,60.290138 
	C42.198902,60.433083 39.839546,60.547230 37.535500,60.986431 
z"/>
<path fill="#E58A49" opacity="1.000000" stroke="none" 
	d="
M99.024521,49.083630 
	C98.979713,58.464436 98.995491,67.769897 99.018105,77.544876 
	C97.819153,78.493195 96.613365,78.972008 95.177338,79.232338 
	C94.954216,73.335236 94.961334,67.656616 94.969421,61.103588 
	C94.956512,59.136444 94.942612,58.043713 94.928719,56.950981 
	C94.946114,55.909016 94.963509,54.867054 94.980835,53.028694 
	C94.913231,51.154537 94.845703,50.076778 94.778183,48.999020 
	C94.778183,48.999020 94.879784,48.871674 95.362373,48.924629 
	C96.913658,48.924366 97.982361,48.871151 99.051056,48.817936 
	C99.051056,48.817936 99.085106,49.008286 99.024521,49.083630 
z"/>
<path fill="#F6AA23" opacity="1.000000" stroke="none" 
	d="
M81.299263,71.067078 
	C81.007881,62.281616 81.016296,53.604649 81.086182,44.461567 
	C84.174728,45.826775 85.148491,48.518063 85.052025,52.005775 
	C84.868286,58.648434 85.001099,65.299843 85.002518,72.404312 
	C83.868065,72.299194 82.733566,71.737389 81.299263,71.067078 
z"/>
<path fill="#0784A9" opacity="1.000000" stroke="none" 
	d="
M99.039925,48.360977 
	C97.982361,48.871151 96.913658,48.924366 95.443672,48.929630 
	C95.021103,47.845440 94.999825,46.809208 94.976646,44.992050 
	C94.928391,43.138577 94.882027,42.066025 94.835663,40.993473 
	C94.883308,39.928127 94.930962,38.862785 94.975571,37.004608 
	C94.927040,35.138580 94.881569,34.065392 94.836105,32.992199 
	C94.898880,29.624521 94.961647,26.256844 95.087349,22.432293 
	C96.432068,23.996899 98.662773,25.947706 98.819565,28.052971 
	C99.310043,34.638657 99.017754,41.282631 99.039925,48.360977 
z"/>
<path fill="#F79726" opacity="1.000000" stroke="none" 
	d="
M94.408707,40.995247 
	C94.882027,42.066025 94.928391,43.138577 94.905205,44.608856 
	C94.506660,45.005268 94.158768,45.074116 93.851715,44.991379 
	C91.675888,44.405067 89.508430,43.787697 87.338310,43.180229 
	C89.552788,42.452492 91.767265,41.724754 94.408707,40.995247 
z"/>
<path fill="#E8732D" opacity="1.000000" stroke="none" 
	d="
M94.359322,49.000977 
	C94.845703,50.076778 94.913231,51.154537 94.970001,52.637951 
	C93.334251,53.018368 91.660027,53.222080 90.101700,52.886921 
	C89.073143,52.665707 88.211205,51.669769 87.274658,51.020699 
	C88.196495,50.358318 89.034966,49.399437 90.061859,49.110710 
	C91.269371,48.771198 92.640373,49.013145 94.359322,49.000977 
z"/>
<path fill="#E8732D" opacity="1.000000" stroke="none" 
	d="
M94.408051,32.994457 
	C94.881569,34.065392 94.927040,35.138580 94.904312,36.609818 
	C93.380089,36.999355 91.858307,37.250248 90.488190,36.902901 
	C89.325104,36.608036 88.337105,35.622585 87.271629,34.942703 
	C88.375275,34.299625 89.413254,33.441578 90.602386,33.078354 
	C91.639778,32.761478 92.847527,33.002304 94.408051,32.994457 
z"/>
<path fill="#F79726" opacity="1.000000" stroke="none" 
	d="
M94.498260,56.965492 
	C94.942612,58.043713 94.956512,59.136444 94.949570,60.639099 
	C94.596519,61.038628 94.247200,61.091755 93.934845,61.007626 
	C91.733368,60.414707 89.539497,59.793564 87.343193,59.181427 
	C89.584724,58.447620 91.826263,57.713814 94.498260,56.965492 
z"/>
<path fill="#E47B33" opacity="1.000000" stroke="none" 
	d="
M102.621262,58.725815 
	C100.384323,56.443348 101.419594,55.148651 103.712898,55.174252 
	C105.368538,55.192734 107.012390,56.267056 108.661499,56.870476 
	C107.426270,57.574329 106.232086,58.372501 104.935989,58.936501 
	C104.403267,59.168320 103.651016,58.895653 102.621262,58.725815 
z"/>
<path fill="#F7CE2C" opacity="1.000000" stroke="none" 
	d="
M106.600716,63.097054 
	C107.441490,64.133774 107.889153,65.121201 108.336807,66.108627 
	C106.611771,66.361877 104.882492,66.805763 103.163925,66.767601 
	C102.541061,66.753777 101.943779,65.587234 101.334824,64.946663 
	C102.304184,64.308502 103.223068,63.562050 104.263786,63.076969 
	C104.799812,62.827129 105.552704,63.042564 106.600716,63.097054 
z"/>
</svg>