<?xml version="1.0" standalone="no"?>
<!DOCTYPE svg PUBLIC "-//W3C//DTD SVG 20010904//EN"
 "http://www.w3.org/TR/2001/REC-SVG-20010904/DTD/svg10.dtd">
<svg version="1.0" xmlns="http://www.w3.org/2000/svg"
 width="512.000000pt" height="512.000000pt" viewBox="0 0 512.000000 512.000000"
 preserveAspectRatio="xMidYMid meet">

<g transform="translate(0.000000,512.000000) scale(0.100000,-0.100000)"
fill="#000000" stroke="none">
<path d="M1495 4313 c-83 -21 -149 -159 -126 -261 5 -24 60 -135 122 -247
l114 -205 395 0 396 0 39 72 c22 40 41 76 43 80 2 4 -133 8 -300 10 l-303 3
-59 29 c-86 42 -132 94 -214 242 -88 161 -93 197 -36 250 l35 34 -43 -1 c-24
-1 -52 -4 -63 -6z"/>
<path d="M1850 3269 c-479 -37 -945 -277 -1255 -650 -561 -673 -574 -1637 -30
-2322 l45 -57 235 0 235 0 -49 63 c-203 259 -333 569 -376 896 -86 639 173
1278 680 1683 365 291 815 394 1248 284 51 -13 94 -22 95 -21 8 7 -220 75
-313 94 -89 18 -337 43 -390 40 -11 -1 -67 -5 -125 -10z"/>
<path d="M3354 2529 c-102 -91 -212 -170 -375 -272 l-146 -91 25 -44 c14 -25
37 -80 52 -123 l28 -78 99 63 c175 110 374 273 469 383 l46 54 -41 62 c-43 65
-76 107 -84 107 -2 0 -35 -27 -73 -61z"/>
<path d="M1920 2273 c0 -47 -1 -48 -44 -66 -66 -27 -122 -81 -156 -151 -74
-150 -14 -338 133 -412 27 -14 87 -31 133 -39 50 -8 95 -22 113 -34 81 -58 81
-204 -1 -262 -92 -66 -237 -13 -254 91 l-7 40 -77 0 -77 0 8 -50 c16 -102 91
-198 185 -237 43 -18 44 -19 44 -65 l0 -48 80 0 80 0 0 48 c0 46 1 47 44 65
65 27 121 80 155 149 41 81 44 185 7 264 -52 113 -128 166 -270 189 -96 15
-135 37 -160 89 -23 48 -21 121 5 162 75 122 273 88 296 -51 l6 -35 77 0 77 0
-8 50 c-16 102 -91 198 -185 237 -43 18 -44 19 -44 66 l0 47 -80 0 -80 0 0
-47z"/>
</g>
</svg>
