<svg version="1.1" id="Layer_1" xmlns="http://www.w3.org/2000/svg" xmlns:xlink="http://www.w3.org/1999/xlink" x="0px" y="0px"
	 width="100%" viewBox="0 0 128 128" enable-background="new 0 0 128 128" xml:space="preserve">
<path fill="#000000" opacity="1.000000" stroke="none" 
	d="
M1.000000,21.000000 
	C1.000000,17.307091 1.000000,13.614182 1.374635,9.414353 
	C3.750951,10.529511 5.752632,12.151589 7.704874,13.733604 
	C9.691943,11.474760 11.646551,9.252818 13.335923,7.332387 
	C11.834778,5.140043 10.417389,3.070022 9.000000,1.000000 
	C20.354227,1.000000 31.708456,1.000000 43.531693,1.409126 
	C43.445068,4.866308 43.957001,9.101208 42.134350,10.740669 
	C36.588818,15.728838 36.561256,21.862400 37.114902,28.101433 
	C38.084133,39.023720 35.591469,48.714951 30.107821,58.309364 
	C22.796740,71.101120 16.862104,84.672470 10.040462,97.754723 
	C7.449538,102.723495 4.037687,107.264191 1.000000,112.000000 
	C1.000000,82.979103 1.000000,53.958210 1.374610,24.420872 
	C3.765439,25.530533 5.781658,27.156635 7.719359,28.719410 
	C9.749331,26.425982 11.720605,24.198870 13.691878,21.971756 
	C13.207561,22.366999 12.723243,22.762239 12.238924,23.157482 
	C10.668232,20.751209 9.097540,18.344938 7.991912,16.651136 
	C5.391141,18.268776 3.195570,19.634388 1.000000,21.000000 
M21.466036,21.193714 
	C23.836784,18.978994 26.207533,16.764275 28.578279,14.549556 
	C27.730801,15.241295 26.883322,15.933035 26.035843,16.624775 
	C23.709574,13.371004 21.383307,10.117233 19.057037,6.863463 
	C20.303608,7.804079 21.550179,8.744695 22.796747,9.685310 
	C19.570961,12.009243 16.345177,14.333176 13.119390,16.657108 
	C14.004942,17.356903 16.036860,20.196404 18.303896,22.833797 
	C18.542692,23.111607 20.165747,22.199541 21.466036,21.193714 
z"/>
<path fill="#413830" opacity="1.000000" stroke="none" 
	d="
M1.000000,112.470459 
	C4.037687,107.264191 7.449538,102.723495 10.040462,97.754723 
	C16.862104,84.672470 22.796740,71.101120 30.107821,58.309364 
	C35.591469,48.714951 38.084133,39.023720 37.114902,28.101433 
	C36.561256,21.862400 36.588818,15.728838 42.134350,10.740669 
	C43.957001,9.101208 43.445068,4.866308 44.000351,1.409126 
	C46.370556,1.000000 48.741116,1.000000 51.507462,1.443963 
	C51.929977,3.186106 51.696304,4.562940 52.057873,5.759984 
	C52.408012,6.919213 53.370373,7.893524 54.063843,8.949053 
	C55.056568,8.031818 56.440521,7.289298 56.947098,6.154954 
	C57.645237,4.591676 57.680679,2.732450 58.000000,1.000000 
	C60.370556,1.000000 62.741116,1.000000 65.513260,1.407595 
	C66.271400,3.392568 66.371902,5.096920 67.070122,6.504857 
	C67.576645,7.526249 68.874687,8.155121 69.819794,8.959019 
	C70.548256,8.096539 71.716148,7.321338 71.908592,6.352396 
	C72.250664,4.630155 72.001724,2.790525 72.000000,1.000000 
	C74.370560,1.000000 76.741112,1.000000 79.513596,1.407597 
	C80.272751,3.392390 80.374313,5.096400 81.072701,6.504370 
	C81.579323,7.525728 82.876328,8.155037 83.820900,8.959163 
	C84.549011,8.096556 85.716347,7.321145 85.908707,6.352183 
	C86.250603,4.629953 86.001740,2.790448 86.000000,1.000000 
	C88.370560,1.000000 90.741112,1.000000 93.552971,1.405135 
	C94.323509,3.236641 94.447731,4.756928 95.044907,6.060562 
	C95.549965,7.163104 96.602776,8.014727 97.413170,8.977397 
	C98.280144,8.073146 99.502480,7.310104 99.931030,6.231636 
	C100.578087,4.603288 100.671364,2.754882 101.000000,1.000000 
	C103.041664,1.000000 105.083336,1.000000 107.560089,1.405197 
	C108.324013,3.236181 108.447899,4.755808 109.044563,6.058968 
	C109.549530,7.161835 110.601723,8.014147 111.411751,8.977339 
	C112.279007,8.073262 113.501747,7.310498 113.930435,6.232083 
	C114.577774,4.603659 114.671173,2.755038 115.000000,1.000000 
	C117.041664,1.000000 119.083336,1.000000 121.561615,1.408834 
	C122.319206,3.083667 123.017029,4.387354 122.894852,5.609033 
	C122.409233,10.464775 125.447624,12.862515 129.000000,15.000000 
	C129.000000,52.917126 129.000000,90.834251 129.000000,129.000000 
	C100.312920,129.000000 71.625114,129.000000 42.489067,128.641144 
	C37.693653,123.458191 36.289387,117.786423 37.003880,111.420082 
	C37.505474,106.950760 37.792667,102.457390 38.567307,98.177368 
	C39.088478,104.670715 39.119652,110.965431 39.375450,117.251015 
	C39.624329,123.366562 42.742161,127.057167 48.346367,127.096199 
	C70.576202,127.251045 92.807785,127.154343 115.440903,127.304184 
	C124.267952,126.756752 126.974586,123.881340 126.977371,115.553040 
	C126.985901,90.098129 126.984741,64.643227 126.970703,39.188320 
	C126.969818,37.584412 126.826256,35.980587 126.730408,33.988834 
	C123.503372,34.134514 120.717484,34.260281 117.470230,34.335541 
	C113.867027,34.277405 110.719307,34.388828 107.584763,34.233807 
	C103.056046,34.009842 98.536888,33.592720 94.469894,33.122234 
	C102.921768,32.889828 110.917404,32.793201 119.359337,32.796871 
	C122.062309,32.897167 124.318977,32.897167 127.133087,32.897167 
	C125.965027,25.923065 129.691086,18.664251 123.480553,13.454404 
	C122.137878,15.650513 121.079132,17.382229 120.146515,18.708721 
	C120.502747,14.386258 120.945404,10.462841 120.831917,6.555574 
	C120.798370,5.400558 119.195633,4.291119 118.311981,3.160795 
	C117.569969,4.273260 116.263855,5.347756 116.185966,6.504916 
	C115.887390,10.941228 115.983116,15.404077 115.579529,19.722170 
	C114.774147,17.039761 114.320923,14.492206 113.855515,11.876128 
	C110.375755,10.769483 108.120529,11.073548 108.299919,15.642838 
	C108.342598,16.730055 106.830734,17.878302 106.160690,18.604555 
	C106.491951,14.298990 106.872261,10.383644 106.789986,6.478043 
	C106.766380,5.357541 105.406128,4.265196 104.658745,3.159940 
	C103.783585,4.290751 102.241165,5.371751 102.152359,6.561267 
	C101.822578,10.978773 101.971245,15.431998 101.585312,19.744564 
	C100.713852,17.069046 100.197319,14.520774 99.649178,11.816512 
	C98.007141,11.816512 96.311722,11.816512 95.030693,11.816512 
	C94.282974,14.588554 93.667213,16.871380 92.957016,18.685467 
	C92.855812,14.427926 93.059288,10.620547 92.727051,6.860502 
	C92.612396,5.562903 91.164108,4.383142 90.325020,3.149554 
	C89.542671,4.378431 88.185318,5.561963 88.084175,6.844558 
	C87.761360,10.938057 87.905075,15.068345 87.458374,19.170418 
	C86.536842,16.691872 86.025543,14.227330 85.503380,11.710419 
	C83.813492,11.710419 82.239952,11.710419 80.722527,11.710419 
	C79.158157,15.009449 82.063919,20.832504 76.107033,20.807394 
	C70.170998,20.782368 72.862427,15.101519 71.545189,11.696381 
	C69.879402,11.696381 68.159386,11.696381 66.546524,11.696381 
	C66.051735,14.368885 65.613907,16.733704 64.798676,19.056767 
	C64.170937,18.977190 63.920616,18.939371 63.785282,18.453819 
	C63.957069,14.031274 64.155067,10.049899 63.970802,6.086297 
	C63.925068,5.102468 62.641724,4.176175 61.927258,3.223436 
	C61.251209,4.153724 60.013100,5.073515 59.995499,6.016100 
	C59.915325,10.309114 60.178368,14.608540 59.938339,18.965000 
	C59.304276,19.054356 59.049866,19.084370 58.522129,18.820433 
	C58.031803,16.294771 57.814808,14.063060 57.596317,11.816006 
	C55.574265,11.816006 53.893791,11.816006 52.501522,11.816006 
	C51.929886,14.815216 51.444958,17.359520 50.586777,19.952976 
	C48.834408,20.182636 46.638603,20.980038 46.224400,20.431688 
	C44.799377,18.545137 43.997341,16.188007 42.862614,13.810478 
	C37.990536,17.567379 39.566761,23.144699 39.450573,28.165707 
	C39.415798,29.668560 40.500637,31.197323 41.072533,32.714211 
	C42.465221,31.828836 43.857914,30.943462 45.418980,30.193283 
	C45.787247,30.542303 45.935158,30.787487 45.983788,31.420227 
	C40.107841,43.316231 34.196198,54.815739 28.549438,66.443878 
	C27.794012,67.999504 28.378191,70.205650 28.137598,72.350388 
	C26.862768,72.986771 25.201612,73.075081 24.809912,73.825768 
	C18.144571,86.599953 11.636617,99.456253 4.988513,112.501328 
	C7.700977,113.876236 10.023490,115.053482 12.429953,116.273285 
	C13.075976,115.484825 13.589271,115.040955 13.876346,114.481094 
	C19.942818,102.650009 26.015202,90.821617 31.983826,78.941162 
	C32.618130,77.678589 32.615669,76.096107 33.252228,74.690430 
	C35.465122,71.507942 37.334404,68.297058 39.407364,65.244255 
	C39.795094,65.692070 39.979149,65.981804 40.099110,66.671532 
	C39.800339,73.768593 39.634823,80.469307 39.281429,87.160095 
	C39.195148,88.793594 38.492748,90.394562 37.761623,91.728844 
	C37.218430,86.318024 36.987240,81.188835 36.689392,74.580772 
	C30.595242,86.773567 25.487814,97.749458 19.665220,108.331856 
	C16.615566,113.874519 12.304297,118.721901 8.576805,123.893379 
	C7.361735,125.579147 6.191006,127.296883 5.000000,129.000000 
	C3.695344,129.000000 2.390687,129.000000 1.000000,129.000000 
	C1.000000,123.647171 1.000000,118.294037 1.000000,112.470459 
M45.766682,17.501509 
	C48.345768,20.159538 49.809467,19.358568 50.016636,15.946708 
	C50.207363,12.805483 50.252670,9.624427 49.951992,6.500384 
	C49.839531,5.331944 48.568863,4.274979 47.826279,3.167185 
	C46.967346,4.205592 45.453331,5.194754 45.370884,6.291532 
	C45.111534,9.741654 45.390083,13.232212 45.766682,17.501509 
M78.181519,7.715391 
	C77.397438,6.194652 76.613358,4.673913 75.829277,3.153172 
	C75.191032,4.653810 74.147133,6.116239 74.001419,7.663268 
	C73.722649,10.622922 73.810684,13.643250 74.068977,16.610325 
	C74.139977,17.425953 75.353691,18.142103 76.043053,18.903904 
	C76.733665,18.143822 77.934105,17.437363 78.020729,16.613749 
	C78.297241,13.984798 78.160156,11.312346 78.181519,7.715391 
M4.026162,117.683472 
	C3.859896,119.914810 3.693630,122.146149 3.445631,125.474358 
	C6.490340,122.706741 8.802486,120.605019 11.190222,118.434586 
	C6.156405,114.709618 6.156405,114.709618 4.026162,117.683472 
z"/>
<path fill="#000000" opacity="1.000000" stroke="none" 
	d="
M5.468657,129.000000 
	C6.191006,127.296883 7.361735,125.579147 8.576805,123.893379 
	C12.304297,118.721901 16.615566,113.874519 19.665220,108.331856 
	C25.487814,97.749458 30.595242,86.773567 36.689392,74.580772 
	C36.987240,81.188835 37.218430,86.318024 37.724854,92.154190 
	C38.058590,94.565704 38.117096,96.270226 38.175602,97.974754 
	C37.792667,102.457390 37.505474,106.950760 37.003880,111.420082 
	C36.289387,117.786423 37.693653,123.458191 42.020409,128.641144 
	C29.979105,129.000000 17.958210,129.000000 5.468657,129.000000 
z"/>
<path fill="#41382C" opacity="1.000000" stroke="none" 
	d="
M8.505266,1.000000 
	C10.417389,3.070022 11.834778,5.140043 13.335923,7.332387 
	C11.646551,9.252818 9.691943,11.474760 7.704874,13.733604 
	C5.752632,12.151589 3.750951,10.529511 1.374635,8.953717 
	C1.000000,6.417543 1.000000,3.835086 1.000000,1.000000 
	C3.333921,1.000000 5.672227,1.000000 8.505266,1.000000 
z"/>
<path fill="#41392C" opacity="1.000000" stroke="none" 
	d="
M1.000000,21.375000 
	C3.195570,19.634388 5.391141,18.268776 7.991912,16.651136 
	C9.097540,18.344938 10.668232,20.751209 12.238924,23.157482 
	C12.723243,22.762239 13.207561,22.366999 13.691878,21.971756 
	C11.720605,24.198870 9.749331,26.425982 7.719359,28.719410 
	C5.781658,27.156635 3.765439,25.530533 1.374610,23.952215 
	C1.000000,23.250000 1.000000,22.500000 1.000000,21.375000 
z"/>
<path fill="#000000" opacity="1.000000" stroke="none" 
	d="
M129.000000,14.525872 
	C125.447624,12.862515 122.409233,10.464775 122.894852,5.609033 
	C123.017029,4.387354 122.319206,3.083667 121.999115,1.408834 
	C124.282310,1.000000 126.564629,1.000000 129.000000,1.000000 
	C129.000000,5.349849 129.000000,9.700797 129.000000,14.525872 
z"/>
<path fill="#000000" opacity="1.000000" stroke="none" 
	d="
M114.562500,1.000000 
	C114.671173,2.755038 114.577774,4.603659 113.930435,6.232083 
	C113.501747,7.310498 112.279007,8.073262 111.411751,8.977339 
	C110.601723,8.014147 109.549530,7.161835 109.044563,6.058968 
	C108.447899,4.755808 108.324013,3.236181 107.997589,1.405197 
	C110.041664,1.000000 112.083336,1.000000 114.562500,1.000000 
z"/>
<path fill="#000000" opacity="1.000000" stroke="none" 
	d="
M100.562500,1.000000 
	C100.671364,2.754882 100.578087,4.603288 99.931030,6.231636 
	C99.502480,7.310104 98.280144,8.073146 97.413170,8.977397 
	C96.602776,8.014727 95.549965,7.163104 95.044907,6.060562 
	C94.447731,4.756928 94.323509,3.236641 93.997131,1.405135 
	C96.041664,1.000000 98.083336,1.000000 100.562500,1.000000 
z"/>
<path fill="#000000" opacity="1.000000" stroke="none" 
	d="
M57.571537,1.000000 
	C57.680679,2.732450 57.645237,4.591676 56.947098,6.154954 
	C56.440521,7.289298 55.056568,8.031818 54.063843,8.949053 
	C53.370373,7.893524 52.408012,6.919213 52.057873,5.759984 
	C51.696304,4.562940 51.929977,3.186106 51.951626,1.443963 
	C53.714359,1.000000 55.428715,1.000000 57.571537,1.000000 
z"/>
<path fill="#000000" opacity="1.000000" stroke="none" 
	d="
M71.571533,1.000000 
	C72.001724,2.790525 72.250664,4.630155 71.908592,6.352396 
	C71.716148,7.321338 70.548256,8.096539 69.819794,8.959019 
	C68.874687,8.155121 67.576645,7.526249 67.070122,6.504857 
	C66.371902,5.096920 66.271400,3.392568 65.957428,1.407595 
	C67.714355,1.000000 69.428719,1.000000 71.571533,1.000000 
z"/>
<path fill="#000000" opacity="1.000000" stroke="none" 
	d="
M85.571533,1.000000 
	C86.001740,2.790448 86.250603,4.629953 85.908707,6.352183 
	C85.716347,7.321145 84.549011,8.096556 83.820900,8.959163 
	C82.876328,8.155037 81.579323,7.525728 81.072701,6.504370 
	C80.374313,5.096400 80.272751,3.392390 79.957764,1.407597 
	C81.714355,1.000000 83.428719,1.000000 85.571533,1.000000 
z"/>
<path fill="#3E362A" opacity="1.000000" stroke="none" 
	d="
M21.306311,21.516613 
	C20.165747,22.199541 18.542692,23.111607 18.303896,22.833797 
	C16.036860,20.196404 14.004942,17.356903 13.119390,16.657108 
	C16.345177,14.333176 19.570961,12.009243 22.796747,9.685310 
	C21.550179,8.744695 20.303608,7.804079 19.057037,6.863463 
	C21.383307,10.117233 23.709574,13.371004 26.035843,16.624775 
	C26.883322,15.933035 27.730801,15.241295 28.578279,14.549556 
	C26.207533,16.764275 23.836784,18.978994 21.306311,21.516613 
M17.636255,13.113489 
	C14.109447,16.570301 19.138260,16.923609 19.407749,19.506889 
	C21.262146,17.747900 22.633957,16.446669 24.005770,15.145437 
	C21.385281,15.307590 22.011845,8.380845 17.636255,13.113489 
z"/>
<path fill="#F7E3C7" opacity="1.000000" stroke="none" 
	d="
M38.567307,98.177368 
	C38.117096,96.270226 38.058590,94.565704 38.036858,92.435829 
	C38.492748,90.394562 39.195148,88.793594 39.281429,87.160095 
	C39.634823,80.469307 39.800339,73.768593 40.376144,66.461502 
	C45.740414,55.879826 50.763557,45.908180 56.020420,35.608269 
	C57.804653,34.945259 59.351700,34.341206 60.906254,34.321239 
	C68.658829,34.221672 76.414101,34.330372 84.166634,34.229065 
	C85.710373,34.208893 87.246315,33.591908 89.223007,33.239086 
	C91.111320,33.238037 92.562485,33.248028 94.013649,33.258015 
	C98.536888,33.592720 103.056046,34.009842 107.584763,34.233807 
	C110.719307,34.388828 113.867027,34.277405 117.488144,34.778561 
	C117.988823,59.666317 118.023956,84.060555 118.022301,108.454788 
	C118.021873,114.836548 118.885574,121.374939 115.038727,127.150856 
	C92.807785,127.154343 70.576202,127.251045 48.346367,127.096199 
	C42.742161,127.057167 39.624329,123.366562 39.375450,117.251015 
	C39.119652,110.965431 39.088478,104.670715 38.567307,98.177368 
M108.673065,69.685303 
	C109.083488,68.797935 109.493912,67.910576 110.197426,66.366524 
	C109.958549,64.518097 109.719681,62.669670 109.357155,59.864449 
	C106.724258,61.939636 105.356956,63.017307 103.280411,64.030357 
	C102.099258,64.052017 100.766418,64.442322 99.763931,64.029800 
	C95.970337,62.468727 92.283882,60.647285 88.348595,58.826679 
	C88.348595,57.606392 88.348595,56.040230 88.348595,54.533855 
	C90.090851,54.203148 91.532677,53.929462 93.376114,53.505638 
	C93.601555,52.918495 93.826996,52.331352 94.061691,50.769623 
	C93.993805,49.148968 93.925919,47.528316 93.804092,45.077599 
	C88.180611,44.603405 82.558449,43.844193 76.932884,43.818043 
	C75.098824,43.809513 72.321053,45.294907 71.632095,46.837288 
	C70.549286,49.261395 70.446640,52.467072 74.818970,54.086113 
	C75.970215,54.985325 77.121468,55.884533 78.272713,56.783745 
	C77.419548,57.871849 76.687248,59.095764 75.670784,60.000366 
	C74.991997,60.604446 73.908791,60.754089 72.297432,61.141941 
	C64.056824,64.683907 58.001587,70.325050 54.788754,79.721413 
	C47.432770,99.668167 65.263374,121.880035 86.794228,118.964439 
	C92.592255,117.587204 98.794975,116.997894 102.809425,110.911423 
	C103.555763,110.044312 104.302109,109.177200 105.746819,108.118423 
	C112.290077,102.082306 113.644829,94.378906 112.960632,85.200195 
	C112.069336,82.231987 111.175758,79.264450 110.287445,76.295349 
	C109.583679,73.943062 108.886345,71.588844 108.160416,69.142143 
	C108.160416,69.142143 108.064194,69.131393 108.673065,69.685303 
z"/>
<path fill="#87C0D6" opacity="1.000000" stroke="none" 
	d="
M94.469894,33.122234 
	C92.562485,33.248028 91.111320,33.238037 88.779633,33.105873 
	C78.946663,32.904987 69.993103,32.875916 61.043289,32.677967 
	C60.046207,32.655910 59.070377,31.673351 58.344406,30.891373 
	C60.994789,24.004644 58.484734,20.828726 50.997318,20.751711 
	C50.978214,20.280594 50.969120,20.092209 50.960026,19.903822 
	C51.444958,17.359520 51.929886,14.815216 52.501522,11.816006 
	C53.893791,11.816006 55.574265,11.816006 57.596317,11.816006 
	C57.814808,14.063060 58.031803,16.294771 58.677254,19.149817 
	C61.358562,21.612438 63.426525,21.787983 65.176086,19.098524 
	C65.613907,16.733704 66.051735,14.368885 66.546524,11.696381 
	C68.159386,11.696381 69.879402,11.696381 71.545189,11.696381 
	C72.862427,15.101519 70.170998,20.782368 76.107033,20.807394 
	C82.063919,20.832504 79.158157,15.009449 80.722527,11.710419 
	C82.239952,11.710419 83.813492,11.710419 85.503380,11.710419 
	C86.025543,14.227330 86.536842,16.691872 87.493729,19.147087 
	C87.939331,19.137764 87.918442,19.055660 87.794800,19.427338 
	C89.771698,21.730318 91.598625,21.695324 93.033066,19.072495 
	C93.003975,19.096157 93.051453,19.154203 93.051453,19.154203 
	C93.667213,16.871380 94.282974,14.588554 95.030693,11.816512 
	C96.311722,11.816512 98.007141,11.816512 99.649178,11.816512 
	C100.197319,14.520774 100.713852,17.069046 101.955574,19.781471 
	C103.798477,19.629908 104.916191,19.314192 106.033897,18.998476 
	C106.830734,17.878302 108.342598,16.730055 108.299919,15.642838 
	C108.120529,11.073548 110.375755,10.769483 113.855515,11.876128 
	C114.320923,14.492206 114.774147,17.039761 115.954453,19.761547 
	C117.432076,20.007885 118.182602,20.079990 118.943680,20.603107 
	C118.940491,24.934937 118.926765,28.815758 118.913040,32.696579 
	C110.917404,32.793201 102.921768,32.889828 94.469894,33.122234 
z"/>
<path fill="#DDC9AD" opacity="1.000000" stroke="none" 
	d="
M115.440903,127.304184 
	C118.885574,121.374939 118.021873,114.836548 118.022301,108.454788 
	C118.023956,84.060555 117.988823,59.666317 117.949509,34.829063 
	C120.717484,34.260281 123.503372,34.134514 126.730408,33.988834 
	C126.826256,35.980587 126.969818,37.584412 126.970703,39.188320 
	C126.984741,64.643227 126.985901,90.098129 126.977371,115.553040 
	C126.974586,123.881340 124.267952,126.756752 115.440903,127.304184 
z"/>
<path fill="#E96B77" opacity="1.000000" stroke="none" 
	d="
M32.908615,74.662041 
	C32.615669,76.096107 32.618130,77.678589 31.983826,78.941162 
	C26.015202,90.821617 19.942818,102.650009 13.876346,114.481094 
	C13.589271,115.040955 13.075976,115.484825 12.429953,116.273285 
	C10.023490,115.053482 7.700977,113.876236 4.988513,112.501328 
	C11.636617,99.456253 18.144571,86.599953 24.809912,73.825768 
	C25.201612,73.075081 26.862768,72.986771 28.395779,72.491425 
	C30.208458,73.149101 31.558537,73.905571 32.908615,74.662041 
z"/>
<path fill="#88C1D7" opacity="1.000000" stroke="none" 
	d="
M33.252228,74.690430 
	C31.558537,73.905571 30.208458,73.149101 28.600201,72.251587 
	C28.378191,70.205650 27.794012,67.999504 28.549438,66.443878 
	C34.196198,54.815739 40.107841,43.316231 46.284462,31.235069 
	C49.359718,32.035782 52.087002,33.377850 54.553741,34.950249 
	C49.263355,45.149113 44.233521,55.117641 39.203690,65.086174 
	C37.334404,68.297058 35.465122,71.507942 33.252228,74.690430 
z"/>
<path fill="#6DA3B8" opacity="1.000000" stroke="none" 
	d="
M119.359337,32.796875 
	C118.926765,28.815758 118.940491,24.934937 119.163467,20.469166 
	C119.588608,19.627457 119.804497,19.370701 120.020378,19.113943 
	C121.079132,17.382229 122.137878,15.650513 123.480553,13.454404 
	C129.691086,18.664251 125.965027,25.923065 127.133087,32.897167 
	C124.318977,32.897167 122.062309,32.897167 119.359337,32.796875 
z"/>
<path fill="#83B7CC" opacity="1.000000" stroke="none" 
	d="
M50.586777,19.952976 
	C50.969120,20.092209 50.978214,20.280594 50.838295,20.983562 
	C50.169384,22.010906 49.649487,22.523664 48.972694,23.169827 
	C48.815800,23.303230 48.644554,23.677824 48.404564,23.906471 
	C47.193253,26.109442 46.221928,28.083765 45.250607,30.058086 
	C43.857914,30.943462 42.465221,31.828836 41.072533,32.714211 
	C40.500637,31.197323 39.415798,29.668560 39.450573,28.165707 
	C39.566761,23.144699 37.990536,17.567379 42.862614,13.810478 
	C43.997341,16.188007 44.799377,18.545137 46.224400,20.431688 
	C46.638603,20.980038 48.834408,20.182636 50.586777,19.952976 
z"/>
<path fill="#84766C" opacity="1.000000" stroke="none" 
	d="
M120.146515,18.708721 
	C119.804497,19.370701 119.588608,19.627457 119.152931,20.018156 
	C118.182602,20.079990 117.432076,20.007885 116.306625,19.896400 
	C115.983116,15.404077 115.887390,10.941228 116.185966,6.504916 
	C116.263855,5.347756 117.569969,4.273260 118.311981,3.160795 
	C119.195633,4.291119 120.798370,5.400558 120.831917,6.555574 
	C120.945404,10.462841 120.502747,14.386258 120.146515,18.708721 
z"/>
<path fill="#84766C" opacity="1.000000" stroke="none" 
	d="
M106.160690,18.604553 
	C104.916191,19.314192 103.798477,19.629908 102.310509,19.908716 
	C101.971245,15.431998 101.822578,10.978773 102.152359,6.561267 
	C102.241165,5.371751 103.783585,4.290751 104.658745,3.159940 
	C105.406128,4.265196 106.766380,5.357541 106.789986,6.478043 
	C106.872261,10.383644 106.491951,14.298990 106.160690,18.604553 
z"/>
<path fill="#817369" opacity="1.000000" stroke="none" 
	d="
M87.903976,19.161095 
	C87.905075,15.068345 87.761360,10.938057 88.084175,6.844558 
	C88.185318,5.561963 89.542671,4.378431 90.325020,3.149554 
	C91.164108,4.383142 92.612396,5.562903 92.727051,6.860502 
	C93.059288,10.620547 92.855812,14.427926 92.957016,18.685467 
	C93.051453,19.154203 93.003975,19.096157 92.607147,19.012754 
	C90.779694,18.971455 89.349068,19.013557 87.918442,19.055660 
	C87.918442,19.055660 87.939331,19.137764 87.903976,19.161095 
z"/>
<path fill="#7F7268" opacity="1.000000" stroke="none" 
	d="
M45.613533,17.104313 
	C45.390083,13.232212 45.111534,9.741654 45.370884,6.291532 
	C45.453331,5.194754 46.967346,4.205592 47.826279,3.167186 
	C48.568863,4.274979 49.839531,5.331944 49.951992,6.500384 
	C50.252670,9.624427 50.207363,12.805483 50.016636,15.946708 
	C49.809467,19.358568 48.345768,20.159538 45.613533,17.104313 
z"/>
<path fill="#443A35" opacity="1.000000" stroke="none" 
	d="
M45.418980,30.193283 
	C46.221928,28.083765 47.193253,26.109442 48.657459,24.141994 
	C49.318256,24.306221 49.486176,24.463570 49.494469,24.952087 
	C49.343006,29.179920 52.963242,31.370472 57.328667,30.146870 
	C57.716087,30.576374 57.900391,30.856304 58.084690,31.136234 
	C59.070377,31.673351 60.046207,32.655910 61.043289,32.677967 
	C69.993103,32.875916 78.946663,32.904987 88.342484,33.116905 
	C87.246315,33.591908 85.710373,34.208893 84.166634,34.229065 
	C76.414101,34.330372 68.658829,34.221672 60.906254,34.321239 
	C59.351700,34.341206 57.804653,34.945259 55.814941,35.443863 
	C55.188587,35.311787 55.001434,35.015854 54.814285,34.719917 
	C52.087002,33.377850 49.359718,32.035782 46.331760,30.878876 
	C45.935158,30.787487 45.787247,30.542303 45.418980,30.193283 
z"/>
<path fill="#524E48" opacity="1.000000" stroke="none" 
	d="
M54.553741,34.950249 
	C55.001434,35.015854 55.188587,35.311787 55.581215,35.772133 
	C50.763557,45.908180 45.740414,55.879826 40.440239,66.061501 
	C39.979149,65.981804 39.795094,65.692070 39.407360,65.244255 
	C44.233521,55.117641 49.263355,45.149113 54.553741,34.950249 
z"/>
<path fill="#807369" opacity="1.000000" stroke="none" 
	d="
M78.182152,8.186042 
	C78.160156,11.312346 78.297241,13.984798 78.020729,16.613749 
	C77.934105,17.437363 76.733665,18.143822 76.043053,18.903902 
	C75.353691,18.142103 74.139977,17.425953 74.068977,16.610325 
	C73.810684,13.643250 73.722649,10.622922 74.001419,7.663268 
	C74.147133,6.116239 75.191032,4.653810 75.829277,3.153173 
	C76.613358,4.673913 77.397438,6.194652 78.182152,8.186042 
z"/>
<path fill="#86786E" opacity="1.000000" stroke="none" 
	d="
M60.317993,18.905659 
	C60.178368,14.608540 59.915325,10.309114 59.995499,6.016100 
	C60.013100,5.073515 61.251209,4.153724 61.927258,3.223436 
	C62.641724,4.176175 63.925068,5.102468 63.970802,6.086297 
	C64.155067,10.049899 63.957069,14.031274 63.452019,18.470806 
	C62.108509,18.925571 61.213249,18.915615 60.317993,18.905659 
z"/>
<path fill="#C7CE53" opacity="1.000000" stroke="none" 
	d="
M4.057283,117.283859 
	C6.156405,114.709618 6.156405,114.709618 11.190222,118.434586 
	C8.802486,120.605019 6.490340,122.706741 3.445631,125.474358 
	C3.693630,122.146149 3.859896,119.914810 4.057283,117.283859 
z"/>
<path fill="#504740" opacity="1.000000" stroke="none" 
	d="
M59.938339,18.965000 
	C61.213249,18.915615 62.108509,18.925571 63.337029,18.918541 
	C63.920616,18.939371 64.170937,18.977190 64.798676,19.056767 
	C63.426525,21.787983 61.358562,21.612438 58.950581,19.443766 
	C59.049866,19.084370 59.304276,19.054356 59.938339,18.965000 
z"/>
<path fill="#C3CA52" opacity="1.000000" stroke="none" 
	d="
M17.887230,12.862358 
	C22.011845,8.380845 21.385281,15.307590 24.005770,15.145437 
	C22.633957,16.446669 21.262146,17.747900 19.407749,19.506889 
	C19.138260,16.923609 14.109447,16.570301 17.887230,12.862358 
z"/>
<path fill="#83756B" opacity="1.000000" stroke="none" 
	d="
M105.048439,108.310089 
	C104.302109,109.177200 103.555763,110.044312 102.153740,110.997742 
	C96.333321,113.095314 91.168587,115.106583 85.599930,117.093010 
	C71.813240,117.444092 62.456448,111.459900 57.083683,99.228851 
	C54.359398,93.027039 54.979340,86.640633 56.369484,79.966995 
	C59.687458,71.646812 65.704193,66.387222 73.517853,62.354637 
	C75.268646,62.124290 76.638435,62.148598 77.902061,61.794300 
	C91.954712,57.854149 109.293900,68.868370 111.102829,86.416214 
	C109.956879,92.110840 108.977470,97.382034 107.677643,102.573006 
	C107.175331,104.579033 105.946350,106.403107 105.048439,108.310089 
M65.973305,71.880135 
	C56.208515,80.469383 55.662987,95.580002 65.013229,105.852837 
	C76.425697,117.748474 94.991089,116.467361 103.763939,102.764160 
	C111.150078,91.223328 108.677231,76.541107 97.769714,69.239594 
	C95.607086,68.051468 93.543480,66.609589 91.264282,65.720207 
	C82.506432,62.302757 71.324722,65.085297 65.973305,71.880135 
z"/>
<path fill="#4A413A" opacity="1.000000" stroke="none" 
	d="
M111.141449,85.960762 
	C109.293900,68.868370 91.954712,57.854149 77.902061,61.794300 
	C76.638435,62.148598 75.268646,62.124290 73.494202,62.021370 
	C73.029007,61.546986 73.017792,61.327045 73.006577,61.107101 
	C73.908791,60.754089 74.991997,60.604446 75.670784,60.000366 
	C76.687248,59.095764 77.419548,57.871849 78.272713,56.783745 
	C77.121468,55.884533 75.970215,54.985325 74.408257,53.681183 
	C73.994827,52.884998 73.992111,52.493744 74.455017,52.166824 
	C80.933372,52.299500 86.946121,52.367840 92.942429,52.639248 
	C92.919258,53.114838 92.935425,53.385990 92.974503,53.655777 
	C91.532677,53.929462 90.090851,54.203148 88.348595,54.533855 
	C88.348595,56.040230 88.348595,57.606392 88.348595,58.826679 
	C92.283882,60.647285 95.970337,62.468727 99.763931,64.029800 
	C100.766418,64.442322 102.099258,64.052017 103.610046,64.467072 
	C103.357948,68.305603 105.515533,69.022011 108.186150,69.235489 
	C108.886345,71.588844 109.583679,73.943062 110.287445,76.295349 
	C111.175758,79.264450 112.069336,82.231987 112.622726,85.596527 
	C111.903702,85.982162 111.522575,85.971458 111.141449,85.960762 
M83.479538,54.320648 
	C79.645523,54.014519 79.643532,56.078217 80.554489,58.863266 
	C82.413818,58.863266 84.105949,58.863266 87.208855,58.863266 
	C85.884636,56.799995 85.101364,55.579578 83.479538,54.320648 
z"/>
<path fill="#86BED3" opacity="1.000000" stroke="none" 
	d="
M92.958862,52.436180 
	C86.946121,52.367840 80.933372,52.299500 74.235901,51.828690 
	C72.165352,47.175125 73.556770,45.302109 78.158585,45.563431 
	C83.381401,45.860020 88.624023,45.808079 93.858032,45.907661 
	C93.925919,47.528316 93.993805,49.148968 93.963829,51.470726 
	C93.597710,52.376564 93.295341,52.464680 92.958862,52.436180 
z"/>
<path fill="#52483E" opacity="1.000000" stroke="none" 
	d="
M56.147446,80.236694 
	C54.979340,86.640633 54.359398,93.027039 57.083683,99.228851 
	C62.456448,111.459900 71.813240,117.444092 85.598228,117.387123 
	C86.000648,118.100075 86.000854,118.494080 86.001053,118.888077 
	C65.263374,121.880035 47.432770,99.668167 55.171913,79.530838 
	C55.752529,79.639076 55.949989,79.937881 56.147446,80.236694 
z"/>
<path fill="#4F514E" opacity="1.000000" stroke="none" 
	d="
M93.831062,45.492630 
	C88.624023,45.808079 83.381401,45.860020 78.158585,45.563431 
	C73.556770,45.302109 72.165352,47.175125 73.770287,51.764355 
	C73.992111,52.493744 73.994827,52.884998 73.999954,53.569664 
	C70.446640,52.467072 70.549286,49.261395 71.632095,46.837288 
	C72.321053,45.294907 75.098824,43.809513 76.932884,43.818043 
	C82.558449,43.844193 88.180611,44.603405 93.831062,45.492630 
z"/>
<path fill="#52483F" opacity="1.000000" stroke="none" 
	d="
M56.369484,79.966995 
	C55.949989,79.937881 55.752529,79.639076 55.340004,79.179855 
	C58.001587,70.325050 64.056824,64.683907 72.652008,61.124523 
	C73.017792,61.327045 73.029007,61.546986 73.063889,62.100197 
	C65.704193,66.387222 59.687458,71.646812 56.369484,79.966995 
z"/>
<path fill="#574C43" opacity="1.000000" stroke="none" 
	d="
M111.102829,86.416214 
	C111.522575,85.971458 111.903702,85.982162 112.571617,85.990158 
	C113.644829,94.378906 112.290077,102.082306 105.397629,108.214249 
	C105.946350,106.403107 107.175331,104.579033 107.677643,102.573006 
	C108.977470,97.382034 109.956879,92.110840 111.102829,86.416214 
z"/>
<path fill="#E96976" opacity="1.000000" stroke="none" 
	d="
M108.173279,69.188812 
	C105.515533,69.022011 103.357948,68.305603 103.964676,64.499374 
	C105.356956,63.017307 106.724258,61.939636 109.357155,59.864449 
	C109.719681,62.669670 109.958549,64.518097 109.743057,66.761078 
	C108.880531,67.814217 108.472366,68.472809 108.064194,69.131393 
	C108.064194,69.131393 108.160416,69.142143 108.173279,69.188812 
z"/>
<path fill="#50463D" opacity="1.000000" stroke="none" 
	d="
M86.397644,118.926254 
	C86.000854,118.494080 86.000648,118.100075 86.002151,117.411964 
	C91.168587,115.106583 96.333321,113.095314 101.867332,111.058456 
	C98.794975,116.997894 92.592255,117.587204 86.397644,118.926254 
z"/>
<path fill="#4F514E" opacity="1.000000" stroke="none" 
	d="
M92.942429,52.639248 
	C93.295341,52.464680 93.597710,52.376564 93.959198,51.958023 
	C93.826996,52.331352 93.601555,52.918495 93.175308,53.580708 
	C92.935425,53.385990 92.919258,53.114838 92.942429,52.639248 
z"/>
<path fill="#4A413A" opacity="1.000000" stroke="none" 
	d="
M108.368637,69.408348 
	C108.472366,68.472809 108.880531,67.814217 109.596512,67.089417 
	C109.493912,67.910576 109.083488,68.797935 108.368637,69.408348 
z"/>
<path fill="#4F4644" opacity="1.000000" stroke="none" 
	d="
M58.344406,30.891373 
	C57.900391,30.856304 57.716087,30.576374 57.398674,29.793453 
	C56.978745,27.496170 57.209179,24.568275 56.294140,24.150743 
	C54.552231,23.355915 52.155930,23.995226 49.924919,23.835476 
	C49.640945,23.373156 49.411312,23.174662 49.129589,23.036425 
	C49.649487,22.523664 50.169384,22.010906 50.848305,21.266296 
	C58.484734,20.828726 60.994789,24.004644 58.344406,30.891373 
z"/>
<path fill="#413830" opacity="1.000000" stroke="none" 
	d="
M87.794800,19.427338 
	C89.349068,19.013557 90.779694,18.971455 92.636230,18.989094 
	C91.598625,21.695324 89.771698,21.730318 87.794800,19.427338 
z"/>
<path fill="#443A35" opacity="1.000000" stroke="none" 
	d="
M48.972694,23.169827 
	C49.411312,23.174662 49.640945,23.373156 49.852570,23.995331 
	C49.886646,24.358755 49.654099,24.620920 49.654099,24.620920 
	C49.486176,24.463570 49.318256,24.306221 48.897446,23.913349 
	C48.644554,23.677824 48.815800,23.303230 48.972694,23.169827 
z"/>
<path fill="#E96B77" opacity="1.000000" stroke="none" 
	d="
M49.494469,24.952087 
	C49.654099,24.620920 49.886646,24.358755 49.959000,24.198900 
	C52.155930,23.995226 54.552231,23.355915 56.294140,24.150743 
	C57.209179,24.568275 56.978745,27.496170 57.195557,29.643879 
	C52.963242,31.370472 49.343006,29.179920 49.494469,24.952087 
z"/>
<path fill="#4B4333" opacity="1.000000" stroke="none" 
	d="
M103.239899,103.214989 
	C94.991089,116.467361 76.425697,117.748474 65.130356,105.297943 
	C65.406334,104.583740 65.565193,104.424431 65.977615,104.484451 
	C78.126877,115.510551 91.134018,114.635086 102.474266,102.515030 
	C102.899529,102.904007 103.069710,103.059502 103.239899,103.214989 
z"/>
<path fill="#4B4333" opacity="1.000000" stroke="none" 
	d="
M98.206894,69.769913 
	C108.677231,76.541107 111.150078,91.223328 103.501923,102.989578 
	C103.069710,103.059502 102.899529,102.904007 102.642326,102.202118 
	C108.747559,89.838608 107.144936,80.473633 97.505989,70.530136 
	C97.895515,70.107918 98.051201,69.938911 98.206894,69.769913 
z"/>
<path fill="#4B4333" opacity="1.000000" stroke="none" 
	d="
M65.008575,104.981377 
	C55.662987,95.580002 56.208515,80.469383 66.458870,71.922104 
	C66.944435,71.964073 67.258949,72.257675 67.130035,72.572189 
	C58.270550,83.365425 57.897633,92.528191 65.724045,104.265114 
	C65.565193,104.424431 65.406334,104.583740 65.008575,104.981377 
z"/>
<path fill="#4B4333" opacity="1.000000" stroke="none" 
	d="
M66.782791,71.822121 
	C71.324722,65.085297 82.506432,62.302757 91.264282,65.720207 
	C93.543480,66.609589 95.607086,68.051468 97.988304,69.504753 
	C98.051201,69.938911 97.895515,70.107918 97.206329,70.348068 
	C86.420219,63.864632 76.647980,64.995636 67.258949,72.257675 
	C67.258949,72.257675 66.944435,71.964073 66.782791,71.822121 
z"/>
<path fill="#82B7CB" opacity="1.000000" stroke="none" 
	d="
M83.898811,54.339905 
	C85.101364,55.579578 85.884636,56.799995 87.208855,58.863266 
	C84.105949,58.863266 82.413818,58.863266 80.554489,58.863266 
	C79.643532,56.078217 79.645523,54.014519 83.898811,54.339905 
z"/>
<path fill="#D4DD56" opacity="1.000000" stroke="none" 
	d="
M67.130035,72.572189 
	C76.647980,64.995636 86.420219,63.864632 96.972488,70.601288 
	C107.144936,80.473633 108.747559,89.838608 102.387253,101.968651 
	C91.134018,114.635086 78.126877,115.510551 65.977615,104.484451 
	C57.897633,92.528191 58.270550,83.365425 67.130035,72.572189 
M80.519943,92.090523 
	C82.322273,92.084358 84.558044,92.710358 85.786888,91.867790 
	C86.734108,91.218330 86.617622,88.723312 86.608879,87.050812 
	C86.598724,85.107208 86.077431,83.171211 85.981857,81.221916 
	C85.852516,78.583870 86.132843,75.908142 85.793175,73.306587 
	C85.655785,72.254272 84.508377,71.031425 83.499977,70.526619 
	C83.017433,70.285049 81.058098,71.480255 81.008949,72.120071 
	C80.513954,78.564110 80.276581,85.027924 80.519943,92.090523 
z"/>
<path fill="#524838" opacity="1.000000" stroke="none" 
	d="
M80.243362,91.788353 
	C80.276581,85.027924 80.513954,78.564110 81.008949,72.120071 
	C81.058098,71.480255 83.017433,70.285049 83.499977,70.526619 
	C84.508377,71.031425 85.655785,72.254272 85.793175,73.306587 
	C86.132843,75.908142 85.852516,78.583870 85.981857,81.221916 
	C86.077431,83.171211 86.598724,85.107208 86.608879,87.050812 
	C86.617622,88.723312 86.734108,91.218330 85.786888,91.867790 
	C84.558044,92.710358 82.322273,92.084358 80.243362,91.788353 
M82.708252,84.420509 
	C83.276283,80.560112 83.844315,76.699722 84.412354,72.839325 
	C83.711365,72.788620 83.010384,72.737907 82.309402,72.687202 
	C82.309402,76.354523 82.309402,80.021843 82.708252,84.420509 
z"/>
<path fill="#D3626D" opacity="1.000000" stroke="none" 
	d="
M82.508827,84.054840 
	C82.309402,80.021843 82.309402,76.354523 82.309402,72.687202 
	C83.010384,72.737907 83.711365,72.788620 84.412354,72.839325 
	C83.844315,76.699722 83.276283,80.560112 82.508827,84.054840 
z"/>
</svg>