<svg version="1.1" id="Layer_1" xmlns="http://www.w3.org/2000/svg" xmlns:xlink="http://www.w3.org/1999/xlink" x="0px" y="0px"
	 width="100%" viewBox="0 0 128 128" enable-background="new 0 0 128 128" xml:space="preserve">
<path fill="#FD8188" opacity="1.000000" stroke="none" 
	d="
M1.000002,83.000000 
	C1.000000,78.310745 1.000000,73.621490 1.257391,68.793243 
	C5.899086,64.529419 5.757085,62.142178 1.000000,60.000000 
	C1.000000,55.310745 1.000000,50.621487 1.255957,45.792580 
	C4.712356,40.146370 14.210601,39.108364 12.543678,30.047064 
	C12.394686,29.237152 13.443980,27.789715 14.312759,27.282915 
	C17.803520,25.246592 21.442244,23.463915 25.708864,21.230124 
	C26.119276,15.748933 30.238655,10.336253 37.477879,10.716940 
	C41.271851,7.182497 44.113564,4.535171 47.173222,2.154502 
	C49.256256,5.764128 52.592339,9.048221 52.728909,12.460372 
	C53.286346,26.387852 52.865471,40.354485 52.516705,54.127174 
	C48.499859,49.771656 44.522022,45.989414 38.260174,47.406685 
	C36.778515,47.742039 35.484936,48.908375 34.104839,49.692459 
	C35.466656,50.323685 36.905197,51.615559 38.176559,51.467915 
	C42.843872,50.925888 46.048546,52.934486 48.883621,56.304405 
	C50.026230,57.662571 51.648937,58.616833 53.040253,60.142166 
	C53.029903,61.303589 53.032452,62.077755 52.567532,62.911743 
	C43.610741,62.986626 35.119259,62.908104 26.634129,63.104279 
	C25.133162,63.138981 23.658676,64.319199 22.171963,64.970428 
	C23.639977,65.641281 25.093510,66.854271 26.578381,66.893921 
	C35.393265,67.129349 44.215405,67.093040 53.026958,67.533508 
	C53.029408,68.690483 53.040001,69.462021 52.798996,70.441528 
	C47.605721,74.450684 43.683353,80.309586 36.033447,78.681038 
	C35.528828,78.573601 34.731659,79.840424 34.070572,80.468033 
	C35.023563,81.181351 35.880886,82.282707 36.945061,82.545082 
	C43.906044,84.261322 48.512798,80.290665 52.850731,76.176407 
	C52.929825,89.221687 52.783161,101.785057 53.076324,114.338150 
	C53.210663,120.090614 51.603661,124.681488 46.592308,128.063599 
	C43.628323,125.263680 41.031284,122.523140 37.742413,119.052528 
	C28.686815,118.800964 26.414555,116.648064 24.475784,105.193428 
	C19.000256,104.761490 12.965213,101.008644 13.265756,96.891808 
	C13.666397,91.403816 11.083776,89.237122 6.845548,87.292458 
	C4.693578,86.305061 2.935920,84.458275 1.000002,83.000000 
z"/>
<path fill="#000000" opacity="1.000000" stroke="none" 
	d="
M59.000000,0.999999 
	C66.354256,1.000000 73.708504,1.000000 81.892624,1.280730 
	C81.896843,3.840263 80.708328,6.068531 80.381302,8.416774 
	C80.184280,9.831476 81.327675,11.432852 81.868729,12.950340 
	C82.921387,11.995916 84.625664,11.197827 84.899467,10.056551 
	C85.604279,7.118783 85.675568,4.029026 86.000000,1.000000 
	C100.278587,1.000000 114.557182,1.000000 129.000000,1.000000 
	C129.000000,24.687332 129.000000,48.375008 128.700104,72.850815 
	C127.877304,73.231438 127.403137,72.564476 126.824142,72.455757 
	C119.392830,71.060226 114.940147,67.116547 114.867889,59.093674 
	C114.861717,58.408195 113.789703,57.353382 113.017097,57.121056 
	C110.082642,56.238678 107.067719,55.623886 104.049026,54.463337 
	C104.142937,37.475204 97.128014,25.401106 81.590950,18.998672 
	C76.340157,16.834953 70.851601,14.722841 64.727798,16.939995 
	C64.509125,16.980598 64.070122,16.908800 64.045670,16.479538 
	C63.041584,12.226509 62.151680,8.376197 61.032589,4.593690 
	C60.652176,3.307889 59.694111,2.192990 59.000000,0.999999 
M108.062927,40.668083 
	C108.944214,41.776711 110.200806,43.973488 110.646675,43.819710 
	C113.860054,42.711403 118.531525,44.403305 120.122948,39.299984 
	C115.962944,36.599041 112.270752,38.631603 108.062927,40.668083 
M98.053719,21.794590 
	C99.608620,22.434834 101.913010,24.048828 102.579994,23.535463 
	C104.707497,21.897947 107.136749,19.687202 107.710510,17.282877 
	C108.226723,15.119699 105.757019,14.123939 103.689346,15.909006 
	C101.814621,17.527498 100.137695,19.375109 98.053719,21.794590 
z"/>
<path fill="#000000" opacity="1.000000" stroke="none" 
	d="
M129.000000,86.000000 
	C129.000000,100.277618 129.000000,114.555237 129.000000,129.000000 
	C105.979378,129.000000 82.958344,129.000000 59.148575,128.740723 
	C60.250214,125.029427 62.140602,121.577431 64.275444,118.064011 
	C64.679077,117.949234 64.838257,117.895859 65.449478,117.917030 
	C67.217400,117.994743 68.533272,118.000626 69.849144,118.000648 
	C78.704002,118.000816 80.046120,116.677742 80.401169,108.001099 
	C82.158699,108.020370 83.509972,108.040825 85.051254,108.382065 
	C87.611549,109.713127 89.903893,111.109108 92.377312,111.608864 
	C94.277603,111.992798 96.636253,111.726532 98.377159,110.889030 
	C100.787231,109.729591 102.808861,107.762718 105.392014,106.084351 
	C107.194771,106.358154 108.622353,106.622231 110.005409,107.035378 
	C112.294250,107.719093 114.496384,110.768959 116.926521,107.547127 
	C119.366287,104.312515 125.125038,103.019363 122.187553,96.614098 
	C119.938988,91.711044 123.615982,86.796021 129.000000,86.000000 
z"/>
<path fill="#000000" opacity="1.000000" stroke="none" 
	d="
M1.000002,83.468658 
	C2.935920,84.458275 4.693578,86.305061 6.845548,87.292458 
	C11.083776,89.237122 13.666397,91.403816 13.265756,96.891808 
	C12.965213,101.008644 19.000256,104.761490 24.475784,105.193428 
	C26.414555,116.648064 28.686815,118.800964 37.742413,119.052528 
	C41.031284,122.523140 43.628323,125.263680 46.604210,128.282745 
	C46.983055,128.561264 47.000000,129.000000 47.000000,129.000000 
	C31.739950,129.000000 16.479902,129.000000 1.000000,129.000000 
	C1.000000,113.979820 1.000000,98.958572 1.000002,83.468658 
z"/>
<path fill="#000000" opacity="1.000000" stroke="none" 
	d="
M46.955280,1.887845 
	C44.113564,4.535171 41.271851,7.182497 37.477879,10.716940 
	C30.238655,10.336253 26.119276,15.748933 25.708864,21.230124 
	C21.442244,23.463915 17.803520,25.246592 14.312759,27.282915 
	C13.443980,27.789715 12.394686,29.237152 12.543678,30.047064 
	C14.210601,39.108364 4.712356,40.146370 1.255957,45.326462 
	C1.000000,30.405001 1.000000,15.810000 1.000000,1.000000 
	C16.020210,1.000000 31.041447,1.000000 46.525192,1.222215 
	C46.987705,1.444429 46.955280,1.887845 46.955280,1.887845 
z"/>
<path fill="#41C4A4" opacity="1.000000" stroke="none" 
	d="
M129.000000,85.536819 
	C123.615982,86.796021 119.938988,91.711044 122.187553,96.614098 
	C125.125038,103.019363 119.366287,104.312515 116.926521,107.547127 
	C114.496384,110.768959 112.294250,107.719093 110.005409,107.035378 
	C108.622353,106.622231 107.194771,106.358154 105.437408,105.730652 
	C105.833771,104.366943 106.473923,103.203484 107.342079,102.246956 
	C119.105721,89.286041 117.121475,71.279457 102.780693,60.505455 
	C103.231926,58.378914 103.657402,56.643982 104.082886,54.909046 
	C107.067719,55.623886 110.082642,56.238678 113.017097,57.121056 
	C113.789703,57.353382 114.861717,58.408195 114.867889,59.093674 
	C114.940147,67.116547 119.392830,71.060226 126.824142,72.455757 
	C127.403137,72.564476 127.877304,73.231438 128.700104,73.319473 
	C129.000000,77.024544 129.000000,81.049088 129.000000,85.536819 
z"/>
<path fill="#FE6570" opacity="1.000000" stroke="none" 
	d="
M47.173222,2.154502 
	C46.955280,1.887845 46.987705,1.444429 46.993851,1.222215 
	C50.692909,1.000000 54.385818,1.000000 58.539368,0.999999 
	C59.694111,2.192990 60.652176,3.307889 61.032589,4.593690 
	C62.151680,8.376197 63.041584,12.226509 63.813274,16.826687 
	C63.467327,30.257578 63.329323,42.912060 62.748680,55.646675 
	C59.139027,55.253437 55.972008,54.780067 52.804989,54.306694 
	C52.865471,40.354485 53.286346,26.387852 52.728909,12.460372 
	C52.592339,9.048221 49.256256,5.764128 47.173222,2.154502 
z"/>
<path fill="#FE6570" opacity="1.000000" stroke="none" 
	d="
M47.460636,129.000000 
	C47.000000,129.000000 46.983055,128.561264 46.971153,128.342102 
	C51.603661,124.681488 53.210663,120.090614 53.076324,114.338150 
	C52.783161,101.785057 52.929825,89.221687 53.083782,75.866226 
	C56.575924,74.857307 59.881062,74.644691 63.168579,74.868431 
	C63.243607,82.559425 63.336258,89.814064 63.367439,97.520638 
	C63.390816,101.290749 63.475666,104.608925 63.479626,108.369049 
	C63.609486,111.915802 63.820240,115.020615 64.030991,118.125427 
	C62.140602,121.577431 60.250214,125.029427 58.679916,128.740723 
	C55.307091,129.000000 51.614182,129.000000 47.460636,129.000000 
z"/>
<path fill="#FFD05A" opacity="1.000000" stroke="none" 
	d="
M85.600006,1.000000 
	C85.675568,4.029026 85.604279,7.118783 84.899467,10.056551 
	C84.625664,11.197827 82.921387,11.995916 81.868729,12.950340 
	C81.327675,11.432852 80.184280,9.831476 80.381302,8.416774 
	C80.708328,6.068531 81.896843,3.840263 82.361237,1.280730 
	C83.066673,1.000000 84.133339,1.000000 85.600006,1.000000 
z"/>
<path fill="#000000" opacity="1.000000" stroke="none" 
	d="
M1.000000,60.444164 
	C5.757085,62.142178 5.899086,64.529419 1.257391,68.327118 
	C1.000000,65.629440 1.000000,63.258884 1.000000,60.444164 
z"/>
<path fill="#FFFBFA" opacity="1.000000" stroke="none" 
	d="
M53.035103,67.148071 
	C44.215405,67.093040 35.393265,67.129349 26.578381,66.893921 
	C25.093510,66.854271 23.639977,65.641281 22.171963,64.970428 
	C23.658676,64.319199 25.133162,63.138981 26.634129,63.104279 
	C35.119259,62.908104 43.610741,62.986626 53.022331,62.975670 
	C57.039257,62.936012 60.133915,62.892262 63.663811,62.910404 
	C67.580925,62.992962 71.073059,62.871284 74.538437,63.120880 
	C75.580109,63.195908 76.547333,64.304550 77.548660,64.939690 
	C76.586021,65.613998 75.661926,66.795731 74.653877,66.872299 
	C70.860374,67.160431 67.039543,67.088562 62.764965,67.086960 
	C59.212357,67.064285 56.123730,67.106178 53.035103,67.148071 
z"/>
<path fill="#FFF7F3" opacity="1.000000" stroke="none" 
	d="
M52.516705,54.127174 
	C55.972008,54.780067 59.139027,55.253437 63.185638,55.729042 
	C68.385712,55.756962 72.717506,55.608727 77.021461,55.888577 
	C78.908241,56.011257 80.738205,57.007641 82.593971,57.607292 
	C80.635880,58.337063 78.716446,59.535793 76.711823,59.701000 
	C72.253387,60.068428 67.752312,59.918541 62.804760,59.896629 
	C59.244987,59.794132 56.149071,59.774521 53.053154,59.754910 
	C51.648937,58.616833 50.026230,57.662571 48.883621,56.304405 
	C46.048546,52.934486 42.843872,50.925888 38.176559,51.467915 
	C36.905197,51.615559 35.466656,50.323685 34.104839,49.692459 
	C35.484936,48.908375 36.778515,47.742039 38.260174,47.406685 
	C44.522022,45.989414 48.499859,49.771656 52.516705,54.127174 
z"/>
<path fill="#FFF6F4" opacity="1.000000" stroke="none" 
	d="
M63.186203,74.432083 
	C59.881062,74.644691 56.575924,74.857307 53.037727,75.380112 
	C48.512798,80.290665 43.906044,84.261322 36.945061,82.545082 
	C35.880886,82.282707 35.023563,81.181351 34.070572,80.468033 
	C34.731659,79.840424 35.528828,78.573601 36.033447,78.681038 
	C43.683353,80.309586 47.605721,74.450684 53.257027,70.460724 
	C57.065437,70.188728 60.164230,70.105499 63.686378,70.088547 
	C66.398239,70.186256 68.715973,70.015099 70.962242,70.339203 
	C72.001137,70.489105 72.900635,71.605148 73.863327,72.283165 
	C72.914467,72.911446 72.019310,73.955711 71.006218,74.086533 
	C68.427666,74.419464 65.796379,74.344055 63.186203,74.432083 
z"/>
<path fill="#FE646F" opacity="1.000000" stroke="none" 
	d="
M53.040253,60.142166 
	C56.149071,59.774521 59.244987,59.794132 62.776680,60.254459 
	C63.217827,61.412952 63.223202,62.130730 63.228577,62.848507 
	C60.133915,62.892262 57.039257,62.936012 53.489799,62.915840 
	C53.032452,62.077755 53.029903,61.303589 53.040253,60.142166 
z"/>
<path fill="#FE646F" opacity="1.000000" stroke="none" 
	d="
M63.263020,70.022270 
	C60.164230,70.105499 57.065437,70.188728 53.508621,70.252754 
	C53.040001,69.462021 53.029408,68.690483 53.026958,67.533508 
	C56.123730,67.106178 59.212357,67.064285 62.747009,67.445602 
	C63.216362,68.586639 63.239689,69.304451 63.263020,70.022270 
z"/>
<path fill="#FFCF5C" opacity="1.000000" stroke="none" 
	d="
M63.686378,70.088547 
	C63.239689,69.304451 63.216362,68.586639 63.210991,67.510178 
	C67.039543,67.088562 70.860374,67.160431 74.653877,66.872299 
	C75.661926,66.795731 76.586021,65.613998 77.548660,64.939690 
	C76.547333,64.304550 75.580109,63.195908 74.538437,63.120880 
	C71.073059,62.871284 67.580925,62.992962 63.663815,62.910404 
	C63.223202,62.130730 63.217827,61.412952 63.240532,60.337345 
	C67.752312,59.918541 72.253387,60.068428 76.711823,59.701000 
	C78.716446,59.535793 80.635880,58.337063 82.593971,57.607292 
	C80.738205,57.007641 78.908241,56.011257 77.021461,55.888577 
	C72.717506,55.608727 68.385712,55.756962 63.628273,55.648911 
	C63.329323,42.912060 63.467327,30.257578 63.837727,17.255947 
	C64.070122,16.908800 64.509125,16.980598 64.998856,17.186623 
	C92.139732,24.255373 101.851631,54.123177 84.177986,75.449120 
	C83.164528,76.672005 82.199989,78.380234 82.157837,79.889000 
	C81.933174,87.930939 77.880394,93.283737 70.558975,96.905792 
	C67.897499,97.000336 65.663208,97.034515 63.428909,97.068703 
	C63.336258,89.814064 63.243607,82.559425 63.168579,74.868439 
	C65.796379,74.344055 68.427666,74.419464 71.006218,74.086533 
	C72.019310,73.955711 72.914467,72.911446 73.863327,72.283165 
	C72.900635,71.605148 72.001137,70.489105 70.962242,70.339203 
	C68.715973,70.015099 66.398239,70.186256 63.686378,70.088547 
z"/>
<path fill="#FEC445" opacity="1.000000" stroke="none" 
	d="
M70.986153,96.845444 
	C77.880394,93.283737 81.933174,87.930939 82.157837,79.889000 
	C82.199989,78.380234 83.164528,76.672005 84.177986,75.449120 
	C101.851631,54.123177 92.139732,24.255373 65.217529,17.146019 
	C70.851601,14.722841 76.340157,16.834953 81.590950,18.998672 
	C97.128014,25.401106 104.142937,37.475204 104.049026,54.463337 
	C103.657402,56.643982 103.231926,58.378914 102.547913,60.767174 
	C100.575760,65.287743 98.862129,69.154984 96.997162,73.346649 
	C95.561363,75.969719 93.989632,78.159714 93.068344,80.595711 
	C92.020805,83.365509 91.554482,86.355118 90.560112,89.481255 
	C87.433762,92.089500 84.582802,94.465675 81.312355,96.885437 
	C78.606255,97.002174 76.319633,97.075333 73.655022,97.088654 
	C72.513397,96.967690 71.749779,96.906563 70.986153,96.845444 
z"/>
<path fill="#FFD15B" opacity="1.000000" stroke="none" 
	d="
M108.304611,40.329071 
	C112.270752,38.631603 115.962944,36.599041 120.122948,39.299984 
	C118.531525,44.403305 113.860054,42.711403 110.646675,43.819710 
	C110.200806,43.973488 108.944214,41.776711 108.304611,40.329071 
z"/>
<path fill="#FFD15B" opacity="1.000000" stroke="none" 
	d="
M98.213638,21.458147 
	C100.137695,19.375109 101.814621,17.527498 103.689346,15.909006 
	C105.757019,14.123939 108.226723,15.119699 107.710510,17.282877 
	C107.136749,19.687202 104.707497,21.897947 102.579994,23.535463 
	C101.913010,24.048828 99.608620,22.434834 98.213638,21.458147 
z"/>
<path fill="#6FD7A3" opacity="1.000000" stroke="none" 
	d="
M97.148499,73.022224 
	C98.862129,69.154984 100.575760,65.287743 102.522171,61.158775 
	C117.121475,71.279457 119.105721,89.286041 107.342079,102.246956 
	C106.473923,103.203484 105.833771,104.366943 105.042229,105.787903 
	C102.808861,107.762718 100.787231,109.729591 98.377159,110.889030 
	C96.636253,111.726532 94.277603,111.992798 92.377312,111.608864 
	C89.903893,111.109108 87.611549,109.713127 85.151611,108.022507 
	C88.208008,101.353554 87.550362,99.279892 81.731842,96.841850 
	C84.582802,94.465675 87.433762,92.089500 90.813828,89.795609 
	C91.815575,90.341537 92.270432,90.825096 92.763695,91.265656 
	C96.593033,94.685822 102.530128,95.111481 106.222176,92.240120 
	C110.858482,88.634399 112.321426,83.796867 110.112587,79.375572 
	C107.458824,74.063698 102.372826,71.571190 97.148499,73.022224 
z"/>
<path fill="#696069" opacity="1.000000" stroke="none" 
	d="
M81.312355,96.885437 
	C87.550362,99.279892 88.208008,101.353554 84.961594,107.701721 
	C83.509972,108.040825 82.158699,108.020370 79.986076,107.996414 
	C77.783089,107.955330 76.401459,107.917732 75.082024,107.497429 
	C74.773819,103.792641 74.403419,100.470566 74.033020,97.148491 
	C76.319633,97.075333 78.606255,97.002174 81.312355,96.885437 
z"/>
<path fill="#E0DDEF" opacity="1.000000" stroke="none" 
	d="
M75.019829,107.880142 
	C76.401459,107.917732 77.783089,107.955330 79.579803,107.997604 
	C80.046120,116.677742 78.704002,118.000816 69.849144,118.000648 
	C68.533272,118.000626 67.217400,117.994743 65.702156,117.686447 
	C69.181435,115.226540 69.130447,111.679932 69.399834,108.036888 
	C71.560181,107.947754 73.290001,107.913948 75.019829,107.880142 
z"/>
<path fill="#F9E9EB" opacity="1.000000" stroke="none" 
	d="
M68.969315,108.092216 
	C69.130447,111.679932 69.181435,115.226540 65.250107,117.611908 
	C64.838257,117.895859 64.679077,117.949234 64.275444,118.064011 
	C63.820240,115.020615 63.609486,111.915802 63.852356,108.366348 
	C65.860420,107.978539 67.414871,108.035378 68.969315,108.092216 
z"/>
<path fill="#806E7A" opacity="1.000000" stroke="none" 
	d="
M69.399834,108.036888 
	C67.414871,108.035378 65.860420,107.978539 63.933247,107.924408 
	C63.475666,104.608925 63.390816,101.290749 63.367439,97.520638 
	C65.663208,97.034515 67.897499,97.000336 70.558975,96.905792 
	C71.749779,96.906563 72.513397,96.967690 73.655022,97.088654 
	C74.403419,100.470566 74.773819,103.792641 75.082024,107.497421 
	C73.290001,107.913948 71.560181,107.947754 69.399834,108.036888 
z"/>
<path fill="#000000" opacity="1.000000" stroke="none" 
	d="
M96.997162,73.346649 
	C102.372826,71.571190 107.458824,74.063698 110.112587,79.375572 
	C112.321426,83.796867 110.858482,88.634399 106.222176,92.240120 
	C102.530128,95.111481 96.593033,94.685822 92.763695,91.265656 
	C92.270432,90.825096 91.815575,90.341537 91.089218,89.563538 
	C91.554482,86.355118 92.020805,83.365509 93.068344,80.595711 
	C93.989632,78.159714 95.561363,75.969719 96.997162,73.346649 
z"/>
</svg>