<?xml version="1.0" standalone="no"?>
<!DOCTYPE svg PUBLIC "-//W3C//DTD SVG 20010904//EN"
 "http://www.w3.org/TR/2001/REC-SVG-20010904/DTD/svg10.dtd">
<svg version="1.0" xmlns="http://www.w3.org/2000/svg"
 width="512.000000pt" height="512.000000pt" viewBox="0 0 512.000000 512.000000"
 preserveAspectRatio="xMidYMid meet">

<g transform="translate(0.000000,512.000000) scale(0.100000,-0.100000)"
fill="#000000" stroke="none">
<path d="M347 3622 c-37 -41 -11 -102 43 -102 36 0 60 23 60 59 0 54 -68 82
-103 43z"/>
<path d="M2804 662 c-11 -7 -34 -45 -34 -56 0 -3 121 -6 268 -6 199 0 273 -3
285 -13 10 -6 33 -59 51 -117 30 -92 37 -105 58 -108 14 -2 31 5 43 18 18 20
17 23 -24 149 -25 79 -47 131 -57 135 -23 9 -577 7 -590 -2z"/>
</g>
</svg>
