<svg version="1.1" id="Layer_1" xmlns="http://www.w3.org/2000/svg" xmlns:xlink="http://www.w3.org/1999/xlink" x="0px" y="0px"
	 width="100%" viewBox="0 0 128 128" enable-background="new 0 0 128 128" xml:space="preserve">
<path fill="#436CCF" opacity="1.000000" stroke="none" 
	d="
M129.000000,6.000000 
	C129.000000,42.020893 129.000000,78.041786 128.659012,114.218033 
	C125.948380,114.908897 123.587608,115.854919 121.207512,115.906296 
	C112.558846,116.092995 103.903702,115.980156 95.251007,115.980209 
	C87.306862,115.980255 79.362724,115.980217 71.306313,115.980217 
	C71.157722,117.102463 71.023964,117.729790 70.998833,118.361443 
	C70.735786,124.973457 70.740601,124.975800 63.978848,124.976265 
	C46.174263,124.977486 28.369677,124.976662 10.565091,124.976654 
	C8.810507,124.976646 7.055923,124.976654 5.030354,124.976654 
	C5.030354,114.960526 4.671081,105.637856 5.264271,96.376190 
	C5.427688,93.824715 8.056461,91.025688 10.234073,89.115532 
	C12.725243,86.930321 15.974516,85.609352 18.520105,84.130333 
	C16.080263,80.238785 13.887745,77.002609 11.977712,73.607513 
	C10.603571,71.164986 4.583866,66.187675 1.000000,65.000000 
	C1.000000,61.638714 1.000000,58.277424 1.262907,54.809410 
	C4.468425,53.013443 5.395391,50.462521 5.066360,47.158321 
	C4.836790,44.852947 4.891478,42.497208 5.049915,40.179741 
	C5.404657,34.990875 7.956286,31.236183 12.770506,29.140009 
	C17.206619,27.208469 21.588264,25.110073 26.141317,23.502766 
	C29.476067,22.325542 33.049103,21.180235 36.516602,21.178244 
	C41.292168,21.175501 46.068363,22.264523 51.025227,22.909378 
	C51.025227,19.057320 51.032375,14.906419 51.023033,10.755554 
	C51.015060,7.212483 52.723148,5.028651 56.295574,5.065720 
	C80.531006,5.317194 104.765320,5.675926 129.000000,6.000000 
M72.788597,93.161781 
	C72.538841,93.438622 72.289085,93.715462 71.524002,93.475609 
	C70.294250,85.243553 69.064507,77.011497 67.745430,68.181496 
	C61.588093,71.433769 61.729630,80.202148 54.770439,83.445007 
	C57.158127,85.161842 58.700569,86.832199 60.601353,87.539238 
	C68.301353,90.403458 70.323448,92.952644 70.453232,101.058693 
	C70.515556,104.951607 70.463966,108.846336 70.463966,113.088623 
	C87.935974,113.088623 104.398376,112.943535 120.855141,113.184486 
	C125.305840,113.249641 126.534332,111.786339 126.514244,107.478241 
	C126.368301,76.179718 126.370232,44.879902 126.512733,13.581344 
	C126.532219,9.301448 125.349350,7.799499 120.873741,7.857812 
	C102.896408,8.092045 84.914215,7.954060 66.933823,7.953844 
	C53.448780,7.953682 53.621334,7.955982 53.454288,21.239304 
	C53.394924,25.959900 54.931274,28.157028 59.688919,28.939455 
	C66.202660,30.010681 70.016357,34.978489 70.147720,41.614689 
	C70.200386,44.275211 69.916245,46.944050 70.004265,49.601852 
	C70.152893,54.089672 74.363487,58.131733 78.760185,58.140278 
	C87.583862,58.157421 96.408150,58.208038 105.231049,58.124554 
	C109.137604,58.087589 111.103088,59.592438 111.026627,63.721245 
	C110.894089,70.877686 111.273102,78.055702 110.842445,85.188744 
	C110.662567,88.168251 108.959984,91.055824 107.562317,93.573982 
	C107.323479,93.282913 107.084641,92.991844 107.037285,91.970779 
	C107.652725,82.085938 108.335052,72.203789 108.733009,62.310192 
	C108.759521,61.650974 106.636505,60.309708 105.497803,60.292202 
	C95.180038,60.133572 84.858826,60.199261 74.678802,60.199261 
	C70.238144,70.273735 69.639877,84.014824 72.788597,93.161781 
M26.795933,84.956894 
	C41.518845,90.694145 56.210526,85.049393 61.737423,71.347496 
	C62.789551,68.739136 63.800579,67.106506 66.865738,66.224243 
	C68.905449,65.637138 71.311012,62.835018 71.628319,60.733700 
	C71.943565,58.645981 70.273720,54.603794 68.736778,54.195526 
	C63.750519,52.870991 63.697327,49.416313 63.353271,45.627792 
	C63.204742,43.992256 62.749737,42.351391 62.211311,40.789711 
	C58.131279,28.955650 46.511677,22.046539 33.826851,23.852907 
	C21.648563,25.587143 12.663963,35.560337 12.005844,48.114502 
	C11.894001,50.248001 12.325789,52.390972 9.164965,52.988415 
	C5.379100,53.703995 3.539443,56.393463 3.743333,60.234577 
	C3.938417,63.909786 6.314894,65.658554 9.591431,66.843315 
	C11.009762,67.356171 12.631728,68.667297 13.172910,70.013206 
	C15.770460,76.473259 19.899557,81.435867 26.795933,84.956894 
M45.499947,122.030426 
	C51.826977,122.024422 58.161060,122.172829 64.475174,121.884285 
	C65.763184,121.825417 68.022812,120.160576 68.056671,119.174973 
	C68.307869,111.863647 68.414940,104.517181 67.943687,97.222038 
	C67.638916,92.503914 64.150665,90.188614 59.175747,90.559814 
	C58.071224,98.213890 56.956276,105.933586 55.846420,113.654015 
	C55.799187,113.982597 55.932209,114.481033 55.756287,114.624512 
	C54.289406,115.820946 52.622368,118.073532 51.292835,117.898819 
	C46.865326,117.316978 41.633404,120.659332 38.059208,115.579918 
	C37.808792,115.224045 37.943279,114.604492 37.877544,114.110382 
	C37.371887,110.309479 38.170738,104.857742 36.007843,103.142433 
	C33.512989,101.163872 28.403936,102.427063 24.428957,102.381409 
	C17.275274,102.299232 16.178738,101.224998 15.946922,93.979675 
	C15.907091,92.734764 15.639490,91.497147 15.476017,90.247849 
	C9.818518,91.201828 7.365541,94.013794 7.204649,99.867546 
	C7.044595,105.690826 7.360054,111.531273 7.082162,117.345802 
	C6.897884,121.201591 8.436195,122.156143 12.033218,122.094414 
	C22.852646,121.908699 33.677330,122.029327 45.499947,122.030426 
M46.889366,93.691109 
	C45.579063,89.480232 42.439613,87.654297 41.125343,90.229744 
	C40.042862,92.350967 40.317806,95.300087 40.502983,97.845062 
	C40.554047,98.546822 43.232025,99.789665 43.358185,99.641075 
	C44.700577,98.059952 45.771442,96.248299 46.889366,93.691109 
M29.175970,99.104965 
	C31.698572,100.416832 33.780209,99.655502 33.711090,96.908165 
	C33.644901,94.277496 32.328072,91.678291 31.560905,89.065262 
	C30.403320,89.777222 28.359501,90.380997 28.256870,91.221741 
	C27.966763,93.598267 28.472414,96.071922 29.175970,99.104965 
M68.061073,45.329754 
	C68.287193,36.175079 66.077019,32.476513 60.771156,31.802015 
	C62.796787,37.829594 64.935814,44.194603 67.518692,51.880363 
	C67.772491,49.049091 67.899719,47.629711 68.061073,45.329754 
M46.552071,102.004753 
	C44.530022,102.320450 42.507973,102.636154 39.481949,103.108604 
	C44.454250,107.061226 50.779297,106.812927 53.801071,102.881409 
	C51.385777,102.548729 49.412476,102.276924 46.552071,102.004753 
M41.666019,112.540283 
	C41.611031,113.474190 41.140572,114.877815 41.573177,115.260475 
	C43.419052,116.893204 51.056217,115.922760 53.732418,113.593315 
	C50.031582,110.981102 46.114975,112.233528 41.666019,112.540283 
M53.907303,98.810425 
	C54.899879,97.944435 56.726254,97.087624 56.735893,96.210831 
	C56.771347,92.986229 58.300228,89.186752 53.472279,86.886650 
	C53.472279,90.667244 53.472279,94.447830 53.907303,98.810425 
M25.606640,96.059914 
	C25.606640,92.849541 25.606640,89.639175 25.606640,86.428802 
	C25.072525,86.437706 24.538412,86.446602 24.004297,86.455505 
	C24.004297,90.832222 24.004297,95.208931 24.004297,99.585648 
	C24.361032,99.617981 24.717770,99.650314 25.074505,99.682655 
	C25.246901,98.754631 25.419296,97.826607 25.606640,96.059914 
M20.620930,87.984940 
	C20.075647,87.826218 19.187660,87.376183 19.037251,87.553123 
	C17.213858,89.698189 17.758486,96.129814 20.833984,99.791435 
	C20.833984,95.346992 20.833984,92.004242 20.620930,87.984940 
M48.619408,88.516006 
	C48.619408,92.236565 48.619408,95.957130 48.619408,99.677689 
	C49.214108,99.659653 49.808807,99.641617 50.403507,99.623581 
	C50.403507,95.767876 50.415352,91.911949 50.341190,88.057671 
	C50.339153,87.951759 49.412296,87.863647 48.619408,88.516006 
M7.986927,40.007824 
	C7.986927,42.983868 7.986927,45.959911 7.986927,48.935955 
	C8.245350,48.945915 8.503773,48.955875 8.762196,48.965836 
	C10.118008,43.870235 11.473819,38.774635 12.829630,33.679039 
	C12.515580,33.518604 12.201530,33.358170 11.887479,33.197735 
	C10.599850,35.182106 9.312222,37.166481 7.986927,40.007824 
M40.429222,109.643242 
	C44.637299,109.872932 48.845371,110.102615 53.053448,110.332306 
	C53.060966,109.600494 53.068481,108.868690 53.076000,108.136879 
	C48.891762,108.353889 44.707520,108.570892 40.429222,109.643242 
M14.030573,33.295681 
	C13.918255,32.941544 13.805936,32.587402 13.693617,32.233265 
	C13.577259,32.685482 13.460900,33.137703 14.030573,33.295681 
z"/>
<path fill="#000000" opacity="1.000000" stroke="none" 
	d="
M129.000000,5.500038 
	C104.765320,5.675926 80.531006,5.317194 56.295574,5.065720 
	C52.723148,5.028651 51.015060,7.212483 51.023033,10.755554 
	C51.032375,14.906419 51.025227,19.057320 51.025227,22.909378 
	C46.068363,22.264523 41.292168,21.175501 36.516602,21.178244 
	C33.049103,21.180235 29.476067,22.325542 26.141317,23.502766 
	C21.588264,25.110073 17.206619,27.208469 12.770506,29.140009 
	C7.956286,31.236183 5.404657,34.990875 5.049915,40.179741 
	C4.891478,42.497208 4.836790,44.852947 5.066360,47.158321 
	C5.395391,50.462521 4.468425,53.013443 1.262907,54.351341 
	C1.000000,36.380943 1.000000,18.761887 1.000000,1.071415 
	C43.666569,1.071415 86.333282,1.071415 129.000000,1.071415 
	C129.000000,2.340608 129.000000,3.670342 129.000000,5.500038 
z"/>
<path fill="#000000" opacity="1.000000" stroke="none" 
	d="
M1.000000,65.468658 
	C4.583866,66.187675 10.603571,71.164986 11.977712,73.607513 
	C13.887745,77.002609 16.080263,80.238785 18.520105,84.130333 
	C15.974516,85.609352 12.725243,86.930321 10.234073,89.115532 
	C8.056461,91.025688 5.427688,93.824715 5.264271,96.376190 
	C4.671081,105.637856 5.030354,114.960526 5.030354,124.976654 
	C7.055923,124.976654 8.810507,124.976646 10.565091,124.976654 
	C28.369677,124.976662 46.174263,124.977486 63.978848,124.976265 
	C70.740601,124.975800 70.735786,124.973457 70.998833,118.361443 
	C71.023964,117.729790 71.157722,117.102463 71.306313,115.980217 
	C79.362724,115.980217 87.306862,115.980255 95.251007,115.980209 
	C103.903702,115.980156 112.558846,116.092995 121.207512,115.906296 
	C123.587608,115.854919 125.948380,114.908897 128.659012,114.686691 
	C129.000000,119.656731 129.000000,124.313469 129.000000,128.977661 
	C86.434082,128.985107 43.868153,128.985107 1.000000,128.985107 
	C1.000000,107.980072 1.000000,86.958694 1.000000,65.468658 
z"/>
<path fill="#DDE9FB" opacity="1.000000" stroke="none" 
	d="
M107.949738,93.985199 
	C108.959984,91.055824 110.662567,88.168251 110.842445,85.188744 
	C111.273102,78.055702 110.894089,70.877686 111.026627,63.721245 
	C111.103088,59.592438 109.137604,58.087589 105.231049,58.124554 
	C96.408150,58.208038 87.583862,58.157421 78.760185,58.140278 
	C74.363487,58.131733 70.152893,54.089672 70.004265,49.601852 
	C69.916245,46.944050 70.200386,44.275211 70.147720,41.614689 
	C70.016357,34.978489 66.202660,30.010681 59.688919,28.939455 
	C54.931274,28.157028 53.394924,25.959900 53.454288,21.239304 
	C53.621334,7.955982 53.448780,7.953682 66.933823,7.953844 
	C84.914215,7.954060 102.896408,8.092045 120.873741,7.857812 
	C125.349350,7.799499 126.532219,9.301448 126.512733,13.581344 
	C126.370232,44.879902 126.368301,76.179718 126.514244,107.478241 
	C126.534332,111.786339 125.305840,113.249641 120.855141,113.184486 
	C104.398376,112.943535 87.935974,113.088623 70.463966,113.088623 
	C70.463966,108.846336 70.515556,104.951607 70.453232,101.058693 
	C70.323448,92.952644 68.301353,90.403458 60.601353,87.539238 
	C58.700569,86.832199 57.158127,85.161842 54.770439,83.445007 
	C61.729630,80.202148 61.588093,71.433769 67.745430,68.181496 
	C69.064507,77.011497 70.294250,85.243553 71.876434,94.055099 
	C76.767769,98.088554 81.170670,101.748955 85.922646,104.879471 
	C87.490189,105.912140 90.222656,106.335762 91.969208,105.730316 
	C98.427834,103.491455 104.277374,100.143280 107.949738,93.985199 
M76.875290,31.734913 
	C86.003113,31.730448 95.132607,31.810055 104.256905,31.628345 
	C105.582855,31.601936 106.883904,30.325344 108.196480,29.627258 
	C106.902702,28.948490 105.619087,27.704830 104.313530,27.681355 
	C94.856827,27.511332 85.394539,27.515554 75.937218,27.665731 
	C74.557793,27.687637 73.195335,28.778240 71.825027,29.374334 
	C73.205002,30.158466 74.584969,30.942600 76.875290,31.734913 
M87.508430,36.350853 
	C83.514809,36.360901 79.507828,36.190262 75.535156,36.483826 
	C74.231483,36.580162 73.016792,37.880527 71.761414,38.630302 
	C72.927147,39.319954 74.083374,40.588757 75.260101,40.608047 
	C85.075035,40.768967 94.894867,40.768867 104.709846,40.609646 
	C105.890465,40.590492 107.050980,39.332741 108.220810,38.649063 
	C106.973770,37.893196 105.755180,36.546230 104.474731,36.484615 
	C99.161690,36.228951 93.829987,36.361347 87.508430,36.350853 
M105.828247,45.359512 
	C100.682129,45.326599 95.536041,45.275364 90.389885,45.265938 
	C85.243118,45.256512 80.089897,45.158279 74.954643,45.408943 
	C73.878075,45.461491 72.867500,46.866131 71.826508,47.647720 
	C72.871704,48.229065 73.910957,49.302643 74.963020,49.315338 
	C85.089066,49.437569 95.218742,49.474777 105.343918,49.315849 
	C108.196426,49.271076 109.556915,47.983364 105.828247,45.359512 
M81.914276,15.354861 
	C80.059044,16.042738 78.203812,16.730614 76.348579,17.418493 
	C78.275635,18.191921 80.172768,19.527729 82.135429,19.632181 
	C87.776779,19.932411 93.450813,19.879292 99.098000,19.637636 
	C100.633636,19.571920 102.119713,18.347956 103.628532,17.655575 
	C102.185020,16.893843 100.770119,15.547100 99.292877,15.474829 
	C93.814697,15.206822 88.315964,15.358773 81.914276,15.354861 
z"/>
<path fill="#F5CDCF" opacity="1.000000" stroke="none" 
	d="
M26.444885,84.803818 
	C19.899557,81.435867 15.770460,76.473259 13.172910,70.013206 
	C12.631728,68.667297 11.009762,67.356171 9.591431,66.843315 
	C6.314894,65.658554 3.938417,63.909786 3.743333,60.234577 
	C3.539443,56.393463 5.379100,53.703995 9.164965,52.988415 
	C12.325789,52.390972 11.894001,50.248001 12.005844,48.114502 
	C12.663963,35.560337 21.648563,25.587143 33.826851,23.852907 
	C46.511677,22.046539 58.131279,28.955650 62.211311,40.789711 
	C62.749737,42.351391 63.204742,43.992256 63.353271,45.627792 
	C63.697327,49.416313 63.750519,52.870991 68.736778,54.195526 
	C70.273720,54.603794 71.943565,58.645981 71.628319,60.733700 
	C71.311012,62.835018 68.905449,65.637138 66.865738,66.224243 
	C63.800579,67.106506 62.789551,68.739136 61.737423,71.347496 
	C56.210526,85.049393 41.518845,90.694145 26.444885,84.803818 
M52.461323,55.049938 
	C47.502571,55.209011 47.982288,58.889683 48.625069,61.861378 
	C48.899330,63.129353 51.263729,63.945232 52.678337,64.966553 
	C53.472103,62.681995 54.480797,60.439388 54.939484,58.089428 
	C55.093643,57.299644 53.848637,56.236763 52.461323,55.049938 
M21.004623,63.514679 
	C22.719946,63.718357 24.435270,63.922031 26.150593,64.125710 
	C26.366587,61.734257 26.893227,59.306442 26.619968,56.972260 
	C26.531492,56.216511 23.427742,54.990299 23.265558,55.198177 
	C22.072304,56.727634 21.156374,58.517666 20.415924,60.332840 
	C20.147169,60.991676 20.595501,61.943027 21.004623,63.514679 
M40.327240,44.929279 
	C42.444962,44.769047 44.562683,44.608814 46.680405,44.448582 
	C46.636196,44.102234 46.591984,43.755882 46.547775,43.409531 
	C40.489410,43.409531 34.431046,43.409531 28.372681,43.409531 
	C28.361799,43.916122 28.350918,44.422710 28.340036,44.929302 
	C32.020515,44.929302 35.700993,44.929302 40.327240,44.929279 
M41.273872,36.822544 
	C36.964436,36.822544 32.654999,36.822544 28.345564,36.822544 
	C28.360014,37.264366 28.374466,37.706188 28.388916,38.148010 
	C34.456005,38.148010 40.523098,38.148010 46.590187,38.148010 
	C46.587757,37.787235 46.585327,37.426464 46.582893,37.065689 
	C45.122562,36.984814 43.662228,36.903938 41.273872,36.822544 
M42.545086,74.154297 
	C42.942135,73.573456 43.339180,72.992607 43.597610,72.614548 
	C39.693409,72.614548 35.948322,72.614548 31.708076,72.614548 
	C34.771690,76.149948 38.190708,76.050751 42.545086,74.154297 
z"/>
<path fill="#A2C7FE" opacity="1.000000" stroke="none" 
	d="
M44.999954,122.030441 
	C33.677330,122.029327 22.852646,121.908699 12.033218,122.094414 
	C8.436195,122.156143 6.897884,121.201591 7.082162,117.345802 
	C7.360054,111.531273 7.044595,105.690826 7.204649,99.867546 
	C7.365541,94.013794 9.818518,91.201828 15.476017,90.247849 
	C15.639490,91.497147 15.907091,92.734764 15.946922,93.979675 
	C16.178738,101.224998 17.275274,102.299232 24.428957,102.381409 
	C28.403936,102.427063 33.512989,101.163872 36.007843,103.142433 
	C38.170738,104.857742 37.371887,110.309479 37.877544,114.110382 
	C37.943279,114.604492 37.808792,115.224045 38.059208,115.579918 
	C41.633404,120.659332 46.865326,117.316978 51.292835,117.898819 
	C52.622368,118.073532 54.289406,115.820946 55.756287,114.624512 
	C55.932209,114.481033 55.799187,113.982597 55.846420,113.654015 
	C56.956276,105.933586 58.071224,98.213890 59.175747,90.559814 
	C64.150665,90.188614 67.638916,92.503914 67.943687,97.222038 
	C68.414940,104.517181 68.307869,111.863647 68.056671,119.174973 
	C68.022812,120.160576 65.763184,121.825417 64.475174,121.884285 
	C58.161060,122.172829 51.826977,122.024422 44.999954,122.030441 
z"/>
<path fill="#F6E193" opacity="1.000000" stroke="none" 
	d="
M73.138992,92.725670 
	C69.639877,84.014824 70.238144,70.273735 74.678802,60.199261 
	C84.858826,60.199261 95.180038,60.133572 105.497803,60.292202 
	C106.636505,60.309708 108.759521,61.650974 108.733009,62.310192 
	C108.335052,72.203789 107.652725,82.085938 106.671097,92.541672 
	C93.738411,107.089943 86.596855,107.222618 73.861610,93.396149 
	C73.639687,93.155205 73.380684,92.948410 73.138992,92.725670 
M102.040352,64.102608 
	C94.719048,64.065071 87.394691,64.141266 80.077675,63.944389 
	C76.123436,63.837997 74.724380,65.586014 74.881264,69.344749 
	C75.040733,73.165703 75.263763,77.038658 74.836250,80.818413 
	C73.858040,89.466949 78.526108,94.488823 85.283180,98.459930 
	C88.477806,100.337395 91.469818,100.276825 94.702202,98.489288 
	C104.093849,93.295631 109.335823,74.993790 104.131935,65.092087 
	C103.933022,64.713608 103.328835,64.548119 102.040352,64.102608 
z"/>
<path fill="#4E73CA" opacity="1.000000" stroke="none" 
	d="
M72.963791,92.943726 
	C73.380684,92.948410 73.639687,93.155205 73.861610,93.396149 
	C86.596855,107.222618 93.738411,107.089943 106.575348,92.906662 
	C107.084641,92.991844 107.323479,93.282913 107.756027,93.779587 
	C104.277374,100.143280 98.427834,103.491455 91.969208,105.730316 
	C90.222656,106.335762 87.490189,105.912140 85.922646,104.879471 
	C81.170670,101.748955 76.767769,98.088554 72.134102,94.313446 
	C72.289085,93.715462 72.538841,93.438622 72.963791,92.943726 
z"/>
<path fill="#4570C6" opacity="1.000000" stroke="none" 
	d="
M46.903164,94.095566 
	C45.771442,96.248299 44.700577,98.059952 43.358185,99.641075 
	C43.232025,99.789665 40.554047,98.546822 40.502983,97.845062 
	C40.317806,95.300087 40.042862,92.350967 41.125343,90.229744 
	C42.439613,87.654297 45.579063,89.480232 46.903164,94.095566 
z"/>
<path fill="#4570C6" opacity="1.000000" stroke="none" 
	d="
M28.920258,98.806137 
	C28.472414,96.071922 27.966763,93.598267 28.256870,91.221741 
	C28.359501,90.380997 30.403320,89.777222 31.560905,89.065262 
	C32.328072,91.678291 33.644901,94.277496 33.711090,96.908165 
	C33.780209,99.655502 31.698572,100.416832 28.920258,98.806137 
z"/>
<path fill="#D3E0F8" opacity="1.000000" stroke="none" 
	d="
M68.044014,45.770042 
	C67.899719,47.629711 67.772491,49.049091 67.518692,51.880363 
	C64.935814,44.194603 62.796787,37.829594 60.771156,31.802015 
	C66.077019,32.476513 68.287193,36.175079 68.044014,45.770042 
z"/>
<path fill="#4570C6" opacity="1.000000" stroke="none" 
	d="
M46.995621,102.004936 
	C49.412476,102.276924 51.385777,102.548729 53.801071,102.881409 
	C50.779297,106.812927 44.454250,107.061226 39.481949,103.108604 
	C42.507973,102.636154 44.530022,102.320450 46.995621,102.004936 
z"/>
<path fill="#4570C6" opacity="1.000000" stroke="none" 
	d="
M42.029968,112.401268 
	C46.114975,112.233528 50.031582,110.981102 53.732418,113.593315 
	C51.056217,115.922760 43.419052,116.893204 41.573177,115.260475 
	C41.140572,114.877815 41.611031,113.474190 42.029968,112.401268 
z"/>
<path fill="#4570C6" opacity="1.000000" stroke="none" 
	d="
M53.689789,98.519424 
	C53.472279,94.447830 53.472279,90.667244 53.472279,86.886650 
	C58.300228,89.186752 56.771347,92.986229 56.735893,96.210831 
	C56.726254,97.087624 54.899879,97.944435 53.689789,98.519424 
z"/>
<path fill="#B5C8F0" opacity="1.000000" stroke="none" 
	d="
M25.599167,96.479248 
	C25.419296,97.826607 25.246901,98.754631 25.074505,99.682655 
	C24.717770,99.650314 24.361032,99.617981 24.004297,99.585648 
	C24.004297,95.208931 24.004297,90.832222 24.004297,86.455505 
	C24.538412,86.446602 25.072525,86.437706 25.606640,86.428802 
	C25.606640,89.639175 25.606640,92.849541 25.599167,96.479248 
z"/>
<path fill="#4571C6" opacity="1.000000" stroke="none" 
	d="
M20.727457,88.323219 
	C20.833984,92.004242 20.833984,95.346992 20.833984,99.791435 
	C17.758486,96.129814 17.213858,89.698189 19.037251,87.553123 
	C19.187660,87.376183 20.075647,87.826218 20.727457,88.323219 
z"/>
<path fill="#B7CAF0" opacity="1.000000" stroke="none" 
	d="
M48.768051,88.141617 
	C49.412296,87.863647 50.339153,87.951759 50.341190,88.057671 
	C50.415352,91.911949 50.403507,95.767876 50.403507,99.623581 
	C49.808807,99.641617 49.214108,99.659653 48.619408,99.677689 
	C48.619408,95.957130 48.619408,92.236565 48.768051,88.141617 
z"/>
<path fill="#000000" opacity="1.000000" stroke="none" 
	d="
M8.005760,39.579338 
	C9.312222,37.166481 10.599850,35.182106 11.887479,33.197735 
	C12.201530,33.358170 12.515580,33.518604 12.829630,33.679039 
	C11.473819,38.774635 10.118008,43.870235 8.762196,48.965836 
	C8.503773,48.955875 8.245350,48.945915 7.986927,48.935955 
	C7.986927,45.959911 7.986927,42.983868 8.005760,39.579338 
z"/>
<path fill="#C3D4F4" opacity="1.000000" stroke="none" 
	d="
M40.476250,109.215576 
	C44.707520,108.570892 48.891762,108.353889 53.076000,108.136879 
	C53.068481,108.868690 53.060966,109.600494 53.053448,110.332306 
	C48.845371,110.102615 44.637299,109.872932 40.476250,109.215576 
z"/>
<path fill="#000000" opacity="1.000000" stroke="none" 
	d="
M13.687557,33.442802 
	C13.460900,33.137703 13.577259,32.685482 13.693617,32.233265 
	C13.805936,32.587402 13.918255,32.941544 13.687557,33.442802 
z"/>
<path fill="#567DCC" opacity="1.000000" stroke="none" 
	d="
M76.420120,31.730824 
	C74.584969,30.942600 73.205002,30.158466 71.825027,29.374336 
	C73.195335,28.778240 74.557793,27.687637 75.937218,27.665731 
	C85.394539,27.515554 94.856827,27.511332 104.313530,27.681355 
	C105.619087,27.704830 106.902702,28.948490 108.196480,29.627258 
	C106.883904,30.325344 105.582855,31.601936 104.256905,31.628345 
	C95.132607,31.810055 86.003113,31.730448 76.420120,31.730824 
z"/>
<path fill="#6489D1" opacity="1.000000" stroke="none" 
	d="
M88.006775,36.351070 
	C93.829987,36.361347 99.161690,36.228951 104.474731,36.484615 
	C105.755180,36.546230 106.973770,37.893196 108.220810,38.649067 
	C107.050980,39.332741 105.890465,40.590492 104.709846,40.609646 
	C94.894867,40.768867 85.075035,40.768967 75.260101,40.608047 
	C74.083374,40.588757 72.927147,39.319954 71.761414,38.630299 
	C73.016792,37.880527 74.231483,36.580162 75.535156,36.483826 
	C79.507828,36.190262 83.514809,36.360901 88.006775,36.351070 
z"/>
<path fill="#567DCC" opacity="1.000000" stroke="none" 
	d="
M106.256561,45.452538 
	C109.556915,47.983364 108.196426,49.271076 105.343918,49.315849 
	C95.218742,49.474777 85.089066,49.437569 74.963020,49.315338 
	C73.910957,49.302643 72.871704,48.229065 71.826508,47.647720 
	C72.867500,46.866131 73.878075,45.461491 74.954643,45.408943 
	C80.089897,45.158279 85.243118,45.256512 90.389885,45.265938 
	C95.536041,45.275364 100.682129,45.326599 106.256561,45.452538 
z"/>
<path fill="#6489D1" opacity="1.000000" stroke="none" 
	d="
M82.369614,15.353916 
	C88.315964,15.358773 93.814697,15.206822 99.292877,15.474829 
	C100.770119,15.547100 102.185020,16.893843 103.628532,17.655575 
	C102.119713,18.347956 100.633636,19.571920 99.098000,19.637636 
	C93.450813,19.879292 87.776779,19.932411 82.135429,19.632181 
	C80.172768,19.527729 78.275635,18.191921 76.348579,17.418491 
	C78.203812,16.730614 80.059044,16.042738 82.369614,15.353916 
z"/>
<path fill="#4368CC" opacity="1.000000" stroke="none" 
	d="
M52.852226,55.174320 
	C53.848637,56.236763 55.093643,57.299644 54.939484,58.089428 
	C54.480797,60.439388 53.472103,62.681995 52.678337,64.966553 
	C51.263729,63.945232 48.899330,63.129353 48.625069,61.861378 
	C47.982288,58.889683 47.502571,55.209011 52.852226,55.174320 
z"/>
<path fill="#4168CC" opacity="1.000000" stroke="none" 
	d="
M20.860634,63.137794 
	C20.595501,61.943027 20.147169,60.991676 20.415924,60.332840 
	C21.156374,58.517666 22.072304,56.727634 23.265558,55.198177 
	C23.427742,54.990299 26.531492,56.216511 26.619968,56.972260 
	C26.893227,59.306442 26.366587,61.734257 26.150593,64.125710 
	C24.435270,63.922031 22.719946,63.718357 20.860634,63.137794 
z"/>
<path fill="#4B6DCC" opacity="1.000000" stroke="none" 
	d="
M39.854355,44.929291 
	C35.700993,44.929302 32.020515,44.929302 28.340036,44.929302 
	C28.350918,44.422710 28.361799,43.916122 28.372681,43.409531 
	C34.431046,43.409531 40.489410,43.409531 46.547775,43.409531 
	C46.591984,43.755882 46.636196,44.102234 46.680405,44.448582 
	C44.562683,44.608814 42.444962,44.769047 39.854355,44.929291 
z"/>
<path fill="#4C6DCC" opacity="1.000000" stroke="none" 
	d="
M41.737885,36.822803 
	C43.662228,36.903938 45.122562,36.984814 46.582893,37.065689 
	C46.585327,37.426464 46.587757,37.787235 46.590187,38.148010 
	C40.523098,38.148010 34.456005,38.148010 28.388916,38.148010 
	C28.374466,37.706188 28.360014,37.264366 28.345564,36.822544 
	C32.654999,36.822544 36.964436,36.822544 41.737885,36.822803 
z"/>
<path fill="#5674CC" opacity="1.000000" stroke="none" 
	d="
M42.232552,74.356216 
	C38.190708,76.050751 34.771690,76.149948 31.708076,72.614548 
	C35.948322,72.614548 39.693409,72.614548 43.597610,72.614548 
	C43.339180,72.992607 42.942135,73.573456 42.232552,74.356216 
z"/>
<path fill="#EBAB7E" opacity="1.000000" stroke="none" 
	d="
M102.476921,64.192993 
	C103.328835,64.548119 103.933022,64.713608 104.131935,65.092087 
	C109.335823,74.993790 104.093849,93.295631 94.702202,98.489288 
	C91.469818,100.276825 88.477806,100.337395 85.283180,98.459930 
	C78.526108,94.488823 73.858040,89.466949 74.836250,80.818413 
	C75.263763,77.038658 75.040733,73.165703 74.881264,69.344749 
	C74.724380,65.586014 76.123436,63.837997 80.077675,63.944389 
	C87.394691,64.141266 94.719048,64.065071 102.476921,64.192993 
M86.779556,88.107018 
	C85.543770,87.247704 84.307983,86.388390 81.954132,84.751625 
	C82.359970,87.348480 82.085548,89.310959 82.876122,89.944542 
	C85.125496,91.747238 88.039474,94.463684 90.263206,94.111771 
	C93.009949,93.677094 96.592110,90.949135 97.462936,88.406960 
	C98.298843,85.966751 96.751007,82.077873 95.083885,79.615593 
	C93.787888,77.701439 91.086845,76.851578 92.971169,73.601402 
	C94.421837,74.727058 95.607956,75.647446 97.120865,76.821404 
	C98.947838,71.361168 95.385239,69.902344 92.079750,68.430771 
	C87.833092,66.540192 84.951569,69.273094 82.912491,72.161095 
	C80.918449,74.985291 81.374725,78.454239 84.489136,80.537575 
	C87.334457,82.440903 89.054085,84.369576 86.779556,88.107018 
z"/>
<path fill="#FEE691" opacity="1.000000" stroke="none" 
	d="
M87.065269,87.982773 
	C89.054085,84.369576 87.334457,82.440903 84.489136,80.537575 
	C81.374725,78.454239 80.918449,74.985291 82.912491,72.161095 
	C84.951569,69.273094 87.833092,66.540192 92.079750,68.430771 
	C95.385239,69.902344 98.947838,71.361168 97.120865,76.821404 
	C95.607956,75.647446 94.421837,74.727058 92.971169,73.601402 
	C91.086845,76.851578 93.787888,77.701439 95.083885,79.615593 
	C96.751007,82.077873 98.298843,85.966751 97.462936,88.406960 
	C96.592110,90.949135 93.009949,93.677094 90.263206,94.111771 
	C88.039474,94.463684 85.125496,91.747238 82.876122,89.944542 
	C82.085548,89.310959 82.359970,87.348480 81.954132,84.751625 
	C84.307983,86.388390 85.543770,87.247704 87.065269,87.982773 
z"/>
</svg>