<svg version="1.1" id="Layer_1" xmlns="http://www.w3.org/2000/svg" xmlns:xlink="http://www.w3.org/1999/xlink" x="0px" y="0px"
	 width="100%" viewBox="0 0 128 128" enable-background="new 0 0 128 128" xml:space="preserve">
<path fill="#000000" opacity="1.000000" stroke="none" 
	d="
M77.000000,129.000000 
	C51.333332,129.000000 26.166666,129.000000 1.000000,129.000000 
	C1.000000,86.333336 1.000000,43.666668 1.000000,1.000000 
	C43.666668,1.000000 86.333336,1.000000 129.000000,1.000000 
	C129.000000,43.666668 129.000000,86.333336 129.000000,129.000000 
	C111.833336,129.000000 94.666664,129.000000 77.000000,129.000000 
M10.160836,37.010830 
	C5.060167,38.892967 3.394367,43.350727 3.130138,47.981491 
	C2.689744,55.699650 1.824750,63.945587 10.994192,68.880096 
	C12.085994,75.744278 15.854610,80.674614 21.129852,83.996353 
	C17.405025,84.209671 15.938594,86.400131 15.165358,89.992111 
	C11.567221,89.078773 9.389998,91.432640 7.779596,93.842651 
	C2.821380,101.262741 2.394828,109.723068 3.208058,118.253128 
	C3.430980,120.591385 5.404757,122.033211 7.805622,120.608955 
	C9.715542,119.475945 11.618163,117.985023 12.892292,116.201660 
	C15.168230,113.016075 16.967712,109.490082 19.003138,106.822884 
	C19.934128,108.313950 20.861795,109.807098 21.796621,111.295746 
	C32.290287,128.006256 57.592728,132.486938 72.391380,120.935989 
	C77.594444,116.874794 81.465897,111.107590 86.002495,106.845245 
	C89.072502,111.145744 91.892349,115.659401 95.306740,119.666451 
	C97.341957,122.054947 99.796219,122.185593 101.039650,118.290146 
	C103.588974,110.303535 100.516243,103.144691 97.965889,95.914963 
	C96.512070,91.793663 93.525871,89.663956 88.996239,89.164398 
	C87.989243,85.723618 85.752045,83.913002 82.234444,83.274689 
	C88.966103,80.455269 92.735664,75.518471 93.699036,67.828148 
	C100.681747,64.339058 101.586029,57.803699 102.797691,51.029999 
	C106.302612,53.959381 109.728157,56.993359 113.362846,59.751751 
	C114.397141,60.536686 116.160294,60.999500 117.359734,60.697792 
	C118.123505,60.505669 118.773094,58.674988 118.926331,57.507187 
	C119.181091,55.565609 118.995735,53.566280 118.995735,51.773815 
	C122.026558,49.796844 127.234703,51.738998 127.088272,45.593021 
	C126.791481,33.136524 126.951866,20.667706 127.027969,8.204604 
	C127.051506,4.348502 125.243614,2.949307 121.546913,2.968292 
	C106.591019,3.045100 91.633774,3.082640 76.678688,2.948583 
	C72.294579,2.909285 70.768829,4.834922 70.959450,8.977615 
	C71.127251,12.624388 70.956650,16.286734 70.011551,19.993792 
	C56.912598,19.995325 43.790272,20.480501 30.721899,19.849110 
	C19.784452,19.320675 11.978386,25.780060 10.160836,37.010830 
z"/>
<path fill="#BFD9EF" opacity="1.000000" stroke="none" 
	d="
M82.108208,83.966362 
	C85.752045,83.913002 87.989243,85.723618 88.808929,89.809189 
	C84.165680,93.224510 83.065010,96.995544 85.046974,101.839165 
	C85.589996,103.166237 85.658897,104.687309 85.945374,106.119362 
	C81.465897,111.107590 77.594444,116.874794 72.391380,120.935989 
	C57.592728,132.486938 32.290287,128.006256 21.796621,111.295746 
	C20.861795,109.807098 19.934128,108.313950 18.994152,106.030914 
	C19.718300,99.782265 21.584476,94.102486 15.964211,89.896828 
	C15.938594,86.400131 17.405025,84.209671 21.986519,83.990868 
	C42.598190,83.979042 62.353199,83.972702 82.108208,83.966362 
M46.002644,97.585678 
	C43.249302,100.906319 42.523655,104.914391 45.342064,107.972099 
	C47.269215,110.062897 51.171116,111.905571 53.717117,111.413177 
	C56.279694,110.917587 59.556557,107.683990 60.123272,105.120247 
	C60.682728,102.589371 58.961739,98.675560 56.947964,96.661522 
	C53.958092,93.671265 49.959381,94.391716 46.002644,97.585678 
z"/>
<path fill="#6AC479" opacity="1.000000" stroke="none" 
	d="
M70.935486,19.942202 
	C70.956650,16.286734 71.127251,12.624388 70.959450,8.977615 
	C70.768829,4.834922 72.294579,2.909285 76.678688,2.948583 
	C91.633774,3.082640 106.591019,3.045100 121.546913,2.968292 
	C125.243614,2.949307 127.051506,4.348502 127.027969,8.204604 
	C126.951866,20.667706 126.791481,33.136524 127.088272,45.593021 
	C127.234703,51.738998 122.026558,49.796844 118.995735,51.773815 
	C118.995735,53.566280 119.181091,55.565609 118.926331,57.507187 
	C118.773094,58.674988 118.123505,60.505669 117.359734,60.697792 
	C116.160294,60.999500 114.397141,60.536686 113.362846,59.751751 
	C109.728157,56.993359 106.302612,53.959381 102.148041,50.764473 
	C98.632965,50.403473 95.767525,50.308006 92.466965,50.151741 
	C89.399330,50.104385 86.766838,50.117821 83.670258,50.086056 
	C80.715271,50.073021 78.224373,50.105194 75.414566,50.062504 
	C73.749199,48.638233 72.402740,47.288818 71.112976,45.503498 
	C71.120735,42.453892 71.071785,39.840195 71.107559,36.750481 
	C71.106682,30.830376 71.021088,25.386290 70.935486,19.942202 
M81.485184,24.491991 
	C78.470467,28.077536 80.974495,28.900164 83.933907,28.935629 
	C93.928238,29.055399 103.926422,29.066153 113.918747,28.881357 
	C115.214745,28.857389 116.485054,27.444302 117.767265,26.674667 
	C116.430618,25.792971 115.105324,24.168148 113.755524,24.147524 
	C103.266327,23.987234 92.772400,24.136152 81.485184,24.491991 
M115.047081,14.007213 
	C104.714256,14.003704 94.380562,13.937916 84.049774,14.081241 
	C82.856041,14.097801 81.678429,15.276861 80.493340,15.916945 
	C81.458824,16.601782 82.416779,17.869415 83.390961,17.882013 
	C94.054832,18.019917 104.721512,17.992580 115.386368,17.894348 
	C116.173752,17.887096 116.952896,16.985811 117.735870,16.500160 
	C117.131149,15.690273 116.526428,14.880385 115.047081,14.007213 
M97.487198,39.032005 
	C101.292404,39.015709 105.103836,39.111439 108.898232,38.900570 
	C109.793098,38.850842 110.630577,37.768570 111.494461,37.161293 
	C110.722908,36.469742 109.961098,35.189739 109.178307,35.176781 
	C100.413475,35.031639 91.644051,35.012684 82.880341,35.186337 
	C82.005661,35.203671 81.160515,36.712063 80.301659,37.528439 
	C81.231621,38.024574 82.147728,38.916264 83.093918,38.949429 
	C87.556030,39.105816 92.026375,39.027027 97.487198,39.032005 
z"/>
<path fill="#D6E8FE" opacity="1.000000" stroke="none" 
	d="
M70.473518,19.967997 
	C71.021088,25.386290 71.106682,30.830376 70.636993,36.725922 
	C56.773323,37.174877 43.464428,37.101746 30.156788,37.199699 
	C23.512054,37.248608 20.262388,40.470303 20.144419,46.969482 
	C20.026693,53.455128 19.998573,59.947781 20.162266,66.431534 
	C20.306431,72.141853 23.482508,75.609627 29.143728,75.679733 
	C44.445965,75.869225 59.753452,75.868637 75.055901,75.689911 
	C81.058975,75.619789 84.014832,72.230652 84.115105,66.101036 
	C84.202164,60.779099 84.133942,55.454617 84.134338,50.131260 
	C86.766838,50.117821 89.399330,50.104385 92.485542,50.603287 
	C92.981293,56.784676 93.023331,62.453728 93.065369,68.122780 
	C92.735664,75.518471 88.966103,80.455269 82.171326,83.620529 
	C62.353199,83.972702 42.598190,83.979042 22.367855,83.975449 
	C15.854610,80.674614 12.085994,75.744278 11.141604,68.101700 
	C11.513911,59.254166 11.820326,51.185902 11.907002,43.115276 
	C11.928971,41.069847 11.250932,39.016891 10.894547,36.967396 
	C11.978386,25.780060 19.784452,19.320675 30.721899,19.849110 
	C43.790272,20.480501 56.912598,19.995325 70.473518,19.967997 
z"/>
<path fill="#D7E9FF" opacity="1.000000" stroke="none" 
	d="
M85.973930,106.482300 
	C85.658897,104.687309 85.589996,103.166237 85.046974,101.839165 
	C83.065010,96.995544 84.165680,93.224510 88.831154,90.176682 
	C93.525871,89.663956 96.512070,91.793663 97.965889,95.914963 
	C100.516243,103.144691 103.588974,110.303535 101.039650,118.290146 
	C99.796219,122.185593 97.341957,122.054947 95.306740,119.666451 
	C91.892349,115.659401 89.072502,111.145744 85.973930,106.482300 
z"/>
<path fill="#D7E9FF" opacity="1.000000" stroke="none" 
	d="
M15.564784,89.944473 
	C21.584476,94.102486 19.718300,99.782265 18.975782,105.672684 
	C16.967712,109.490082 15.168230,113.016075 12.892292,116.201660 
	C11.618163,117.985023 9.715542,119.475945 7.805622,120.608955 
	C5.404757,122.033211 3.430980,120.591385 3.208058,118.253128 
	C2.394828,109.723068 2.821380,101.262741 7.779596,93.842651 
	C9.389998,91.432640 11.567221,89.078773 15.564784,89.944473 
z"/>
<path fill="#B2CCDE" opacity="1.000000" stroke="none" 
	d="
M10.527692,36.989113 
	C11.250932,39.016891 11.928971,41.069847 11.907002,43.115276 
	C11.820326,51.185902 11.513911,59.254166 11.117254,67.711426 
	C1.824750,63.945587 2.689744,55.699650 3.130138,47.981491 
	C3.394367,43.350727 5.060167,38.892967 10.527692,36.989113 
z"/>
<path fill="#B0CADB" opacity="1.000000" stroke="none" 
	d="
M93.382202,67.975464 
	C93.023331,62.453728 92.981293,56.784676 92.920670,50.664078 
	C95.767525,50.308006 98.632965,50.403473 101.797668,50.785072 
	C101.586029,57.803699 100.681747,64.339058 93.382202,67.975464 
z"/>
<path fill="#1D3C73" opacity="1.000000" stroke="none" 
	d="
M46.284782,97.305962 
	C49.959381,94.391716 53.958092,93.671265 56.947964,96.661522 
	C58.961739,98.675560 60.682728,102.589371 60.123272,105.120247 
	C59.556557,107.683990 56.279694,110.917587 53.717117,111.413177 
	C51.171116,111.905571 47.269215,110.062897 45.342064,107.972099 
	C42.523655,104.914391 43.249302,100.906319 46.284782,97.305962 
z"/>
<path fill="#1D3C73" opacity="1.000000" stroke="none" 
	d="
M83.670258,50.086056 
	C84.133942,55.454617 84.202164,60.779099 84.115105,66.101036 
	C84.014832,72.230652 81.058975,75.619789 75.055901,75.689911 
	C59.753452,75.868637 44.445965,75.869225 29.143728,75.679733 
	C23.482508,75.609627 20.306431,72.141853 20.162266,66.431534 
	C19.998573,59.947781 20.026693,53.455128 20.144419,46.969482 
	C20.262388,40.470303 23.512054,37.248608 30.156788,37.199699 
	C43.464428,37.101746 56.773323,37.174877 70.552269,37.201939 
	C71.071785,39.840195 71.120735,42.453892 70.726318,45.503155 
	C66.249344,46.464897 64.316330,48.773392 65.408165,52.708523 
	C66.303337,55.934845 69.243614,57.236977 71.991112,55.777695 
	C73.742958,54.847233 74.519577,52.080669 75.733467,50.137363 
	C78.224373,50.105194 80.715271,50.073021 83.670258,50.086056 
M38.063099,54.497139 
	C39.828388,49.822689 38.963154,46.582336 35.397011,46.227032 
	C33.585529,46.046555 30.842972,46.971848 29.928373,48.338730 
	C29.007898,49.714397 29.116070,52.705914 30.046371,54.193226 
	C31.811880,57.015812 34.738121,56.852810 38.063099,54.497139 
M55.335266,66.170372 
	C56.360432,64.255608 57.385597,62.340839 58.410767,60.426071 
	C56.520809,59.860523 54.646671,59.230515 52.733173,58.760891 
	C51.958725,58.570824 51.045815,58.549995 50.288387,58.770222 
	C48.846573,59.189442 46.334442,59.763634 46.292850,60.404884 
	C46.190048,61.989956 46.775654,64.449608 47.915596,65.098984 
	C49.825382,66.186882 52.381828,66.139587 55.335266,66.170372 
z"/>
<path fill="#58A563" opacity="1.000000" stroke="none" 
	d="
M81.882561,24.340717 
	C92.772400,24.136152 103.266327,23.987234 113.755524,24.147524 
	C115.105324,24.168148 116.430618,25.792971 117.767265,26.674665 
	C116.485054,27.444302 115.214745,28.857389 113.918747,28.881357 
	C103.926422,29.066153 93.928238,29.055399 83.933907,28.935629 
	C80.974495,28.900164 78.470467,28.077536 81.882561,24.340717 
z"/>
<path fill="#55A060" opacity="1.000000" stroke="none" 
	d="
M115.484390,14.038855 
	C116.526428,14.880385 117.131149,15.690273 117.735870,16.500160 
	C116.952896,16.985811 116.173752,17.887096 115.386368,17.894348 
	C104.721512,17.992580 94.054832,18.019917 83.390961,17.882013 
	C82.416779,17.869415 81.458824,16.601782 80.493340,15.916945 
	C81.678429,15.276861 82.856041,14.097801 84.049774,14.081241 
	C94.380562,13.937916 104.714256,14.003704 115.484390,14.038855 
z"/>
<path fill="#56A161" opacity="1.000000" stroke="none" 
	d="
M96.990494,39.032059 
	C92.026375,39.027027 87.556030,39.105816 83.093918,38.949429 
	C82.147728,38.916264 81.231621,38.024574 80.301659,37.528442 
	C81.160515,36.712063 82.005661,35.203671 82.880341,35.186337 
	C91.644051,35.012684 100.413475,35.031639 109.178307,35.176781 
	C109.961098,35.189739 110.722908,36.469742 111.494461,37.161293 
	C110.630577,37.768570 109.793098,38.850842 108.898232,38.900570 
	C105.103836,39.111439 101.292404,39.015709 96.990494,39.032059 
z"/>
<path fill="#21D5D6" opacity="1.000000" stroke="none" 
	d="
M75.414566,50.062504 
	C74.519577,52.080669 73.742958,54.847233 71.991112,55.777695 
	C69.243614,57.236977 66.303337,55.934845 65.408165,52.708523 
	C64.316330,48.773392 66.249344,46.464897 70.669617,45.939064 
	C72.402740,47.288818 73.749199,48.638233 75.414566,50.062504 
z"/>
<path fill="#21D5D7" opacity="1.000000" stroke="none" 
	d="
M37.771126,54.788483 
	C34.738121,56.852810 31.811880,57.015812 30.046371,54.193226 
	C29.116070,52.705914 29.007898,49.714397 29.928373,48.338730 
	C30.842972,46.971848 33.585529,46.046555 35.397011,46.227032 
	C38.963154,46.582336 39.828388,49.822689 37.771126,54.788483 
z"/>
<path fill="#21D5D7" opacity="1.000000" stroke="none" 
	d="
M55.000702,66.370201 
	C52.381828,66.139587 49.825382,66.186882 47.915596,65.098984 
	C46.775654,64.449608 46.190048,61.989956 46.292850,60.404884 
	C46.334442,59.763634 48.846573,59.189442 50.288387,58.770222 
	C51.045815,58.549995 51.958725,58.570824 52.733173,58.760891 
	C54.646671,59.230515 56.520809,59.860523 58.410767,60.426071 
	C57.385597,62.340839 56.360432,64.255608 55.000702,66.370201 
z"/>
</svg>