<svg version="1.1" id="Layer_1" xmlns="http://www.w3.org/2000/svg" xmlns:xlink="http://www.w3.org/1999/xlink" x="0px" y="0px"
	 width="100%" viewBox="0 0 512 512" enable-background="new 0 0 512 512" xml:space="preserve">
<path fill="#000000" opacity="1.000000" stroke="none" 
	d="
M1.000000,186.000000 
	C1.000000,124.000000 1.000000,62.500000 1.000000,1.000000 
	C171.666672,1.000000 342.333344,1.000000 513.000000,1.000000 
	C513.000000,171.666672 513.000000,342.333344 513.000000,513.000000 
	C342.333344,513.000000 171.666672,513.000000 1.000000,513.000000 
	C1.000000,404.166656 1.000000,295.333344 1.000000,186.000000 
M415.774384,453.038910 
	C415.929321,452.756561 416.036102,452.457031 416.884674,452.014984 
	C426.382324,450.012268 434.920990,446.060486 441.606934,438.903656 
	C447.584137,432.505554 450.282990,424.479553 451.976990,415.206451 
	C451.929718,414.110260 451.882477,413.014038 451.972900,411.002380 
	C452.823700,396.342255 449.637207,382.260437 445.673584,368.325592 
	C443.264008,359.854309 440.484863,351.488098 438.016266,342.290833 
	C441.893127,332.894135 442.951843,323.163849 438.851837,313.803253 
	C436.502106,308.438721 432.250854,303.907074 428.978607,298.284912 
	C425.557587,291.757233 420.463470,287.370514 412.865631,285.256897 
	C412.197540,284.161896 411.529449,283.066895 411.000153,281.240509 
	C409.675720,278.796143 408.351288,276.351776 407.029205,273.163239 
	C405.969452,270.765411 404.909698,268.367615 404.126404,265.345184 
	C406.619568,262.529053 409.058838,259.662994 411.615051,256.905304 
	C424.208038,243.319580 433.067078,227.541748 439.010742,210.086411 
	C445.575104,190.808441 447.375641,171.100555 445.133759,150.808746 
	C443.538300,136.368240 439.492096,122.814720 433.338409,109.805725 
	C426.408386,95.155472 416.293396,82.895157 404.467438,71.937233 
	C394.144928,62.372368 382.343170,55.123238 369.290924,50.099426 
	C362.454681,47.468155 355.181183,45.972866 347.706177,43.224457 
	C342.394012,42.482651 337.102722,41.378357 331.765533,41.070671 
	C318.601166,40.311756 305.392456,40.885242 292.645508,44.231953 
	C252.211655,54.847866 222.302200,79.054558 203.100937,116.078751 
	C195.660736,130.425049 191.679688,145.946762 189.796707,162.162247 
	C188.238586,175.580231 188.644485,188.851151 191.205338,201.843536 
	C195.664169,224.465286 205.444641,244.781448 220.869034,262.632446 
	C199.086716,275.213379 179.947876,291.144684 162.469528,309.107117 
	C155.129379,316.650574 147.867813,324.325989 141.217117,332.469482 
	C134.276306,340.968201 129.756577,350.775116 128.147583,361.997284 
	C127.816185,361.998688 127.476028,361.951050 127.154640,362.008484 
	C106.418800,365.714050 85.678391,369.395264 64.967621,373.236328 
	C63.909092,373.432617 63.106350,375.008118 62.057884,376.870483 
	C62.057884,380.674500 62.057884,384.478546 62.057884,388.275970 
	C62.780533,388.577576 63.199471,388.826294 63.651718,388.930634 
	C94.129753,395.963409 124.603378,403.015594 155.095245,409.988007 
	C164.395142,412.114563 173.745911,414.018616 183.023788,416.895905 
	C184.461441,421.887360 185.131317,427.284668 187.507538,431.779999 
	C191.589447,439.502106 199.508850,443.117340 206.971558,447.908325 
	C207.291702,449.006195 207.652206,450.094147 207.925812,451.203491 
	C211.132401,464.204681 222.224014,472.776611 235.475067,473.064667 
	C245.948914,473.292358 253.557663,468.324738 260.969788,460.985107 
	C268.651184,461.607666 276.332611,462.230225 284.937347,463.016418 
	C302.341583,463.023956 319.745880,463.053131 337.149902,462.996094 
	C338.483124,462.991730 339.814362,462.378357 342.060913,462.008972 
	C349.699341,461.695587 357.337799,461.382233 365.248474,461.676788 
	C374.541962,472.647736 386.146240,475.957214 399.501007,470.893219 
	C407.460205,467.875244 413.491943,462.302277 415.266357,453.244324 
	C415.266357,453.244324 415.322357,453.191803 415.774384,453.038910 
z"/>
<path fill="#F0F5F9" opacity="1.000000" stroke="none" 
	d="
M221.157532,261.968628 
	C205.444641,244.781448 195.664169,224.465286 191.205338,201.843536 
	C188.644485,188.851151 188.238586,175.580231 189.796707,162.162247 
	C191.679688,145.946762 195.660736,130.425049 203.100937,116.078751 
	C222.302200,79.054558 252.211655,54.847866 292.645508,44.231953 
	C305.392456,40.885242 318.601166,40.311756 331.765533,41.070671 
	C337.102722,41.378357 342.394012,42.482651 347.616821,43.628887 
	C348.103149,45.601402 348.342194,47.422935 349.303986,48.700314 
	C370.380157,76.692268 382.953308,107.698380 382.952881,143.479416 
	C371.905640,159.293488 369.275757,176.576859 371.505127,195.049927 
	C369.742310,197.506989 368.390076,199.940842 366.865082,202.261185 
	C361.417297,210.550415 356.737305,219.520462 350.280121,226.938828 
	C325.605591,255.286072 293.264526,267.258514 256.493073,268.996887 
	C248.995636,269.351349 241.495453,269.647736 233.658386,269.942719 
	C232.014160,269.580627 230.708054,269.246765 229.155914,268.681458 
	C227.649033,267.563324 226.388214,266.676575 224.988083,265.511536 
	C223.618362,264.145050 222.387955,263.056824 221.157532,261.968628 
M216.965118,102.962692 
	C216.965118,102.962692 216.941879,102.885468 216.411652,103.225304 
	C215.908447,104.135597 215.405258,105.045891 214.979156,105.971260 
	C214.979156,105.971260 214.949921,105.898354 214.429840,106.248611 
	C213.945557,107.162521 213.461288,108.076431 213.005661,108.994202 
	C213.005661,108.994202 212.987808,108.970421 212.530060,109.351837 
	C212.302551,109.894562 212.075043,110.437286 211.954788,110.964279 
	C211.954788,110.964279 211.924332,110.860237 211.358459,111.253716 
	C203.229294,125.239174 197.070587,139.982773 193.931824,156.664047 
	C193.866318,157.382736 193.800812,158.101425 193.366608,159.439209 
	C193.343674,161.081787 193.320755,162.724380 193.185791,164.810013 
	C193.262466,165.160675 193.479813,165.345673 192.948395,165.446976 
	C190.418289,184.289658 193.306961,201.752045 206.122208,216.629517 
	C212.151398,223.628906 220.747864,228.283096 225.128067,237.681137 
	C228.143646,240.142227 230.858566,244.042618 234.240662,244.749130 
	C240.304779,246.015854 246.770096,245.361832 253.753616,245.730148 
	C255.043198,245.141739 256.571930,244.820053 257.579224,243.916824 
	C261.148651,240.716141 264.539978,237.316833 268.676971,233.782852 
	C271.844299,232.342926 275.084961,231.044113 278.167877,229.441757 
	C320.025604,207.686249 345.332306,172.947876 356.963013,127.856781 
	C361.583771,109.942734 361.879944,91.829163 353.996704,74.545197 
	C346.626038,58.385078 334.042023,49.207088 315.133881,47.997631 
	C313.648376,47.912514 312.147186,47.936428 310.679810,47.725388 
	C296.287567,45.655472 282.831543,48.657696 269.312744,55.208637 
	C266.135223,57.082394 262.957672,58.956150 259.884491,60.807148 
	C259.884491,60.807148 259.819977,60.722046 259.169830,60.917248 
	C257.369873,62.219788 255.569901,63.522327 253.880981,64.815384 
	C253.880981,64.815384 253.823929,64.719650 253.219177,64.901222 
	C252.427200,65.570648 251.635208,66.240082 250.928833,66.919441 
	C250.928833,66.919441 250.910736,66.835190 250.326096,67.028625 
	C249.546997,67.679131 248.767914,68.329636 247.341644,69.173683 
	C242.436798,74.057587 237.422546,78.837708 232.660568,83.857170 
	C228.612457,88.124199 224.855179,92.667152 220.506790,97.435730 
	C220.215790,97.934242 219.924789,98.432755 219.226334,99.082321 
	C219.004608,99.306229 218.919281,99.573662 218.457474,100.249870 
	C217.933563,101.149437 217.409637,102.049004 216.965118,102.962692 
z"/>
<path fill="#E3E7F0" opacity="1.000000" stroke="none" 
	d="
M383.080139,143.168869 
	C382.953308,107.698380 370.380157,76.692268 349.303986,48.700314 
	C348.342194,47.422935 348.103149,45.601402 347.816315,43.998932 
	C355.181183,45.972866 362.454681,47.468155 369.290924,50.099426 
	C382.343170,55.123238 394.144928,62.372368 404.467438,71.937233 
	C416.293396,82.895157 426.408386,95.155472 433.338409,109.805725 
	C439.492096,122.814720 443.538300,136.368240 445.133759,150.808746 
	C447.375641,171.100555 445.575104,190.808441 439.010742,210.086411 
	C433.067078,227.541748 424.208038,243.319580 411.615051,256.905304 
	C409.058838,259.662994 406.619568,262.529053 403.643311,265.713684 
	C398.296478,268.076141 393.586517,270.677002 388.541412,271.954987 
	C370.350342,276.563049 351.714081,277.659393 332.582275,278.055908 
	C321.082092,278.031067 310.012695,278.415924 298.979919,277.944275 
	C283.971710,277.302704 268.953552,276.372742 254.016281,274.826355 
	C247.248016,274.125702 240.664093,271.644409 233.996536,269.970917 
	C241.495453,269.647736 248.995636,269.351349 256.493073,268.996887 
	C293.264526,267.258514 325.605591,255.286072 350.280121,226.938828 
	C356.737305,219.520462 361.417297,210.550415 366.865082,202.261185 
	C368.390076,199.940842 369.742310,197.506989 371.631989,195.418030 
	C372.475037,197.151154 372.763397,198.625687 373.260315,200.026215 
	C376.595703,209.426559 380.736847,218.202240 390.945740,222.113281 
	C390.968018,222.090057 390.927887,222.039871 391.105957,222.293518 
	C391.872803,222.715027 392.461578,222.882889 393.366882,223.247314 
	C409.918732,230.067322 424.234558,223.531082 432.911957,210.032471 
	C444.449707,192.084305 446.264008,172.597000 439.523285,152.680923 
	C435.510101,140.823578 427.149536,132.718277 413.526184,131.001404 
	C410.035034,130.783707 406.900391,130.294464 403.847351,130.605728 
	C395.012268,131.506531 388.901642,137.152725 383.080139,143.168869 
z"/>
<path fill="#B28AFD" opacity="1.000000" stroke="none" 
	d="
M284.014008,462.852783 
	C276.332611,462.230225 268.651184,461.607666 260.264618,460.624420 
	C253.857132,459.310242 248.043747,458.779388 242.475372,457.316223 
	C230.533157,454.178253 218.717407,450.559021 206.849869,447.136841 
	C199.508850,443.117340 191.589447,439.502106 187.507538,431.779999 
	C185.131317,427.284668 184.461441,421.887360 183.320602,416.491028 
	C184.100616,416.313446 184.583817,416.540802 185.230316,417.085754 
	C192.225800,419.932587 198.870987,423.411224 205.927597,424.801025 
	C222.620880,428.088715 239.436676,431.057709 256.340210,432.888000 
	C272.789581,434.669037 289.413086,435.643890 305.954010,435.571350 
	C326.003021,435.483429 346.067352,434.246155 366.083527,432.892395 
	C379.766022,431.966980 393.415771,430.271423 407.010712,428.412354 
	C422.470642,426.298218 437.740997,423.215271 451.831970,416.018372 
	C450.282990,424.479553 447.584137,432.505554 441.606934,438.903656 
	C434.920990,446.060486 426.382324,450.012268 416.199066,452.115295 
	C415.449768,452.541016 415.386047,452.866425 415.322357,453.191803 
	C415.322357,453.191803 415.266357,453.244324 414.828308,453.107422 
	C403.542358,454.822083 392.700317,456.708954 381.844147,458.510559 
	C376.234497,459.441467 370.599670,460.220947 364.976227,461.068848 
	C357.337799,461.382233 349.699341,461.695587 341.125854,462.006714 
	C323.050903,461.998657 305.910919,461.970032 288.771210,462.024689 
	C287.184601,462.029755 285.599701,462.564178 284.014008,462.852783 
z"/>
<path fill="#E3E6F0" opacity="1.000000" stroke="none" 
	d="
M437.871704,343.074707 
	C440.484863,351.488098 443.264008,359.854309 445.673584,368.325592 
	C449.637207,382.260437 452.823700,396.342255 451.499573,411.400085 
	C436.640869,414.722565 422.347717,418.277710 407.844818,420.398895 
	C392.661682,422.619537 377.277069,423.462738 361.985443,424.488037 
	C362.968689,417.291443 363.947021,410.514801 365.147003,403.485931 
	C370.591370,400.333282 375.909332,397.590546 381.019287,394.503540 
	C397.536865,384.525238 413.845245,374.204834 426.322052,359.102081 
	C430.506958,354.036407 434.040466,348.432556 437.871704,343.074707 
z"/>
<path fill="#7F5BF2" opacity="1.000000" stroke="none" 
	d="
M437.943970,342.682739 
	C434.040466,348.432556 430.506958,354.036407 426.322052,359.102081 
	C413.845245,374.204834 397.536865,384.525238 381.019287,394.503540 
	C375.909332,397.590546 370.591370,400.333282 364.789917,403.572083 
	C351.272949,408.468658 338.530212,413.736420 325.337585,417.371155 
	C313.796112,420.551056 306.320160,416.574738 301.073486,406.739014 
	C301.115204,406.526642 301.153656,406.095459 301.597717,406.062805 
	C307.134888,405.479980 312.334717,405.405212 317.300964,404.290222 
	C332.014099,400.986877 345.499847,394.481415 358.550995,387.153748 
	C376.831146,376.890167 394.740479,366.022491 409.093811,350.360382 
	C415.638641,343.218842 421.362274,335.484100 424.432678,326.117859 
	C427.908356,315.515442 425.905731,305.524323 421.341614,295.896423 
	C424.093231,296.944397 426.474426,297.972443 428.855652,299.000488 
	C432.250854,303.907074 436.502106,308.438721 438.851837,313.803253 
	C442.951843,323.163849 441.893127,332.894135 437.943970,342.682739 
z"/>
<path fill="#9971F9" opacity="1.000000" stroke="none" 
	d="
M361.980499,424.908020 
	C377.277069,423.462738 392.661682,422.619537 407.844818,420.398895 
	C422.347717,418.277710 436.640869,414.722565 451.430725,411.857788 
	C451.882477,413.014038 451.929718,414.110260 451.904480,415.612427 
	C437.740997,423.215271 422.470642,426.298218 407.010712,428.412354 
	C393.415771,430.271423 379.766022,431.966980 366.083527,432.892395 
	C346.067352,434.246155 326.003021,435.483429 305.954010,435.571350 
	C289.413086,435.643890 272.789581,434.669037 256.340210,432.888000 
	C239.436676,431.057709 222.620880,428.088715 205.927597,424.801025 
	C198.870987,423.411224 192.225800,419.932587 185.601822,417.086548 
	C186.548248,416.807220 187.286484,416.844696 188.375427,417.085266 
	C193.009949,417.117584 197.293747,416.946808 202.008575,416.815674 
	C207.301758,417.905182 212.116272,419.385010 217.034378,419.930023 
	C237.460785,422.193665 257.885132,425.405029 278.372803,425.960236 
	C306.212067,426.714630 334.108551,425.358795 361.980499,424.908020 
z"/>
<path fill="#B28AFD" opacity="1.000000" stroke="none" 
	d="
M301.153656,406.095459 
	C301.153656,406.095459 301.115204,406.526642 300.803650,406.540466 
	C298.555115,402.392639 296.618134,398.230927 294.723511,393.687714 
	C295.231201,389.385040 295.696472,385.463898 296.449951,381.453857 
	C296.877716,380.593445 297.017273,379.821899 297.403015,378.823364 
	C302.923920,367.495483 310.390564,357.987793 319.071136,349.400391 
	C329.349884,339.231995 339.723297,329.159332 350.363892,318.905579 
	C353.674377,316.442596 356.667419,314.107178 359.680481,311.797852 
	C372.183746,302.214935 384.775635,292.724030 400.166901,288.163269 
	C404.338959,286.927002 408.785217,286.616089 413.105652,285.880463 
	C420.463470,287.370514 425.557587,291.757233 428.917114,298.642700 
	C426.474426,297.972443 424.093231,296.944397 421.038513,295.634491 
	C415.310089,295.837769 409.975769,295.448578 405.248444,296.959015 
	C384.504395,303.586884 368.181976,317.452789 352.294281,331.495514 
	C340.006744,342.356140 328.435028,354.139374 317.451477,366.329163 
	C307.456055,377.422333 299.413452,389.912018 301.153656,406.095459 
z"/>
<path fill="#31445B" opacity="1.000000" stroke="none" 
	d="
M188.024704,416.882141 
	C187.286484,416.844696 186.548248,416.807220 185.438522,416.768951 
	C184.583817,416.540802 184.100616,416.313446 183.345398,416.055359 
	C173.745911,414.018616 164.395142,412.114563 155.095245,409.988007 
	C124.603378,403.015594 94.129753,395.963409 63.651718,388.930634 
	C63.199471,388.826294 62.780533,388.577576 62.057884,388.275970 
	C62.057884,384.478546 62.057884,380.674500 62.495609,376.482056 
	C104.647629,385.766693 146.361923,395.439728 188.054764,405.559509 
	C188.030426,409.631592 188.027573,413.256866 188.024704,416.882141 
z"/>
<path fill="#B28AFD" opacity="1.000000" stroke="none" 
	d="
M221.013275,262.300537 
	C222.387955,263.056824 223.618362,264.145050 224.720352,265.753418 
	C222.715912,269.841827 220.839890,273.410034 218.751465,277.095581 
	C218.269806,277.414795 218.088303,277.677307 217.997284,278.000244 
	C218.000000,278.000000 217.999115,277.994049 217.644989,278.028503 
	C215.983490,278.759674 214.586472,279.328400 213.382111,280.172150 
	C191.420975,295.557098 171.797302,313.579224 154.036682,333.599152 
	C147.125488,341.389526 140.385773,349.493652 137.681259,360.305298 
	C134.564682,360.985535 131.783905,361.485443 129.003128,361.985352 
	C129.756577,350.775116 134.276306,340.968201 141.217117,332.469482 
	C147.867813,324.325989 155.129379,316.650574 162.469528,309.107117 
	C179.947876,291.144684 199.086716,275.213379 221.013275,262.300537 
z"/>
<path fill="#4C5C75" opacity="1.000000" stroke="none" 
	d="
M128.575348,361.991333 
	C131.783905,361.485443 134.564682,360.985535 138.107056,360.309204 
	C140.343323,359.914246 141.820099,359.709076 143.292282,359.475067 
	C154.524582,357.689453 165.596313,354.003906 177.210251,357.050049 
	C180.712967,357.968811 184.368805,358.303680 188.321014,358.988464 
	C190.151016,359.345215 191.614487,359.619507 193.462769,360.009064 
	C213.470016,363.753662 233.081635,367.442841 252.718582,370.991943 
	C266.453583,373.474396 280.223206,375.765320 294.225433,378.370514 
	C295.367950,378.749603 296.262390,378.899994 297.156830,379.050385 
	C297.017273,379.821899 296.877716,380.593445 296.038483,381.576996 
	C293.715393,382.094269 292.075134,382.329346 290.471130,382.715240 
	C260.231903,389.990082 230.014389,397.357025 199.738770,404.476776 
	C196.007751,405.354187 191.971191,404.932434 188.076233,405.112732 
	C146.361923,395.439728 104.647629,385.766693 62.558926,376.017578 
	C63.106350,375.008118 63.909092,373.432617 64.967621,373.236328 
	C85.678391,369.395264 106.418800,365.714050 127.154640,362.008484 
	C127.476028,361.951050 127.816185,361.998688 128.575348,361.991333 
M96.622124,381.250824 
	C126.225899,388.166504 155.792648,395.249023 185.469772,401.834137 
	C190.437729,402.936462 195.996658,402.539673 201.084229,401.672394 
	C209.212662,400.286713 217.180481,397.948792 225.206223,395.972931 
	C238.836273,392.617371 252.458557,389.230255 266.830872,385.817139 
	C273.268097,384.160645 279.705322,382.504120 287.282379,380.554291 
	C284.936829,379.818451 283.858276,379.351471 282.731964,379.145386 
	C247.850983,372.762878 212.974091,366.357025 178.070267,360.101471 
	C173.250626,359.237732 168.126419,358.102325 163.429840,358.862823 
	C142.658096,362.226257 121.987839,366.218903 101.287605,370.020630 
	C92.212769,371.687225 83.154091,373.441864 74.088074,375.156494 
	C74.110939,375.416779 74.133812,375.677063 74.156677,375.937317 
	C81.414391,377.587524 88.672104,379.237732 96.622124,381.250824 
z"/>
<path fill="#E3E6F0" opacity="1.000000" stroke="none" 
	d="
M407.026825,273.907410 
	C408.351288,276.351776 409.675720,278.796143 410.489136,281.623657 
	C407.184418,282.219086 404.343323,282.176910 401.604828,282.686157 
	C386.796906,285.439789 375.008972,294.158386 363.048431,302.491516 
	C358.063568,305.964569 353.161987,309.557190 347.906830,312.891113 
	C343.718018,303.820801 339.844879,294.954834 336.429901,286.059845 
	C341.182709,285.697357 345.494507,285.509155 349.768799,285.003723 
	C363.896790,283.333069 378.067688,281.896484 392.101318,279.624084 
	C397.250031,278.790314 402.061523,275.873840 407.026825,273.907410 
z"/>
<path fill="#4C5C75" opacity="1.000000" stroke="none" 
	d="
M206.910706,447.522583 
	C218.717407,450.559021 230.533157,454.178253 242.475372,457.316223 
	C248.043747,458.779388 253.857132,459.310242 259.814697,460.563721 
	C253.557663,468.324738 245.948914,473.292358 235.475067,473.064667 
	C222.224014,472.776611 211.132401,464.204681 207.925812,451.203491 
	C207.652206,450.094147 207.291702,449.006195 206.910706,447.522583 
z"/>
<path fill="#BBC0CB" opacity="1.000000" stroke="none" 
	d="
M407.028015,273.535339 
	C402.061523,275.873840 397.250031,278.790314 392.101318,279.624084 
	C378.067688,281.896484 363.896790,283.333069 349.768799,285.003723 
	C345.494507,285.509155 341.182709,285.697357 336.192505,286.015656 
	C335.496918,286.000458 335.021851,285.913300 334.968079,285.550323 
	C334.286011,282.819519 333.657715,280.451721 333.029419,278.083923 
	C351.714081,277.659393 370.350342,276.563049 388.541412,271.954987 
	C393.586517,270.677002 398.296478,268.076141 403.505066,266.026001 
	C404.909698,268.367615 405.969452,270.765411 407.028015,273.535339 
z"/>
<path fill="#4C5C75" opacity="1.000000" stroke="none" 
	d="
M365.112366,461.372803 
	C370.599670,460.220947 376.234497,459.441467 381.844147,458.510559 
	C392.700317,456.708954 403.542358,454.822083 414.804474,453.137543 
	C413.491943,462.302277 407.460205,467.875244 399.501007,470.893219 
	C386.146240,475.957214 374.541962,472.647736 365.112366,461.372803 
z"/>
<path fill="#BBC0CB" opacity="1.000000" stroke="none" 
	d="
M348.222504,313.095428 
	C353.161987,309.557190 358.063568,305.964569 363.048431,302.491516 
	C375.008972,294.158386 386.796906,285.439789 401.604828,282.686157 
	C404.343323,282.176910 407.184418,282.219086 410.419739,281.989319 
	C411.529449,283.066895 412.197540,284.161896 412.985657,285.568665 
	C408.785217,286.616089 404.338959,286.927002 400.166901,288.163269 
	C384.775635,292.724030 372.183746,302.214935 359.680481,311.797852 
	C356.667419,314.107178 353.674377,316.442596 350.099243,318.694092 
	C348.663086,317.745483 347.799805,316.868774 346.986023,315.673584 
	C347.431152,314.601898 347.826843,313.848663 348.222504,313.095428 
z"/>
<path fill="#B995FC" opacity="1.000000" stroke="none" 
	d="
M284.475677,462.934570 
	C285.599701,462.564178 287.184601,462.029755 288.771210,462.024689 
	C305.910919,461.970032 323.050903,461.998657 340.668640,462.026245 
	C339.814362,462.378357 338.483124,462.991730 337.149902,462.996094 
	C319.745880,463.053131 302.341583,463.023956 284.475677,462.934570 
z"/>
<path fill="#4C5C75" opacity="1.000000" stroke="none" 
	d="
M415.548370,453.115356 
	C415.386047,452.866425 415.449768,452.541016 415.804077,452.177979 
	C416.036102,452.457031 415.929321,452.756561 415.548370,453.115356 
z"/>
<path fill="#4C5C75" opacity="1.000000" stroke="none" 
	d="
M193.837860,165.365005 
	C193.479813,165.345673 193.262466,165.160675 193.626709,164.386429 
	C193.956863,162.248596 193.846085,160.534363 193.735306,158.820114 
	C193.800812,158.101425 193.866318,157.382736 194.398163,156.257751 
	C195.540009,154.775696 196.614960,153.773758 196.829590,152.612778 
	C199.141205,140.109100 204.014297,128.575394 209.763672,117.335167 
	C210.788071,115.332451 211.219238,113.026291 211.924332,110.860237 
	C211.924332,110.860237 211.954788,110.964279 212.173889,110.824905 
	C212.591263,110.113823 212.789536,109.542122 212.987808,108.970421 
	C212.987808,108.970421 213.005661,108.994202 213.342316,108.939270 
	C214.102631,107.889015 214.526276,106.893684 214.949921,105.898354 
	C214.949921,105.898354 214.979156,105.971260 215.299255,105.926697 
	C216.060196,104.883247 216.501038,103.884354 216.941879,102.885468 
	C216.941879,102.885468 216.965118,102.962692 217.285736,102.919617 
	C218.061020,101.879234 218.515686,100.881927 218.970352,99.884621 
	C218.919281,99.573662 219.004608,99.306229 219.720459,98.895828 
	C220.466125,98.168892 220.717667,97.628456 220.969223,97.088028 
	C224.855179,92.667152 228.612457,88.124199 232.660568,83.857170 
	C237.422546,78.837708 242.436798,74.057587 247.854370,69.323814 
	C249.214981,68.594360 250.062851,67.714775 250.910736,66.835190 
	C250.910736,66.835190 250.928833,66.919441 251.268082,66.937286 
	C252.346191,66.209969 253.085068,65.464806 253.823929,64.719650 
	C253.823929,64.719650 253.880981,64.815384 254.211975,64.879097 
	C256.301971,63.535889 258.060974,62.128967 259.819977,60.722046 
	C259.819977,60.722046 259.884491,60.807148 260.224091,60.877445 
	C263.710663,59.317867 266.857635,57.687996 270.395691,56.043625 
	C274.401031,54.898369 277.998474,53.710056 281.632538,52.646935 
	C296.526489,48.289745 310.863983,48.474091 323.720459,58.132004 
	C321.521851,60.148472 319.514008,61.915451 317.742004,63.893738 
	C304.241211,78.966438 290.840698,94.129227 277.300079,109.165932 
	C266.637604,121.006470 255.755981,132.649826 245.109802,144.504791 
	C241.834961,148.151489 239.015396,152.207031 235.659576,156.103943 
	C234.894623,156.163727 234.457443,156.194916 233.626602,156.115219 
	C229.644592,155.305420 226.063217,154.567902 222.466354,153.915802 
	C215.393845,152.633560 210.716080,157.109238 212.378708,164.125595 
	C213.276596,167.914703 215.429184,171.406494 216.968735,175.373260 
	C212.229111,181.028351 207.602661,186.403625 202.799805,191.616348 
	C201.511566,193.014526 199.685760,193.917419 197.927124,194.708832 
	C196.444275,184.701630 195.141068,175.033325 193.837860,165.365005 
M243.623245,129.197723 
	C248.922256,131.269608 253.587860,129.715820 256.159180,125.125458 
	C258.573700,120.814972 259.967987,115.774323 260.970001,110.882637 
	C261.740631,107.120285 260.177643,103.762466 256.152863,102.016640 
	C251.816315,100.135574 247.994904,100.754539 244.733658,104.039215 
	C240.324112,108.480415 237.716110,114.017670 238.325302,120.180565 
	C238.625259,123.215080 241.289413,126.015900 243.623245,129.197723 
M294.567413,66.383026 
	C292.261627,63.185120 288.843964,61.251221 285.654663,63.652325 
	C283.318634,65.411041 281.872711,69.015770 281.135437,72.065002 
	C280.230194,75.809044 284.083008,75.956352 286.366180,76.582161 
	C290.694275,77.768494 294.841400,72.958832 294.567413,66.383026 
z"/>
<path fill="#33465D" opacity="1.000000" stroke="none" 
	d="
M315.993011,48.168770 
	C334.042023,49.207088 346.626038,58.385078 353.996704,74.545197 
	C361.879944,91.829163 361.583771,109.942734 356.963013,127.856781 
	C345.332306,172.947876 320.025604,207.686249 278.167877,229.441757 
	C275.084961,231.044113 271.844299,232.342926 268.297119,233.546097 
	C265.616058,230.862137 263.314819,228.414932 261.226868,225.697723 
	C262.613678,224.801147 263.737854,224.048447 264.968170,223.567215 
	C279.305939,217.959137 291.242126,208.836700 302.230072,198.288055 
	C313.097626,187.855026 322.251190,176.050156 329.413269,162.853210 
	C341.997040,139.666061 350.198853,115.327423 345.966492,88.402367 
	C343.252716,71.137962 335.392670,57.398506 318.257416,50.526211 
	C317.335693,50.156551 316.740295,48.973297 315.993011,48.168770 
z"/>
<path fill="#2F3C55" opacity="1.000000" stroke="none" 
	d="
M315.563446,48.083202 
	C316.740295,48.973297 317.335693,50.156551 318.257416,50.526211 
	C335.392670,57.398506 343.252716,71.137962 345.966492,88.402367 
	C350.198853,115.327423 341.997040,139.666061 329.413269,162.853210 
	C322.251190,176.050156 313.097626,187.855026 302.230072,198.288055 
	C291.242126,208.836700 279.305939,217.959137 264.968170,223.567215 
	C263.737854,224.048447 262.613678,224.801147 260.881897,225.744553 
	C255.881409,230.040710 251.439194,234.020050 246.547485,238.000610 
	C239.006866,237.692322 231.915756,237.382797 224.824631,237.073288 
	C220.747864,228.283096 212.151398,223.628906 206.122208,216.629517 
	C193.306961,201.752045 190.418289,184.289658 193.393127,165.405991 
	C195.141068,175.033325 196.444275,184.701630 197.947189,195.063293 
	C201.989319,206.273758 208.199600,214.756195 218.483185,219.890747 
	C219.852509,220.574448 221.625412,222.020630 221.788467,223.295685 
	C222.883026,231.853836 228.475784,232.830826 235.434769,232.021820 
	C237.240250,231.811920 239.174545,232.357224 240.906998,231.949478 
	C243.980957,231.225967 247.663437,230.834290 249.817383,228.891434 
	C255.556015,223.715179 261.780121,219.757172 268.798920,216.447250 
	C286.227539,208.228287 300.402130,195.799133 312.087189,180.510849 
	C331.892578,154.598206 344.921021,126.331718 341.983795,92.726631 
	C340.765808,78.791527 335.575653,66.683060 324.020508,57.980392 
	C310.863983,48.474091 296.526489,48.289745 281.632538,52.646935 
	C277.998474,53.710056 274.401031,54.898369 270.397888,55.815575 
	C270.008972,55.602020 270.006927,55.147381 270.006927,55.147381 
	C282.831543,48.657696 296.287567,45.655472 310.679810,47.725388 
	C312.147186,47.936428 313.648376,47.912514 315.563446,48.083202 
z"/>
<path fill="#C5CBD3" opacity="1.000000" stroke="none" 
	d="
M332.582275,278.055908 
	C333.657715,280.451721 334.286011,282.819519 334.498108,285.584137 
	C320.298889,285.988312 306.503296,286.361450 292.736694,285.889374 
	C281.360260,285.499207 269.959076,284.550262 258.677612,283.037781 
	C247.745285,281.572052 236.951645,279.072083 226.180435,276.683105 
	C227.309845,273.864197 228.355911,271.388550 229.401978,268.912872 
	C230.708054,269.246765 232.014160,269.580627 233.658386,269.942719 
	C240.664093,271.644409 247.248016,274.125702 254.016281,274.826355 
	C268.953552,276.372742 283.971710,277.302704 298.979919,277.944275 
	C310.012695,278.415924 321.082092,278.031067 332.582275,278.055908 
z"/>
<path fill="#8062D2" opacity="1.000000" stroke="none" 
	d="
M229.155914,268.681458 
	C228.355911,271.388550 227.309845,273.864197 226.000916,276.987122 
	C212.883087,304.272705 201.301620,331.416687 193.077972,359.893829 
	C191.614487,359.619507 190.151016,359.345215 188.345947,358.604004 
	C193.026184,343.368530 197.736099,328.484131 203.166626,313.867401 
	C207.670120,301.745911 213.022690,289.939850 217.999115,277.994049 
	C217.999115,277.994049 218.000000,278.000000 218.218140,277.893372 
	C218.708557,277.580170 218.884415,277.310669 218.963867,276.978241 
	C220.839890,273.410034 222.715912,269.841827 224.859665,266.031738 
	C226.388214,266.676575 227.649033,267.563324 229.155914,268.681458 
z"/>
<path fill="#9971F9" opacity="1.000000" stroke="none" 
	d="
M390.923462,222.136505 
	C380.736847,218.202240 376.595703,209.426559 373.260315,200.026215 
	C372.763397,198.625687 372.475037,197.151154 371.963318,195.342743 
	C369.275757,176.576859 371.905640,159.293488 382.952881,143.479416 
	C388.901642,137.152725 395.012268,131.506531 403.847351,130.605728 
	C406.900391,130.294464 410.035034,130.783707 413.251831,131.264099 
	C397.547241,132.840179 388.469543,142.774658 382.154083,156.054825 
	C377.324432,166.210739 376.503418,177.084900 376.969116,188.159271 
	C377.451263,199.624344 380.380371,210.049713 388.809021,218.402435 
	C389.786957,219.371536 390.231598,220.878754 390.923462,222.136505 
z"/>
<path fill="#1E2A44" opacity="1.000000" stroke="none" 
	d="
M246.996979,237.999390 
	C251.439194,234.020050 255.881409,230.040710 260.668579,226.014557 
	C263.314819,228.414932 265.616058,230.862137 267.958038,233.651062 
	C264.539978,237.316833 261.148651,240.716141 257.579224,243.916824 
	C256.571930,244.820053 255.043198,245.141739 253.355713,245.308243 
	C250.970856,242.590683 248.983917,240.295044 246.996979,237.999390 
z"/>
<path fill="#33465D" opacity="1.000000" stroke="none" 
	d="
M246.547485,238.000610 
	C248.983917,240.295044 250.970856,242.590683 253.012772,245.198441 
	C246.770096,245.361832 240.304779,246.015854 234.240662,244.749130 
	C230.858566,244.042618 228.143646,240.142227 224.976349,237.377213 
	C231.915756,237.382797 239.006866,237.692322 246.547485,238.000610 
z"/>
<path fill="#33465D" opacity="1.000000" stroke="none" 
	d="
M211.641388,111.056976 
	C211.219238,113.026291 210.788071,115.332451 209.763672,117.335167 
	C204.014297,128.575394 199.141205,140.109100 196.829590,152.612778 
	C196.614960,153.773758 195.540009,154.775696 194.508606,155.912354 
	C197.070587,139.982773 203.229294,125.239174 211.641388,111.056976 
z"/>
<path fill="#33465D" opacity="1.000000" stroke="none" 
	d="
M269.659851,55.178009 
	C270.006927,55.147381 270.008972,55.602020 270.006775,55.830070 
	C266.857635,57.687996 263.710663,59.317867 260.171936,60.888824 
	C262.957672,58.956150 266.135223,57.082394 269.659851,55.178009 
z"/>
<path fill="#33465D" opacity="1.000000" stroke="none" 
	d="
M259.494904,60.819649 
	C258.060974,62.128967 256.301971,63.535889 254.156448,64.883835 
	C255.569901,63.522327 257.369873,62.219788 259.494904,60.819649 
z"/>
<path fill="#2F3C55" opacity="1.000000" stroke="none" 
	d="
M193.550964,159.129669 
	C193.846085,160.534363 193.956863,162.248596 193.682739,164.164902 
	C193.320755,162.724380 193.343674,161.081787 193.550964,159.129669 
z"/>
<path fill="#33465D" opacity="1.000000" stroke="none" 
	d="
M250.618408,66.931908 
	C250.062851,67.714775 249.214981,68.594360 248.177948,69.227043 
	C248.767914,68.329636 249.546997,67.679131 250.618408,66.931908 
z"/>
<path fill="#33465D" opacity="1.000000" stroke="none" 
	d="
M214.689880,106.073486 
	C214.526276,106.893684 214.102631,107.889015 213.328003,108.937347 
	C213.461288,108.076431 213.945557,107.162521 214.689880,106.073486 
z"/>
<path fill="#33465D" opacity="1.000000" stroke="none" 
	d="
M216.676758,103.055389 
	C216.501038,103.884354 216.060196,104.883247 215.260712,105.919159 
	C215.405258,105.045891 215.908447,104.135597 216.676758,103.055389 
z"/>
<path fill="#33465D" opacity="1.000000" stroke="none" 
	d="
M218.713913,100.067245 
	C218.515686,100.881927 218.061020,101.879234 217.246033,102.912552 
	C217.409637,102.049004 217.933563,101.149437 218.713913,100.067245 
z"/>
<path fill="#33465D" opacity="1.000000" stroke="none" 
	d="
M253.521545,64.810440 
	C253.085068,65.464806 252.346191,66.209969 251.225281,66.932312 
	C251.635208,66.240082 252.427200,65.570648 253.521545,64.810440 
z"/>
<path fill="#33465D" opacity="1.000000" stroke="none" 
	d="
M212.758942,109.161133 
	C212.789536,109.542122 212.591263,110.113823 212.120255,110.832764 
	C212.075043,110.437286 212.302551,109.894562 212.758942,109.161133 
z"/>
<path fill="#33465D" opacity="1.000000" stroke="none" 
	d="
M220.738007,97.261871 
	C220.717667,97.628456 220.466125,98.168892 219.924194,98.820297 
	C219.924789,98.432755 220.215790,97.934242 220.738007,97.261871 
z"/>
<path fill="#B18AFC" opacity="1.000000" stroke="none" 
	d="
M390.945740,222.113281 
	C390.231598,220.878754 389.786957,219.371536 388.809021,218.402435 
	C380.380371,210.049713 377.451263,199.624344 376.969116,188.159271 
	C376.503418,177.084900 377.324432,166.210739 382.154083,156.054825 
	C388.469543,142.774658 397.547241,132.840179 413.645599,131.358231 
	C427.149536,132.718277 435.510101,140.823578 439.523285,152.680923 
	C446.264008,172.597000 444.449707,192.084305 432.911957,210.032471 
	C424.234558,223.531082 409.918732,230.067322 393.184021,222.992828 
	C392.099060,222.374481 391.513489,222.207169 390.927887,222.039856 
	C390.927887,222.039871 390.968018,222.090057 390.945740,222.113281 
M426.191101,144.863098 
	C419.415497,139.552612 412.836426,139.519913 405.128784,144.968582 
	C388.723816,157.870285 383.850189,189.135483 395.454803,207.029404 
	C403.939423,220.112427 418.415649,220.211121 427.804413,206.838150 
	C436.250427,195.321838 439.108673,182.337753 437.425873,168.357910 
	C436.495300,160.627121 434.835876,153.004639 428.291199,146.945374 
	C427.698090,146.457123 427.105011,145.968887 426.191101,144.863098 
z"/>
<path fill="#9971F9" opacity="1.000000" stroke="none" 
	d="
M391.105957,222.293503 
	C391.513489,222.207169 392.099060,222.374481 392.867493,222.796265 
	C392.461578,222.882889 391.872803,222.715027 391.105957,222.293503 
z"/>
<path fill="#F0F4F9" opacity="1.000000" stroke="none" 
	d="
M294.681122,394.069275 
	C296.618134,398.230927 298.555115,402.392639 300.761932,406.752869 
	C306.320160,416.574738 313.796112,420.551056 325.337585,417.371155 
	C338.530212,413.736420 351.272949,408.468658 364.568237,403.824341 
	C363.947021,410.514801 362.968689,417.291443 361.985443,424.488037 
	C334.108551,425.358795 306.212067,426.714630 278.372803,425.960236 
	C257.885132,425.405029 237.460785,422.193665 217.034378,419.930023 
	C212.116272,419.385010 207.301758,417.905182 202.300629,416.549194 
	C233.001480,408.851868 263.841309,401.460571 294.681122,394.069275 
z"/>
<path fill="#986FF9" opacity="1.000000" stroke="none" 
	d="
M301.597717,406.062805 
	C299.413452,389.912018 307.456055,377.422333 317.451477,366.329163 
	C328.435028,354.139374 340.006744,342.356140 352.294281,331.495514 
	C368.181976,317.452789 384.504395,303.586884 405.248444,296.959015 
	C409.975769,295.448578 415.310089,295.837769 420.668091,295.614563 
	C425.905731,305.524323 427.908356,315.515442 424.432678,326.117859 
	C421.362274,335.484100 415.638641,343.218842 409.093811,350.360382 
	C394.740479,366.022491 376.831146,376.890167 358.550995,387.153748 
	C345.499847,394.481415 332.014099,400.986877 317.300964,404.290222 
	C312.334717,405.405212 307.134888,405.479980 301.597717,406.062805 
z"/>
<path fill="#202C46" opacity="1.000000" stroke="none" 
	d="
M294.723511,393.687744 
	C263.841309,401.460571 233.001480,408.851868 201.869598,416.509613 
	C197.293747,416.946808 193.009949,417.117584 188.375427,417.085266 
	C188.027573,413.256866 188.030426,409.631592 188.054764,405.559509 
	C191.971191,404.932434 196.007751,405.354187 199.738770,404.476776 
	C230.014389,397.357025 260.231903,389.990082 290.471130,382.715240 
	C292.075134,382.329346 293.715393,382.094269 295.750305,381.665894 
	C295.696472,385.463898 295.231201,389.385040 294.723511,393.687744 
z"/>
<path fill="#C5CBD3" opacity="1.000000" stroke="none" 
	d="
M346.936554,315.992035 
	C347.799805,316.868774 348.663086,317.745483 349.791016,318.833679 
	C339.723297,329.159332 329.349884,339.231995 319.071136,349.400391 
	C310.390564,357.987793 302.923920,367.495483 297.403015,378.823364 
	C296.262390,378.899994 295.367950,378.749603 294.232544,377.983002 
	C296.024719,373.036743 297.256287,368.030518 300.235626,364.498566 
	C310.795898,351.979340 321.784454,339.805908 332.971771,327.839050 
	C337.112732,323.409546 342.252380,319.913696 346.936554,315.992035 
z"/>
<path fill="#986FF9" opacity="1.000000" stroke="none" 
	d="
M217.644989,278.028503 
	C213.022690,289.939850 207.670120,301.745911 203.166626,313.867401 
	C197.736099,328.484131 193.026184,343.368530 187.979431,358.521545 
	C184.368805,358.303680 180.712967,357.968811 177.210251,357.050049 
	C165.596313,354.003906 154.524582,357.689453 143.292282,359.475067 
	C141.820099,359.709076 140.343323,359.914246 138.442871,360.128876 
	C140.385773,349.493652 147.125488,341.389526 154.036682,333.599152 
	C171.797302,313.579224 191.420975,295.557098 213.382111,280.172150 
	C214.586472,279.328400 215.983490,278.759674 217.644989,278.028503 
z"/>
<path fill="#986FF9" opacity="1.000000" stroke="none" 
	d="
M218.751465,277.095581 
	C218.884415,277.310669 218.708557,277.580170 218.215424,277.893616 
	C218.088303,277.677307 218.269806,277.414795 218.751465,277.095581 
z"/>
<path fill="#F1F6FA" opacity="1.000000" stroke="none" 
	d="
M346.986023,315.673584 
	C342.252380,319.913696 337.112732,323.409546 332.971771,327.839050 
	C321.784454,339.805908 310.795898,351.979340 300.235626,364.498566 
	C297.256287,368.030518 296.024719,373.036743 293.984436,377.754303 
	C280.223206,375.765320 266.453583,373.474396 252.718582,370.991943 
	C233.081635,367.442841 213.470016,363.753662 193.462769,360.009064 
	C201.301620,331.416687 212.883087,304.272705 225.917572,277.330383 
	C236.951645,279.072083 247.745285,281.572052 258.677612,283.037781 
	C269.959076,284.550262 281.360260,285.499207 292.736694,285.889374 
	C306.503296,286.361450 320.298889,285.988312 334.551880,285.947113 
	C335.021851,285.913300 335.496918,286.000458 335.734314,286.044647 
	C339.844879,294.954834 343.718018,303.820801 347.906830,312.891113 
	C347.826843,313.848663 347.431152,314.601898 346.986023,315.673584 
z"/>
<path fill="#31445B" opacity="1.000000" stroke="none" 
	d="
M266.084106,385.856384 
	C252.458557,389.230255 238.836273,392.617371 225.206223,395.972931 
	C217.180481,397.948792 209.212662,400.286713 201.084229,401.672394 
	C195.996658,402.539673 190.437729,402.936462 185.469772,401.834137 
	C155.792648,395.249023 126.225899,388.166504 96.383377,380.712646 
	C96.821732,379.789185 97.457626,379.190674 98.182114,379.050690 
	C108.722633,377.013885 119.266090,374.989594 129.826965,373.061584 
	C141.197525,370.985779 152.550400,367.703400 163.979156,367.383606 
	C174.371063,367.092834 184.890961,369.860077 195.289581,371.654999 
	C214.492218,374.969543 233.663391,378.474365 252.810486,382.096527 
	C257.311066,382.947876 261.663513,384.582245 266.084106,385.856384 
z"/>
<path fill="#1E2A44" opacity="1.000000" stroke="none" 
	d="
M266.457489,385.836731 
	C261.663513,384.582245 257.311066,382.947876 252.810486,382.096527 
	C233.663391,378.474365 214.492218,374.969543 195.289581,371.654999 
	C184.890961,369.860077 174.371063,367.092834 163.979156,367.383606 
	C152.550400,367.703400 141.197525,370.985779 129.826965,373.061584 
	C119.266090,374.989594 108.722633,377.013885 98.182114,379.050690 
	C97.457626,379.190674 96.821732,379.789185 96.037231,380.531219 
	C88.672104,379.237732 81.414391,377.587524 74.156677,375.937317 
	C74.133812,375.677063 74.110939,375.416779 74.088074,375.156494 
	C83.154091,373.441864 92.212769,371.687225 101.287605,370.020630 
	C121.987839,366.218903 142.658096,362.226257 163.429840,358.862823 
	C168.126419,358.102325 173.250626,359.237732 178.070267,360.101471 
	C212.974091,366.357025 247.850983,372.762878 282.731964,379.145386 
	C283.858276,379.351471 284.936829,379.818451 287.282379,380.554291 
	C279.705322,382.504120 273.268097,384.160645 266.457489,385.836731 
z"/>
<path fill="#5E6C83" opacity="1.000000" stroke="none" 
	d="
M323.720459,58.132004 
	C335.575653,66.683060 340.765808,78.791527 341.983795,92.726631 
	C344.921021,126.331718 331.892578,154.598206 312.087189,180.510849 
	C300.402130,195.799133 286.227539,208.228287 268.798920,216.447250 
	C261.780121,219.757172 255.556015,223.715179 249.817383,228.891434 
	C247.663437,230.834290 243.980957,231.225967 240.906998,231.949478 
	C239.174545,232.357224 237.240250,231.811920 235.434769,232.021820 
	C228.475784,232.830826 222.883026,231.853836 221.788467,223.295685 
	C221.625412,222.020630 219.852509,220.574448 218.483185,219.890747 
	C208.199600,214.756195 201.989319,206.273758 198.126831,195.402161 
	C199.685760,193.917419 201.511566,193.014526 202.799805,191.616348 
	C207.602661,186.403625 212.229111,181.028351 217.292084,175.525223 
	C219.302475,176.084412 220.872940,177.193588 222.593292,177.525116 
	C241.416473,181.152740 260.270111,184.622131 279.098114,188.225189 
	C283.548920,189.076920 285.911987,186.658554 286.678955,183.004944 
	C287.216217,180.445633 286.316437,177.584671 286.041931,174.495636 
	C284.312561,168.172699 280.729248,164.819580 274.272766,163.723816 
	C261.447693,161.547180 248.742233,158.665619 235.987350,156.075363 
	C239.015396,152.207031 241.834961,148.151489 245.109802,144.504791 
	C255.755981,132.649826 266.637604,121.006470 277.300079,109.165932 
	C290.840698,94.129227 304.241211,78.966438 317.742004,63.893738 
	C319.514008,61.915451 321.521851,60.148472 323.720459,58.132004 
M295.708954,110.481010 
	C295.144226,110.342659 294.579498,110.204308 293.341187,109.728790 
	C290.721649,110.179085 287.570129,109.857307 285.583557,111.226196 
	C279.898590,115.143593 277.491821,121.283340 277.485565,127.963982 
	C277.481842,131.956284 278.038788,136.537170 284.328583,137.703751 
	C287.167572,137.266769 290.619781,137.704742 292.729034,136.226517 
	C298.725098,132.024338 300.967651,125.414238 300.531433,118.390678 
	C300.372131,115.826157 297.604584,113.423630 295.995819,110.993690 
	C295.995819,110.993690 296.047302,110.971909 295.708954,110.481010 
z"/>
<path fill="#B995FC" opacity="1.000000" stroke="none" 
	d="
M235.659576,156.103943 
	C248.742233,158.665619 261.447693,161.547180 274.272766,163.723816 
	C280.729248,164.819580 284.312561,168.172699 286.009644,174.893127 
	C283.707031,185.201523 282.742950,185.837860 273.545044,184.098892 
	C262.480347,182.006989 251.405838,179.967087 240.340576,177.878052 
	C233.447891,176.576752 226.564499,175.226227 219.017288,173.770584 
	C220.262543,172.378418 220.923126,171.671906 221.548553,170.935547 
	C225.709976,166.035965 229.863892,161.129990 234.020264,156.226105 
	C234.457443,156.194916 234.894623,156.163727 235.659576,156.103943 
z"/>
<path fill="#A984F8" opacity="1.000000" stroke="none" 
	d="
M243.253494,129.060089 
	C241.289413,126.015900 238.625259,123.215080 238.325302,120.180565 
	C237.716110,114.017670 240.324112,108.480415 244.733658,104.039215 
	C247.994904,100.754539 251.816315,100.135574 256.152863,102.016640 
	C260.177643,103.762466 261.740631,107.120285 260.970001,110.882637 
	C259.967987,115.774323 258.573700,120.814972 256.159180,125.125458 
	C253.587860,129.715820 248.922256,131.269608 243.253494,129.060089 
z"/>
<path fill="#A984F8" opacity="1.000000" stroke="none" 
	d="
M233.626617,156.115219 
	C229.863892,161.129990 225.709976,166.035965 221.548553,170.935547 
	C220.923126,171.671906 220.262543,172.378418 219.017288,173.770584 
	C226.564499,175.226227 233.447891,176.576752 240.340576,177.878052 
	C251.405838,179.967087 262.480347,182.006989 273.545044,184.098892 
	C282.742950,185.837860 283.707031,185.201523 286.026184,175.255905 
	C286.316437,177.584671 287.216217,180.445633 286.678955,183.004944 
	C285.911987,186.658554 283.548920,189.076920 279.098114,188.225189 
	C260.270111,184.622131 241.416473,181.152740 222.593292,177.525116 
	C220.872940,177.193588 219.302475,176.084412 217.339050,175.184387 
	C215.429184,171.406494 213.276596,167.914703 212.378708,164.125595 
	C210.716080,157.109238 215.393845,152.633560 222.466354,153.915802 
	C226.063217,154.567902 229.644592,155.305420 233.626617,156.115219 
z"/>
<path fill="#2F3C55" opacity="1.000000" stroke="none" 
	d="
M294.721375,66.737640 
	C294.841400,72.958832 290.694275,77.768494 286.366180,76.582161 
	C284.083008,75.956352 280.230194,75.809044 281.135437,72.065002 
	C281.872711,69.015770 283.318634,65.411041 285.654663,63.652325 
	C288.843964,61.251221 292.261627,63.185120 294.721375,66.737640 
M288.149567,73.790504 
	C290.914001,72.333916 292.006683,70.044319 290.694427,67.215424 
	C290.353516,66.480431 287.971130,65.802864 287.383606,66.243042 
	C285.789673,67.437294 284.655457,69.245209 283.338959,70.809807 
	C284.685669,71.863419 286.032349,72.917030 288.149567,73.790504 
z"/>
<path fill="#626C8D" opacity="1.000000" stroke="none" 
	d="
M427.264252,207.246246 
	C418.415649,220.211121 403.939423,220.112427 395.454803,207.029404 
	C383.850189,189.135483 388.723816,157.870285 405.683472,145.102509 
	C406.393707,145.394440 406.549225,145.552429 406.459991,145.931793 
	C392.639771,158.165558 387.448029,180.902252 393.948151,199.362213 
	C399.334717,214.660019 413.145752,221.939575 426.521820,206.551468 
	C426.934296,206.937424 427.099274,207.091843 427.264252,207.246246 
z"/>
<path fill="#626C8D" opacity="1.000000" stroke="none" 
	d="
M428.519440,147.476135 
	C434.835876,153.004639 436.495300,160.627121 437.425873,168.357910 
	C439.108673,182.337753 436.250427,195.321838 427.534332,207.042206 
	C427.099274,207.091843 426.934296,206.937424 426.708862,206.266205 
	C438.021729,186.787674 439.944305,167.650360 427.925995,148.065430 
	C428.263214,147.745865 428.391327,147.611008 428.519440,147.476135 
z"/>
<path fill="#626C8D" opacity="1.000000" stroke="none" 
	d="
M406.005310,144.999008 
	C412.836426,139.519913 419.415497,139.552612 426.150848,145.368164 
	C425.986420,146.013229 425.862213,146.153214 425.401733,146.159973 
	C419.021393,141.498703 412.890808,141.995178 406.704773,145.710434 
	C406.549225,145.552429 406.393707,145.394440 406.005310,144.999008 
z"/>
<path fill="#626C8D" opacity="1.000000" stroke="none" 
	d="
M426.311249,145.676941 
	C427.105011,145.968887 427.698090,146.457123 428.405334,147.210754 
	C428.391327,147.611008 428.263214,147.745865 427.672882,147.937195 
	C426.719757,147.426834 426.228912,146.860031 425.738037,146.293213 
	C425.862213,146.153214 425.986420,146.013229 426.311249,145.676941 
z"/>
<path fill="#B18AFC" opacity="1.000000" stroke="none" 
	d="
M283.662994,137.221710 
	C278.038788,136.537170 277.481842,131.956284 277.485565,127.963982 
	C277.491821,121.283340 279.898590,115.143593 285.583557,111.226196 
	C287.570129,109.857307 290.721649,110.179085 293.858612,110.129494 
	C294.933136,110.677437 295.490204,110.824677 296.047302,110.971909 
	C296.047302,110.971909 295.995819,110.993690 296.007690,111.394653 
	C296.254120,112.755089 296.519623,113.708206 296.718536,114.675018 
	C298.888062,125.221710 292.580414,136.107132 283.662994,137.221710 
z"/>
<path fill="#986FF9" opacity="1.000000" stroke="none" 
	d="
M283.995789,137.462738 
	C292.580414,136.107132 298.888062,125.221710 296.718536,114.675018 
	C296.519623,113.708206 296.254120,112.755089 296.023254,111.371407 
	C297.604584,113.423630 300.372131,115.826157 300.531433,118.390678 
	C300.967651,125.414238 298.725098,132.024338 292.729034,136.226517 
	C290.619781,137.704742 287.167572,137.266769 283.995789,137.462738 
z"/>
<path fill="#986FF9" opacity="1.000000" stroke="none" 
	d="
M295.878113,110.726463 
	C295.490204,110.824677 294.933136,110.677437 294.195404,110.298080 
	C294.579498,110.204308 295.144226,110.342659 295.878113,110.726463 
z"/>
<path fill="#A984F8" opacity="1.000000" stroke="none" 
	d="
M287.764313,73.880569 
	C286.032349,72.917030 284.685669,71.863419 283.338959,70.809814 
	C284.655457,69.245209 285.789673,67.437294 287.383606,66.243042 
	C287.971130,65.802864 290.353516,66.480431 290.694427,67.215424 
	C292.006683,70.044319 290.914001,72.333916 287.764313,73.880569 
z"/>
<path fill="#EFF4F8" opacity="1.000000" stroke="none" 
	d="
M425.401733,146.159973 
	C426.228912,146.860031 426.719757,147.426834 427.463745,148.121872 
	C439.944305,167.650360 438.021729,186.787674 426.461334,206.034637 
	C413.145752,221.939575 399.334717,214.660019 393.948151,199.362213 
	C387.448029,180.902252 392.639771,158.165558 406.459991,145.931793 
	C412.890808,141.995178 419.021393,141.498703 425.401733,146.159973 
M410.815216,183.232635 
	C413.111450,177.319290 412.106476,174.366272 406.344879,171.810333 
	C405.890381,171.893677 405.435883,171.977036 404.505066,172.016632 
	C404.505066,172.016632 404.060089,172.192245 403.360504,172.229858 
	C402.052765,173.656174 400.342468,174.884155 399.521606,176.550323 
	C397.841003,179.961563 399.490265,185.333542 402.557251,186.474243 
	C405.663879,187.629669 408.709351,187.508286 410.815216,183.232635 
M430.238708,184.263336 
	C431.792236,179.877701 431.977264,175.925873 426.328552,173.204697 
	C421.545837,172.626999 418.677002,175.502258 418.449371,179.513397 
	C418.293762,182.255646 420.006165,186.011993 422.151184,187.753601 
	C425.022369,190.084869 428.003754,188.036575 430.238708,184.263336 
z"/>
<path fill="#4C5C75" opacity="1.000000" stroke="none" 
	d="
M429.793335,184.926743 
	C428.003754,188.036575 425.022369,190.084869 422.151184,187.753601 
	C420.006165,186.011993 418.293762,182.255646 418.449371,179.513397 
	C418.677002,175.502258 421.545837,172.626999 426.658997,173.836395 
	C427.924042,177.954300 428.858704,181.440521 429.793335,184.926743 
z"/>
<path fill="#4C5C75" opacity="1.000000" stroke="none" 
	d="
M404.981384,172.060394 
	C405.435883,171.977036 405.890381,171.893677 406.713531,172.294830 
	C408.081940,176.384583 409.081726,179.989822 410.081512,183.595078 
	C408.709351,187.508286 405.663879,187.629669 402.557251,186.474243 
	C399.490265,185.333542 397.841003,179.961563 399.521606,176.550323 
	C400.342468,174.884155 402.052765,173.656174 403.813843,172.339066 
	C404.267151,172.448273 404.702759,172.455231 404.702759,172.455231 
	C404.702759,172.455231 404.981384,172.060379 404.981384,172.060394 
z"/>
<path fill="#33465D" opacity="1.000000" stroke="none" 
	d="
M410.448364,183.413849 
	C409.081726,179.989822 408.081940,176.384583 407.045654,172.414108 
	C412.106476,174.366272 413.111450,177.319290 410.448364,183.413849 
z"/>
<path fill="#33465D" opacity="1.000000" stroke="none" 
	d="
M430.016052,184.595032 
	C428.858704,181.440521 427.924042,177.954300 426.931885,174.059204 
	C431.977264,175.925873 431.792236,179.877701 430.016052,184.595032 
z"/>
<path fill="#33465D" opacity="1.000000" stroke="none" 
	d="
M404.743225,172.038513 
	C404.981384,172.060379 404.702759,172.455231 404.702759,172.455231 
	C404.702759,172.455231 404.267151,172.448273 404.163635,172.320251 
	C404.060089,172.192245 404.505066,172.016632 404.743225,172.038513 
z"/>
</svg>