<?xml version="1.0" standalone="no"?>
<!DOCTYPE svg PUBLIC "-//W3C//DTD SVG 20010904//EN"
 "http://www.w3.org/TR/2001/REC-SVG-20010904/DTD/svg10.dtd">
<svg version="1.0" xmlns="http://www.w3.org/2000/svg"
 width="512.000000pt" height="512.000000pt" viewBox="0 0 512.000000 512.000000"
 preserveAspectRatio="xMidYMid meet">

<g transform="translate(0.000000,512.000000) scale(0.100000,-0.100000)"
fill="#000000" stroke="none">
<path d="M2530 5111 c-14 -4 -54 -23 -89 -41 l-65 -34 -76 27 c-91 32 -105 33
-148 7 -67 -41 -91 -164 -57 -295 18 -69 95 -234 162 -348 37 -64 43 -81 32
-88 -22 -14 -29 -11 -74 30 -97 89 -202 121 -395 120 -161 -1 -213 10 -315 62
-90 46 -107 47 -140 14 -53 -53 -22 -104 98 -160 113 -54 177 -66 359 -68 151
-2 167 -4 213 -27 47 -23 145 -104 145 -120 0 -4 -37 -10 -82 -13 -243 -17
-446 -101 -571 -236 -71 -77 -93 -123 -77 -161 13 -32 58 -55 89 -45 11 3 43
35 70 70 78 98 174 156 326 195 44 11 117 23 164 26 l86 5 -26 -23 c-14 -13
-77 -66 -139 -118 -438 -369 -762 -842 -885 -1294 -42 -154 -56 -252 -62 -428
l-6 -167 -71 5 c-126 9 -136 12 -136 40 0 97 -74 201 -159 224 -28 7 -116 10
-255 8 -211 -3 -211 -3 -259 -31 -26 -15 -60 -47 -75 -69 l-27 -42 -3 -925
c-2 -649 0 -937 8 -964 14 -49 65 -106 115 -128 35 -16 69 -19 266 -19 217 0
228 1 270 23 55 29 105 101 115 163 5 36 10 45 23 41 9 -2 193 -70 409 -151
283 -105 418 -151 482 -162 76 -13 191 -14 752 -12 650 4 665 4 743 26 44 12
116 40 160 61 44 21 323 192 620 381 297 188 612 388 700 443 181 114 226 151
263 222 23 43 27 62 27 140 0 78 -4 97 -27 140 -31 60 -88 119 -143 148 -32
18 -57 22 -130 22 -79 0 -100 -4 -170 -34 -44 -18 -86 -35 -92 -38 -8 -3 -3
17 12 50 36 82 72 213 91 334 22 142 15 412 -15 558 -71 345 -240 688 -493
998 -97 118 -139 157 -173 157 -47 0 -75 -25 -75 -66 0 -29 11 -49 65 -111
275 -315 451 -651 526 -1003 19 -87 23 -138 23 -295 1 -205 -9 -278 -60 -432
-25 -73 -110 -250 -137 -283 -9 -11 -793 -365 -924 -417 -10 -4 -13 11 -13 54
0 127 -50 246 -144 338 -65 64 -144 109 -223 125 -26 5 -246 33 -488 60 -514
59 -524 62 -750 190 -161 91 -282 146 -392 179 l-71 21 -8 67 c-9 90 2 263 26
384 98 506 434 1006 964 1434 l58 48 77 -26 c128 -44 197 -52 461 -52 275 0
362 12 482 67 l67 30 78 -63 c43 -35 100 -82 127 -106 72 -64 137 -53 152 25
6 31 2 37 -51 86 -32 30 -97 85 -146 122 l-88 69 -1 65 c-1 71 -20 125 -63
176 l-27 32 54 86 c105 167 177 336 191 448 12 96 -29 191 -94 218 -33 13 -61
8 -152 -26 l-46 -18 -79 39 c-69 34 -88 39 -149 39 -61 1 -80 -4 -144 -37 -41
-20 -81 -37 -90 -37 -8 0 -48 17 -89 37 -78 38 -159 51 -212 34z m159 -178
c66 -33 85 -38 146 -38 61 0 79 5 141 38 39 20 79 37 89 37 10 0 50 -16 87
-36 87 -44 147 -52 222 -29 31 10 59 16 61 13 10 -9 -15 -110 -45 -184 -17
-42 -57 -123 -91 -181 -105 -184 -85 -166 -223 -192 -198 -38 -331 -38 -543 0
l-62 11 -46 71 c-107 167 -195 368 -195 445 l0 39 58 -20 c75 -25 131 -18 219
27 37 19 77 35 87 36 11 0 54 -17 95 -37z m-179 -725 c152 -32 441 -32 587 0
116 25 143 21 168 -27 19 -38 19 -84 0 -121 -18 -36 -69 -53 -229 -76 -209
-31 -591 -2 -671 50 -51 34 -50 135 2 176 31 24 16 24 143 -2z m-1345 -2378
c128 -30 248 -80 430 -180 182 -100 277 -141 385 -163 41 -9 260 -37 485 -62
226 -25 432 -53 459 -61 142 -44 218 -155 220 -319 l1 -90 -408 -5 c-390 -5
-409 -6 -423 -24 -21 -29 -18 -80 7 -102 20 -18 45 -19 464 -22 l444 -3 718
317 c530 233 731 317 769 321 61 7 101 -11 141 -64 37 -49 40 -141 6 -189 -14
-20 -119 -93 -275 -192 -139 -88 -446 -282 -683 -432 -518 -329 -514 -326
-595 -357 -130 -50 -170 -52 -830 -52 -474 0 -632 3 -690 13 -45 8 -247 78
-502 172 l-428 159 0 407 c0 249 -4 417 -10 433 -6 15 -23 32 -40 38 l-30 11
0 98 c0 82 3 98 15 98 9 0 27 11 40 25 24 23 25 30 25 142 l0 118 108 -7 c60
-3 149 -16 197 -28z"/>
<path d="M2777 3550 c-25 -20 -27 -27 -27 -94 l0 -72 -54 -17 c-113 -36 -209
-132 -241 -241 -20 -66 -19 -171 2 -232 23 -69 106 -148 211 -202 l82 -43 0
-289 c0 -159 -3 -291 -8 -294 -18 -11 -113 17 -185 54 -56 29 -84 39 -102 34
-50 -12 -71 -77 -40 -121 25 -36 172 -101 258 -115 l77 -12 0 -73 c0 -86 18
-113 74 -113 55 0 76 35 76 125 l0 73 34 6 c108 20 233 125 286 238 116 250
-2 496 -278 579 l-42 12 0 239 c0 184 3 238 13 238 17 -1 94 -36 127 -60 15
-11 40 -20 54 -20 34 0 76 41 76 74 0 54 -92 120 -210 149 l-55 14 -5 71 c-5
78 -17 98 -65 108 -22 4 -38 0 -58 -16z m-27 -525 c0 -129 -4 -195 -10 -195
-27 0 -118 70 -133 103 -42 87 0 215 87 268 57 35 56 36 56 -176z m225 -463
c61 -30 88 -56 111 -106 65 -139 -12 -320 -158 -375 l-28 -11 0 261 0 260 23
-7 c12 -3 36 -13 52 -22z"/>
</g>
</svg>
