<svg version="1.1" id="Layer_1" xmlns="http://www.w3.org/2000/svg" xmlns:xlink="http://www.w3.org/1999/xlink" x="0px" y="0px"
	 width="100%" viewBox="0 0 128 128" enable-background="new 0 0 128 128" xml:space="preserve">
<path fill="#000000" opacity="1.000000" stroke="none" 
	d="
M129.000000,54.000000 
	C129.000000,78.922737 129.000000,103.845482 129.000000,129.000000 
	C106.979645,129.000000 84.958481,129.000000 62.148655,128.694946 
	C61.823639,127.945992 62.210861,127.334312 62.762291,127.083153 
	C72.361107,122.711067 82.047920,118.525604 91.567482,113.988754 
	C96.724625,111.530945 98.671593,106.541710 96.758110,102.268570 
	C94.926392,98.178017 89.195259,96.077248 84.494789,98.269363 
	C78.856087,100.899033 73.436928,103.999466 67.576981,106.938614 
	C66.181351,107.287735 65.131432,107.594276 64.044739,107.505463 
	C63.843807,102.951653 62.422878,99.675949 58.388676,97.683044 
	C56.397110,96.699196 54.664749,95.064941 53.033928,93.497330 
	C43.799770,84.621048 33.664585,78.231667 20.030443,80.985863 
	C19.391779,81.114883 18.707745,81.019302 18.027664,80.592392 
	C18.480879,76.941658 17.156713,75.758430 13.885048,75.942169 
	C9.602457,76.182686 5.296122,76.000412 1.000000,76.000000 
	C1.000000,51.077259 1.000000,26.154518 1.000000,1.000000 
	C23.020351,1.000000 45.041519,1.000000 67.851334,1.305034 
	C68.176430,2.053953 67.789345,2.666006 67.237953,2.916727 
	C57.618080,7.290936 47.895195,11.448470 38.373924,16.025894 
	C32.775406,18.717428 31.328428,23.489853 33.886501,28.529854 
	C35.794880,32.289803 40.824604,33.910591 45.507568,31.727062 
	C51.144527,29.098713 56.562046,25.999754 62.417500,23.060347 
	C63.803059,22.692413 64.845688,22.368662 65.938828,22.442444 
	C67.287003,25.681601 67.948776,29.161745 70.021095,31.225485 
	C73.774597,34.963448 78.587799,37.611881 82.562279,41.159214 
	C88.881004,46.798840 95.589302,50.675179 104.501419,49.063641 
	C106.912605,48.627632 109.466469,48.980621 111.972244,49.407372 
	C111.519470,53.057819 112.843231,54.241539 116.115044,54.057808 
	C120.397598,53.817310 124.703911,53.999588 129.000000,54.000000 
M95.533691,78.929855 
	C95.634323,78.621315 95.734955,78.312775 95.982384,77.121727 
	C96.322609,72.636032 96.179901,68.220772 92.880196,64.698174 
	C85.314735,56.621674 76.369217,50.450619 66.238731,46.051598 
	C62.175957,44.287395 57.908844,42.999229 53.807060,41.317947 
	C49.280468,39.462543 40.181671,41.426407 37.278919,45.253475 
	C35.626484,50.074947 30.485264,54.173317 33.998573,60.067204 
	C35.597488,62.749523 37.103817,65.724220 39.396786,67.703743 
	C43.522308,71.265305 48.192722,74.199905 52.664814,77.354881 
	C61.301991,83.448257 70.113174,88.476387 81.409851,88.282410 
	C91.166069,88.114891 91.839890,88.367714 95.008873,79.017029 
	C95.008873,79.017029 95.017326,79.076286 95.533691,78.929855 
M17.101158,58.269928 
	C18.592344,58.540726 20.083529,58.811523 21.769464,59.117687 
	C21.953842,57.106533 22.083990,55.686897 22.216722,54.239086 
	C23.936672,54.051807 25.361212,53.896694 26.785753,53.741581 
	C27.031149,53.222466 27.276545,52.703350 27.521940,52.184231 
	C25.814785,51.127132 24.107630,50.070034 22.131996,48.846687 
	C22.011780,47.949360 21.822166,46.534050 21.640614,45.178913 
	C20.044888,45.178913 18.759630,45.178913 17.141115,45.178913 
	C17.051208,46.745533 16.969856,48.163074 16.892004,49.519630 
	C12.263780,50.197769 12.263780,50.197769 13.517393,52.873787 
	C14.682508,54.378437 15.847624,55.883087 17.101158,58.269928 
M107.103271,62.719547 
	C107.010963,64.012192 106.918655,65.304832 106.806129,66.880524 
	C105.194435,66.966331 103.774948,67.041901 102.484055,67.110634 
	C100.366608,72.434990 105.091415,70.316612 106.796745,71.395943 
	C106.949120,72.916351 107.091255,74.334618 107.257561,75.994072 
	C108.967575,75.903778 110.371681,75.829636 111.728455,75.757988 
	C111.957184,73.998886 112.141541,72.581017 112.325897,71.163147 
	C112.598114,71.409477 112.870323,71.655807 113.142532,71.902138 
	C114.598747,70.794968 116.054955,69.687805 117.511169,68.580643 
	C117.247314,68.112717 116.983467,67.644791 116.719612,67.176857 
	C115.291679,67.069756 113.863739,66.962654 112.354294,66.849442 
	C112.061089,65.115921 111.801117,63.578892 111.550980,62.100033 
	C110.061684,62.100033 108.900261,62.100033 107.103271,62.719547 
z"/>
<path fill="#FFCEBF" opacity="1.000000" stroke="none" 
	d="
M62.074566,23.104530 
	C56.562046,25.999754 51.144527,29.098713 45.507568,31.727062 
	C40.824604,33.910591 35.794880,32.289803 33.886501,28.529854 
	C31.328428,23.489853 32.775406,18.717428 38.373924,16.025894 
	C47.895195,11.448470 57.618080,7.290936 67.237953,2.916727 
	C67.789345,2.666006 68.176430,2.053953 68.319992,1.305034 
	C72.356903,1.000000 76.713799,1.000000 81.216408,1.298286 
	C91.559303,6.739795 101.756493,11.883018 111.972923,17.492899 
	C111.979721,28.296858 111.967285,38.634159 111.954849,48.971462 
	C109.466469,48.980621 106.912605,48.627632 104.501419,49.063641 
	C95.589302,50.675179 88.881004,46.798840 82.562279,41.159214 
	C78.587799,37.611881 73.774597,34.963448 70.021095,31.225485 
	C67.948776,29.161745 67.287003,25.681601 66.218742,22.231323 
	C70.471825,17.224300 72.411049,17.008215 76.982864,20.489964 
	C81.209755,23.709026 85.363358,27.029558 89.687088,30.112047 
	C90.620728,30.777658 92.143761,30.616550 93.395302,30.836246 
	C92.986450,29.595161 92.956055,27.901663 92.104736,27.189507 
	C87.905205,23.676453 83.586014,20.286001 79.125755,17.109678 
	C71.859657,11.935218 64.669350,14.536140 62.074566,23.104530 
z"/>
<path fill="#FFCEBF" opacity="1.000000" stroke="none" 
	d="
M67.922699,106.896042 
	C73.436928,103.999466 78.856087,100.899033 84.494789,98.269363 
	C89.195259,96.077248 94.926392,98.178017 96.758110,102.268570 
	C98.671593,106.541710 96.724625,111.530945 91.567482,113.988754 
	C82.047920,118.525604 72.361107,122.711067 62.762291,127.083153 
	C62.210861,127.334312 61.823639,127.945992 61.679996,128.694946 
	C57.643101,129.000000 53.286201,129.000000 48.785278,128.702515 
	C38.442806,123.261322 28.244358,118.117607 18.026808,112.507217 
	C18.020082,101.703140 18.032461,91.365723 18.044838,81.028320 
	C18.707745,81.019302 19.391779,81.114883 20.030443,80.985863 
	C33.664585,78.231667 43.799770,84.621048 53.033928,93.497330 
	C54.664749,95.064941 56.397110,96.699196 58.388676,97.683044 
	C62.422878,99.675949 63.843807,102.951653 63.873497,107.817871 
	C59.099476,112.720932 57.412525,112.812080 52.608997,109.147301 
	C48.526882,106.032928 44.498180,102.842293 40.306988,99.881996 
	C39.370750,99.220703 37.854462,99.380638 36.605225,99.162491 
	C37.012444,100.401131 37.040581,102.097771 37.890656,102.801361 
	C42.225803,106.389488 46.675503,109.859261 51.269196,113.110344 
	C58.443581,118.187859 65.309509,115.551071 67.922699,106.896042 
z"/>
<path fill="#435469" opacity="1.000000" stroke="none" 
	d="
M111.972244,49.407372 
	C111.967285,38.634159 111.979721,28.296858 111.990936,17.057247 
	C111.518631,12.938385 112.847061,11.759357 116.116241,11.942600 
	C120.398445,12.182624 124.704315,12.000526 129.000000,12.000000 
	C129.000000,25.687561 129.000000,39.375122 129.000000,53.531342 
	C124.703911,53.999588 120.397598,53.817310 116.115044,54.057808 
	C112.843231,54.241539 111.519470,53.057819 111.972244,49.407372 
z"/>
<path fill="#435469" opacity="1.000000" stroke="none" 
	d="
M18.027664,80.592392 
	C18.032461,91.365723 18.020082,101.703140 18.009056,112.942886 
	C18.481630,117.061974 17.152878,118.240639 13.883815,118.057396 
	C9.601592,117.817352 5.295707,117.999466 1.000000,118.000000 
	C1.000000,104.312439 1.000000,90.624878 1.000000,76.468658 
	C5.296122,76.000412 9.602457,76.182686 13.885048,75.942169 
	C17.156713,75.758430 18.480879,76.941658 18.027664,80.592392 
z"/>
<path fill="#000000" opacity="1.000000" stroke="none" 
	d="
M129.000000,11.517044 
	C124.704315,12.000526 120.398445,12.182624 116.116241,11.942600 
	C112.847061,11.759357 111.518631,12.938385 111.971695,16.590591 
	C101.756493,11.883018 91.559303,6.739795 81.681061,1.298286 
	C97.666748,1.000000 113.333496,1.000000 129.000000,1.000000 
	C129.000000,4.421438 129.000000,7.727763 129.000000,11.517044 
z"/>
<path fill="#000000" opacity="1.000000" stroke="none" 
	d="
M1.000000,118.482956 
	C5.295707,117.999466 9.601592,117.817352 13.883815,118.057396 
	C17.152878,118.240639 18.481630,117.061974 18.028156,113.409554 
	C28.244358,118.117607 38.442806,123.261322 48.320625,128.702515 
	C32.333252,129.000000 16.666506,129.000000 1.000000,129.000000 
	C1.000000,125.578560 1.000000,122.272240 1.000000,118.482956 
z"/>
<path fill="#FD9823" opacity="1.000000" stroke="none" 
	d="
M95.066154,79.035187 
	C91.839890,88.367714 91.166069,88.114891 81.409851,88.282410 
	C70.113174,88.476387 61.301991,83.448257 52.664814,77.354881 
	C48.192722,74.199905 43.522308,71.265305 39.396786,67.703743 
	C37.103817,65.724220 35.597488,62.749523 33.998573,60.067204 
	C30.485264,54.173317 35.626484,50.074947 37.627777,45.461899 
	C39.605713,48.897312 40.566189,52.776707 42.973778,55.244030 
	C57.211979,69.835464 73.381630,80.582504 95.066154,79.035187 
z"/>
<path fill="#FECB3C" opacity="1.000000" stroke="none" 
	d="
M95.037514,79.026108 
	C73.381630,80.582504 57.211979,69.835464 42.973778,55.244030 
	C40.566189,52.776707 39.605713,48.897312 37.944180,45.291321 
	C40.181671,41.426407 49.280468,39.462543 53.807060,41.317947 
	C57.908844,42.999229 62.175957,44.287395 66.238731,46.051598 
	C76.369217,50.450619 85.314735,56.621674 92.880196,64.698174 
	C96.179901,68.220772 96.322609,72.636032 95.718201,77.696777 
	C95.203583,78.483047 95.058022,78.751198 95.017326,79.076286 
	C95.017326,79.076286 95.008873,79.017029 95.037514,79.026108 
M50.182747,46.238949 
	C48.571594,46.719814 46.960438,47.200680 45.349285,47.681545 
	C46.065800,49.446278 46.357929,51.603344 47.567753,52.912033 
	C55.385796,61.368973 65.452477,66.530365 75.727364,71.228539 
	C78.831810,72.648033 82.341034,73.298569 85.735626,73.905281 
	C86.951729,74.122635 89.119965,73.517601 89.514648,72.666771 
	C89.990204,71.641617 89.231956,69.867828 88.646194,68.582977 
	C88.185875,67.573257 87.276993,66.692726 86.395775,65.961662 
	C75.833138,57.198799 64.273888,50.232635 50.182747,46.238949 
z"/>
<path fill="#FFB2A0" opacity="1.000000" stroke="none" 
	d="
M67.576981,106.938614 
	C65.309509,115.551071 58.443581,118.187859 51.269196,113.110344 
	C46.675503,109.859261 42.225803,106.389488 37.890656,102.801361 
	C37.040581,102.097771 37.012444,100.401131 36.605225,99.162491 
	C37.854462,99.380638 39.370750,99.220703 40.306988,99.881996 
	C44.498180,102.842293 48.526882,106.032928 52.608997,109.147301 
	C57.412525,112.812080 59.099476,112.720932 63.910275,108.213226 
	C65.131432,107.594276 66.181351,107.287735 67.576981,106.938614 
z"/>
<path fill="#FFB2A0" opacity="1.000000" stroke="none" 
	d="
M62.417500,23.060347 
	C64.669350,14.536140 71.859657,11.935218 79.125755,17.109678 
	C83.586014,20.286001 87.905205,23.676453 92.104736,27.189507 
	C92.956055,27.901663 92.986450,29.595161 93.395302,30.836246 
	C92.143761,30.616550 90.620728,30.777658 89.687088,30.112047 
	C85.363358,27.029558 81.209755,23.709026 76.982864,20.489964 
	C72.411049,17.008215 70.471825,17.224300 66.168228,21.833792 
	C64.845688,22.368662 63.803059,22.692413 62.417500,23.060347 
z"/>
<path fill="#FEA832" opacity="1.000000" stroke="none" 
	d="
M17.056950,57.828831 
	C15.847624,55.883087 14.682508,54.378437 13.517393,52.873787 
	C12.263780,50.197769 12.263780,50.197769 16.892004,49.519630 
	C16.969856,48.163074 17.051208,46.745533 17.141115,45.178913 
	C18.759630,45.178913 20.044888,45.178913 21.640614,45.178913 
	C21.822166,46.534050 22.011780,47.949360 22.131996,48.846687 
	C24.107630,50.070034 25.814785,51.127132 27.521940,52.184231 
	C27.276545,52.703350 27.031149,53.222466 26.785753,53.741581 
	C25.361212,53.896694 23.936672,54.051807 22.216722,54.239086 
	C22.083990,55.686897 21.953842,57.106533 21.769464,59.117687 
	C20.083529,58.811523 18.592344,58.540726 17.056950,57.828831 
z"/>
<path fill="#FEA832" opacity="1.000000" stroke="none" 
	d="
M107.421051,62.409790 
	C108.900261,62.100033 110.061684,62.100033 111.550980,62.100033 
	C111.801117,63.578892 112.061089,65.115921 112.354294,66.849442 
	C113.863739,66.962654 115.291679,67.069756 116.719612,67.176857 
	C116.983467,67.644791 117.247314,68.112717 117.511169,68.580643 
	C116.054955,69.687805 114.598747,70.794968 113.142532,71.902138 
	C112.870323,71.655807 112.598114,71.409477 112.325897,71.163147 
	C112.141541,72.581017 111.957184,73.998886 111.728455,75.757988 
	C110.371681,75.829636 108.967575,75.903778 107.257561,75.994072 
	C107.091255,74.334618 106.949120,72.916351 106.796745,71.395943 
	C105.091415,70.316612 100.366608,72.434990 102.484055,67.110634 
	C103.774948,67.041901 105.194435,66.966331 106.806129,66.880524 
	C106.918655,65.304832 107.010963,64.012192 107.421051,62.409790 
z"/>
<path fill="#FD9823" opacity="1.000000" stroke="none" 
	d="
M95.275513,79.003067 
	C95.058022,78.751198 95.203583,78.483047 95.644806,78.138031 
	C95.734955,78.312775 95.634323,78.621315 95.275513,79.003067 
z"/>
<path fill="#FEA932" opacity="1.000000" stroke="none" 
	d="
M50.566429,46.363384 
	C64.273888,50.232635 75.833138,57.198799 86.395775,65.961662 
	C87.276993,66.692726 88.185875,67.573257 88.646194,68.582977 
	C89.231956,69.867828 89.990204,71.641617 89.514648,72.666771 
	C89.119965,73.517601 86.951729,74.122635 85.735626,73.905281 
	C82.341034,73.298569 78.831810,72.648033 75.727364,71.228539 
	C65.452477,66.530365 55.385796,61.368973 47.567753,52.912033 
	C46.357929,51.603344 46.065800,49.446278 45.349285,47.681545 
	C46.960438,47.200680 48.571594,46.719814 50.566429,46.363384 
z"/>
</svg>