<svg version="1.1" id="Layer_1" xmlns="http://www.w3.org/2000/svg" xmlns:xlink="http://www.w3.org/1999/xlink" x="0px" y="0px"
	 width="100%" viewBox="0 0 128 128" enable-background="new 0 0 128 128" xml:space="preserve">
<path fill="#F8D941" opacity="1.000000" stroke="none" 
	d="
M18.000000,1.000000 
	C33.354229,1.000000 48.708454,1.000000 64.194809,1.346740 
	C67.159760,2.128472 69.980705,2.802493 72.828117,2.943982 
	C77.415710,3.171941 80.124763,5.943991 80.849113,9.841330 
	C81.800644,14.960955 81.814583,20.277830 81.964867,25.517532 
	C82.150391,31.985973 82.061722,38.462280 81.885559,45.298416 
	C81.411224,48.288685 81.111504,50.912979 80.880417,53.543297 
	C80.207970,61.197372 77.562355,63.671242 69.847763,64.015060 
	C63.224033,64.310272 56.605534,64.722954 49.569664,65.023666 
	C47.761993,65.025208 46.369381,65.086769 44.551735,65.083603 
	C41.469307,65.515068 38.168194,65.196724 36.291065,66.680206 
	C32.598721,69.598267 29.971962,73.838478 26.375195,76.912567 
	C23.854380,79.067055 20.089636,81.931198 17.532829,81.390915 
	C13.281117,80.492500 15.084641,75.575096 15.093148,72.342270 
	C15.105022,67.830261 13.751024,64.740738 8.944095,63.462254 
	C7.684416,56.168774 5.809345,49.267761 5.467143,42.291550 
	C4.818659,29.071465 3.643626,15.639365 10.460312,3.103338 
	C12.842122,3.007264 14.799265,3.115249 16.711727,2.871981 
	C17.212423,2.808292 17.574345,1.653629 18.000000,1.000000 
M26.824593,37.837860 
	C26.869240,39.523926 26.298063,41.581390 27.055622,42.837502 
	C33.310684,53.209015 48.892727,53.385799 55.488224,43.165932 
	C56.352318,41.827000 56.040813,39.729378 56.273808,37.983162 
	C54.975288,38.962139 53.363819,39.707325 52.429306,40.958244 
	C46.597019,48.765228 36.134415,48.818192 30.397964,40.985062 
	C29.552402,39.830448 28.501547,38.826180 26.824593,37.837860 
M32.008835,23.838207 
	C30.495171,21.974379 28.981504,20.110550 27.467842,18.246721 
	C26.230270,20.028267 24.288681,21.673483 23.911428,23.621626 
	C23.259647,26.987469 23.142122,31.577692 27.575874,31.982824 
	C31.995949,32.386707 31.867619,27.963886 32.008835,23.838207 
M58.151318,20.761938 
	C56.568996,20.098265 54.986675,19.434591 53.404354,18.770920 
	C52.621662,21.950680 51.400085,25.113400 51.275623,28.318718 
	C51.226891,29.573814 53.455284,31.359520 55.019749,32.020966 
	C55.660156,32.291725 58.043591,30.392809 58.309105,29.188744 
	C58.853546,26.719776 58.503304,24.053522 58.151318,20.761938 
z"/>
<path fill="#000000" opacity="1.000000" stroke="none" 
	d="
M9.020794,63.820766 
	C13.751024,64.740738 15.105022,67.830261 15.093148,72.342270 
	C15.084641,75.575096 13.281117,80.492500 17.532829,81.390915 
	C20.089636,81.931198 23.854380,79.067055 26.375195,76.912567 
	C29.971962,73.838478 32.598721,69.598267 36.291065,66.680206 
	C38.168194,65.196724 41.469307,65.515068 44.558662,65.541931 
	C44.986786,75.730232 44.419918,85.437607 45.138809,95.048805 
	C45.845505,104.496941 45.411343,108.059517 54.483658,109.888229 
	C66.025070,110.300468 77.109184,110.650757 88.193359,110.998985 
	C88.692490,111.014664 89.400703,110.796661 89.661087,111.049049 
	C95.803276,117.002556 101.897217,123.005844 108.000000,129.000000 
	C72.421692,129.000000 36.843384,129.000000 1.000000,129.000000 
	C1.000000,105.979782 1.000000,82.958549 1.258318,59.143372 
	C4.076467,60.093044 4.412762,64.886337 9.020794,63.820766 
z"/>
<path fill="#79D0B1" opacity="1.000000" stroke="none" 
	d="
M108.416664,129.000000 
	C101.897217,123.005844 95.803276,117.002556 89.661087,111.049049 
	C89.400703,110.796661 88.692490,111.014664 88.193359,110.998985 
	C77.109184,110.650757 66.025070,110.300468 54.405800,109.541367 
	C52.896671,106.540047 51.203159,103.983757 51.071960,101.349663 
	C50.470444,89.272919 50.306049,77.174393 49.984722,65.083687 
	C56.605534,64.722954 63.224033,64.310272 69.847763,64.015060 
	C77.562355,63.671242 80.207970,61.197372 80.880417,53.543297 
	C81.111504,50.912979 81.411224,48.288685 82.347099,45.326752 
	C89.157516,44.994762 95.403473,44.289555 101.419365,45.165134 
	C110.635567,46.506504 121.112953,42.888912 128.702225,51.399254 
	C128.801483,51.266174 128.900742,51.133091 129.000000,51.000000 
	C129.000000,68.687561 129.000000,86.375122 128.752441,104.184891 
	C125.557327,107.323143 122.783409,110.393219 117.873711,110.288719 
	C116.948090,110.269012 115.443260,113.093193 115.099167,114.786636 
	C114.146919,119.473114 113.666771,124.255516 113.000000,129.000000 
	C111.611107,129.000000 110.222221,129.000000 108.416664,129.000000 
M79.411766,99.517822 
	C87.633156,99.884369 95.854408,100.401505 104.076149,100.409561 
	C105.008606,100.410477 105.943878,97.547905 106.713188,95.386963 
	C105.929916,94.457237 105.146645,93.527504 105.177505,93.564133 
	C106.575554,89.913208 107.825661,87.248489 108.580399,84.450165 
	C109.025116,82.801323 108.777283,80.934357 108.659958,79.177574 
	C108.594589,78.198990 107.690407,77.077591 107.966141,76.307777 
	C109.588036,71.779678 106.902779,70.570282 103.359604,70.239304 
	C100.680458,69.989029 97.959183,70.189728 94.323036,70.189728 
	C95.865044,66.747604 97.294540,64.603127 97.726334,62.273712 
	C98.095894,60.279995 97.321976,58.074318 96.687607,55.367256 
	C92.956841,52.796295 90.782646,54.767456 88.660057,57.842995 
	C86.467896,61.019344 83.845634,63.895500 81.539566,66.998146 
	C80.500275,68.396461 79.771690,70.025726 78.112312,71.337250 
	C77.168678,71.035576 76.245293,70.608360 75.278168,70.452431 
	C68.606239,69.376678 66.952843,70.774117 66.977539,77.542549 
	C66.995033,82.336166 67.130836,87.129364 67.050827,92.794907 
	C66.905746,99.775871 67.647415,100.522842 74.520432,99.944611 
	C75.968063,99.822823 77.383324,99.316216 79.411766,99.517822 
z"/>
<path fill="#000000" opacity="1.000000" stroke="none" 
	d="
M129.000000,50.531342 
	C128.900742,51.133091 128.801483,51.266174 128.702225,51.399254 
	C121.112953,42.888912 110.635567,46.506504 101.419365,45.165134 
	C95.403473,44.289555 89.157516,44.994762 82.553070,44.963524 
	C82.061722,38.462280 82.150391,31.985973 81.964867,25.517532 
	C81.814583,20.277830 81.800644,14.960955 80.849113,9.841330 
	C80.124763,5.943991 77.415710,3.171941 72.828117,2.943982 
	C69.980705,2.802493 67.159760,2.128472 64.663467,1.346740 
	C86.251137,1.000000 107.502266,1.000000 129.000000,1.000000 
	C129.000000,17.353401 129.000000,33.708042 129.000000,50.531342 
z"/>
<path fill="#000000" opacity="1.000000" stroke="none" 
	d="
M113.471199,129.000000 
	C113.666771,124.255516 114.146919,119.473114 115.099167,114.786636 
	C115.443260,113.093193 116.948090,110.269012 117.873711,110.288719 
	C122.783409,110.393219 125.557327,107.323143 128.752441,104.653549 
	C129.000000,112.910400 129.000000,120.820801 129.000000,129.000000 
	C123.983963,129.000000 118.963181,129.000000 113.471199,129.000000 
z"/>
<path fill="#EECA33" opacity="1.000000" stroke="none" 
	d="
M8.944095,63.462254 
	C4.412762,64.886337 4.076467,60.093044 1.258318,58.674713 
	C1.000000,42.312439 1.000000,25.624876 1.260544,8.794727 
	C3.958498,6.213518 5.394170,2.220337 10.018957,3.176223 
	C3.643626,15.639365 4.818659,29.071465 5.467143,42.291550 
	C5.809345,49.267761 7.684416,56.168774 8.944095,63.462254 
z"/>
<path fill="#000000" opacity="1.000000" stroke="none" 
	d="
M10.460312,3.103338 
	C5.394170,2.220337 3.958498,6.213518 1.260544,8.326070 
	C1.000000,5.710444 1.000000,3.420889 1.000000,1.000000 
	C6.352559,1.000000 11.705826,1.000000 17.529547,1.000000 
	C17.574345,1.653629 17.212423,2.808292 16.711727,2.871981 
	C14.799265,3.115249 12.842122,3.007264 10.460312,3.103338 
z"/>
<path fill="#68B79F" opacity="1.000000" stroke="none" 
	d="
M49.569664,65.023666 
	C50.306049,77.174393 50.470444,89.272919 51.071960,101.349663 
	C51.203159,103.983757 52.896671,106.540047 53.948509,109.479019 
	C45.411343,108.059517 45.845505,104.496941 45.138809,95.048805 
	C44.419918,85.437607 44.986786,75.730232 44.983704,65.606651 
	C46.369381,65.086769 47.761993,65.025208 49.569664,65.023666 
z"/>
<path fill="#324568" opacity="1.000000" stroke="none" 
	d="
M27.185135,37.795105 
	C28.501547,38.826180 29.552402,39.830448 30.397964,40.985062 
	C36.134415,48.818192 46.597019,48.765228 52.429306,40.958244 
	C53.363819,39.707325 54.975288,38.962139 56.273808,37.983162 
	C56.040813,39.729378 56.352318,41.827000 55.488224,43.165932 
	C48.892727,53.385799 33.310684,53.209015 27.055622,42.837502 
	C26.298063,41.581390 26.869240,39.523926 27.185135,37.795105 
z"/>
<path fill="#283D6A" opacity="1.000000" stroke="none" 
	d="
M32.032440,24.248917 
	C31.867619,27.963886 31.995949,32.386707 27.575874,31.982824 
	C23.142122,31.577692 23.259647,26.987469 23.911428,23.621626 
	C24.288681,21.673483 26.230270,20.028267 27.467842,18.246721 
	C28.981504,20.110550 30.495171,21.974379 32.032440,24.248917 
z"/>
<path fill="#283E6A" opacity="1.000000" stroke="none" 
	d="
M58.336357,21.115213 
	C58.503304,24.053522 58.853546,26.719776 58.309105,29.188744 
	C58.043591,30.392809 55.660156,32.291725 55.019749,32.020966 
	C53.455284,31.359520 51.226891,29.573814 51.275623,28.318718 
	C51.400085,25.113400 52.621662,21.950680 53.404354,18.770920 
	C54.986675,19.434591 56.568996,20.098265 58.336357,21.115213 
z"/>
<path fill="#FEDCCD" opacity="1.000000" stroke="none" 
	d="
M97.053810,55.962391 
	C97.321976,58.074318 98.095894,60.279995 97.726334,62.273712 
	C97.294540,64.603127 95.865044,66.747604 94.323036,70.189728 
	C97.959183,70.189728 100.680458,69.989029 103.359604,70.239304 
	C106.902779,70.570282 109.588036,71.779678 107.966141,76.307777 
	C107.690407,77.077591 108.594589,78.198990 108.659958,79.177574 
	C108.777283,80.934357 109.025116,82.801323 108.580399,84.450165 
	C107.825661,87.248489 106.575554,89.913208 105.177505,93.564133 
	C105.146645,93.527504 105.929916,94.457237 106.479843,95.905594 
	C104.234787,96.950684 102.233635,97.877808 100.209457,97.931168 
	C93.127937,98.117859 86.038475,98.003044 78.955658,97.573265 
	C78.945976,95.422684 78.932671,93.701599 78.931770,91.515076 
	C78.964745,86.034439 78.985313,81.019241 79.232719,75.747093 
	C81.077065,73.263931 82.596321,70.957367 84.335625,68.830750 
	C86.808792,65.806824 89.349037,62.824646 92.047249,60.003094 
	C93.517181,58.465969 95.372375,57.297260 97.053810,55.962391 
z"/>
<path fill="#EFF3F4" opacity="1.000000" stroke="none" 
	d="
M79.005882,76.004036 
	C78.985313,81.019241 78.964745,86.034439 78.481644,91.519066 
	C74.417358,91.966576 70.815590,91.944664 67.213829,91.922745 
	C67.130836,87.129364 66.995033,82.336166 66.977539,77.542549 
	C66.952843,70.774117 68.606239,69.376678 75.278168,70.452431 
	C76.245293,70.608360 77.168678,71.035576 78.509171,71.796265 
	C78.939323,73.504868 78.972603,74.754448 79.005882,76.004036 
z"/>
<path fill="#D2E3E7" opacity="1.000000" stroke="none" 
	d="
M67.132324,92.358826 
	C70.815590,91.944664 74.417358,91.966576 78.469238,91.984497 
	C78.932671,93.701599 78.945976,95.422684 78.919937,97.819092 
	C78.880592,98.494415 78.813499,98.986916 78.813499,98.986916 
	C77.383324,99.316216 75.968063,99.822823 74.520432,99.944611 
	C67.647415,100.522842 66.905746,99.775871 67.132324,92.358826 
z"/>
<path fill="#F9CDBF" opacity="1.000000" stroke="none" 
	d="
M79.232719,75.747093 
	C78.972603,74.754448 78.939323,73.504868 78.904083,71.902740 
	C79.771690,70.025726 80.500275,68.396461 81.539566,66.998146 
	C83.845634,63.895500 86.467896,61.019344 88.660057,57.842995 
	C90.782646,54.767456 92.956841,52.796295 96.870712,55.664825 
	C95.372375,57.297260 93.517181,58.465969 92.047249,60.003094 
	C89.349037,62.824646 86.808792,65.806824 84.335625,68.830750 
	C82.596321,70.957367 81.077065,73.263931 79.232719,75.747093 
z"/>
<path fill="#F3CDBE" opacity="1.000000" stroke="none" 
	d="
M79.112633,99.252365 
	C78.813499,98.986916 78.880592,98.494415 78.916306,98.248589 
	C86.038475,98.003044 93.127937,98.117859 100.209457,97.931168 
	C102.233635,97.877808 104.234787,96.950684 106.562172,96.218674 
	C105.943878,97.547905 105.008606,100.410477 104.076149,100.409561 
	C95.854408,100.401505 87.633156,99.884369 79.112633,99.252365 
z"/>
</svg>