<svg version="1.1" id="Layer_1" xmlns="http://www.w3.org/2000/svg" xmlns:xlink="http://www.w3.org/1999/xlink" x="0px" y="0px"
	 width="100%" viewBox="0 0 512 512" enable-background="new 0 0 512 512" xml:space="preserve">
<path fill="#DDF4FE" opacity="1.000000" stroke="none" 
	d="
M101.000000,1.000000 
	C218.022018,1.000000 335.044037,1.000000 452.537811,1.468639 
	C453.010864,27.102667 453.013062,52.268059 453.013214,77.433449 
	C453.013489,118.931343 452.965546,160.429367 453.071960,201.926987 
	C453.085083,207.043213 451.471741,211.357834 446.553650,212.358582 
	C443.237183,213.033417 438.780975,212.172852 435.909546,210.326965 
	C412.521667,195.292145 387.178467,190.970245 360.497131,197.500046 
	C319.050690,207.643402 290.066864,245.551422 290.001251,288.160919 
	C289.988098,296.690735 285.743378,300.983429 277.153564,300.985413 
	C217.156616,300.999298 157.159668,300.989563 97.088745,300.524719 
	C97.009407,209.101974 96.980766,118.141891 97.035492,27.181866 
	C97.040833,18.293446 95.285698,9.057815 101.000000,1.000000 
M381.230286,44.600082 
	C377.768524,44.703701 374.306824,44.896641 370.845032,44.897678 
	C308.703979,44.916294 246.562912,44.904701 184.421860,44.917450 
	C170.455032,44.920315 162.024445,53.308735 162.013062,67.222397 
	C161.989487,96.043831 162.002731,124.865311 162.006409,153.686768 
	C162.008484,169.952148 169.984055,177.979477 186.186691,177.981613 
	C247.827957,177.989777 309.469208,177.987091 371.110474,177.979202 
	C374.106781,177.978821 377.103119,177.890823 381.014496,177.948151 
	C386.173798,177.959869 391.338837,178.132660 396.491180,177.949265 
	C406.761444,177.583740 415.909454,168.452133 415.949951,158.181747 
	C416.072662,127.058502 416.066376,95.934227 415.957733,64.810890 
	C415.919403,53.831703 407.376190,45.259850 396.384094,44.863873 
	C391.565704,44.690300 386.734436,44.873787 381.230286,44.600082 
M299.898956,225.718262 
	C303.881653,221.127625 304.163910,216.474365 300.092926,213.697754 
	C298.212158,212.414978 295.459747,211.908798 293.100525,211.903168 
	C250.134247,211.800537 207.167648,211.826752 164.201126,211.832794 
	C163.037003,211.832962 161.845901,211.769806 160.713562,211.982300 
	C156.494568,212.774002 154.253113,215.596603 154.308655,219.676285 
	C154.360901,223.513931 156.535492,226.251129 160.523209,227.033112 
	C161.814545,227.286346 163.176636,227.228470 164.506393,227.228729 
	C207.306381,227.237137 250.106400,227.250504 292.906311,227.188828 
	C295.003479,227.185806 297.099640,226.513077 299.898956,225.718262 
M242.490387,297.048035 
	C246.315384,297.039185 250.149414,297.191620 253.962997,296.978455 
	C258.221191,296.740479 261.223877,293.656433 261.291870,289.623077 
	C261.367279,285.149200 259.061737,282.440399 254.683502,281.627686 
	C253.227997,281.357483 251.706375,281.377228 250.214935,281.376526 
	C221.942474,281.363312 193.669998,281.358612 165.397568,281.386353 
	C163.582718,281.388123 161.698349,281.407806 159.967606,281.871704 
	C156.098541,282.908630 154.096252,285.771729 154.276413,289.638611 
	C154.457138,293.517761 156.793823,296.103729 160.681808,296.875153 
	C162.288361,297.193909 163.995483,297.041992 165.656891,297.042511 
	C190.935791,297.050385 216.214706,297.048065 242.490387,297.048035 
M252.202332,246.694839 
	C222.719025,246.694778 193.235687,246.675552 163.752411,246.710571 
	C157.751556,246.717697 154.114578,249.783676 154.202011,254.498383 
	C154.287857,259.127533 157.774948,262.095947 163.444016,262.102325 
	C193.093872,262.135742 222.743790,262.138580 252.393616,262.099152 
	C257.901825,262.091827 261.066467,259.352112 261.252502,254.761658 
	C261.441772,250.091629 258.843964,247.516708 252.202332,246.694839 
z"/>
<path fill="#000000" opacity="1.000000" stroke="none" 
	d="
M100.531342,1.000000 
	C95.285698,9.057815 97.040833,18.293446 97.035492,27.181866 
	C96.980766,118.141891 97.009407,209.101974 97.009735,300.987915 
	C96.978416,308.243652 96.952126,314.573456 96.463547,320.945557 
	C78.693527,320.991699 61.385769,320.976624 44.078091,321.008240 
	C36.523151,321.022034 33.000618,324.605133 33.000362,332.149628 
	C32.998623,383.573608 32.905972,434.997955 33.088058,486.421295 
	C33.119797,495.384827 30.640696,504.897003 37.000000,513.000000 
	C25.008106,513.000000 13.016212,513.000000 1.018239,513.000000 
	C1.012159,342.456726 1.012159,171.913452 1.012159,1.000000 
	C34.019974,1.000000 67.041328,1.000000 100.531342,1.000000 
z"/>
<path fill="#ABDE97" opacity="1.000000" stroke="none" 
	d="
M37.468658,513.000000 
	C30.640696,504.897003 33.119797,495.384827 33.088058,486.421295 
	C32.905972,434.997955 32.998623,383.573608 33.000362,332.149628 
	C33.000618,324.605133 36.523151,321.022034 44.078091,321.008240 
	C61.385769,320.976624 78.693527,320.991699 96.775673,321.227539 
	C99.025887,321.608948 100.501656,321.874115 101.977509,321.874542 
	C172.353973,321.894897 242.730438,321.899292 313.106873,321.851959 
	C314.859619,321.850769 316.612000,321.248657 318.580078,321.162231 
	C322.171631,326.301849 325.547668,331.206055 329.173431,336.253479 
	C329.596619,336.314484 329.770081,336.232269 329.937744,336.107849 
	C329.931946,336.065674 329.859924,336.111084 329.809021,336.459534 
	C336.358734,345.546844 345.641510,350.686890 355.016693,356.146851 
	C354.988647,408.757355 354.994324,460.878662 355.000000,513.000000 
	C249.312439,513.000000 143.624878,513.000000 37.468658,513.000000 
M301.071472,354.972260 
	C234.765152,354.966919 168.458771,354.998230 102.152603,354.892059 
	C96.369835,354.882812 92.564262,357.261292 90.423096,362.367828 
	C87.356804,369.680634 82.052673,374.746948 74.919815,377.799133 
	C69.651756,380.053375 67.133873,383.885071 67.114403,389.385712 
	C67.047752,408.211151 67.024361,427.037323 67.130875,445.862396 
	C67.161598,451.291626 69.727028,454.948090 74.866264,457.562592 
	C79.602837,459.972260 83.614914,463.806091 88.050652,467.731262 
	C88.870094,469.549957 89.812569,471.324432 90.485695,473.195740 
	C92.434860,478.614349 96.357124,480.969849 101.963799,480.969116 
	C169.090210,480.960358 236.216629,480.957520 303.343048,480.972931 
	C309.039764,480.974243 312.926636,478.307648 314.752838,473.028168 
	C317.391846,465.398987 322.595154,460.510925 329.959930,457.574066 
	C336.231659,455.073120 337.991638,452.299011 337.995544,445.390106 
	C338.005890,427.067749 337.880676,408.744232 338.062653,390.423706 
	C338.127136,383.929901 335.646851,379.694458 329.522491,377.349396 
	C322.832367,374.787750 318.135773,369.971039 315.304810,363.409271 
	C312.125885,356.040863 310.195465,354.774597 301.071472,354.972260 
z"/>
<path fill="#C1E9F3" opacity="1.000000" stroke="none" 
	d="
M318.364532,320.926819 
	C316.612000,321.248657 314.859619,321.850769 313.106873,321.851959 
	C242.730438,321.899292 172.353973,321.894897 101.977509,321.874542 
	C100.501656,321.874115 99.025887,321.608948 97.237961,321.185303 
	C96.952126,314.573456 96.978416,308.243652 97.083710,301.450592 
	C157.159668,300.989563 217.156616,300.999298 277.153564,300.985413 
	C285.743378,300.983429 289.988098,296.690735 290.001251,288.160919 
	C290.066864,245.551422 319.050690,207.643402 360.497131,197.500046 
	C387.178467,190.970245 412.521667,195.292145 435.909546,210.326965 
	C438.780975,212.172852 443.237183,213.033417 446.553650,212.358582 
	C451.471741,211.357834 453.085083,207.043213 453.071960,201.926987 
	C452.965546,160.429367 453.013489,118.931343 453.013214,77.433449 
	C453.013062,52.268059 453.010864,27.102667 453.004791,1.468639 
	C460.687592,1.000000 468.375153,1.000000 476.238525,1.297828 
	C479.671265,5.104775 481.094910,9.087749 481.091858,14.035082 
	C480.994812,171.955902 481.020264,329.876801 480.989655,487.797668 
	C480.988007,496.383514 482.536224,505.267670 477.000000,513.000000 
	C469.312408,513.000000 461.624847,513.000000 453.473267,512.531372 
	C453.010071,466.232178 453.037903,420.401581 452.932434,374.571320 
	C452.927124,372.259583 452.392792,369.462860 451.035156,367.729889 
	C446.643036,362.123352 442.583252,361.813965 436.301300,365.824158 
	C426.136261,372.313202 415.296234,377.286835 403.484192,379.881744 
	C395.849579,381.558960 393.004272,384.764984 393.003113,392.507385 
	C392.996979,432.671600 393.000092,472.835785 393.000000,513.000000 
	C383.979095,513.000000 374.958221,513.000000 365.685730,512.741699 
	C371.040558,510.077148 372.248047,505.527405 372.237640,499.875763 
	C372.152313,453.414215 372.223022,406.952393 372.691589,360.554443 
	C382.706879,360.062775 392.679626,361.045563 401.772125,358.665466 
	C429.838379,351.318695 448.128448,332.886963 454.649689,304.642517 
	C461.162506,276.434448 452.802917,252.183533 430.793121,232.571060 
	C428.750641,230.920120 426.886841,229.524704 424.967590,228.210236 
	C388.152222,202.995895 337.741058,216.181900 318.265564,256.326660 
	C307.865234,277.764771 308.610016,299.407776 318.364532,320.926819 
z"/>
<path fill="#000000" opacity="1.000000" stroke="none" 
	d="
M477.468658,513.000000 
	C482.536224,505.267670 480.988007,496.383514 480.989655,487.797668 
	C481.020264,329.876801 480.994812,171.955902 481.091858,14.035082 
	C481.094910,9.087749 479.671265,5.104775 476.707153,1.297828 
	C488.990997,1.000000 500.982025,1.000000 512.955444,1.000000 
	C512.955444,171.666672 512.955444,342.333344 512.955444,513.000000 
	C501.253082,513.000000 489.595184,513.000000 477.468658,513.000000 
z"/>
<path fill="#DDF5FF" opacity="1.000000" stroke="none" 
	d="
M393.468658,513.000000 
	C393.000092,472.835785 392.996979,432.671600 393.003113,392.507385 
	C393.004272,384.764984 395.849579,381.558960 403.484192,379.881744 
	C415.296234,377.286835 426.136261,372.313202 436.301300,365.824158 
	C442.583252,361.813965 446.643036,362.123352 451.035156,367.729889 
	C452.392792,369.462860 452.927124,372.259583 452.932434,374.571320 
	C453.037903,420.401581 453.010071,466.232178 453.004639,512.531372 
	C433.312439,513.000000 413.624878,513.000000 393.468658,513.000000 
z"/>
<path fill="#82CD64" opacity="1.000000" stroke="none" 
	d="
M372.246368,360.490631 
	C372.223022,406.952393 372.152313,453.414215 372.237640,499.875763 
	C372.248047,505.527405 371.040558,510.077148 365.217102,512.741699 
	C361.969391,513.000000 358.938812,513.000000 355.454102,513.000000 
	C354.994324,460.878662 354.988647,408.757355 355.398743,356.241669 
	C361.291809,357.395111 366.769073,358.942871 372.246368,360.490631 
z"/>
<path fill="#FEDA88" opacity="1.000000" stroke="none" 
	d="
M380.099426,177.843628 
	C377.103119,177.890823 374.106781,177.978821 371.110474,177.979202 
	C309.469208,177.987091 247.827957,177.989777 186.186691,177.981613 
	C169.984055,177.979477 162.008484,169.952148 162.006409,153.686768 
	C162.002731,124.865311 161.989487,96.043831 162.013062,67.222397 
	C162.024445,53.308735 170.455032,44.920315 184.421860,44.917450 
	C246.562912,44.904701 308.703979,44.916294 370.845032,44.897678 
	C374.306824,44.896641 377.768524,44.703701 381.777496,45.030483 
	C392.456207,50.312099 396.373901,58.204594 396.166992,69.521561 
	C395.659729,97.261887 395.658142,125.023888 396.156891,152.764526 
	C396.380920,165.226196 391.493866,173.349197 380.099426,177.843628 
M260.252686,115.499969 
	C260.255493,125.162582 259.914215,134.845230 260.475037,144.475357 
	C260.639008,147.291183 262.768311,150.946487 265.117340,152.377075 
	C266.971100,153.506042 271.097260,152.598770 273.180389,151.129852 
	C274.905731,149.913193 275.789917,146.581772 275.884460,144.142227 
	C276.204010,135.898499 276.006256,127.634735 276.006256,119.357162 
	C285.001099,119.357162 293.254700,119.357162 301.993591,119.357162 
	C301.993591,127.748543 301.957520,135.869781 302.005737,143.990509 
	C302.040222,149.793564 304.770905,153.112167 309.489655,153.272995 
	C314.510406,153.444138 317.676453,150.154068 317.707520,144.142151 
	C317.803925,125.483742 317.887268,106.822945 317.687042,88.166176 
	C317.563904,76.687920 309.798157,69.248650 298.320038,69.081863 
	C292.323792,68.994728 286.324860,69.022232 280.327789,69.072517 
	C267.953400,69.176270 260.397247,76.657333 260.270966,89.010712 
	C260.184113,97.506302 260.253510,106.003487 260.252686,115.499969 
M365.070374,92.599411 
	C364.411255,93.488411 363.752136,94.377411 362.672821,95.833160 
	C358.164551,88.396965 354.001404,81.447403 349.753357,74.550125 
	C346.522461,69.304237 342.344299,67.820724 338.165863,70.293388 
	C334.020935,72.746208 333.223877,77.322800 336.263428,82.435196 
	C341.112732,90.591591 345.858429,98.825180 351.103333,106.723747 
	C353.449890,110.257576 353.063324,112.802834 350.946045,116.117577 
	C345.660095,124.393013 340.692291,132.872040 335.619232,141.282913 
	C333.700043,144.464844 333.329071,148.129471 336.234039,150.389206 
	C338.406403,152.079025 342.011597,153.072235 344.677032,152.615311 
	C346.757568,152.258636 348.741699,149.433960 350.128723,147.291641 
	C354.418457,140.666046 358.402252,133.842316 362.901245,126.443642 
	C367.577667,134.147568 371.665619,141.166183 376.078491,147.974213 
	C377.360931,149.952759 379.417938,152.430038 381.396545,152.707779 
	C383.976379,153.069916 387.457672,152.207657 389.422089,150.541321 
	C392.390808,148.023071 391.901611,144.193207 389.942810,140.914032 
	C384.735046,132.196014 379.545074,123.463264 374.104034,114.891228 
	C372.423431,112.243584 372.515259,110.266151 374.133301,107.696411 
	C379.454956,99.244560 384.622406,90.693672 389.734100,82.112328 
	C392.572174,77.347893 391.665863,72.751915 387.664185,70.313202 
	C383.640320,67.860954 379.392975,69.193375 376.354004,74.061050 
	C372.651489,79.991608 369.084961,86.007095 365.070374,92.599411 
M207.182404,105.500160 
	C207.182709,118.145409 207.151291,130.790771 207.196472,143.435867 
	C207.219528,149.891464 210.075531,153.322296 215.193420,153.272659 
	C220.293579,153.223206 222.950409,149.850372 222.959091,143.250778 
	C222.982269,125.613960 222.967194,107.977089 222.967331,90.340233 
	C222.967346,88.595100 222.967331,86.849960 222.967331,84.896332 
	C227.273026,84.896332 230.763184,84.955223 234.250626,84.883026 
	C240.006317,84.763878 243.846786,81.486603 243.769257,76.863792 
	C243.690720,72.179550 239.967239,69.105431 234.050568,69.078949 
	C221.405533,69.022331 208.759888,69.022758 196.114853,69.080093 
	C190.197678,69.106926 186.565399,72.175728 186.538055,76.930244 
	C186.510727,81.681496 190.159256,84.774078 196.038437,84.882904 
	C199.631119,84.949417 203.226028,84.895195 206.583145,84.895195 
	C206.906311,85.919479 207.085999,86.226608 207.088257,86.535034 
	C207.132095,92.523392 207.155212,98.511894 207.182404,105.500160 
z"/>
<path fill="#FFCD6A" opacity="1.000000" stroke="none" 
	d="
M380.556946,177.895905 
	C391.493866,173.349197 396.380920,165.226196 396.156891,152.764526 
	C395.658142,125.023888 395.659729,97.261887 396.166992,69.521561 
	C396.373901,58.204594 392.456207,50.312099 382.116882,45.178013 
	C386.734436,44.873787 391.565704,44.690300 396.384094,44.863873 
	C407.376190,45.259850 415.919403,53.831703 415.957733,64.810890 
	C416.066376,95.934227 416.072662,127.058502 415.949951,158.181747 
	C415.909454,168.452133 406.761444,177.583740 396.491180,177.949265 
	C391.338837,178.132660 386.173798,177.959869 380.556946,177.895905 
z"/>
<path fill="#495959" opacity="1.000000" stroke="none" 
	d="
M299.547607,225.935226 
	C297.099640,226.513077 295.003479,227.185806 292.906311,227.188828 
	C250.106400,227.250504 207.306381,227.237137 164.506393,227.228729 
	C163.176636,227.228470 161.814545,227.286346 160.523209,227.033112 
	C156.535492,226.251129 154.360901,223.513931 154.308655,219.676285 
	C154.253113,215.596603 156.494568,212.774002 160.713562,211.982300 
	C161.845901,211.769806 163.037003,211.832962 164.201126,211.832794 
	C207.167648,211.826752 250.134247,211.800537 293.100525,211.903168 
	C295.459747,211.908798 298.212158,212.414978 300.092926,213.697754 
	C304.163910,216.474365 303.881653,221.127625 299.547607,225.935226 
z"/>
<path fill="#4D5D5E" opacity="1.000000" stroke="none" 
	d="
M241.992004,297.048035 
	C216.214706,297.048065 190.935791,297.050385 165.656891,297.042511 
	C163.995483,297.041992 162.288361,297.193909 160.681808,296.875153 
	C156.793823,296.103729 154.457138,293.517761 154.276413,289.638611 
	C154.096252,285.771729 156.098541,282.908630 159.967606,281.871704 
	C161.698349,281.407806 163.582718,281.388123 165.397568,281.386353 
	C193.669998,281.358612 221.942474,281.363312 250.214935,281.376526 
	C251.706375,281.377228 253.227997,281.357483 254.683502,281.627686 
	C259.061737,282.440399 261.367279,285.149200 261.291870,289.623077 
	C261.223877,293.656433 258.221191,296.740479 253.962997,296.978455 
	C250.149414,297.191620 246.315384,297.039185 241.992004,297.048035 
z"/>
<path fill="#4A5A5A" opacity="1.000000" stroke="none" 
	d="
M252.662537,246.699188 
	C258.843964,247.516708 261.441772,250.091629 261.252502,254.761658 
	C261.066467,259.352112 257.901825,262.091827 252.393616,262.099152 
	C222.743790,262.138580 193.093872,262.135742 163.444016,262.102325 
	C157.774948,262.095947 154.287857,259.127533 154.202011,254.498383 
	C154.114578,249.783676 157.751556,246.717697 163.752411,246.710571 
	C193.235687,246.675552 222.719025,246.694778 252.662537,246.699188 
z"/>
<path fill="#6DC54A" opacity="1.000000" stroke="none" 
	d="
M87.946129,467.012573 
	C83.614914,463.806091 79.602837,459.972260 74.866264,457.562592 
	C69.727028,454.948090 67.161598,451.291626 67.130875,445.862396 
	C67.024361,427.037323 67.047752,408.211151 67.114403,389.385712 
	C67.133873,383.885071 69.651756,380.053375 74.919815,377.799133 
	C82.052673,374.746948 87.356804,369.680634 90.423096,362.367828 
	C92.564262,357.261292 96.369835,354.882812 102.152603,354.892059 
	C168.458771,354.998230 234.765152,354.966919 301.536377,355.452087 
	C301.222595,371.157349 308.226715,381.899567 320.932739,389.657288 
	C322.563110,390.652710 323.833282,393.578369 323.867523,395.633179 
	C324.114471,410.460480 323.888489,425.295258 324.084351,440.124084 
	C324.128967,443.502075 322.481781,444.749176 320.089539,446.675781 
	C314.467346,451.203674 308.407745,455.847534 304.625946,461.782959 
	C301.841492,466.153015 299.374908,467.066620 294.919128,467.061157 
	C225.928223,466.976532 156.937164,467.007965 87.946129,467.012573 
M165.972000,404.595459 
	C165.320160,408.712860 163.173874,410.379608 158.781387,410.126465 
	C154.372787,409.872437 151.647034,412.658051 151.079926,417.044800 
	C150.598907,420.765839 153.638977,424.217529 157.695343,425.027954 
	C158.831573,425.254944 159.948761,425.770691 161.080338,425.788269 
	C163.602509,425.827484 164.573212,426.921967 165.430313,429.407135 
	C168.475204,438.235931 173.658478,445.378357 181.798111,450.600952 
	C202.010895,463.569946 230.154938,454.876465 238.572174,432.373901 
	C240.156357,428.138733 241.964401,425.903442 246.506775,425.184601 
	C251.952316,424.322815 254.424881,421.127228 253.967941,417.008789 
	C253.487778,412.681183 250.443069,410.093231 245.183701,410.059021 
	C242.104828,410.039032 240.714111,409.233459 239.668152,405.924500 
	C235.449844,392.579468 226.104492,383.634583 212.803421,380.145660 
	C193.459793,375.071747 174.517822,383.920654 165.972000,404.595459 
M133.304337,425.107635 
	C137.512192,424.146118 140.264755,421.825989 139.932922,417.204010 
	C139.647614,413.229797 137.232803,410.329132 133.364914,410.189270 
	C123.716843,409.840485 114.038422,409.854553 104.390205,410.211060 
	C100.300911,410.362122 97.862808,414.003693 98.377426,417.499878 
	C98.772766,420.185669 101.659225,424.420074 103.747498,424.612915 
	C113.267082,425.492096 122.896080,425.186340 133.304337,425.107635 
M279.565552,409.998779 
	C277.071808,410.007538 274.551025,409.786774 272.090393,410.076569 
	C267.954620,410.563690 265.213837,413.050232 265.134918,417.230103 
	C265.059906,421.202545 267.105347,424.707855 271.374756,424.889221 
	C280.755890,425.287811 290.176697,425.365723 299.555084,424.963379 
	C304.405975,424.755249 307.382294,420.805054 306.955627,416.809174 
	C306.527069,412.795532 303.283356,410.095459 298.502655,410.022491 
	C292.518768,409.931122 286.532440,409.999390 279.565552,409.998779 
z"/>
<path fill="#E4646E" opacity="1.000000" stroke="none" 
	d="
M318.580078,321.162231 
	C308.610016,299.407776 307.865234,277.764771 318.265564,256.326660 
	C337.741058,216.181900 388.152222,202.995895 424.967590,228.210236 
	C426.886841,229.524704 428.750641,230.920120 430.814819,232.955139 
	C431.502991,234.824936 431.922607,236.068954 432.543823,237.202499 
	C447.152649,263.858856 447.096313,290.157532 430.002289,315.649231 
	C426.830200,320.379669 421.823486,323.879913 417.813660,327.609314 
	C422.832306,320.496613 422.642303,312.923126 421.043762,305.321686 
	C419.472168,297.848602 413.228088,293.071411 405.651581,292.938904 
	C397.973816,292.804626 391.229462,297.140564 389.799683,304.591156 
	C388.764526,309.985260 388.601807,315.943848 389.764771,321.276764 
	C391.918335,331.151886 400.701599,334.749725 412.846527,332.139587 
	C412.329834,333.284088 411.961700,334.324615 411.226624,334.814026 
	C392.617889,347.203827 372.319336,350.289062 350.901154,344.676758 
	C343.637939,342.773560 336.859741,339.019440 329.859924,336.111084 
	C329.859924,336.111084 329.931946,336.065674 329.864868,335.919556 
	C329.506409,335.885712 329.215057,335.997986 328.923676,336.110291 
	C325.547668,331.206055 322.171631,326.301849 318.580078,321.162231 
M362.849213,311.341858 
	C361.226898,314.435547 359.562408,317.508026 357.992249,320.627960 
	C355.663757,325.254761 356.655975,329.943634 360.342010,332.068695 
	C364.371552,334.391754 369.026123,332.886810 371.716461,328.199158 
	C373.453400,325.172729 374.911133,321.987091 376.527802,318.890411 
	C387.380768,298.102142 398.260132,277.327545 409.089630,256.527008 
	C411.758026,251.401672 411.248962,247.554108 407.763458,244.909714 
	C403.407410,241.604797 398.596832,243.002197 395.553619,248.777100 
	C384.698425,269.376190 373.946991,290.029938 362.849213,311.341858 
M351.113190,279.427582 
	C362.952179,287.941406 376.732178,282.424194 378.510132,268.197998 
	C379.034241,264.004425 378.670959,259.535461 377.826569,255.372787 
	C376.462219,248.646622 370.142029,243.757980 363.133118,243.148865 
	C357.218567,242.634872 349.571381,246.397522 347.722351,252.119629 
	C344.770630,261.254333 343.601135,270.634033 351.113190,279.427582 
z"/>
<path fill="#5EB33B" opacity="1.000000" stroke="none" 
	d="
M87.998390,467.371918 
	C156.937164,467.007965 225.928223,466.976532 294.919128,467.061157 
	C299.374908,467.066620 301.841492,466.153015 304.625946,461.782959 
	C308.407745,455.847534 314.467346,451.203674 320.089539,446.675781 
	C322.481781,444.749176 324.128967,443.502075 324.084351,440.124084 
	C323.888489,425.295258 324.114471,410.460480 323.867523,395.633179 
	C323.833282,393.578369 322.563110,390.652710 320.932739,389.657288 
	C308.226715,381.899567 301.222595,371.157349 302.004944,355.479187 
	C310.195465,354.774597 312.125885,356.040863 315.304810,363.409271 
	C318.135773,369.971039 322.832367,374.787750 329.522491,377.349396 
	C335.646851,379.694458 338.127136,383.929901 338.062653,390.423706 
	C337.880676,408.744232 338.005890,427.067749 337.995544,445.390106 
	C337.991638,452.299011 336.231659,455.073120 329.959930,457.574066 
	C322.595154,460.510925 317.391846,465.398987 314.752838,473.028168 
	C312.926636,478.307648 309.039764,480.974243 303.343048,480.972931 
	C236.216629,480.957520 169.090210,480.960358 101.963799,480.969116 
	C96.357124,480.969849 92.434860,478.614349 90.485695,473.195740 
	C89.812569,471.324432 88.870094,469.549957 87.998390,467.371918 
z"/>
<path fill="#E04B57" opacity="1.000000" stroke="none" 
	d="
M417.663483,327.947906 
	C421.823486,323.879913 426.830200,320.379669 430.002289,315.649231 
	C447.096313,290.157532 447.152649,263.858856 432.543823,237.202499 
	C431.922607,236.068954 431.502991,234.824936 430.967712,233.248322 
	C452.802917,252.183533 461.162506,276.434448 454.649689,304.642517 
	C448.128448,332.886963 429.838379,351.318695 401.772125,358.665466 
	C392.679626,361.045563 382.706879,360.062775 372.691589,360.554443 
	C366.769073,358.942871 361.291809,357.395111 355.432465,355.752502 
	C345.641510,350.686890 336.358734,345.546844 329.809021,336.459534 
	C336.859741,339.019440 343.637939,342.773560 350.901154,344.676758 
	C372.319336,350.289062 392.617889,347.203827 411.226624,334.814026 
	C411.961700,334.324615 412.329834,333.284088 412.886047,332.165100 
	C412.903107,331.829865 412.914062,331.921600 413.295532,331.943481 
	C414.425659,331.177643 415.174316,330.389923 416.047760,329.388794 
	C416.669556,328.766266 417.166534,328.357086 417.663483,327.947906 
z"/>
<path fill="#E04B57" opacity="1.000000" stroke="none" 
	d="
M329.173431,336.253479 
	C329.215057,335.997986 329.506409,335.885712 329.870636,335.961731 
	C329.770081,336.232269 329.596619,336.314484 329.173431,336.253479 
z"/>
<path fill="#4D5C5A" opacity="1.000000" stroke="none" 
	d="
M260.252869,114.999969 
	C260.253510,106.003487 260.184113,97.506302 260.270966,89.010712 
	C260.397247,76.657333 267.953400,69.176270 280.327789,69.072517 
	C286.324860,69.022232 292.323792,68.994728 298.320038,69.081863 
	C309.798157,69.248650 317.563904,76.687920 317.687042,88.166176 
	C317.887268,106.822945 317.803925,125.483742 317.707520,144.142151 
	C317.676453,150.154068 314.510406,153.444138 309.489655,153.272995 
	C304.770905,153.112167 302.040222,149.793564 302.005737,143.990509 
	C301.957520,135.869781 301.993591,127.748543 301.993591,119.357162 
	C293.254700,119.357162 285.001099,119.357162 276.006256,119.357162 
	C276.006256,127.634735 276.204010,135.898499 275.884460,144.142227 
	C275.789917,146.581772 274.905731,149.913193 273.180389,151.129852 
	C271.097260,152.598770 266.971100,153.506042 265.117340,152.377075 
	C262.768311,150.946487 260.639008,147.291183 260.475037,144.475357 
	C259.914215,134.845230 260.255493,125.162582 260.252869,114.999969 
M295.323303,84.884392 
	C290.159363,84.887016 284.977722,84.657242 279.843475,85.048973 
	C278.490906,85.152176 276.294037,87.090385 276.186188,88.333557 
	C275.760498,93.239769 276.011566,98.204697 276.011566,103.272751 
	C284.955750,103.272751 293.335297,103.272751 302.003418,103.272751 
	C302.003418,98.734703 301.748688,94.561874 302.071930,90.434303 
	C302.425873,85.914902 300.528687,84.313530 295.323303,84.884392 
z"/>
<path fill="#4C5B5A" opacity="1.000000" stroke="none" 
	d="
M365.264984,92.292633 
	C369.084961,86.007095 372.651489,79.991608 376.354004,74.061050 
	C379.392975,69.193375 383.640320,67.860954 387.664185,70.313202 
	C391.665863,72.751915 392.572174,77.347893 389.734100,82.112328 
	C384.622406,90.693672 379.454956,99.244560 374.133301,107.696411 
	C372.515259,110.266151 372.423431,112.243584 374.104034,114.891228 
	C379.545074,123.463264 384.735046,132.196014 389.942810,140.914032 
	C391.901611,144.193207 392.390808,148.023071 389.422089,150.541321 
	C387.457672,152.207657 383.976379,153.069916 381.396545,152.707779 
	C379.417938,152.430038 377.360931,149.952759 376.078491,147.974213 
	C371.665619,141.166183 367.577667,134.147568 362.901245,126.443642 
	C358.402252,133.842316 354.418457,140.666046 350.128723,147.291641 
	C348.741699,149.433960 346.757568,152.258636 344.677032,152.615311 
	C342.011597,153.072235 338.406403,152.079025 336.234039,150.389206 
	C333.329071,148.129471 333.700043,144.464844 335.619232,141.282913 
	C340.692291,132.872040 345.660095,124.393013 350.946045,116.117577 
	C353.063324,112.802834 353.449890,110.257576 351.103333,106.723747 
	C345.858429,98.825180 341.112732,90.591591 336.263428,82.435196 
	C333.223877,77.322800 334.020935,72.746208 338.165863,70.293388 
	C342.344299,67.820724 346.522461,69.304237 349.753357,74.550125 
	C354.001404,81.447403 358.164551,88.396965 362.672821,95.833160 
	C363.752136,94.377411 364.411255,93.488411 365.264984,92.292633 
z"/>
<path fill="#4D5C5A" opacity="1.000000" stroke="none" 
	d="
M207.182495,105.000267 
	C207.155212,98.511894 207.132095,92.523392 207.088257,86.535034 
	C207.085999,86.226608 206.906311,85.919479 206.583145,84.895195 
	C203.226028,84.895195 199.631119,84.949417 196.038437,84.882904 
	C190.159256,84.774078 186.510727,81.681496 186.538055,76.930244 
	C186.565399,72.175728 190.197678,69.106926 196.114853,69.080093 
	C208.759888,69.022758 221.405533,69.022331 234.050568,69.078949 
	C239.967239,69.105431 243.690720,72.179550 243.769257,76.863792 
	C243.846786,81.486603 240.006317,84.763878 234.250626,84.883026 
	C230.763184,84.955223 227.273026,84.896332 222.967331,84.896332 
	C222.967331,86.849960 222.967346,88.595100 222.967331,90.340233 
	C222.967194,107.977089 222.982269,125.613960 222.959091,143.250778 
	C222.950409,149.850372 220.293579,153.223206 215.193420,153.272659 
	C210.075531,153.322296 207.219528,149.891464 207.196472,143.435867 
	C207.151291,130.790771 207.182709,118.145409 207.182495,105.000267 
z"/>
<path fill="#5DB33A" opacity="1.000000" stroke="none" 
	d="
M166.068909,404.222595 
	C174.517822,383.920654 193.459793,375.071747 212.803421,380.145660 
	C226.104492,383.634583 235.449844,392.579468 239.668152,405.924500 
	C240.714111,409.233459 242.104828,410.039032 245.183701,410.059021 
	C250.443069,410.093231 253.487778,412.681183 253.967941,417.008789 
	C254.424881,421.127228 251.952316,424.322815 246.506775,425.184601 
	C241.964401,425.903442 240.156357,428.138733 238.572174,432.373901 
	C230.154938,454.876465 202.010895,463.569946 181.798111,450.600952 
	C173.658478,445.378357 168.475204,438.235931 165.430313,429.407135 
	C164.573212,426.921967 163.602509,425.827484 161.080338,425.788269 
	C159.948761,425.770691 158.831573,425.254944 157.695343,425.027954 
	C153.638977,424.217529 150.598907,420.765839 151.079926,417.044800 
	C151.647034,412.658051 154.372787,409.872437 158.781387,410.126465 
	C163.173874,410.379608 165.320160,408.712860 166.068909,404.222595 
M218.496292,400.983154 
	C208.392395,391.414276 195.261292,391.860657 185.390121,402.108551 
	C177.182770,410.629150 177.337234,425.726471 185.718445,434.192810 
	C194.781189,443.347717 210.348358,443.318817 219.411240,434.073059 
	C228.698105,424.598877 227.977707,408.648254 218.496292,400.983154 
z"/>
<path fill="#5DB33A" opacity="1.000000" stroke="none" 
	d="
M132.895050,425.207092 
	C122.896080,425.186340 113.267082,425.492096 103.747498,424.612915 
	C101.659225,424.420074 98.772766,420.185669 98.377426,417.499878 
	C97.862808,414.003693 100.300911,410.362122 104.390205,410.211060 
	C114.038422,409.854553 123.716843,409.840485 133.364914,410.189270 
	C137.232803,410.329132 139.647614,413.229797 139.932922,417.204010 
	C140.264755,421.825989 137.512192,424.146118 132.895050,425.207092 
z"/>
<path fill="#5DB33A" opacity="1.000000" stroke="none" 
	d="
M280.056366,409.998779 
	C286.532440,409.999390 292.518768,409.931122 298.502655,410.022491 
	C303.283356,410.095459 306.527069,412.795532 306.955627,416.809174 
	C307.382294,420.805054 304.405975,424.755249 299.555084,424.963379 
	C290.176697,425.365723 280.755890,425.287811 271.374756,424.889221 
	C267.105347,424.707855 265.059906,421.202545 265.134918,417.230103 
	C265.213837,413.050232 267.954620,410.563690 272.090393,410.076569 
	C274.551025,409.786774 277.071808,410.007538 280.056366,409.998779 
z"/>
<path fill="#4C5959" opacity="1.000000" stroke="none" 
	d="
M363.002747,311.002441 
	C373.946991,290.029938 384.698425,269.376190 395.553619,248.777100 
	C398.596832,243.002197 403.407410,241.604797 407.763458,244.909714 
	C411.248962,247.554108 411.758026,251.401672 409.089630,256.527008 
	C398.260132,277.327545 387.380768,298.102142 376.527802,318.890411 
	C374.911133,321.987091 373.453400,325.172729 371.716461,328.199158 
	C369.026123,332.886810 364.371552,334.391754 360.342010,332.068695 
	C356.655975,329.943634 355.663757,325.254761 357.992249,320.627960 
	C359.562408,317.508026 361.226898,314.435547 363.002747,311.002441 
z"/>
<path fill="#4B5959" opacity="1.000000" stroke="none" 
	d="
M350.849548,279.167450 
	C343.601135,270.634033 344.770630,261.254333 347.722351,252.119629 
	C349.571381,246.397522 357.218567,242.634872 363.133118,243.148865 
	C370.142029,243.757980 376.462219,248.646622 377.826569,255.372787 
	C378.670959,259.535461 379.034241,264.004425 378.510132,268.197998 
	C376.732178,282.424194 362.952179,287.941406 350.849548,279.167450 
z"/>
<path fill="#4B5959" opacity="1.000000" stroke="none" 
	d="
M417.813660,327.609314 
	C417.166534,328.357086 416.669556,328.766266 415.745667,329.523621 
	C414.517181,330.555084 413.715637,331.238342 412.914062,331.921600 
	C412.914062,331.921600 412.903107,331.829865 412.863586,331.804321 
	C400.701599,334.749725 391.918335,331.151886 389.764771,321.276764 
	C388.601807,315.943848 388.764526,309.985260 389.799683,304.591156 
	C391.229462,297.140564 397.973816,292.804626 405.651581,292.938904 
	C413.228088,293.071411 419.472168,297.848602 421.043762,305.321686 
	C422.642303,312.923126 422.832306,320.496613 417.813660,327.609314 
z"/>
<path fill="#E4646E" opacity="1.000000" stroke="none" 
	d="
M413.295532,331.943481 
	C413.715637,331.238342 414.517181,330.555084 415.620850,329.737000 
	C415.174316,330.389923 414.425659,331.177643 413.295532,331.943481 
z"/>
<path fill="#FAD787" opacity="1.000000" stroke="none" 
	d="
M295.800415,84.884583 
	C300.528687,84.313530 302.425873,85.914902 302.071930,90.434303 
	C301.748688,94.561874 302.003418,98.734703 302.003418,103.272751 
	C293.335297,103.272751 284.955750,103.272751 276.011566,103.272751 
	C276.011566,98.204697 275.760498,93.239769 276.186188,88.333557 
	C276.294037,87.090385 278.490906,85.152176 279.843475,85.048973 
	C284.977722,84.657242 290.159363,84.887016 295.800415,84.884583 
z"/>
<path fill="#6DC54A" opacity="1.000000" stroke="none" 
	d="
M218.750397,401.237152 
	C227.977707,408.648254 228.698105,424.598877 219.411240,434.073059 
	C210.348358,443.318817 194.781189,443.347717 185.718445,434.192810 
	C177.337234,425.726471 177.182770,410.629150 185.390121,402.108551 
	C195.261292,391.860657 208.392395,391.414276 218.750397,401.237152 
z"/>
</svg>