<svg version="1.1" id="Layer_1" xmlns="http://www.w3.org/2000/svg" xmlns:xlink="http://www.w3.org/1999/xlink" x="0px" y="0px"
	 width="100%" viewBox="0 0 512 512" enable-background="new 0 0 512 512" xml:space="preserve">
<path fill="#0189FF" opacity="1.000000" stroke="none" 
	d="
M0.999997,377.000000 
	C1.000000,262.645782 1.000000,148.291550 1.295964,33.784008 
	C1.851834,33.426449 2.249904,33.275360 2.351881,33.010338 
	C8.221682,17.755465 18.067705,6.752971 34.520100,2.716439 
	C34.803387,2.646936 34.845402,1.594027 35.000000,1.000000 
	C108.687561,1.000000 182.375122,1.000000 256.542847,1.261603 
	C257.039398,1.697007 257.055756,1.870808 257.049622,2.509964 
	C256.959564,12.505018 256.892029,22.034716 256.376251,31.617008 
	C186.614365,31.680809 117.300713,31.682440 47.987083,31.712923 
	C36.825352,31.717831 31.011557,37.524849 31.006908,48.595303 
	C30.990751,87.084427 30.986328,125.573586 31.007828,164.062714 
	C31.015457,177.722305 31.110033,191.381866 31.095825,205.502945 
	C31.017685,258.109650 30.995224,310.254883 31.012024,362.400085 
	C31.015024,371.713409 36.738991,378.427246 45.709362,378.619019 
	C59.854736,378.921417 74.014069,378.571045 88.616577,378.582947 
	C106.353249,378.613464 123.640831,378.558014 141.391541,378.612122 
	C158.977325,378.653503 176.099960,378.585327 193.668625,378.605682 
	C214.993881,378.698883 235.873108,378.703522 256.822205,379.190552 
	C256.890717,389.352722 256.889343,399.032471 256.431458,408.776611 
	C232.944687,408.925232 209.914459,409.009521 186.424423,409.053223 
	C138.512939,409.008331 91.061264,409.005798 43.609596,408.992004 
	C41.952480,408.991547 40.233898,409.144775 38.647755,408.777771 
	C21.536077,404.818634 8.901460,395.558075 2.937012,378.427185 
	C2.719485,377.802399 1.664623,377.469147 0.999997,377.000000 
z"/>
<path fill="#295FCC" opacity="1.000000" stroke="none" 
	d="
M256.888000,408.712250 
	C256.889343,399.032471 256.890717,389.352722 256.833496,378.984161 
	C256.774933,378.295380 257.043396,377.982880 257.505798,378.046448 
	C278.698334,378.068542 299.428497,378.027069 320.525085,377.985779 
	C321.375336,378.087738 321.859100,378.189575 322.692871,378.436523 
	C356.354980,378.640503 389.667114,378.710236 422.979279,378.725494 
	C424.617615,378.726227 426.256104,378.251312 428.368408,378.040100 
	C441.821381,378.103821 454.803223,378.273712 467.777344,378.029816 
	C470.590942,377.976898 473.719421,376.981445 476.105804,375.474548 
	C481.520386,372.055359 483.026306,366.522522 483.021210,360.354919 
	C482.982544,313.428131 483.006714,266.501282 482.989929,219.574448 
	C482.988190,214.752686 482.846130,209.930969 482.864349,204.637177 
	C482.972595,152.176956 483.006683,100.188820 482.982483,48.200699 
	C482.977173,36.797306 478.004791,31.955601 466.526245,31.952177 
	C422.369507,31.939003 378.212738,31.931128 334.056000,31.952251 
	C308.397308,31.964525 282.738647,32.035744 256.991760,31.963465 
	C256.903595,31.846489 256.824493,31.564413 256.824493,31.564413 
	C256.892029,22.034716 256.959564,12.505018 257.510620,2.495063 
	C327.419250,2.009834 396.844391,2.014217 466.269470,1.957872 
	C468.513245,1.956051 470.756500,1.333299 473.000000,1.000001 
	C476.030609,1.000000 479.061188,1.000000 482.299622,1.341503 
	C482.833557,2.044761 483.095276,2.614199 483.495148,2.738207 
	C497.157867,6.975359 506.380768,15.799952 511.189667,29.285156 
	C511.333130,29.687471 512.376343,29.768936 513.000000,30.000000 
	C513.000000,146.354233 513.000000,262.708466 512.655762,379.313660 
	C511.875000,380.214783 511.278015,380.808258 511.025635,381.523407 
	C504.822632,399.099731 488.448792,409.090546 473.607422,408.601746 
	C472.287323,408.248322 471.303497,408.018463 470.319611,408.018097 
	C423.319885,407.999634 376.320190,407.993042 329.320496,408.038574 
	C327.896210,408.039948 326.472443,408.608063 324.577515,408.941071 
	C301.774750,409.020569 279.442902,409.070953 257.054199,409.019653 
	C256.997345,408.917969 256.888000,408.712250 256.888000,408.712250 
z"/>
<path fill="#000000" opacity="1.000000" stroke="none" 
	d="
M473.943634,408.832367 
	C488.448792,409.090546 504.822632,399.099731 511.025635,381.523407 
	C511.278015,380.808258 511.875000,380.214783 512.655762,379.782288 
	C513.000000,424.259766 513.000000,468.519531 513.000000,513.000000 
	C469.646027,513.000000 426.291656,513.000000 382.236023,512.676575 
	C382.950958,511.265076 384.441345,510.260162 385.770020,509.074036 
	C390.439606,504.905396 392.256836,499.500885 390.717865,493.614166 
	C389.337616,488.334595 386.496429,483.693451 379.890137,482.599731 
	C365.090607,482.160248 350.545227,482.080109 336.064209,481.986176 
	C336.128571,481.972382 336.113434,481.841583 336.093018,481.425842 
	C335.396851,475.986450 334.770935,470.955475 334.035034,465.940704 
	C332.493195,455.433289 330.820801,444.944580 329.340424,434.428711 
	C328.155823,426.013672 327.175629,417.569885 326.563843,409.081177 
	C349.678802,409.015717 372.334747,409.026001 394.990601,408.995392 
	C421.308319,408.959808 447.625946,408.888275 473.943634,408.832367 
z"/>
<path fill="#000000" opacity="1.000000" stroke="none" 
	d="
M0.999997,377.468658 
	C1.664623,377.469147 2.719485,377.802399 2.937012,378.427185 
	C8.901460,395.558075 21.536077,404.818634 38.647755,408.777771 
	C40.233898,409.144775 41.952480,408.991547 43.609596,408.992004 
	C91.061264,409.005798 138.512939,409.008331 186.469345,409.476746 
	C185.564072,419.787750 184.246414,429.648987 182.722046,439.478180 
	C180.526001,453.638367 178.179749,467.775238 175.436432,481.955566 
	C162.830811,481.992737 150.686340,481.985382 138.541885,482.004028 
	C130.874146,482.015839 125.939896,485.617645 123.672058,492.801819 
	C121.606232,499.346039 124.029770,506.141022 129.802246,510.344116 
	C130.702286,510.999451 131.275604,512.103455 132.000000,513.000000 
	C88.404991,513.000000 44.809978,513.000000 1.000000,513.000000 
	C1.000000,467.979340 1.000000,422.958313 0.999997,377.468658 
z"/>
<path fill="#0089FF" opacity="1.000000" stroke="none" 
	d="
M132.468658,513.000000 
	C131.275604,512.103455 130.702286,510.999451 129.802246,510.344116 
	C124.029770,506.141022 121.606232,499.346039 123.672058,492.801819 
	C125.939896,485.617645 130.874146,482.015839 138.541885,482.004028 
	C150.686340,481.985382 162.830811,481.992737 175.908997,482.012238 
	C179.991226,482.059265 183.139725,482.095306 186.288269,482.105194 
	C209.819153,482.179169 233.350037,482.247955 256.912201,482.765991 
	C256.985596,492.794800 257.027710,502.376007 257.045898,512.217468 
	C257.014648,512.651855 257.007324,512.825928 257.000000,513.000000 
	C215.645767,513.000000 174.291550,513.000000 132.468658,513.000000 
z"/>
<path fill="#295FCC" opacity="1.000000" stroke="none" 
	d="
M257.069824,511.957184 
	C257.027710,502.376007 256.985596,492.794800 256.966217,482.659271 
	C256.988953,482.104919 257.103912,481.895111 257.561401,481.932678 
	C284.050385,481.927368 310.081909,481.884491 336.113434,481.841583 
	C336.113434,481.841583 336.128571,481.972382 336.383301,482.252319 
	C351.140106,482.674561 365.642212,482.816833 380.144287,482.959137 
	C386.496429,483.693451 389.337616,488.334595 390.717865,493.614166 
	C392.256836,499.500885 390.439606,504.905396 385.770020,509.074036 
	C384.441345,510.260162 382.950958,511.265076 381.767395,512.676575 
	C381.250000,513.000000 380.500000,513.000000 379.056030,512.732910 
	C376.388489,512.310486 374.415039,512.021851 372.441284,512.019714 
	C333.984161,511.978882 295.526978,511.971466 257.069824,511.957184 
z"/>
<path fill="#000000" opacity="1.000000" stroke="none" 
	d="
M34.531342,1.000000 
	C34.845402,1.594027 34.803387,2.646936 34.520100,2.716439 
	C18.067705,6.752971 8.221682,17.755465 2.351881,33.010338 
	C2.249904,33.275360 1.851834,33.426449 1.295964,33.315350 
	C1.000000,22.404552 1.000000,11.809106 1.000000,1.000000 
	C12.019975,1.000000 23.041328,1.000000 34.531342,1.000000 
z"/>
<path fill="#000000" opacity="1.000000" stroke="none" 
	d="
M513.000000,29.531342 
	C512.376343,29.768936 511.333130,29.687471 511.189667,29.285156 
	C506.380768,15.799952 497.157867,6.975359 483.495148,2.738207 
	C483.095276,2.614199 482.833557,2.044761 482.753723,1.341503 
	C492.925262,1.000000 502.850494,1.000000 513.000000,1.000000 
	C513.000000,10.353036 513.000000,19.707859 513.000000,29.531342 
z"/>
<path fill="#196FE0" opacity="1.000000" stroke="none" 
	d="
M472.531342,1.000001 
	C470.756500,1.333299 468.513245,1.956051 466.269470,1.957872 
	C396.844391,2.014217 327.419250,2.009834 257.533142,2.029707 
	C257.055756,1.870808 257.039398,1.697007 257.011505,1.261603 
	C328.687561,1.000000 400.375122,1.000000 472.531342,1.000001 
z"/>
<path fill="#196FE0" opacity="1.000000" stroke="none" 
	d="
M257.045898,512.217468 
	C295.526978,511.971466 333.984161,511.978882 372.441284,512.019714 
	C374.415039,512.021851 376.388489,512.310486 378.681030,512.732910 
	C338.645782,513.000000 298.291534,513.000000 257.468658,513.000000 
	C257.007324,512.825928 257.014648,512.651855 257.045898,512.217468 
z"/>
<path fill="#FFFFFF" opacity="1.000000" stroke="none" 
	d="
M257.043396,377.982880 
	C257.043396,377.982880 256.774933,378.295380 256.763641,378.501770 
	C235.873108,378.703522 214.993881,378.698883 193.929749,378.433350 
	C195.185257,375.385681 197.166367,372.734589 197.910004,369.772827 
	C198.616699,366.958282 198.063065,363.818207 198.005386,360.822388 
	C197.703842,345.160156 185.611267,330.248993 170.216492,328.254150 
	C160.583954,327.006012 150.692535,327.755707 140.454987,327.574493 
	C132.330154,327.571014 124.662712,327.438904 117.006180,327.669128 
	C103.744469,328.067902 93.928894,334.420288 87.300041,345.739197 
	C83.091629,352.925171 82.800812,360.910370 82.957748,368.985901 
	C83.039299,373.181946 84.425598,376.423309 88.167488,378.497009 
	C74.014069,378.571045 59.854736,378.921417 45.709362,378.619019 
	C36.738991,378.427246 31.015024,371.713409 31.012024,362.400085 
	C30.995224,310.254883 31.017685,258.109650 31.553589,205.492767 
	C51.111183,204.978775 70.141922,204.936478 89.630325,204.904541 
	C107.027588,204.921402 123.967194,204.927856 141.377655,205.025421 
	C158.791702,204.998550 175.734894,204.880585 193.162964,204.828125 
	C214.747314,204.966354 235.846786,205.039062 256.969971,205.568420 
	C257.010254,263.344360 257.026825,320.663605 257.043396,377.982880 
M141.884628,322.034943 
	C161.147385,321.538025 175.646179,305.994049 175.157974,286.362976 
	C174.693329,267.679260 159.357346,252.720596 140.171631,253.008575 
	C121.036133,253.286514 105.856491,268.820129 106.014008,287.962708 
	C106.170410,306.968689 121.762291,322.112762 141.884628,322.034943 
z"/>
<path fill="#CCEEFF" opacity="1.000000" stroke="none" 
	d="
M89.172661,204.894165 
	C70.141922,204.936478 51.111183,204.978775 31.622681,205.031265 
	C31.110033,191.381866 31.015457,177.722305 31.007828,164.062714 
	C30.986328,125.573586 30.990751,87.084427 31.006908,48.595303 
	C31.011557,37.524849 36.825352,31.717831 47.987083,31.712923 
	C117.300713,31.682440 186.614365,31.680809 256.376251,31.617008 
	C256.824493,31.564413 256.903595,31.846489 256.948151,32.424976 
	C256.986237,89.045540 256.978180,145.087616 256.983154,201.129700 
	C256.983276,202.453400 257.129425,203.777100 257.144196,205.152344 
	C257.080933,205.203873 256.946259,205.111755 256.946259,205.111755 
	C235.846786,205.039062 214.747314,204.966354 193.372620,204.551788 
	C196.833145,202.100540 198.336166,198.867569 198.090530,194.640610 
	C197.945816,192.150162 198.064758,189.645508 198.016876,187.148163 
	C197.707794,171.026749 186.645554,156.752991 170.765747,154.198151 
	C161.021912,152.630493 150.893646,153.452408 140.476501,153.144241 
	C132.865540,153.085083 125.700180,152.794647 118.572403,153.186859 
	C114.156006,153.429886 109.578880,154.116592 105.451515,155.632370 
	C91.667336,160.694611 83.188644,173.411591 83.008331,188.447571 
	C82.933128,194.718750 81.905930,201.366287 89.172661,204.894165 
M140.006119,78.813972 
	C120.089600,79.582130 105.667839,94.613319 106.021126,114.235077 
	C106.355812,132.823242 122.134377,147.925842 141.910782,147.899460 
	C160.337662,147.547516 175.376099,131.643936 175.186157,112.709824 
	C174.993149,93.473167 159.948578,78.617401 140.006119,78.813972 
z"/>
<path fill="#004EB7" opacity="1.000000" stroke="none" 
	d="
M256.934937,482.211639 
	C233.350037,482.247955 209.819153,482.179169 186.288269,482.105194 
	C183.139725,482.095306 179.991226,482.059265 176.370148,481.978699 
	C178.179749,467.775238 180.526001,453.638367 182.722046,439.478180 
	C184.246414,429.648987 185.564072,419.787750 186.929153,409.517334 
	C209.914459,409.009521 232.944687,408.925232 256.431458,408.776611 
	C256.888000,408.712250 256.997345,408.917969 257.014038,409.475769 
	C257.055115,433.987396 257.079498,457.941254 257.103882,481.895111 
	C257.103912,481.895111 256.988953,482.104919 256.934937,482.211639 
z"/>
<path fill="#FF9101" opacity="1.000000" stroke="none" 
	d="
M88.616577,378.582947 
	C84.425598,376.423309 83.039299,373.181946 82.957748,368.985901 
	C82.800812,360.910370 83.091629,352.925171 87.300041,345.739197 
	C93.928894,334.420288 103.744469,328.067902 117.006180,327.669128 
	C124.662712,327.438904 132.330154,327.571014 140.464951,328.071411 
	C140.934296,345.236053 140.931366,361.869324 140.928421,378.502563 
	C123.640831,378.558014 106.353249,378.613464 88.616577,378.582947 
z"/>
<path fill="#FC661E" opacity="1.000000" stroke="none" 
	d="
M141.391541,378.612152 
	C140.931366,361.869324 140.934296,345.236053 140.927246,328.105865 
	C150.692535,327.755707 160.583954,327.006012 170.216492,328.254150 
	C185.611267,330.248993 197.703842,345.160156 198.005386,360.822388 
	C198.063065,363.818207 198.616699,366.958282 197.910004,369.772827 
	C197.166367,372.734589 195.185257,375.385681 193.483734,378.344788 
	C176.099960,378.585327 158.977325,378.653503 141.391541,378.612152 
z"/>
<path fill="#01215A" opacity="1.000000" stroke="none" 
	d="
M257.505798,378.046448 
	C257.026825,320.663605 257.010254,263.344360 256.969971,205.568420 
	C256.946259,205.111755 257.080933,205.203873 257.599274,205.144989 
	C279.479309,205.016891 300.841034,204.947693 322.648743,204.946014 
	C340.095581,205.000458 357.096344,204.987396 374.543579,205.089569 
	C391.952667,205.098358 408.915344,204.991913 426.348297,204.966461 
	C445.468811,205.068039 464.119019,205.088638 482.769226,205.109238 
	C482.846130,209.930969 482.988190,214.752686 482.989929,219.574448 
	C483.006714,266.501282 482.982544,313.428131 483.021210,360.354919 
	C483.026306,366.522522 481.520386,372.055359 476.105804,375.474548 
	C473.719421,376.981445 470.590942,377.976898 467.777344,378.029816 
	C454.803223,378.273712 441.821381,378.103821 428.547058,377.732544 
	C432.429626,373.679962 431.828186,368.698242 431.754150,363.917877 
	C431.480438,346.236542 420.857727,331.320038 404.697021,328.533691 
	C394.712372,326.812134 384.253204,327.842468 373.536011,327.611877 
	C364.913147,327.638672 356.741730,327.349792 348.613770,327.816956 
	C333.479950,328.686768 320.442322,339.460968 317.486847,354.283691 
	C315.912476,362.179718 313.470398,370.761963 320.158630,377.985626 
	C299.428497,378.027069 278.698334,378.068542 257.505798,378.046448 
M374.865540,322.084229 
	C394.244415,321.503784 409.538208,305.541016 408.866638,286.595886 
	C408.193939,267.620453 392.364319,252.427155 373.142151,253.003922 
	C353.834229,253.718048 338.749451,269.424438 339.324402,288.215271 
	C339.908051,307.292023 355.358582,322.309235 374.865540,322.084229 
z"/>
<path fill="#FF405C" opacity="1.000000" stroke="none" 
	d="
M322.202728,204.878479 
	C300.841034,204.947693 279.479309,205.016891 257.662537,205.093445 
	C257.129425,203.777100 256.983276,202.453400 256.983154,201.129700 
	C256.978180,145.087616 256.986237,89.045540 257.036316,32.541954 
	C282.738647,32.035744 308.397308,31.964525 334.056000,31.952251 
	C378.212738,31.931128 422.369507,31.939003 466.526245,31.952177 
	C478.004791,31.955601 482.977173,36.797306 482.982483,48.200699 
	C483.006683,100.188820 482.972595,152.176956 482.864349,204.637177 
	C464.119019,205.088638 445.468811,205.068039 426.565674,204.698425 
	C431.996185,201.203827 431.859161,195.766190 431.798431,190.372574 
	C431.577362,170.739838 420.089417,156.145264 401.407684,153.514740 
	C392.432495,152.250961 383.140015,153.241028 373.525940,153.157928 
	C365.583984,153.102173 358.100128,152.886551 350.631897,153.136810 
	C330.987671,153.795135 316.600983,169.007996 316.167023,189.201111 
	C316.035706,195.312515 315.847839,201.321106 322.202728,204.878479 
M374.838684,147.904083 
	C390.142609,147.812866 403.876617,136.785446 407.695953,121.522018 
	C411.497803,106.328506 404.444122,90.074852 390.908447,82.907234 
	C385.618622,80.106094 380.180725,77.857445 373.094696,78.895142 
	C356.357544,78.364853 339.293549,92.790802 339.204285,113.677437 
	C339.124237,132.397888 354.724854,147.403976 374.838684,147.904083 
z"/>
<path fill="#192B80" opacity="1.000000" stroke="none" 
	d="
M257.561371,481.932678 
	C257.079498,457.941254 257.055115,433.987396 257.070862,409.577423 
	C279.442902,409.070953 301.774750,409.020569 324.840698,409.001282 
	C325.751465,409.067902 325.928101,409.103363 326.104736,409.138855 
	C327.175629,417.569885 328.155823,426.013672 329.340424,434.428711 
	C330.820801,444.944580 332.493195,455.433289 334.035034,465.940704 
	C334.770935,470.955475 335.396851,475.986450 336.093018,481.425842 
	C310.081909,481.884491 284.050385,481.927368 257.561371,481.932678 
z"/>
<path fill="#01E9CD" opacity="1.000000" stroke="none" 
	d="
M374.007080,327.637360 
	C384.253204,327.842468 394.712372,326.812134 404.697021,328.533691 
	C420.857727,331.320038 431.480438,346.236542 431.754150,363.917877 
	C431.828186,368.698242 432.429626,373.679962 428.073181,377.690369 
	C426.256104,378.251312 424.617615,378.726227 422.979279,378.725494 
	C389.667114,378.710236 356.354980,378.640503 323.118591,378.402222 
	C337.672180,378.214874 352.150024,378.206635 366.627869,378.199158 
	C373.994232,378.195343 373.995697,378.195923 373.997681,371.071045 
	C374.001740,356.593140 374.004059,342.115265 374.007080,327.637360 
z"/>
<path fill="#79FEE3" opacity="1.000000" stroke="none" 
	d="
M373.536011,327.611877 
	C374.004059,342.115265 374.001740,356.593140 373.997681,371.071045 
	C373.995697,378.195923 373.994232,378.195343 366.627869,378.199158 
	C352.150024,378.206635 337.672180,378.214874 322.768616,378.257080 
	C321.859100,378.189575 321.375336,378.087738 320.525085,377.985779 
	C313.470398,370.761963 315.912476,362.179718 317.486847,354.283691 
	C320.442322,339.460968 333.479950,328.686768 348.613770,327.816956 
	C356.741730,327.349792 364.913147,327.638672 373.536011,327.611877 
z"/>
<path fill="#1E68D9" opacity="1.000000" stroke="none" 
	d="
M326.563843,409.081177 
	C325.928101,409.103363 325.751465,409.067902 325.311584,408.972168 
	C326.472443,408.608063 327.896210,408.039948 329.320496,408.038574 
	C376.320190,407.993042 423.319885,407.999634 470.319611,408.018097 
	C471.303497,408.018463 472.287323,408.248322 473.607422,408.601746 
	C447.625946,408.888275 421.308319,408.959808 394.990601,408.995392 
	C372.334747,409.026001 349.678802,409.015717 326.563843,409.081177 
z"/>
<path fill="#1E6BDB" opacity="1.000000" stroke="none" 
	d="
M379.890137,482.599731 
	C365.642212,482.816833 351.140106,482.674561 336.318939,482.266113 
	C350.545227,482.080109 365.090607,482.160248 379.890137,482.599731 
z"/>
<path fill="#FE415D" opacity="1.000000" stroke="none" 
	d="
M89.630325,204.904541 
	C81.905930,201.366287 82.933128,194.718750 83.008331,188.447571 
	C83.188644,173.411591 91.667336,160.694611 105.451515,155.632370 
	C109.578880,154.116592 114.156006,153.429886 118.572403,153.186859 
	C125.700180,152.794647 132.865540,153.085083 140.479156,153.599365 
	C140.931122,171.052460 140.918961,187.993393 140.906799,204.934326 
	C123.967194,204.927856 107.027588,204.921402 89.630325,204.904541 
z"/>
<path fill="#C1136B" opacity="1.000000" stroke="none" 
	d="
M141.377655,205.025421 
	C140.918961,187.993393 140.931122,171.052460 140.940643,153.656403 
	C150.893646,153.452408 161.021912,152.630493 170.765747,154.198151 
	C186.645554,156.752991 197.707794,171.026749 198.016876,187.148163 
	C198.064758,189.645508 197.945816,192.150162 198.090530,194.640610 
	C198.336166,198.867569 196.833145,202.100540 192.887756,204.486267 
	C175.734894,204.880585 158.791702,204.998550 141.377655,205.025421 
z"/>
<path fill="#FFCC99" opacity="1.000000" stroke="none" 
	d="
M141.019989,321.963257 
	C121.762291,322.112762 106.170410,306.968689 106.014008,287.962708 
	C105.856491,268.820129 121.036133,253.286514 140.581085,253.509918 
	C141.000351,276.661926 141.010162,299.312592 141.019989,321.963257 
z"/>
<path fill="#FFB367" opacity="1.000000" stroke="none" 
	d="
M141.452301,321.999084 
	C141.010162,299.312592 141.000351,276.661926 141.017654,253.550171 
	C159.357346,252.720596 174.693329,267.679260 175.157974,286.362976 
	C175.646179,305.994049 161.147385,321.538025 141.452301,321.999084 
z"/>
<path fill="#FFCC99" opacity="1.000000" stroke="none" 
	d="
M141.081970,147.793884 
	C122.134377,147.925842 106.355812,132.823242 106.021126,114.235077 
	C105.667839,94.613319 120.089600,79.582130 140.466888,79.306458 
	C140.979095,102.463921 141.030533,125.128899 141.081970,147.793884 
z"/>
<path fill="#FFB367" opacity="1.000000" stroke="none" 
	d="
M141.496368,147.846680 
	C141.030533,125.128899 140.979095,102.463921 140.902710,79.315475 
	C159.948578,78.617401 174.993149,93.473167 175.186157,112.709824 
	C175.376099,131.643936 160.337662,147.547516 141.496368,147.846680 
z"/>
<path fill="#FFD92D" opacity="1.000000" stroke="none" 
	d="
M322.648743,204.945999 
	C315.847839,201.321106 316.035706,195.312515 316.167023,189.201111 
	C316.600983,169.007996 330.987671,153.795135 350.631897,153.136810 
	C358.100128,152.886551 365.583984,153.102173 373.528503,153.610718 
	C374.029938,171.068771 374.063538,188.021545 374.097137,204.974335 
	C357.096344,204.987396 340.095581,205.000458 322.648743,204.945999 
z"/>
<path fill="#FDBF01" opacity="1.000000" stroke="none" 
	d="
M374.543579,205.089569 
	C374.063538,188.021545 374.029938,171.068771 373.993774,153.663193 
	C383.140015,153.241028 392.432495,152.250961 401.407684,153.514740 
	C420.089417,156.145264 431.577362,170.739838 431.798431,190.372574 
	C431.859161,195.766190 431.996185,201.203827 426.095398,204.617447 
	C408.915344,204.991913 391.952667,205.098358 374.543579,205.089569 
z"/>
<path fill="#FD9833" opacity="1.000000" stroke="none" 
	d="
M373.999603,253.130524 
	C392.364319,252.427155 408.193939,267.620453 408.866638,286.595886 
	C409.538208,305.541016 394.244415,321.503784 374.432648,321.537598 
	C373.999695,298.370850 373.999634,275.750671 373.999603,253.130524 
z"/>
<path fill="#FDA54D" opacity="1.000000" stroke="none" 
	d="
M373.570862,253.067230 
	C373.999634,275.750671 373.999695,298.370850 373.999390,321.454224 
	C355.358582,322.309235 339.908051,307.292023 339.324402,288.215271 
	C338.749451,269.424438 353.834229,253.718048 373.570862,253.067230 
z"/>
<path fill="#FF9933" opacity="1.000000" stroke="none" 
	d="
M373.973145,78.903664 
	C380.180725,77.857445 385.618622,80.106094 390.908447,82.907234 
	C404.444122,90.074852 411.497803,106.328506 407.695953,121.522018 
	C403.876617,136.785446 390.142609,147.812866 374.417053,147.395203 
	C373.988007,124.225426 373.980591,101.564545 373.973145,78.903664 
z"/>
<path fill="#FFA54D" opacity="1.000000" stroke="none" 
	d="
M373.533936,78.899399 
	C373.980591,101.564545 373.988007,124.225426 373.992676,147.334259 
	C354.724854,147.403976 339.124237,132.397888 339.204285,113.677437 
	C339.293549,92.790802 356.357544,78.364853 373.533936,78.899399 
z"/>
</svg>